<?xml version="1.0" encoding="utf-8"?>
<!-- Generator: Adobe Illustrator 16.0.4, SVG Export Plug-In . SVG Version: 6.00 Build 0)  -->
<!DOCTYPE svg PUBLIC "-//W3C//DTD SVG 1.1//EN" "http://www.w3.org/Graphics/SVG/1.1/DTD/svg11.dtd">
<svg version="1.1" id="Layer_1" xmlns="http://www.w3.org/2000/svg" xmlns:xlink="http://www.w3.org/1999/xlink" x="0px" y="0px"
	 width="320.925px" height="58.25px" viewBox="0 0 320.925 58.25" enable-background="new 0 0 320.925 58.25" xml:space="preserve">
<g>
	<g>
		<path fill-rule="evenodd" clip-rule="evenodd" fill="#1464af" d="M13.536,55.907c-7.11,0.461-11.87-2.686-13.021-8.661
			c-0.688-3.572,0.443-6.66,2.669-9.426c0.154-0.197,0.308-0.395,0.462-0.592l-0.022,0.023c0.289-0.006,0.453-0.131,0.427-0.439
			l-0.016,0.016c3.314-2.166,6.997-2.481,10.844-2.394c4.877,0.108,9.761-0.043,14.642-0.081c0.085,0.055,0.168,0.114,0.248,0.177
			c0.02,0.072,0.017,0.145-0.008,0.215c-2.694,4.574-5.511,9.082-8.044,13.744C19.823,51.979,17.409,54.696,13.536,55.907z"/>
		<path fill-rule="evenodd" clip-rule="evenodd" fill="#03A102" d="M29.763,34.745c0.025-0.07,0.028-0.143,0.008-0.215l0.08-0.168
			c4.599,0.036,9.2,0.16,13.798,0.083c4.146-0.071,8.222-0.031,11.848,2.377l-0.016-0.016c-0.056,0.334,0.122,0.449,0.422,0.447
			l-0.024-0.026c-0.016,0.329,0.2,0.492,0.454,0.626c3.069,3.929,3.907,8.19,1.417,12.657c-2.549,4.571-6.731,5.978-11.741,5.395
			c-3.789-1.133-6.211-3.703-8.067-7.128C35.364,44.02,32.503,39.415,29.763,34.745z"/>
		<path fill-rule="evenodd" clip-rule="evenodd" fill="#FE3401" d="M29.771,34.53c-0.08-0.062-0.163-0.122-0.25-0.177
			c-1.999-3.525-3.979-7.061-5.999-10.572c-2.352-4.09-5.278-7.971-4.59-13.122l-0.011,0.031c0.529-0.232,0.506-0.703,0.504-1.166
			c3.368-8.218,12.383-9.104,17.415-4.641c1.522,1.35,2.551,3.028,3.323,4.887c0.998,3.867-0.193,7.26-2.157,10.547
			c-2.775,4.647-5.442,9.36-8.156,14.045L29.771,34.53z"/>
		<path fill-rule="evenodd" clip-rule="evenodd" fill="#FDAF00" d="M29.851,34.362c2.714-4.685,5.381-9.397,8.156-14.045
			c1.963-3.287,3.155-6.68,2.157-10.547c4.389,7.503,8.813,14.987,13.137,22.53c0.828,1.442,2.104,2.707,2.195,4.521
			c-3.626-2.408-7.702-2.448-11.848-2.377C39.051,34.522,34.45,34.398,29.851,34.362z"/>
		<path fill-rule="evenodd" clip-rule="evenodd" fill="#00E7E6" d="M29.763,34.745c2.74,4.67,5.601,9.274,8.179,14.032
			c1.856,3.425,4.278,5.995,8.067,7.128c-10.823,0.002-21.648,0.002-32.473,0.002c3.873-1.211,6.287-3.929,8.182-7.418
			C24.251,43.827,27.068,39.319,29.763,34.745z"/>
		<path fill-rule="evenodd" clip-rule="evenodd" fill="#FD4A8C" d="M18.933,10.659c-0.688,5.151,2.239,9.032,4.59,13.122
			c2.019,3.512,4,7.047,5.999,10.572c-4.879,0.038-9.763,0.189-14.641,0.081c-3.847-0.088-7.53,0.228-10.844,2.394
			c-0.329-0.615,0.125-1.047,0.384-1.498c4.598-7.99,9.206-15.974,13.823-23.952C18.406,11.1,18.7,10.898,18.933,10.659z"/>
		<path fill-rule="evenodd" clip-rule="evenodd" fill="#FD4A8C" d="M19.426,9.524c0.002,0.463,0.025,0.934-0.504,1.166
			C18.827,10.188,19.032,9.815,19.426,9.524z"/>
		<path fill-rule="evenodd" clip-rule="evenodd" fill="#FD4A8C" d="M4.053,36.812c0.025,0.309-0.139,0.434-0.427,0.439
			C3.605,36.946,3.662,36.717,4.053,36.812z"/>
		<path fill-rule="evenodd" clip-rule="evenodd" fill="#FDAF00" d="M55.903,37.254c-0.3,0.002-0.478-0.113-0.422-0.447
			C55.925,36.67,55.919,36.957,55.903,37.254z"/>
		<path fill-rule="evenodd" clip-rule="evenodd" fill="#FD4A8C" d="M3.647,37.229c-0.154,0.197-0.308,0.395-0.462,0.592
			C3.209,37.523,3.286,37.265,3.647,37.229z"/>
		<path fill-rule="evenodd" clip-rule="evenodd" fill="#FDAF00" d="M56.333,37.854c-0.254-0.134-0.47-0.297-0.454-0.626
			C56.247,37.279,56.317,37.546,56.333,37.854z"/>
	</g>
	<g>
		<path d="M64.274,46.552V17.754h6.046v28.798H64.274z"/>
		<path d="M93.628,36.648c0,6.125-4.575,10.501-10.501,10.501c-5.887,0-10.501-4.376-10.501-10.501
			c0-6.126,4.614-10.461,10.501-10.461C89.053,26.188,93.628,30.522,93.628,36.648z M87.582,36.648c0-3.341-2.148-4.893-4.455-4.893
			c-2.267,0-4.455,1.552-4.455,4.893c0,3.302,2.188,4.933,4.455,4.933C85.434,41.581,87.582,39.988,87.582,36.648z"/>
		<path d="M99.871,46.155c0.398,1.909,1.989,3.301,4.256,3.301c3.023,0,4.893-1.472,4.893-5.052v-0.915
			c-0.716,1.074-2.426,2.229-5.291,2.229c-5.25,0-9.188-4.137-9.188-9.627c0-5.21,3.778-9.666,9.188-9.666
			c3.222,0,4.933,1.432,5.49,2.467v-2.107h5.767v17.303c0,5.687-3.182,10.619-10.58,10.619c-5.688,0-9.308-3.5-9.865-7.04
			L99.871,46.155z M109.059,36.091c0-2.704-1.949-4.375-4.216-4.375c-2.267,0-4.256,1.671-4.256,4.375
			c0,2.705,1.83,4.376,4.256,4.376C107.309,40.467,109.059,38.796,109.059,36.091z"/>
		<path d="M138.054,36.648c0,6.125-4.575,10.501-10.501,10.501c-5.887,0-10.501-4.376-10.501-10.501
			c0-6.126,4.614-10.461,10.501-10.461C133.479,26.188,138.054,30.522,138.054,36.648z M132.008,36.648
			c0-3.341-2.148-4.893-4.455-4.893c-2.267,0-4.455,1.552-4.455,4.893c0,3.302,2.188,4.933,4.455,4.933
			C129.86,41.581,132.008,39.988,132.008,36.648z"/>
		<path d="M159.81,43.013c0,1.79,0.12,3.102,0.159,3.539h-5.808c-0.04-0.238-0.159-1.112-0.159-1.908
			c-0.915,1.352-2.904,2.347-5.29,2.347c-5.569,0-9.785-4.296-9.785-10.382c0-5.888,3.978-10.303,9.586-10.303
			c3.381,0,4.853,1.273,5.33,2.029V17.754h5.966V43.013z M149.468,41.581c2.347,0,4.455-1.671,4.455-4.933
			c0-3.302-2.108-4.893-4.455-4.893s-4.455,1.591-4.455,4.893C145.013,39.91,147.121,41.581,149.468,41.581z"/>
		<path d="M181.645,40.865c-0.954,3.419-4.097,6.284-9.108,6.284c-5.45,0-10.302-3.899-10.302-10.541
			c0-6.363,4.734-10.421,9.865-10.421c6.125,0,9.904,3.778,9.904,10.143c0,0.835-0.079,1.75-0.119,1.87h-13.762
			c0.119,2.227,2.147,3.817,4.495,3.817c2.188,0,3.42-1.034,3.978-2.585L181.645,40.865z M176.156,34.302
			c-0.08-1.511-1.114-3.341-3.978-3.341c-2.546,0-3.819,1.868-3.938,3.341H176.156z"/>
		<path d="M187.808,40.028c0.08,1.354,1.035,2.666,3.103,2.666c1.552,0,2.307-0.836,2.307-1.711c0-0.716-0.477-1.312-1.949-1.631
			l-2.268-0.517c-4.216-0.915-5.887-3.302-5.887-6.087c0-3.618,3.182-6.562,7.597-6.562c5.728,0,7.717,3.579,7.915,5.886
			l-5.011,0.915c-0.159-1.312-0.995-2.426-2.824-2.426c-1.153,0-2.148,0.676-2.148,1.71c0,0.836,0.676,1.313,1.551,1.472
			l2.625,0.518c4.096,0.834,6.085,3.302,6.085,6.205c0,3.381-2.585,6.683-7.875,6.683c-6.206,0-8.194-4.018-8.353-6.206
			L187.808,40.028z"/>
		<path d="M204.234,17.198c1.989,0,3.58,1.591,3.58,3.539c0,1.95-1.591,3.54-3.58,3.54c-1.91,0-3.501-1.59-3.501-3.54
			C200.733,18.789,202.325,17.198,204.234,17.198z M201.251,46.552V26.784h6.046v19.768H201.251z"/>
		<path d="M214.933,46.155c0.397,1.909,1.989,3.301,4.256,3.301c3.022,0,4.892-1.472,4.892-5.052v-0.915
			c-0.716,1.074-2.426,2.229-5.29,2.229c-5.25,0-9.188-4.137-9.188-9.627c0-5.21,3.778-9.666,9.188-9.666
			c3.222,0,4.932,1.432,5.489,2.467v-2.107h5.768v17.303c0,5.687-3.182,10.619-10.581,10.619c-5.688,0-9.307-3.5-9.864-7.04
			L214.933,46.155z M224.121,36.091c0-2.704-1.949-4.375-4.217-4.375c-2.267,0-4.255,1.671-4.255,4.375
			c0,2.705,1.83,4.376,4.255,4.376C222.371,40.467,224.121,38.796,224.121,36.091z"/>
		<path d="M239.592,46.552h-6.046V26.784h5.847v2.267c1.074-1.868,3.501-2.783,5.529-2.783c4.972,0,7.199,3.539,7.199,7.875v12.409
			h-6.046V35.176c0-1.948-1.034-3.42-3.221-3.42c-1.989,0-3.262,1.472-3.262,3.461V46.552z"/>
		<path fill="#FE3401" d="M261.666,46.552h-6.046V17.754h6.046v10.302c1.233-1.232,3.302-1.788,5.051-1.788
			c5.171,0,7.478,3.539,7.478,7.875v12.409h-6.046V35.176c0-1.948-1.034-3.42-3.222-3.42c-1.91,0-3.142,1.353-3.262,3.183V46.552z"
			/>
		<path fill="#FE3401" d="M290.263,44.563c-1.035,1.711-3.301,2.427-5.29,2.427c-4.813,0-7.518-3.501-7.518-7.718V26.784h6.046
			v11.217c0,1.909,1.034,3.42,3.182,3.42c2.028,0,3.301-1.393,3.301-3.381V26.784h6.046v16.229c0,1.79,0.159,3.222,0.199,3.539
			h-5.807C290.342,46.194,290.263,45.08,290.263,44.563z"/>
		<path fill="#FE3401" d="M299.768,46.552V17.754h5.926v10.899c0.835-1.233,3.023-2.348,5.728-2.348
			c5.727,0,9.188,4.376,9.188,10.303c0,6.045-3.898,10.382-9.427,10.382c-2.625,0-4.653-1.154-5.568-2.665v2.227H299.768z
			 M310.109,31.756c-2.347,0-4.495,1.552-4.495,4.893c0,3.262,2.148,4.933,4.495,4.933s4.455-1.631,4.455-4.933
			C314.564,33.308,312.456,31.756,310.109,31.756z"/>
	</g>
</g>
</svg>
