<?xml version="1.0" encoding="utf-8"?>
<!-- Generator: Adobe Illustrator 17.0.0, SVG Export Plug-In . SVG Version: 6.00 Build 0)  -->
<!DOCTYPE svg PUBLIC "-//W3C//DTD SVG 1.1//EN" "http://www.w3.org/Graphics/SVG/1.1/DTD/svg11.dtd">
<svg version="1.1" id="Layer_1" xmlns="http://www.w3.org/2000/svg" xmlns:xlink="http://www.w3.org/1999/xlink" x="0px" y="0px"
	 width="143px" height="150px" viewBox="0 0 143 150" enable-background="new 0 0 143 150" xml:space="preserve">
<g>
	<path fill="#CBCBCB" d="M16.035,90.166c0.01-1.837,0.019-3.675,0.029-5.512c-0.01-0.459-0.019-0.917-0.029-1.376
		c0.01-1.837,0.019-3.675,0.029-5.512c-0.01-0.458-0.019-0.917-0.029-1.376c0.01-1.837,0.019-3.675,0.029-5.512
		c0.02-0.232,0.041-0.463,0.06-0.695c0.717-0.02,1.013-0.649,1.488-1.024c0.735-0.58,1.146-1.578,2.217-1.723
		c-0.528,1.583-0.304,3.219-0.343,4.836c0.004,0.456,0.008,0.911,0.012,1.367c-0.593,2.298-0.433,4.594,0.011,6.89
		c-0.007,1.838-0.013,3.676-0.02,5.514c-0.011,1.943-0.539,3.856-0.33,5.812c0.097,0.903,0.407,1.846,0.248,2.702
		c-0.414,2.237-0.32,4.431,0.102,6.637c-0.007,1.838-0.013,3.676-0.02,5.514c-0.164,2.754-0.715,5.51,0.02,8.262
		c-0.007,1.838-0.013,3.676-0.02,5.513c-0.164,2.754-0.715,5.51,0.02,8.262c-0.007,1.838-0.013,3.676-0.02,5.513
		c-0.164,2.754-0.714,5.509,0.019,8.262c-0.376,0.825-0.271,1.652-0.008,2.479c-0.569-0.16-1.137-0.319-1.706-0.478
		c-0.265-0.414-0.599-0.753-1.058-0.951c-0.116-0.117-0.232-0.234-0.348-0.352c-0.11-5.745-0.221-11.49-0.331-17.234
		c-0.004-0.46-0.008-0.92-0.012-1.38c0.004-1.836,0.008-3.672,0.012-5.508c-0.004-0.46-0.008-0.92-0.012-1.38
		c0.004-1.836,0.008-3.672,0.012-5.508c-0.004-0.46-0.008-0.92-0.012-1.38c0.016-1.606,0.885-3.208,0.021-4.818
		c-0.01-0.69-0.02-1.38-0.03-2.069c0.01-1.837,0.019-3.675,0.029-5.512c-0.01-0.458-0.019-0.917-0.029-1.375
		c0.01-1.837,0.019-3.675,0.029-5.512C16.054,91.083,16.045,90.624,16.035,90.166z"/>
	<path fill="#CBCBCB" d="M80.111,124.299c3.708-1.736,7.13-3.98,10.661-6.029c1.368-0.794,2.67-1.704,4.161-2.271
		c0.62,2.968-0.858,4.493-3.417,5.748c-2.646,1.298-5.255,2.762-7.627,4.567c-1.527,0.514-2.833,1.42-4.131,2.339
		c-2.485,1.049-4.688,2.61-7.049,3.884c-0.502,0.271-0.953,0.637-1.545,0.705c0.102-1.111,1.132-1.519,1.72-2.26
		c1.192-1.503,3.045-2.429,3.78-4.331C77.813,125.866,78.962,125.083,80.111,124.299z"/>
	<path fill="#E9E9EA" d="M55.657,128.724c-0.345,0.118-0.69,0.235-1.035,0.353c0.403-1.414,1.724-2.061,2.595-3.083
		c0.726-0.853,0.353-1.045-0.523-1.037c3.314-3.373,6.631-6.743,9.939-10.122c0.468-0.478,1.097-0.863,1.096-1.657
		c1.151-0.756,2.301-1.513,3.452-2.269c0.218-0.037,0.436-0.073,0.654-0.11c0.024,0.809-0.632,1.18-1.1,1.652
		c-2.818,2.84-5.66,5.657-8.474,8.501c-0.389,0.393-1.024,0.697-0.912,1.576c2.682-1.036,4.746-2.97,7.376-3.779
		c0.003,0.922,0.006,1.845,0.009,2.767c-3.237,2.97-6.349,6.065-9.307,9.314c-0.478-0.025-0.818-0.254-1.021-0.688
		c2.182-2.287,4.365-4.575,6.821-7.149c-1.544,0.06-2.305,0.85-3.111,1.358C59.919,125.736,57.264,126.467,55.657,128.724z"/>
	<path fill="#E9E9EA" d="M125.23,5.449c0.695,0.03,1.064,0.493,1.374,1.034c0,0.115,0,0.23,0,0.345
		c-2.396,2.342-4.792,4.684-7.189,7.025c-0.259,0.253-0.381,0.558-0.383,0.916c-1.161,0.76-2.321,1.52-3.482,2.281
		c-2.853,1.565-5.705,3.131-8.557,4.696c-0.077-0.82,0.571-1.204,1.04-1.676c2.861-2.879,5.739-5.741,8.602-8.618
		c0.433-0.435,1.01-0.79,1.019-1.517C120.054,8.228,122.66,6.87,125.23,5.449z"/>
	<path fill="#EAEAEA" d="M126.926,77.419c0.008,1.494,0.016,2.988,0.024,4.483c-0.01,0.284-0.068,0.544-0.347,0.692
		c-1.606,1.506-3.457,2.785-4.475,4.834c-0.947,1.086-2.614,1.127-3.448,2.377c-0.86,0.173-1.545,0.709-2.308,1.086
		c-2.144,1.058-3.973,2.695-6.298,3.413c-0.004-0.734,0.58-1.089,1.014-1.525c2.751-2.767,5.519-5.516,8.267-8.285
		c0.466-0.47,1.143-0.846,0.996-1.689c0.398-0.522,1.175-0.593,1.471-1.237c1.072-0.183,1.49-1.193,2.246-1.776
		C125.048,79.037,125.597,77.758,126.926,77.419z"/>
	<path fill="#CBCBCB" d="M125.23,5.449c-2.569,1.421-5.176,2.78-7.577,4.486c-1.465,0.644-2.897,1.346-4.145,2.369
		c-0.511,0.238-1.037,0.448-1.529,0.719c-2.478,1.367-4.947,2.75-7.419,4.128c0.73-1.798,2.479-2.702,3.624-4.135
		c0.544-0.68,1.52-1.054,1.523-2.123c1.156-0.765,2.313-1.53,3.469-2.295c2.244-1.255,4.517-2.46,6.718-3.787
		c0.928-0.559,1.854-0.845,2.91-0.809c0.339,0.15,0.678,0.3,1.016,0.449C124.29,4.784,124.76,5.116,125.23,5.449z"/>
	<path fill="#E9E9EA" d="M21.556,145.97c-0.381-0.023-0.794,0.047-1.053-0.346c1.112,0.101,1.959-0.371,2.727-1.144
		c3.735-3.763,7.493-7.503,11.24-11.254c0.397-0.397,0.888-0.745,0.873-1.403c1.036-0.671,2.071-1.341,3.107-2.012
		c0.217-0.037,0.434-0.075,0.651-0.112c0.072,0.825-0.592,1.198-1.06,1.669c-2.824,2.846-5.672,5.669-8.493,8.519
		c-0.391,0.395-1.023,0.701-0.933,1.503c1.237-0.202,2.019-1.015,2.967-1.505c2.06-1.066,3.897-2.558,6.165-3.223
		c-0.798,1.46-2.62,2.091-3.092,3.815c-1.149,0.783-2.299,1.567-3.448,2.35c-2.055,0.634-3.665,2.201-5.773,2.738
		c-0.819,0.209-1.619,0.479-2.479,0.429C22.489,145.986,22.023,145.978,21.556,145.97z"/>
	<path fill="#E9E9EA" d="M47.395,133.535c-2.284,0.925-4.288,2.362-6.44,3.528c-0.701,0.379-1.347,0.87-2.166,0.987
		c0.265-1.328,1.509-1.864,2.271-2.789c0.737-0.893,0.232-1.002-0.552-1.007c3.311-3.37,6.625-6.736,9.928-10.112
		c0.465-0.476,1.106-0.853,1.095-1.652c1.159-0.746,2.319-1.492,3.478-2.239c0.216-0.042,0.433-0.084,0.649-0.126
		c0.006,0.73-0.572,1.085-1.004,1.519c-2.979,2.993-5.975,5.968-8.945,8.97c-0.381,0.385-1.054,0.674-0.838,1.584
		c0.885-0.53,1.621-1.076,2.438-1.439c2.274-1.009,4.136-2.817,6.625-3.398c-0.795,1.464-2.628,2.089-3.09,3.822
		C49.695,131.968,48.544,132.752,47.395,133.535z"/>
	<path fill="#E9E9EA" d="M35.343,131.822c0.015,0.658-0.476,1.005-0.873,1.403c-3.746,3.752-7.505,7.491-11.24,11.254
		c-0.767,0.773-1.614,1.246-2.727,1.144c-0.462-0.006-0.947,0.026-1.003-0.626c-0.263-0.826-0.368-1.653,0.008-2.478
		c2.02-1.208,3.652-2.801,4.824-4.852c0.904,0.167,1.44-0.489,2.074-0.925C29.385,135.102,32.364,133.462,35.343,131.822z"/>
	<path fill="#CBCBCB" d="M58.406,130.142c0.203,0.433,0.543,0.663,1.021,0.687c0.947,1.019,2.233,1.455,3.45,2.009
		c0.464,0.012,0.928,0.024,1.391,0.036c0.839,0.109,1.536-0.263,2.267-0.602c2.059-0.955,3.836-2.432,5.992-3.2
		c-0.083,1.05-1.048,1.44-1.604,2.135c-1.234,1.543-3.133,2.501-3.908,4.448c-0.633,0.745-1.506,0.939-2.414,1.05
		c-1.337,0.137-2.535-0.391-3.761-0.788c-0.218-0.402-0.566-0.611-1.01-0.678c-0.993-0.963-2.28-1.431-3.474-2.055
		c-0.1-0.222-0.2-0.445-0.299-0.667c0.004-1.125,0.009-2.25,0.012-3.375C56.992,129.138,57.386,130.372,58.406,130.142z"/>
	<path fill="#CBCBCB" d="M60.804,39.134c1.152-0.77,2.304-1.539,3.455-2.308c2.474-1.39,4.951-2.775,7.421-4.173
		c0.494-0.28,0.949-0.634,1.54-0.694c-0.479,1.588-2.02,2.276-2.949,3.482c-0.719,0.933-1.979,1.431-2.212,2.753
		c-1.149,0.784-2.298,1.568-3.447,2.353c-0.583,0.081-1.042,0.42-1.538,0.701c-2.465,1.395-4.944,2.765-7.418,4.144
		c0.731-1.797,2.479-2.702,3.624-4.135C59.823,40.576,60.799,40.202,60.804,39.134z"/>
	<path fill="#CBCBCB" d="M28.458,57.779c1.149-0.769,2.298-1.538,3.448-2.306c2.366-1.028,4.508-2.457,6.725-3.753
		c0.585-0.342,1.241-0.564,1.865-0.841c-0.028,0.988-0.924,1.351-1.435,1.99c-1.177,1.473-2.994,2.387-3.718,4.256
		c-0.898,1.152-2.511,1.259-3.447,2.356c-0.855,0.187-1.548,0.704-2.303,1.103c-2.113,1.118-4.05,2.56-6.299,3.426
		c0.058-0.994,0.964-1.366,1.486-2.019C25.945,60.536,27.733,59.622,28.458,57.779z"/>
	<path fill="#CBCBCB" d="M44.624,48.452c0.938-1.092,2.485-1.264,3.465-2.293c2.675-1.498,5.348-2.999,8.026-4.49
		c0.291-0.162,0.615-0.262,0.924-0.391c-0.507,1.567-2.031,2.265-2.962,3.469c-0.719,0.929-1.979,1.426-2.203,2.75
		c-0.932,1.104-2.548,1.208-3.448,2.358c-0.306,0.136-0.624,0.251-0.917,0.412c-2.681,1.473-5.358,2.954-8.036,4.433
		c0.614-1.74,2.318-2.536,3.371-3.895C43.446,50.028,44.538,49.619,44.624,48.452z"/>
	<path fill="#CBCBCB" d="M93.55,20.232c0.946-1.071,2.443-1.321,3.442-2.313c2.675-1.497,5.348-2.998,8.028-4.488
		c0.29-0.162,0.614-0.263,0.923-0.392c-0.509,1.566-2.031,2.265-2.963,3.468c-0.719,0.929-1.978,1.426-2.203,2.749
		c-1.149,0.787-2.298,1.574-3.447,2.361c-0.307,0.135-0.62,0.257-0.919,0.408c-2.731,1.382-5.197,3.246-8.035,4.434
		c0.49-1.58,2.023-2.273,2.955-3.477C92.053,22.052,93.302,21.545,93.55,20.232z"/>
	<path fill="#CBCBCB" d="M77.361,29.539c1.149-0.769,2.299-1.538,3.448-2.306c2.367-1.026,4.508-2.457,6.725-3.752
		c0.586-0.342,1.24-0.568,1.863-0.847c0,0.93-0.832,1.278-1.31,1.873c-1.217,1.514-3.086,2.456-3.842,4.374
		c-1.01,0.989-2.497,1.282-3.446,2.36c-0.856,0.185-1.548,0.705-2.303,1.104c-2.114,1.116-4.049,2.562-6.299,3.424
		c0.086-1.051,1.05-1.444,1.61-2.138C74.941,32.225,76.663,31.327,77.361,29.539z"/>
	<path fill="#EAEAEA" d="M126.951,26.8c-0.002,0.231-0.003,0.462-0.005,0.694c-0.718-0.005-1.059,0.571-1.497,0.986
		c-1.221,1.156-2.43,2.324-3.643,3.487c-0.045-1.492-0.089-2.983-0.134-4.475c0.049-0.343,0.097-0.685,0.146-1.028
		c1.154-0.226,1.608-1.323,2.433-1.958c0.914-0.703,1.418-1.905,2.675-2.189C126.934,23.811,126.942,25.305,126.951,26.8z"/>
	<path fill="#EAEAEA" d="M126.951,75.015c-0.002,0.231-0.003,0.462-0.005,0.694c-0.718-0.005-1.059,0.571-1.497,0.985
		c-1.221,1.156-2.43,2.324-3.643,3.487c-0.045-1.492-0.089-2.983-0.133-4.475c0.05-0.346,0.099-0.691,0.149-1.037
		c1.082-0.164,1.49-1.186,2.246-1.765c0.983-0.754,1.531-2.034,2.859-2.373C126.934,72.026,126.942,73.52,126.951,75.015z"/>
	<path fill="#EAEAEA" d="M126.951,19.912c-0.002,0.231-0.003,0.462-0.005,0.694c-0.718-0.005-1.059,0.571-1.497,0.986
		c-1.221,1.156-2.43,2.324-3.643,3.487c-0.045-1.492-0.089-2.983-0.134-4.475c0.049-0.342,0.097-0.685,0.146-1.028
		c1.154-0.226,1.608-1.323,2.433-1.958c0.914-0.703,1.418-1.905,2.675-2.189C126.934,16.923,126.942,18.418,126.951,19.912z"/>
	<path fill="#EAEAEA" d="M126.951,54.351c-0.002,0.231-0.003,0.462-0.005,0.694c-0.718-0.005-1.059,0.571-1.497,0.986
		c-1.221,1.156-2.43,2.324-3.643,3.487c-0.045-1.492-0.089-2.983-0.134-4.475c0.05-0.346,0.099-0.691,0.149-1.037
		c1.082-0.164,1.49-1.186,2.246-1.765c0.983-0.754,1.531-2.034,2.859-2.373C126.934,51.362,126.942,52.857,126.951,54.351z"/>
	<path fill="#EAEAEA" d="M126.951,33.688c-0.002,0.231-0.003,0.462-0.005,0.694c-0.718-0.005-1.059,0.571-1.497,0.986
		c-1.221,1.156-2.43,2.324-3.643,3.487c-0.045-1.492-0.089-2.983-0.134-4.475c0.049-0.343,0.097-0.685,0.146-1.028
		c1.154-0.226,1.608-1.323,2.433-1.958c0.914-0.703,1.418-1.905,2.675-2.189C126.934,30.699,126.942,32.193,126.951,33.688z"/>
	<path fill="#EAEAEA" d="M126.951,40.576c-0.002,0.231-0.003,0.462-0.005,0.694c-0.718-0.005-1.059,0.571-1.497,0.986
		c-1.221,1.156-2.43,2.324-3.643,3.487c-0.045-1.492-0.089-2.983-0.134-4.475c0.05-0.346,0.099-0.691,0.149-1.037
		c1.082-0.164,1.49-1.186,2.246-1.765c0.983-0.754,1.531-2.034,2.859-2.373C126.934,37.587,126.942,39.081,126.951,40.576z"/>
	<path fill="#EAEAEA" d="M126.951,47.463c-0.002,0.231-0.003,0.462-0.005,0.694c-0.718-0.005-1.059,0.571-1.497,0.986
		c-1.221,1.156-2.43,2.324-3.643,3.487c0.005-1.833,0.01-3.667,0.015-5.5c1.072-0.182,1.49-1.193,2.246-1.775
		c0.982-0.757,1.531-2.036,2.86-2.374C126.934,44.474,126.942,45.969,126.951,47.463z"/>
	<path fill="#EAEAEA" d="M126.951,68.127c-0.002,0.231-0.003,0.462-0.005,0.694c-0.718-0.005-1.059,0.571-1.497,0.986
		c-1.221,1.156-2.43,2.324-3.643,3.487c-0.045-1.492-0.089-2.983-0.134-4.475c0.05-0.346,0.099-0.691,0.149-1.037
		c1.082-0.164,1.49-1.186,2.246-1.765c0.983-0.754,1.531-2.034,2.859-2.373C126.934,65.138,126.942,66.632,126.951,68.127z"/>
	<path fill="#EAEAEA" d="M126.951,61.239c-0.002,0.231-0.003,0.462-0.005,0.694c-0.718-0.005-1.059,0.571-1.497,0.986
		c-1.221,1.156-2.43,2.324-3.643,3.487c-0.045-1.492-0.089-2.983-0.134-4.475c0.05-0.346,0.099-0.691,0.149-1.037
		c1.082-0.164,1.49-1.186,2.246-1.765c0.983-0.754,1.531-2.034,2.859-2.373C126.934,58.25,126.942,59.744,126.951,61.239z"/>
	<path fill="#EAEAEA" d="M126.951,13.024c-0.002,0.231-0.003,0.462-0.005,0.694c-0.718-0.005-1.059,0.571-1.497,0.986
		c-1.221,1.156-2.43,2.324-3.643,3.487c-0.008-1.492-0.016-2.984-0.024-4.477c1.298-2.139,3.037-3.84,5.145-5.173
		C126.934,10.035,126.942,11.53,126.951,13.024z"/>
	<path fill="#CBCBCB" d="M28.458,57.779c-0.724,1.843-2.512,2.757-3.679,4.213c-0.523,0.652-1.428,1.024-1.486,2.019
		c-1.264,1.031-2.726,1.862-3.463,3.426c-1.072,0.145-1.482,1.143-2.217,1.723c-0.475,0.374-0.771,1.004-1.488,1.024
		c-0.027-0.226-0.054-0.452-0.081-0.679c0.086-0.467-0.09-0.997,0.329-1.386c0.664,0.039,1.007-0.46,1.403-0.854
		c1.895-1.886,3.786-3.777,5.672-5.672c0.394-0.396,0.892-0.738,0.865-1.4c0.976-1.05,2.513-1.279,3.464-2.367
		C28.004,57.811,28.231,57.795,28.458,57.779z"/>
	<path fill="#E9E9EA" d="M58.406,130.142c-1.02,0.23-1.414-1.003-2.336-1c-0.137-0.139-0.275-0.278-0.413-0.418
		c1.606-2.257,4.262-2.988,6.46-4.374c0.805-0.508,1.567-1.298,3.111-1.358C62.771,125.567,60.589,127.854,58.406,130.142z"/>
	<path fill="#CBCBCB" d="M24.313,60.193c0.027,0.661-0.471,1.004-0.865,1.4c-1.886,1.895-3.777,3.786-5.672,5.672
		c-0.396,0.394-0.739,0.893-1.403,0.854c-0.136-2.466,1.141-4.13,3.136-5.305C21.079,61.888,22.569,60.804,24.313,60.193z"/>
	<path fill="#C5C5C4" d="M67.704,135.609c-0.229,0.015-0.458,0.031-0.688,0.046c0.775-1.947,2.674-2.905,3.908-4.448
		c0.556-0.695,1.521-1.085,1.604-2.135c0.935-1.109,2.424-1.42,3.449-2.4c0.229-0.008,0.458-0.016,0.687-0.023
		c-0.735,1.903-2.588,2.829-3.78,4.331c-0.588,0.741-1.618,1.149-1.72,2.26C70.01,134.031,68.857,134.82,67.704,135.609z"/>
	<path fill="#CBCBCB" d="M44.624,48.452c-0.086,1.167-1.178,1.576-1.781,2.353c-1.053,1.359-2.756,2.155-3.371,3.895
		c-1.149,0.8-2.299,1.601-3.448,2.401c-0.228,0.008-0.456,0.016-0.684,0.024c0.725-1.869,2.541-2.783,3.718-4.256
		c0.511-0.639,1.407-1.002,1.435-1.99c0.971-1.055,2.416-1.42,3.458-2.371C44.177,48.489,44.401,48.471,44.624,48.452z"/>
	<path fill="#CBCBCB" d="M77.361,29.539c-0.698,1.788-2.419,2.686-3.555,4.092c-0.561,0.694-1.524,1.087-1.611,2.138
		c-0.937,1.106-2.422,1.424-3.449,2.4c-0.229,0.008-0.458,0.016-0.687,0.024c0.233-1.322,1.493-1.82,2.212-2.753
		c0.929-1.206,2.47-1.894,2.949-3.482c0.97-1.058,2.513-1.281,3.461-2.371C76.908,29.572,77.134,29.556,77.361,29.539z"/>
	<path fill="#CBCBCB" d="M84.244,28.882c0.757-1.919,2.625-2.861,3.842-4.374c0.478-0.595,1.31-0.943,1.31-1.873
		c1.154-0.788,2.307-1.576,3.461-2.364c0.231-0.012,0.462-0.025,0.693-0.038c-0.248,1.312-1.497,1.819-2.218,2.751
		c-0.932,1.203-2.465,1.897-2.955,3.477c-1.028,0.975-2.516,1.29-3.449,2.401C84.7,28.868,84.472,28.875,84.244,28.882z"/>
	<path fill="#CBCBCB" d="M51.874,47.497c0.225-1.324,1.485-1.821,2.203-2.75c0.931-1.204,2.455-1.902,2.962-3.469
		c1.031-0.697,2.061-1.394,3.092-2.091c0.224-0.018,0.449-0.035,0.673-0.053c-0.005,1.067-0.981,1.441-1.524,2.121
		c-1.145,1.433-2.893,2.337-3.624,4.135c-1.03,0.695-2.061,1.391-3.091,2.086C52.334,47.484,52.104,47.491,51.874,47.497z"/>
	<path fill="#CBCBCB" d="M109.037,10.956c0.223-0.02,0.446-0.041,0.669-0.062c-0.003,1.068-0.98,1.442-1.524,2.122
		c-1.145,1.433-2.894,2.337-3.624,4.135c-1.03,0.695-2.061,1.391-3.091,2.086c-0.23,0.007-0.46,0.014-0.691,0.02
		c0.225-1.324,1.484-1.821,2.203-2.75c0.931-1.203,2.454-1.903,2.963-3.468C106.975,12.345,108.006,11.65,109.037,10.956z"/>
	<path fill="#E9E9EA" d="M126.926,8.541c-2.108,1.333-3.847,3.034-5.145,5.173c-0.897-0.134-1.447,0.502-2.086,0.94
		c-0.221,0.038-0.442,0.077-0.664,0.115c0.002-0.358,0.124-0.664,0.383-0.916c2.397-2.341,4.793-4.683,7.189-7.025
		c0.278,0.151,0.335,0.416,0.361,0.698C126.952,7.864,126.939,8.203,126.926,8.541z"/>
	<path fill="#E9E9EA" d="M35.34,140.451c-0.228,0.008-0.456,0.017-0.683,0.025c0.472-1.724,2.295-2.354,3.092-3.815
		c0.92-0.802,1.839-1.604,2.759-2.407c0.784,0.005,1.289,0.113,0.552,1.007c-0.763,0.925-2.007,1.461-2.271,2.789
		C37.85,139.154,36.369,139.479,35.34,140.451z"/>
	<path fill="#E9E9EA" d="M51.532,131.165c-0.229,0.007-0.458,0.013-0.687,0.02c0.462-1.733,2.295-2.358,3.09-3.822
		c0.92-0.802,1.84-1.604,2.76-2.406c0.875-0.008,1.249,0.184,0.523,1.037c-0.871,1.023-2.192,1.669-2.595,3.083
		C53.592,129.773,52.562,130.469,51.532,131.165z"/>
	<path fill="#E9E9EA" d="M126.926,56.756c-1.329,0.338-1.876,1.619-2.859,2.373c-0.756,0.579-1.164,1.601-2.246,1.765
		c-0.09-0.117-0.179-0.234-0.269-0.351c0.084-0.342,0.169-0.684,0.253-1.025c1.214-1.163,2.423-2.331,3.643-3.487
		c0.438-0.415,0.779-0.991,1.497-0.986c0.006,0.232,0.012,0.464,0.019,0.695C126.952,56.079,126.939,56.417,126.926,56.756z"/>
	<path fill="#E9E9EA" d="M121.805,73.293c1.214-1.163,2.423-2.331,3.643-3.487c0.438-0.415,0.779-0.991,1.497-0.986
		c0.006,0.232,0.012,0.464,0.019,0.695c-0.013,0.339-0.025,0.677-0.038,1.016c-1.329,0.338-1.876,1.618-2.859,2.373
		c-0.756,0.579-1.164,1.601-2.246,1.765c-0.088-0.118-0.176-0.236-0.263-0.354C121.64,73.974,121.722,73.634,121.805,73.293z"/>
	<path fill="#E9E9EA" d="M121.805,66.405c1.214-1.163,2.423-2.331,3.643-3.487c0.438-0.415,0.779-0.991,1.497-0.986
		c0.006,0.232,0.012,0.463,0.019,0.695c-0.013,0.339-0.025,0.677-0.038,1.016c-1.329,0.338-1.876,1.618-2.859,2.373
		c-0.756,0.579-1.164,1.601-2.246,1.765c-0.088-0.118-0.176-0.236-0.263-0.354C121.64,67.086,121.722,66.746,121.805,66.405z"/>
	<path fill="#E9E9EA" d="M121.805,52.63c1.214-1.163,2.423-2.331,3.643-3.487c0.438-0.415,0.779-0.991,1.497-0.986
		c0.006,0.232,0.012,0.463,0.019,0.695c-0.013,0.339-0.025,0.677-0.038,1.015c-1.329,0.338-1.876,1.618-2.859,2.373
		c-0.756,0.579-1.164,1.601-2.246,1.765c-0.088-0.118-0.176-0.236-0.263-0.354C121.64,53.311,121.722,52.97,121.805,52.63z"/>
	<path fill="#E9E9EA" d="M126.926,36.092c-1.329,0.339-1.876,1.619-2.859,2.373c-0.756,0.579-1.164,1.601-2.246,1.765
		c-0.09-0.117-0.179-0.234-0.269-0.351c0.084-0.342,0.169-0.684,0.253-1.025c1.214-1.163,2.423-2.331,3.643-3.487
		c0.438-0.415,0.779-0.991,1.497-0.986c0.006,0.232,0.012,0.464,0.019,0.695C126.952,35.415,126.939,35.754,126.926,36.092z"/>
	<path fill="#E9E9EA" d="M121.805,25.078c1.214-1.163,2.423-2.331,3.643-3.487c0.438-0.415,0.779-0.991,1.497-0.986
		c0.006,0.232,0.012,0.464,0.019,0.695c-0.013,0.339-0.025,0.677-0.038,1.016c-1.257,0.284-1.762,1.486-2.675,2.189
		c-0.825,0.635-1.279,1.732-2.433,1.958c-0.046-0.23-0.091-0.459-0.136-0.689C121.723,25.543,121.764,25.311,121.805,25.078z"/>
	<path fill="#E9E9EA" d="M121.805,18.191c1.214-1.163,2.423-2.331,3.643-3.487c0.438-0.415,0.779-0.991,1.497-0.986
		c0.006,0.232,0.012,0.464,0.019,0.695c-0.013,0.339-0.025,0.677-0.038,1.016c-1.257,0.284-1.762,1.486-2.675,2.189
		c-0.825,0.635-1.279,1.732-2.433,1.958c-0.046-0.23-0.091-0.459-0.136-0.689C121.723,18.655,121.764,18.423,121.805,18.191z"/>
	<path fill="#E9E9EA" d="M121.805,80.181c1.214-1.163,2.423-2.331,3.643-3.487c0.438-0.415,0.779-0.991,1.497-0.985
		c0.006,0.232,0.012,0.463,0.019,0.695c-0.013,0.339-0.025,0.677-0.038,1.015c-1.329,0.339-1.878,1.618-2.86,2.374
		c-0.756,0.582-1.174,1.593-2.246,1.775C121.815,81.106,121.81,80.643,121.805,80.181z"/>
	<path fill="#E9E9EA" d="M126.926,42.98c-1.329,0.339-1.878,1.618-2.86,2.374c-0.756,0.582-1.174,1.593-2.246,1.775
		c-0.005-0.463-0.01-0.925-0.015-1.388c1.214-1.163,2.423-2.331,3.643-3.487c0.438-0.415,0.779-0.991,1.497-0.986
		c0.006,0.232,0.012,0.464,0.019,0.695C126.952,42.303,126.939,42.641,126.926,42.98z"/>
	<path fill="#E9E9EA" d="M126.926,29.204c-1.257,0.284-1.762,1.486-2.675,2.189c-0.825,0.635-1.279,1.732-2.433,1.958
		c-0.046-0.23-0.091-0.46-0.136-0.691c0.041-0.232,0.083-0.463,0.124-0.695c1.214-1.163,2.423-2.331,3.643-3.487
		c0.438-0.415,0.779-0.991,1.497-0.986c0.006,0.232,0.012,0.463,0.019,0.695C126.952,28.527,126.939,28.866,126.926,29.204z"/>
	<path fill="#EAEAEA" d="M126.603,82.594c0.001,0.345,0.001,0.689,0.002,1.034c-0.939,1.587-2.168,2.885-3.787,3.792
		c-0.23,0.003-0.46,0.006-0.69,0.009C123.146,85.379,124.997,84.1,126.603,82.594z"/>
	<path fill="#CBCBCB" d="M94.919,116.014c0.009-0.273,0.047-0.531,0.326-0.673C95.239,115.616,95.179,115.864,94.919,116.014z"/>
	<path fill="#E5E5E5" d="M19.51,101.193c-0.422-2.206-0.516-4.399-0.102-6.637c0.158-0.856-0.152-1.799-0.248-2.702
		c-0.209-1.955,0.32-3.869,0.33-5.812c0.506-0.448,0.993-0.919,1.521-1.338c1.133-0.899,1.785-2.365,3.308-2.801
		c0.059,0.228,0.119,0.456,0.179,0.684c-0.169,1.61-0.21,3.22,0.031,4.828c-0.202,0.684-0.218,1.37-0.032,2.06
		c-0.166,1.61-0.209,3.22,0.031,4.828c-0.2,0.684-0.217,1.371-0.031,2.06c-0.053,0.231-0.106,0.462-0.16,0.694
		c-0.507,0.445-0.997,0.91-1.524,1.329C21.68,99.287,21.022,100.744,19.51,101.193z"/>
	<path fill="#E5E5E5" d="M19.51,114.969c-0.735-2.752-0.184-5.508-0.02-8.262c0.506-0.448,0.993-0.919,1.521-1.338
		c1.133-0.899,1.785-2.365,3.308-2.801c0.059,0.228,0.119,0.456,0.179,0.684c-0.169,1.61-0.21,3.22,0.03,4.828
		c-0.2,0.684-0.217,1.371-0.031,2.06c-0.053,0.231-0.106,0.462-0.16,0.694c-0.507,0.444-0.997,0.91-1.524,1.329
		C21.68,113.062,21.022,114.52,19.51,114.969z"/>
	<path fill="#E5E5E5" d="M24.332,137.667c-1.172,2.051-2.804,3.645-4.824,4.853c-0.733-2.752-0.183-5.507-0.019-8.262
		c0.506-0.448,0.993-0.919,1.521-1.338c1.133-0.899,1.785-2.365,3.308-2.801c0.059,0.228,0.119,0.456,0.179,0.684
		c-0.162,1.614-0.214,3.228,0.03,4.84C24.462,136.317,24.397,136.992,24.332,137.667z"/>
	<path fill="#E5E5E5" d="M19.51,128.744c-0.735-2.752-0.184-5.508-0.02-8.262c0.506-0.448,0.993-0.919,1.521-1.338
		c1.133-0.899,1.785-2.365,3.308-2.801c0.059,0.228,0.119,0.456,0.179,0.684c-0.169,1.611-0.21,3.22,0.031,4.828
		c-0.202,0.684-0.218,1.37-0.032,2.06c-0.053,0.231-0.106,0.462-0.16,0.694c-0.507,0.445-0.997,0.91-1.524,1.329
		C21.68,126.838,21.022,128.295,19.51,128.744z"/>
	<path fill="#E9E9EA" d="M19.829,67.437c0.737-1.564,2.199-2.395,3.463-3.426c2.249-0.866,4.186-2.308,6.299-3.426
		c0.755-0.4,1.448-0.916,2.303-1.103c-0.003,0.357-0.116,0.668-0.374,0.923c-4.012,3.956-8.022,7.913-12.033,11.87
		C19.525,70.656,19.302,69.019,19.829,67.437z"/>
	<path fill="#E5E5E5" d="M19.51,80.53c-0.443-2.296-0.604-4.592-0.011-6.89c0.799-0.015,1.138-0.699,1.647-1.134
		c1.122-0.96,1.926-2.273,3.288-2.966c-0.033,2.285-0.065,4.569-0.098,6.854c-0.507,0.445-0.997,0.91-1.524,1.329
		C21.68,78.623,21.022,80.081,19.51,80.53z"/>
	<path fill="#EAEAEA" d="M24.434,69.54c-1.363,0.693-2.166,2.006-3.288,2.966c-0.509,0.435-0.848,1.119-1.647,1.134
		c-0.004-0.456-0.008-0.911-0.012-1.367c4.011-3.956,8.022-7.913,12.033-11.869c0.259-0.255,0.371-0.566,0.374-0.923
		c0.936-1.097,2.549-1.204,3.447-2.356c0.228-0.008,0.456-0.015,0.684-0.023c0.012,0.733-0.569,1.086-1,1.52
		c-2.857,2.873-5.73,5.729-8.586,8.603c-0.47,0.473-1.107,0.856-1.092,1.656C25.042,69.1,24.738,69.32,24.434,69.54z"/>
	<path fill="#EAEAEA" d="M24.318,116.343c-1.522,0.436-2.175,1.902-3.308,2.801c-0.528,0.419-1.015,0.89-1.521,1.338
		c0.007-1.838,0.013-3.676,0.02-5.513c1.513-0.449,2.171-1.907,3.302-2.806c0.527-0.419,1.017-0.885,1.524-1.329
		c0.062,1.378,0.125,2.756,0.186,4.133C24.454,115.425,24.386,115.884,24.318,116.343z"/>
	<path fill="#EAEAEA" d="M24.318,102.567c-1.522,0.436-2.175,1.902-3.308,2.801c-0.528,0.419-1.015,0.89-1.521,1.338
		c0.007-1.838,0.013-3.676,0.02-5.513c1.513-0.449,2.171-1.906,3.302-2.806c0.527-0.419,1.017-0.885,1.524-1.329
		c0.062,1.378,0.125,2.756,0.186,4.133C24.454,101.65,24.386,102.109,24.318,102.567z"/>
	<path fill="#EAEAEA" d="M19.51,80.53c1.513-0.449,2.171-1.906,3.302-2.806c0.527-0.419,1.017-0.885,1.524-1.329
		c0.062,1.382,0.124,2.763,0.187,4.145c-0.068,0.455-0.136,0.91-0.204,1.365c-1.522,0.436-2.175,1.902-3.308,2.801
		c-0.528,0.419-1.015,0.89-1.521,1.338C19.496,84.205,19.503,82.368,19.51,80.53z"/>
	<path fill="#EAEAEA" d="M19.51,128.744c1.513-0.449,2.171-1.907,3.302-2.806c0.527-0.419,1.017-0.885,1.524-1.329
		c0.062,1.382,0.124,2.763,0.186,4.145c-0.068,0.455-0.136,0.91-0.204,1.365c-1.522,0.436-2.175,1.902-3.308,2.801
		c-0.528,0.419-1.015,0.89-1.521,1.338C19.496,132.42,19.503,130.582,19.51,128.744z"/>
	<path fill="#60AFE6" d="M121.805,80.181c0.005,0.463,0.01,0.925,0.015,1.388c-0.295,0.644-1.073,0.715-1.47,1.238
		c-1.325,0.558-2.581,1.237-3.723,2.117c-2.477,1.397-4.951,2.8-7.434,4.187c-0.492,0.275-1.017,0.491-1.527,0.734
		c-0.025-0.589,0.387-0.925,0.749-1.287c4.044-4.044,8.088-8.089,12.133-12.132c0.321-0.321,0.612-0.695,1.124-0.72
		C121.716,77.198,121.76,78.689,121.805,80.181z"/>
	<path fill="#E9E9EA" d="M104.563,91.891c0.001,0.73-0.577,1.084-1.009,1.519c-2.941,2.956-5.902,5.892-8.831,8.859
		c-0.406,0.411-1.07,0.69-1.008,1.707c1.96-1.123,3.795-2.188,5.645-3.226c0.614-0.345,1.412-1.084,1.936-0.249
		c0.545,0.869-0.34,1.38-1.048,1.817c-0.86,0.531-1.969,0.664-2.574,1.602c-0.305,0.138-0.62,0.257-0.914,0.416
		c-2.833,1.525-5.395,3.526-8.382,4.783c0.081-1.028,1.008-1.429,1.574-2.091c0.746-0.872,0.268-1.013-0.542-1.014
		c3.308-3.367,6.619-6.73,9.919-10.104c0.465-0.476,1.105-0.852,1.108-1.646c1.154-0.752,2.308-1.503,3.461-2.255
		C104.121,91.971,104.342,91.931,104.563,91.891z"/>
	<path fill="#60AFE6" d="M104.563,91.891c-0.221,0.04-0.442,0.08-0.664,0.119c-0.093-0.751,0.472-1.127,0.908-1.564
		c5.06-5.067,10.124-10.129,15.188-15.191c0.441-0.441,0.833-0.973,1.561-0.941c0.088,0.118,0.176,0.236,0.263,0.354
		c-0.049,0.346-0.099,0.691-0.149,1.037c-0.512,0.025-0.803,0.399-1.124,0.72c-4.045,4.043-8.089,8.087-12.133,12.132
		c-0.363,0.363-0.774,0.699-0.749,1.288C106.631,90.527,105.597,91.209,104.563,91.891z"/>
	<path fill="#EAEAEA" d="M76.664,126.65c-0.229,0.008-0.458,0.016-0.687,0.023c0.015-0.795,0.665-1.164,1.133-1.635
		c3.944-3.963,7.906-7.908,11.849-11.871c0.468-0.471,1.119-0.839,1.14-1.632c0.229,0.005,0.457,0.009,0.686,0.014
		c0.73,0.709,0.369,1.194-0.24,1.792c-3.134,3.077-6.23,6.194-9.326,9.31c-0.468,0.471-1.116,0.846-1.107,1.647
		C78.962,125.083,77.813,125.866,76.664,126.65z"/>
	<path fill="#EAEAEA" d="M116.627,84.924c1.142-0.88,2.398-1.559,3.723-2.117c0.147,0.843-0.529,1.218-0.996,1.688
		c-2.748,2.769-5.516,5.519-8.267,8.285c-0.433,0.436-1.017,0.79-1.014,1.525c-0.932,1.114-2.41,1.445-3.447,2.408
		c-1.394-0.501-0.192-0.968,0.087-1.253c2.921-2.979,5.886-5.914,8.828-8.871C116.013,86.114,116.644,85.725,116.627,84.924z"/>
	<path fill="#60AFE6" d="M71.181,110.909c-1.151,0.756-2.301,1.513-3.452,2.269c-0.559,0.274-1.131,0.525-1.674,0.826
		c-2.436,1.35-4.863,2.715-7.294,4.075c0.002-0.799,0.652-1.17,1.12-1.64c3.62-3.64,7.258-7.261,10.879-10.9
		c0.468-0.47,1.119-0.847,1.071-1.659c0.472-0.325,0.943-0.65,1.415-0.975c3.661-2.083,7.322-4.165,10.983-6.248
		c0.043,0.815-0.612,1.189-1.081,1.66c-3.63,3.648-7.277,7.279-10.906,10.927C71.774,109.713,71.112,110.086,71.181,110.909z"/>
	<path fill="#E9E9EA" d="M58.76,118.079c2.431-1.36,4.858-2.725,7.294-4.075c0.544-0.301,1.115-0.552,1.674-0.826
		c0.001,0.794-0.628,1.179-1.096,1.657c-3.308,3.379-6.625,6.749-9.939,10.122c-0.92,0.802-1.84,1.604-2.759,2.406
		c-2.489,0.581-4.351,2.389-6.625,3.398c-0.817,0.363-1.553,0.909-2.438,1.439c-0.216-0.91,0.457-1.199,0.838-1.584
		c2.97-3.002,5.966-5.977,8.945-8.97c0.432-0.434,1.009-0.789,1.004-1.519C56.693,119.444,57.727,118.762,58.76,118.079z"/>
	<path fill="#E9E9EA" d="M68.725,118.748c-2.629,0.809-4.694,2.743-7.376,3.779c-0.112-0.879,0.523-1.183,0.912-1.576
		c2.815-2.844,5.656-5.661,8.474-8.501c0.468-0.472,1.124-0.842,1.1-1.651c1.163-0.762,2.325-1.523,3.488-2.285
		c2.851-1.567,5.702-3.133,8.553-4.699c0.091,0.823-0.552,1.213-1.022,1.686c-2.864,2.88-5.744,5.745-8.609,8.624
		c-0.433,0.436-1.009,0.791-1.029,1.515c-0.008,0.098-0.015,0.196-0.02,0.295C71.579,116.671,69.993,117.458,68.725,118.748z"/>
	<path fill="#EAEAEA" d="M62.878,132.838c-1.217-0.554-2.504-0.99-3.45-2.009c2.957-3.249,6.07-6.344,9.306-9.314
		c-0.203,1.57,1.145,1.817,2.069,2.426c0.005,0.727-0.579,1.072-1.006,1.503c-1.873,1.894-3.774,3.762-5.64,5.663
		C63.656,131.617,62.954,132.004,62.878,132.838z"/>
	<path fill="#C5C5C4" d="M70.803,123.94c-0.924-0.609-2.272-0.856-2.069-2.426c-0.003-0.922-0.006-1.844-0.009-2.767
		c1.268-1.29,2.854-2.077,4.471-2.813c0.01,2.094,0.065,4.188,0.009,6.279c-0.025,0.923,0.372,1.926-0.35,2.769
		c-0.333-0.111-0.666-0.222-0.999-0.333C71.504,124.413,71.154,124.177,70.803,123.94z"/>
	<path fill="#60AFE6" d="M75.323,108.513c-1.162,0.762-2.325,1.523-3.488,2.285c-0.218,0.036-0.436,0.073-0.654,0.11
		c-0.069-0.822,0.593-1.195,1.06-1.665c3.629-3.648,7.277-7.279,10.906-10.927c0.468-0.471,1.124-0.845,1.081-1.66
		c0.769-0.552,1.538-1.104,2.307-1.656c0.32,0,0.625-0.036,0.818-0.34c0.218-0.038,0.436-0.076,0.653-0.114
		c0.081,0.818-0.567,1.2-1.034,1.669c-3.534,3.55-7.083,7.083-10.615,10.635C75.892,107.316,75.23,107.689,75.323,108.513z"/>
	<path fill="#60AFE6" d="M106.992,21.746c2.853-1.565,5.705-3.131,8.558-4.695c0.091,0.905-0.652,1.295-1.157,1.802
		c-5.426,5.448-10.87,10.877-16.298,16.322c-0.47,0.472-1.13,0.845-1.094,1.661c-2.852,1.991-5.959,3.553-8.96,5.293
		c-0.868,0.503-1.631,1.292-2.755,1.25c-0.029-0.813,0.627-1.188,1.098-1.66c5.344-5.36,10.702-10.706,16.045-16.066
		c0.469-0.471,1.132-0.844,1.082-1.664C104.671,23.242,105.831,22.494,106.992,21.746z"/>
	<path fill="#60AFE6" d="M97.001,36.837c-0.037-0.816,0.623-1.19,1.094-1.661c5.428-5.445,10.872-10.875,16.298-16.322
		c0.505-0.507,1.248-0.897,1.157-1.802c1.161-0.761,2.321-1.521,3.482-2.281c0.221-0.038,0.442-0.077,0.664-0.114
		c0.062,0.891-0.667,1.283-1.171,1.79c-5.966,5.985-11.948,11.954-17.915,17.938c-0.51,0.512-1.202,0.92-1.239,1.772
		C98.362,35.622,97.871,36.889,97.001,36.837z"/>
	<path fill="#EAEAEA" d="M106.992,21.746c-1.16,0.748-2.321,1.496-3.481,2.244c-0.218,0.037-0.436,0.074-0.654,0.111
		c-0.043-0.814,0.614-1.186,1.081-1.656c2.816-2.838,5.654-5.654,8.47-8.491c0.467-0.471,1.124-0.841,1.101-1.649
		c1.248-1.023,2.68-1.725,4.145-2.369c-0.009,0.727-0.586,1.082-1.019,1.517c-2.863,2.877-5.741,5.74-8.602,8.618
		C107.563,20.542,106.915,20.926,106.992,21.746z"/>
	<path fill="#E9E9EA" d="M113.508,12.304c0.023,0.809-0.633,1.178-1.101,1.649c-2.816,2.838-5.654,5.654-8.47,8.491
		c-0.467,0.471-1.125,0.842-1.081,1.656c-1.161,0.764-2.323,1.528-3.484,2.292c-2.978,1.639-5.956,3.278-8.934,4.917
		c0-0.803,0.65-1.18,1.122-1.654c2.953-2.973,5.924-5.927,8.879-8.897c0.434-0.437,1.015-0.792,1.028-1.521
		c1.03-0.695,2.061-1.391,3.091-2.086c2.472-1.378,4.941-2.761,7.419-4.128C112.471,12.751,112.997,12.542,113.508,12.304z"/>
	<path fill="#60AFE6" d="M35.343,131.822c-2.979,1.64-5.957,3.28-8.936,4.919c-0.07-0.748,0.504-1.114,0.938-1.548
		c7.477-7.485,14.958-14.965,22.44-22.445c0.441-0.441,0.834-0.972,1.573-0.884c0.052,1.175,0.103,2.35,0.155,3.525
		c0.146,0.896-0.54,1.328-1.052,1.842c-3.634,3.644-7.28,7.277-10.91,10.926c-0.468,0.471-1.125,0.842-1.101,1.652
		C37.414,130.481,36.379,131.152,35.343,131.822z"/>
	<path fill="#E9E9EA" d="M40.507,134.255c-0.92,0.802-1.839,1.604-2.759,2.407c-2.268,0.665-4.105,2.157-6.165,3.223
		c-0.948,0.49-1.73,1.303-2.967,1.505c-0.09-0.802,0.542-1.108,0.933-1.503c2.821-2.849,5.668-5.673,8.493-8.519
		c0.468-0.471,1.131-0.845,1.06-1.669c1.162-0.763,2.324-1.527,3.486-2.29c2.981-1.64,5.963-3.279,8.944-4.919
		c0.011,0.799-0.63,1.176-1.096,1.652C47.133,127.519,43.818,130.885,40.507,134.255z"/>
	<path fill="#60AFE6" d="M42.588,127.409c-1.162,0.763-2.324,1.527-3.486,2.29c-0.217,0.037-0.434,0.074-0.651,0.112
		c-0.025-0.81,0.632-1.181,1.101-1.652c3.629-3.649,7.276-7.282,10.91-10.926c0.512-0.514,1.198-0.945,1.052-1.842
		c1.229-0.582,2.403-1.255,3.483-2.084c0.219-0.033,0.438-0.066,0.657-0.099c0.02,0.805-0.631,1.179-1.099,1.649
		c-3.621,3.639-7.259,7.261-10.879,10.9C43.207,126.227,42.549,126.597,42.588,127.409z"/>
	<path fill="#60AFE6" d="M42.588,127.409c-0.038-0.812,0.619-1.182,1.086-1.652c3.62-3.64,7.259-7.261,10.879-10.9
		c0.468-0.471,1.118-0.844,1.099-1.649c1.162-0.753,2.324-1.507,3.485-2.26c2.85-1.557,5.7-3.113,8.551-4.67
		c0.068,0.817-0.585,1.193-1.052,1.661c-3.534,3.552-7.084,7.087-10.619,10.638c-0.466,0.468-1.122,0.847-1.009,1.675
		c-1.159,0.746-2.319,1.493-3.478,2.239C48.55,124.13,45.569,125.769,42.588,127.409z"/>
	<path fill="#60AFE6" d="M55.009,120.252c-0.114-0.828,0.543-1.207,1.009-1.675c3.534-3.551,7.085-7.086,10.619-10.638
		c0.466-0.469,1.12-0.844,1.052-1.661c1.159-0.766,2.318-1.533,3.477-2.3c0.222-0.033,0.444-0.066,0.665-0.099
		c0.048,0.813-0.603,1.189-1.071,1.66c-3.621,3.639-7.259,7.26-10.879,10.9c-0.468,0.471-1.118,0.841-1.12,1.64
		c-1.034,0.682-2.068,1.365-3.102,2.047C55.442,120.168,55.226,120.21,55.009,120.252z"/>
	<path fill="#60AFE6" d="M51.357,111.865c-0.74-0.088-1.132,0.443-1.573,0.884c-7.481,7.48-14.963,14.96-22.44,22.445
		c-0.434,0.434-1.008,0.8-0.938,1.548c-0.635,0.436-1.171,1.093-2.074,0.925c0.065-0.675,0.13-1.35,0.194-2.025
		c0.882,0.048,1.291-0.659,1.801-1.169c7.819-7.806,15.627-15.622,23.448-23.426c0.474-0.473,0.841-1.111,1.59-1.246
		c0.049,0.229,0.096,0.459,0.144,0.688C51.458,110.948,51.408,111.407,51.357,111.865z"/>
	<path fill="#EAEAEA" d="M71.855,124.649c0.333,0.111,0.666,0.222,0.999,0.333c1.144,0.333,1.761-0.709,2.656-1.034
		c3.549-1.287,5.463-3.615,4.62-7.596c2.254-1.275,3.765-3.338,5.488-5.176c0.422-0.394,0.797-0.848,1.375-1.034
		c0.979,0.589,2.323,0.366,3.105,1.393c-0.021,0.793-0.671,1.161-1.14,1.632c-3.943,3.963-7.905,7.908-11.849,11.871
		c-0.468,0.471-1.118,0.84-1.133,1.635c-1.024,0.98-2.514,1.291-3.449,2.4c-2.156,0.768-3.933,2.245-5.992,3.199
		c-0.731,0.339-1.428,0.711-2.267,0.602c2.022-2.079,4.057-4.145,6.056-6.245C70.898,126.027,71.731,125.604,71.855,124.649z"/>
	<path fill="#E9E9EA" d="M71.855,124.649c-0.124,0.955-0.957,1.378-1.529,1.98c-1.999,2.101-4.035,4.166-6.056,6.245
		c-0.464-0.012-0.928-0.024-1.391-0.036c0.076-0.835,0.778-1.221,1.28-1.733c1.866-1.901,3.767-3.769,5.64-5.663
		c0.426-0.431,1.011-0.775,1.006-1.503C71.154,124.177,71.504,124.413,71.855,124.649z"/>
	<path fill="#E9E9EA" d="M52.564,47.477c1.03-0.695,2.061-1.391,3.091-2.086c2.474-1.379,4.953-2.749,7.418-4.144
		c0.496-0.281,0.955-0.62,1.538-0.701c0.009,0.803-0.64,1.176-1.108,1.648c-2.815,2.836-5.652,5.651-8.466,8.487
		c-0.467,0.471-1.124,0.842-1.086,1.654c-1.161,0.764-2.323,1.528-3.484,2.293c-2.977,1.639-5.955,3.279-8.932,4.918
		c0.002-0.803,0.652-1.179,1.124-1.653c2.952-2.972,5.923-5.926,8.878-8.896C51.971,48.561,52.551,48.206,52.564,47.477z"/>
	<path fill="#EAEAEA" d="M53.951,52.336c-0.038-0.812,0.619-1.184,1.086-1.654c2.815-2.836,5.651-5.652,8.466-8.487
		c0.468-0.472,1.117-0.845,1.108-1.648c1.149-0.785,2.298-1.569,3.447-2.353c0.229-0.008,0.458-0.016,0.687-0.024
		c0,0.73-0.58,1.084-1.012,1.519c-2.863,2.878-5.741,5.74-8.602,8.618c-0.469,0.472-1.118,0.855-1.041,1.676
		c-1.153,0.752-2.306,1.504-3.459,2.257C54.405,52.271,54.178,52.304,53.951,52.336z"/>
	<path fill="#E9E9EA" d="M25.346,68.881c-0.014-0.801,0.623-1.184,1.092-1.657c2.856-2.874,5.729-5.73,8.586-8.603
		c0.431-0.433,1.012-0.787,1-1.52c1.149-0.801,2.299-1.601,3.448-2.401c2.678-1.479,5.355-2.96,8.036-4.433
		c0.293-0.161,0.611-0.276,0.917-0.412c0.014,0.734-0.562,1.092-0.995,1.527C44.568,54.259,41.69,57.12,38.83,60
		c-0.467,0.47-1.128,0.845-1.051,1.668C33.752,64.274,29.563,66.602,25.346,68.881z"/>
	<path fill="#EAEAEA" d="M37.779,61.669c-0.077-0.824,0.584-1.198,1.051-1.668c2.859-2.88,5.738-5.742,8.601-8.618
		c0.433-0.435,1.009-0.793,0.995-1.527c0.901-1.15,2.516-1.255,3.448-2.358c0.23-0.007,0.46-0.013,0.69-0.02
		c-0.013,0.729-0.593,1.084-1.028,1.521c-2.955,2.97-5.926,5.923-8.878,8.896c-0.471,0.475-1.121,0.851-1.124,1.653
		C40.341,60.355,39.15,61.172,37.779,61.669z"/>
	<path fill="#E9E9EA" d="M84.928,28.861c0.933-1.111,2.421-1.426,3.449-2.401c2.838-1.188,5.304-3.052,8.035-4.434
		c0.299-0.151,0.612-0.273,0.919-0.408c0.011,0.733-0.565,1.091-0.998,1.526c-2.864,2.878-5.743,5.74-8.604,8.622
		c-0.467,0.47-1.13,0.845-1.04,1.672c-1.162,0.762-2.323,1.524-3.485,2.286c-0.356,0.168-0.724,0.316-1.067,0.507
		c-2.631,1.466-5.258,2.94-7.886,4.412c-0.016-0.801,0.621-1.185,1.091-1.658c2.857-2.874,5.73-5.731,8.588-8.604
		C84.36,29.948,84.941,29.595,84.928,28.861z"/>
	<path fill="#EAEAEA" d="M86.688,33.438c-0.09-0.827,0.573-1.202,1.04-1.672c2.861-2.881,5.74-5.744,8.604-8.622
		c0.433-0.435,1.009-0.793,0.998-1.526c1.149-0.787,2.298-1.575,3.447-2.361c0.23-0.006,0.46-0.013,0.691-0.02
		c-0.014,0.729-0.594,1.084-1.028,1.521c-2.955,2.97-5.927,5.925-8.879,8.897c-0.471,0.475-1.121,0.851-1.122,1.654
		c-1.031,0.671-2.062,1.343-3.092,2.014C87.127,33.362,86.907,33.4,86.688,33.438z"/>
	<path fill="#EAEAEA" d="M58.091,49.982c-0.076-0.82,0.572-1.204,1.041-1.676c2.861-2.879,5.739-5.741,8.602-8.618
		c0.432-0.435,1.012-0.789,1.012-1.519c1.027-0.976,2.512-1.294,3.449-2.4c2.251-0.862,4.185-2.308,6.299-3.424
		c0.756-0.399,1.447-0.918,2.303-1.103c0.014,0.803-0.634,1.177-1.102,1.648c-2.811,2.832-5.644,5.643-8.454,8.475
		c-0.467,0.471-1.119,0.84-1.115,1.641c-1.16,0.761-2.321,1.522-3.481,2.283C63.794,46.853,60.943,48.418,58.091,49.982z"/>
	<path fill="#EAEAEA" d="M70.127,43.006c-0.003-0.8,0.648-1.17,1.115-1.641c2.811-2.833,5.643-5.643,8.454-8.475
		c0.468-0.471,1.115-0.845,1.102-1.648c0.95-1.078,2.436-1.371,3.446-2.36c0.228-0.007,0.456-0.013,0.684-0.02
		c0.014,0.733-0.568,1.087-0.999,1.52c-2.858,2.873-5.731,5.73-8.588,8.604c-0.47,0.473-1.106,0.857-1.091,1.657
		c-1.157,0.748-2.314,1.497-3.471,2.246C70.562,42.928,70.344,42.967,70.127,43.006z"/>
	<path fill="#60AFE6" d="M121.805,31.966c-0.041,0.232-0.083,0.463-0.123,0.695c-0.715,0.058-1.057,0.649-1.492,1.082
		c-4.227,4.21-8.439,8.436-12.666,12.646c-0.435,0.433-0.775,1.027-1.497,1.07c-0.623-1.145-1.49-2.154-1.906-3.414
		c0.861-0.004,1.274-0.694,1.785-1.204c4.727-4.71,9.437-9.436,14.166-14.144c0.472-0.469,0.833-1.115,1.6-1.206
		C121.716,28.983,121.76,30.475,121.805,31.966z"/>
	<path fill="#60AFE6" d="M121.671,27.491c-0.766,0.091-1.128,0.737-1.6,1.206c-4.729,4.708-9.439,9.434-14.166,14.144
		c-0.511,0.51-0.924,1.199-1.784,1.204c-0.102-0.192-0.205-0.384-0.309-0.576c0.196-0.278,0.357-0.591,0.594-0.828
		c5.377-5.391,10.761-10.773,16.146-16.156c0.321-0.321,0.614-0.695,1.129-0.709c0.045,0.23,0.091,0.459,0.136,0.689
		C121.769,26.806,121.72,27.149,121.671,27.491z"/>
	<path fill="#60AFE6" d="M121.681,25.775c-0.515,0.015-0.808,0.388-1.129,0.709c-5.384,5.383-10.769,10.765-16.146,16.156
		c-0.237,0.237-0.398,0.55-0.593,0.827c-0.877-0.944-1.46-2.071-2.012-3.218c0.169-0.229,0.311-0.484,0.509-0.683
		c6.075-6.084,12.154-12.163,18.234-18.241c0.321-0.321,0.613-0.697,1.126-0.722c0.044,1.492,0.089,2.983,0.134,4.475
		C121.764,25.311,121.723,25.543,121.681,25.775z"/>
	<path fill="#60AFE6" d="M121.671,20.604c-0.513,0.025-0.805,0.401-1.126,0.722c-6.08,6.078-12.16,12.157-18.234,18.241
		c-0.198,0.199-0.341,0.454-0.509,0.683c-0.421-0.358-0.605-0.853-0.786-1.351c0.519-0.442,1.071-0.85,1.552-1.33
		c5.838-5.823,11.663-11.66,17.504-17.48c0.472-0.471,0.833-1.124,1.61-1.201c0.045,0.23,0.091,0.459,0.136,0.689
		C121.769,19.919,121.72,20.261,121.671,20.604z"/>
	<path fill="#60AFE6" d="M121.805,59.517c-0.084,0.342-0.169,0.684-0.255,1.025c-0.806-0.032-1.203,0.591-1.679,1.066
		c-4.541,4.53-9.07,9.072-13.616,13.597c-0.473,0.471-0.838,1.121-1.616,1.193c-0.006-1.723-0.012-3.446-0.017-5.169
		c0.782-0.055,1.147-0.706,1.618-1.175c4.615-4.595,9.212-9.209,13.828-13.803c0.473-0.47,0.835-1.118,1.602-1.209
		C121.716,56.534,121.761,58.026,121.805,59.517z"/>
	<path fill="#60AFE6" d="M121.671,55.043c-0.768,0.091-1.13,0.739-1.602,1.209c-4.616,4.595-9.213,9.208-13.828,13.803
		c-0.472,0.47-0.836,1.12-1.619,1.175c0.006-0.573,0.012-1.146,0.018-1.719c0.778-0.072,1.143-0.722,1.616-1.193
		c4.507-4.486,8.995-8.99,13.5-13.478c0.513-0.511,0.927-1.208,1.8-1.188c0.088,0.118,0.176,0.236,0.263,0.354
		C121.771,54.351,121.721,54.697,121.671,55.043z"/>
	<path fill="#60AFE6" d="M121.805,38.854c-0.084,0.342-0.169,0.684-0.255,1.026c-0.731-0.036-1.117,0.503-1.558,0.941
		c-1.258,1.25-2.535,2.483-3.758,3.766c-2.403,2.52-5.091,4.765-7.264,7.505c-0.951-0.899-1.427-2.092-2.007-3.22
		c0.127-0.188,0.227-0.403,0.384-0.56c4.437-4.448,8.88-8.891,13.322-13.335c0.284-0.284,0.562-0.576,1.002-0.596
		C121.716,35.871,121.761,37.362,121.805,38.854z"/>
	<path fill="#60AFE6" d="M121.671,34.379c-0.44,0.021-0.718,0.312-1.002,0.596c-4.442,4.444-8.885,8.886-13.322,13.335
		c-0.157,0.158-0.257,0.372-0.384,0.56c-0.312-0.471-0.624-0.941-0.936-1.412c0.722-0.043,1.062-0.638,1.497-1.07
		c4.227-4.21,8.439-8.436,12.666-12.646c0.435-0.433,0.777-1.024,1.492-1.082c0.045,0.23,0.09,0.461,0.136,0.691
		C121.769,33.694,121.72,34.037,121.671,34.379z"/>
	<path fill="#60AFE6" d="M121.557,53.652c-0.874-0.021-1.287,0.676-1.8,1.188c-4.505,4.488-8.993,8.992-13.5,13.478
		c-0.474,0.471-0.839,1.122-1.617,1.193c-0.039-3.651-0.078-7.303-0.116-10.954c1.417-0.837,2.781-1.789,4.266-2.479
		c1.379-0.641,1.774-1.389,0.897-2.678c0.025-0.493,0.294-0.849,0.628-1.183c3.494-3.487,6.979-6.982,10.482-10.46
		c0.228-0.227,0.58-0.329,0.875-0.489c0.044,1.492,0.089,2.983,0.134,4.475c0.005,0.462,0.01,0.925,0.015,1.388
		c-0.005,1.833-0.01,3.667-0.015,5.5C121.722,52.97,121.64,53.311,121.557,53.652z"/>
	<path fill="#60AFE6" d="M121.671,41.267c-0.295,0.16-0.646,0.262-0.875,0.489c-3.503,3.478-6.988,6.973-10.482,10.46
		c-0.335,0.334-0.604,0.691-0.628,1.183c-0.44-0.325-0.669-0.766-0.717-1.306c2.174-2.741,4.862-4.986,7.265-7.506
		c1.224-1.283,2.5-2.516,3.758-3.766c0.441-0.438,0.827-0.977,1.558-0.941c0.091,0.117,0.18,0.234,0.27,0.35
		C121.771,40.576,121.721,40.921,121.671,41.267z"/>
	<path fill="#60AFE6" d="M121.557,74.315c-0.728-0.032-1.12,0.5-1.561,0.941c-5.065,5.062-10.129,10.124-15.188,15.191
		c-0.436,0.437-1.001,0.813-0.908,1.564c-1.154,0.752-2.307,1.504-3.461,2.256c-0.359,0.17-0.728,0.321-1.075,0.513
		c-2.628,1.461-5.251,2.93-7.876,4.396c-0.036-0.81,0.616-1.182,1.083-1.651c3.615-3.634,7.248-7.249,10.862-10.883
		c0.468-0.47,1.114-0.84,1.132-1.633c0.796-0.019,1.168-0.669,1.641-1.14c4.625-4.607,9.234-9.231,13.86-13.837
		c0.474-0.471,0.836-1.12,1.606-1.212c0.044,1.492,0.089,2.983,0.134,4.475C121.722,73.634,121.64,73.974,121.557,74.315z"/>
	<path fill="#60AFE6" d="M121.671,68.818c-0.769,0.092-1.132,0.741-1.606,1.212c-4.627,4.606-9.235,9.23-13.86,13.837
		c-0.473,0.471-0.844,1.121-1.641,1.14l-0.049-0.048c0.041-0.558,0.083-1.115,0.124-1.673c0.778-0.072,1.143-0.722,1.616-1.194
		c4.507-4.486,8.996-8.99,13.5-13.478c0.513-0.511,0.927-1.208,1.8-1.188c0.088,0.118,0.176,0.236,0.263,0.354
		C121.771,68.127,121.721,68.473,121.671,68.818z"/>
	<path fill="#60AFE6" d="M121.557,67.427c-0.874-0.021-1.287,0.676-1.8,1.188c-4.505,4.488-8.993,8.992-13.5,13.478
		c-0.474,0.471-0.838,1.122-1.617,1.193c-0.036-1.49-0.072-2.98-0.108-4.47c0.033-0.233,0.066-0.467,0.099-0.701
		c0.781-0.058,1.144-0.709,1.616-1.179c4.614-4.594,9.209-9.206,13.824-13.799c0.472-0.47,0.834-1.117,1.602-1.208
		c0.044,1.491,0.089,2.983,0.134,4.475C121.722,66.746,121.64,67.086,121.557,67.427z"/>
	<path fill="#60AFE6" d="M121.671,61.931c-0.767,0.091-1.129,0.738-1.602,1.208c-4.614,4.593-9.21,9.205-13.824,13.799
		c-0.471,0.469-0.834,1.121-1.616,1.179c-0.037-0.231-0.073-0.461-0.109-0.692c0.04-0.342,0.079-0.684,0.119-1.025
		c0.778-0.072,1.143-0.722,1.616-1.193c4.546-4.525,9.075-9.067,13.616-13.597c0.476-0.474,0.873-1.098,1.679-1.066
		c0.091,0.117,0.18,0.234,0.27,0.351C121.771,61.239,121.721,61.585,121.671,61.931z"/>
	<path fill="#60AFE6" d="M121.681,18.887c-0.776,0.077-1.137,0.73-1.61,1.201c-5.84,5.821-11.665,11.657-17.504,17.48
		c-0.481,0.48-1.033,0.888-1.552,1.33c-0.712-0.816-1.221-1.755-1.646-2.743c0.037-0.852,0.729-1.26,1.239-1.772
		c5.967-5.984,11.949-11.953,17.915-17.938c0.504-0.506,1.233-0.898,1.171-1.79c0.639-0.439,1.188-1.075,2.086-0.941
		c0.008,1.492,0.016,2.984,0.024,4.477C121.764,18.423,121.723,18.655,121.681,18.887z"/>
	<path fill="#60AFE6" d="M70.779,42.889c1.157-0.749,2.314-1.497,3.471-2.246c2.628-1.471,5.255-2.945,7.886-4.411
		c0.343-0.191,0.711-0.339,1.067-0.507c0.018,0.807-0.634,1.179-1.103,1.649c-5.565,5.581-11.144,11.148-16.709,16.73
		c-0.469,0.47-1.122,0.84-1.116,1.643c-0.813,0.516-1.576,1.146-2.448,1.528c-3.385,1.481-5.972,3.617-6.597,7.506
		c-0.016,0.098-0.13,0.18-0.199,0.269c-0.889-0.037-1.278,0.697-1.786,1.204C44.268,75.21,35.307,84.181,26.333,93.14
		c-0.51,0.509-0.91,1.232-1.805,1.164c-0.242-1.608-0.199-3.217-0.033-4.827c0.57-0.069,0.868-0.527,1.226-0.885
		C40.439,73.88,55.154,59.165,69.865,44.447C70.299,44.012,70.878,43.644,70.779,42.889z"/>
	<path fill="#60AFE6" d="M58.091,49.982c2.852-1.565,5.703-3.129,8.555-4.693c0.104,0.756-0.471,1.127-0.907,1.563
		C52.526,60.071,39.31,73.286,26.093,86.5c-0.439,0.439-0.82,0.991-1.564,0.916c-0.241-1.608-0.2-3.218-0.032-4.828
		c0.505-0.053,0.784-0.442,1.104-0.761c9.392-9.389,18.783-18.779,28.172-28.171c0.401-0.401,0.88-0.759,0.86-1.417
		C55.785,51.487,56.938,50.735,58.091,49.982z"/>
	<path fill="#60AFE6" d="M24.524,101.191c-0.063-1.378-0.125-2.756-0.187-4.133c0.053-0.231,0.107-0.462,0.159-0.694
		c0.745-0.14,1.112-0.778,1.586-1.252c8.721-8.704,17.428-17.421,26.149-26.124c0.508-0.507,0.903-1.235,1.792-1.184
		c-0.575,2.608-1.655,5.046-2.53,7.553c-0.787,0.042-1.157,0.69-1.628,1.161c-7.851,7.836-15.69,15.684-23.541,23.519
		C25.816,100.543,25.415,101.263,24.524,101.191z"/>
	<path fill="#60AFE6" d="M24.528,87.416c0.744,0.076,1.125-0.477,1.564-0.916c13.218-13.214,26.434-26.43,39.646-39.649
		c0.435-0.435,1.01-0.806,0.907-1.563c1.16-0.762,2.321-1.523,3.481-2.284c0.217-0.039,0.435-0.077,0.652-0.116
		c0.099,0.755-0.48,1.123-0.914,1.558C55.154,59.165,40.439,73.88,25.721,88.592c-0.358,0.358-0.655,0.816-1.226,0.885
		C24.31,88.786,24.326,88.1,24.528,87.416z"/>
	<path fill="#60AFE6" d="M54.024,67.804c-0.89-0.052-1.285,0.677-1.793,1.184c-8.721,8.703-17.429,17.421-26.149,26.124
		c-0.475,0.474-0.841,1.112-1.586,1.252c-0.185-0.69-0.168-1.376,0.032-2.06c0.895,0.068,1.296-0.656,1.806-1.164
		c8.974-8.959,17.935-17.929,26.911-26.886c0.508-0.507,0.897-1.241,1.786-1.204C54.855,66.026,54.643,66.989,54.024,67.804z"/>
	<path fill="#60AFE6" d="M54.632,52.239c0.02,0.658-0.459,1.017-0.86,1.417c-9.389,9.392-18.78,18.782-28.172,28.171
		c-0.319,0.319-0.598,0.708-1.104,0.761c-0.059-0.228-0.118-0.456-0.178-0.684c0.068-0.455,0.136-0.91,0.203-1.365
		c0.734,0.057,1.124-0.478,1.564-0.918c7.815-7.813,15.631-15.627,23.441-23.446c0.433-0.434,1.016-0.795,0.941-1.547
		c1.161-0.764,2.323-1.529,3.484-2.293C54.178,52.304,54.405,52.271,54.632,52.239z"/>
	<path fill="#60AFE6" d="M24.528,108.079c-0.241-1.608-0.2-3.217-0.032-4.828c0.745-0.141,1.111-0.778,1.585-1.252
		c7.461-7.442,14.906-14.9,22.367-22.342c0.508-0.507,0.903-1.235,1.794-1.176c-0.628,2.746-1.654,5.352-2.766,7.93
		c-0.897-0.066-1.286,0.673-1.793,1.178c-6.457,6.436-12.897,12.889-19.352,19.327C25.822,107.424,25.422,108.148,24.528,108.079z"
		/>
	<path fill="#60AFE6" d="M24.524,114.967c-0.063-1.378-0.125-2.756-0.187-4.133c0.053-0.231,0.107-0.462,0.159-0.694
		c0.744-0.14,1.11-0.777,1.584-1.251c6.201-6.182,12.386-12.38,18.587-18.562c0.508-0.506,0.903-1.234,1.796-1.168
		c-0.232,0.976-0.463,1.952-0.724,3.051c1.252-0.206,1.924-1.293,3.036-1.401c0.02,0.732-0.544,1.101-0.979,1.536
		c-7.233,7.241-14.471,14.477-21.71,21.713C25.648,114.496,25.265,115.045,24.524,114.967z"/>
	<path fill="#60AFE6" d="M50.243,78.481c-0.892-0.059-1.287,0.67-1.795,1.176c-7.461,7.442-14.907,14.899-22.367,22.342
		c-0.475,0.474-0.841,1.111-1.585,1.252c-0.059-0.228-0.118-0.456-0.178-0.684c0.068-0.459,0.135-0.918,0.204-1.377
		c0.893,0.072,1.294-0.648,1.802-1.155c7.851-7.836,15.69-15.683,23.541-23.519c0.472-0.471,0.841-1.118,1.629-1.161
		C51.174,76.437,50.895,77.534,50.243,78.481z"/>
	<path fill="#60AFE6" d="M46.463,89.16c-0.893-0.066-1.289,0.661-1.796,1.167c-6.201,6.182-12.386,12.38-18.587,18.562
		c-0.475,0.473-0.84,1.111-1.584,1.251c-0.185-0.69-0.168-1.376,0.032-2.06c0.895,0.068,1.295-0.655,1.805-1.163
		c6.455-6.438,12.895-12.891,19.352-19.327c0.507-0.506,0.896-1.244,1.793-1.178C47.279,87.379,47.079,88.346,46.463,89.16z"/>
	<path fill="#60AFE6" d="M51.364,109.802c-0.748,0.134-1.114,0.772-1.589,1.246c-7.821,7.804-15.629,15.62-23.448,23.426
		c-0.511,0.51-0.919,1.216-1.801,1.169c-0.243-1.612-0.191-3.225-0.03-4.84c0.745-0.141,1.111-0.778,1.586-1.252
		c7.826-7.808,15.638-15.63,23.461-23.44c0.51-0.509,0.919-1.223,1.814-1.134c0.047,1.383,0.094,2.765,0.14,4.148
		C51.453,109.351,51.409,109.576,51.364,109.802z"/>
	<path fill="#60AFE6" d="M51.357,104.977c-0.896-0.09-1.304,0.624-1.814,1.134c-7.824,7.81-15.636,15.632-23.461,23.44
		c-0.475,0.474-0.841,1.111-1.586,1.252c-0.059-0.228-0.118-0.456-0.178-0.684c0.068-0.455,0.136-0.91,0.203-1.365
		c0.883,0.052,1.292-0.655,1.803-1.165c7.82-7.806,15.629-15.624,23.451-23.429c0.474-0.473,0.841-1.111,1.59-1.246
		c0.049,0.229,0.096,0.459,0.144,0.688C51.458,104.061,51.408,104.519,51.357,104.977z"/>
	<path fill="#60AFE6" d="M51.364,102.914c-0.748,0.134-1.115,0.773-1.589,1.246c-7.822,7.804-15.631,15.622-23.451,23.429
		c-0.511,0.51-0.92,1.216-1.803,1.165c-0.061-1.382-0.123-2.763-0.185-4.145c0.053-0.231,0.107-0.462,0.159-0.694
		c0.745-0.14,1.111-0.778,1.586-1.252c7.826-7.808,15.638-15.63,23.462-23.44c0.51-0.509,0.919-1.223,1.814-1.134
		c0.047,1.383,0.094,2.765,0.14,4.148C51.453,102.463,51.409,102.688,51.364,102.914z"/>
	<path fill="#60AFE6" d="M24.528,121.855c-0.241-1.608-0.2-3.218-0.032-4.828c0.745-0.141,1.111-0.778,1.586-1.252
		c7.826-7.808,15.638-15.63,23.461-23.439c0.51-0.509,0.919-1.223,1.814-1.134c0.047,1.382,0.093,2.765,0.139,4.147
		c-0.044,0.226-0.088,0.451-0.133,0.677c-0.748,0.134-1.114,0.772-1.589,1.246c-7.82,7.803-15.627,15.619-23.446,23.423
		C25.821,121.202,25.42,121.923,24.528,121.855z"/>
	<path fill="#60AFE6" d="M51.357,91.202c-0.896-0.09-1.304,0.624-1.814,1.134c-7.824,7.81-15.636,15.632-23.461,23.439
		c-0.475,0.474-0.841,1.111-1.586,1.252c-0.059-0.228-0.118-0.456-0.178-0.684c0.068-0.459,0.135-0.918,0.204-1.376
		c0.743,0.078,1.125-0.47,1.563-0.908c7.239-7.235,14.477-14.472,21.71-21.713c0.435-0.436,0.999-0.804,0.979-1.536
		c0.773-0.517,1.441-1.225,2.437-1.339C51.664,90.014,51.448,90.613,51.357,91.202z"/>
	<path fill="#60AFE6" d="M24.528,121.855c0.892,0.068,1.292-0.653,1.801-1.16c7.819-7.804,15.626-15.62,23.446-23.423
		c0.474-0.473,0.84-1.111,1.589-1.246c0.049,0.229,0.096,0.459,0.144,0.688c-0.051,0.458-0.101,0.917-0.152,1.375
		c-0.896-0.09-1.304,0.624-1.814,1.134c-7.824,7.81-15.636,15.632-23.462,23.44c-0.475,0.474-0.841,1.111-1.586,1.252
		C24.31,123.225,24.326,122.539,24.528,121.855z"/>
	<path fill="#60AFE6" d="M50.467,54.628c0.075,0.751-0.508,1.113-0.941,1.547c-7.81,7.819-15.625,15.632-23.441,23.446
		c-0.441,0.441-0.831,0.976-1.564,0.918c-0.061-1.382-0.123-2.763-0.186-4.145c0.032-2.285,0.065-4.569,0.098-6.854
		c0.305-0.22,0.609-0.44,0.913-0.66c4.217-2.278,8.406-4.606,12.433-7.212c1.371-0.496,2.562-1.313,3.757-2.122
		C44.513,57.907,47.49,56.268,50.467,54.628z"/>
	<path fill="#E9E9EA" d="M91.488,99.175c2.625-1.466,5.248-2.935,7.876-4.396c0.346-0.192,0.716-0.343,1.075-0.513
		c-0.003,0.794-0.642,1.17-1.108,1.645c-3.3,3.374-6.611,6.737-9.919,10.104c-0.92,0.802-1.84,1.604-2.759,2.406
		c-2.437,0.681-4.389,2.281-6.561,3.464c-0.969,0.348-1.662,1.243-2.736,1.386c-0.005-0.802,0.645-1.175,1.114-1.647
		c2.818-2.839,5.657-5.657,8.474-8.495c0.467-0.47,1.128-0.843,1.064-1.663C89.168,100.702,90.328,99.939,91.488,99.175z"/>
	<path fill="#E9E9EA" d="M86.652,108.421c0.92-0.802,1.84-1.604,2.759-2.406c0.81,0,1.288,0.142,0.542,1.014
		c-0.566,0.662-1.493,1.062-1.574,2.091c-0.271,0.6-0.894,0.722-1.386,1.023c-0.578,0.186-0.953,0.64-1.375,1.034
		c-0.816,0.001-1.307-0.165-0.534-1.009C85.613,109.59,86.13,109.003,86.652,108.421z"/>
	<path fill="#60AFE6" d="M86.535,95c-0.769,0.552-1.538,1.104-2.307,1.656c-3.661,2.082-7.322,4.165-10.983,6.248
		c-0.053-0.342-0.105-0.685-0.158-1.028c0.006-1.719,0.012-3.438,0.017-5.157c-0.006-0.579-0.012-1.157-0.017-1.736
		c0.006-1.716,0.011-3.432,0.017-5.148c-0.006-0.58-0.012-1.16-0.017-1.739c0.006-1.717,0.012-3.434,0.017-5.152
		c-0.052-0.998,0.375-1.635,1.306-2.069c0.903-0.42,1.724-1.015,2.581-1.533c3.113-1.757,6.227-3.514,9.619-5.429
		c0,4.719,0,9.113,0,13.507c0.007,0.572,0.015,1.144,0.023,1.716c-0.005,1.838-0.01,3.676-0.015,5.514
		C86.591,94.767,86.563,94.884,86.535,95z"/>
	<path fill="#60AFE6" d="M73.087,101.876c0.053,0.343,0.105,0.685,0.158,1.028c-0.472,0.325-0.943,0.651-1.415,0.975
		c-0.222,0.033-0.444,0.066-0.666,0.099C71.38,102.888,72.13,102.287,73.087,101.876z"/>
	<path fill="#60AFE6" d="M75.323,108.513c-0.092-0.825,0.569-1.197,1.034-1.664c3.532-3.551,7.082-7.085,10.615-10.635
		c0.467-0.469,1.114-0.85,1.034-1.668c1.154-0.758,2.307-1.516,3.461-2.275c0.309-0.136,0.628-0.253,0.924-0.411
		c2.706-1.441,5.221-3.225,8.028-4.485c0.025,0.807-0.627,1.18-1.094,1.65c-3.62,3.639-7.257,7.26-10.878,10.898
		c-0.469,0.472-1.11,0.85-1.11,1.647c-1.154,0.748-2.308,1.495-3.461,2.243C81.025,105.38,78.174,106.947,75.323,108.513z"/>
	<path fill="#CBCBCB" d="M77.356,113.272c1.073-0.144,1.766-1.038,2.736-1.386c0.013,1.489,0.026,2.978,0.039,4.467
		c0.842,3.98-1.071,6.309-4.62,7.596c-0.895,0.325-1.512,1.367-2.656,1.034c0.722-0.842,0.325-1.846,0.35-2.768
		c0.057-2.091,0.001-4.185-0.009-6.279c0.005-0.099,0.011-0.197,0.02-0.295C74.679,114.997,76.124,114.32,77.356,113.272z"/>
	<path fill="#E9E9EA" d="M77.356,113.272c-1.232,1.049-2.677,1.725-4.14,2.368c0.02-0.724,0.596-1.079,1.029-1.515
		c2.865-2.88,5.745-5.744,8.609-8.624c0.471-0.473,1.113-0.862,1.022-1.686c1.154-0.749,2.308-1.496,3.462-2.244
		c0.223-0.035,0.446-0.07,0.67-0.104c0.064,0.821-0.597,1.193-1.064,1.663c-2.818,2.839-5.657,5.657-8.474,8.495
		C78.001,112.097,77.351,112.47,77.356,113.272z"/>
	<path fill="#60AFE6" d="M91.467,92.272c-1.154,0.759-2.307,1.517-3.461,2.275c-0.218,0.037-0.436,0.075-0.654,0.113l-0.036-0.04
		c0.044-0.639,0.529-0.987,0.927-1.386c4.962-4.966,9.925-9.931,14.894-14.892c0.396-0.395,0.731-0.902,1.384-0.919
		c0.036,0.231,0.073,0.462,0.109,0.692c-0.033,0.234-0.065,0.467-0.098,0.701c-4.225,4.177-8.454,8.351-12.664,12.544
		C91.649,91.579,91.597,91.964,91.467,92.272z"/>
	<path fill="#60AFE6" d="M86.535,95c0.028-0.116,0.056-0.233,0.084-0.349c0.233-0.01,0.465-0.021,0.698-0.031l0.036,0.04
		C87.16,94.964,86.855,95.001,86.535,95z"/>
	<path fill="#60AFE6" d="M51.211,89.471c-0.995,0.113-1.664,0.822-2.437,1.339c-1.112,0.107-1.784,1.195-3.036,1.401
		c0.26-1.099,0.492-2.075,0.724-3.051c0.617-0.813,0.816-1.781,1.014-2.749c1.112-2.577,2.138-5.184,2.766-7.929
		c0.652-0.948,0.932-2.044,1.251-3.125c0.875-2.507,1.955-4.945,2.53-7.553c0.619-0.815,0.832-1.778,1.006-2.754
		c0.069-0.089,0.184-0.171,0.199-0.269c0.626-3.889,3.212-6.024,6.597-7.506c0.872-0.382,1.635-1.012,2.448-1.528
		c1.596-0.74,3.18-1.499,4.48-2.725c4.206-1.964,8.16-4.372,12.074-6.853c1.624-0.709,3.212-1.476,4.458-2.79
		c1.124,0.042,1.887-0.747,2.755-1.25c3.001-1.74,6.108-3.302,8.96-5.293c0.87,0.052,1.361-1.215,2.369-0.682
		c0.425,0.989,0.934,1.928,1.646,2.744c0.18,0.498,0.365,0.993,0.785,1.351c0.551,1.147,1.135,2.274,2.012,3.218
		c0.103,0.193,0.206,0.385,0.308,0.577c0.416,1.26,1.283,2.269,1.906,3.414c0.312,0.47,0.624,0.941,0.936,1.412
		c0.58,1.129,1.057,2.322,2.007,3.221c0.047,0.542,0.277,0.982,0.716,1.307c0.877,1.29,0.481,2.037-0.897,2.679
		c-1.485,0.691-2.849,1.642-4.266,2.479c-0.907,0.546-1.814,1.092-2.721,1.638c-1.47,0.62-2.832,1.426-4.125,2.356
		c-4.09,2.199-8.126,4.49-12.049,6.978c-1.469,0.634-2.845,1.43-4.138,2.371c-4.222,2.258-8.376,4.635-12.423,7.195
		c-1.461,0.606-2.798,1.433-4.1,2.32C60.328,84.007,55.646,86.527,51.211,89.471z"/>
	<path fill="#60AFE6" d="M85.286,43.38c-1.246,1.313-2.834,2.081-4.458,2.789c-0.079-0.829,0.589-1.202,1.057-1.672
		c5.467-5.484,10.949-10.953,16.416-16.437c0.469-0.47,1.135-0.843,1.072-1.667c1.161-0.764,2.323-1.528,3.484-2.292
		c0.218-0.036,0.436-0.073,0.654-0.11c0.05,0.82-0.612,1.193-1.082,1.664c-5.344,5.36-10.701,10.706-16.045,16.066
		C85.913,42.192,85.257,42.567,85.286,43.38z"/>
	<path fill="#60AFE6" d="M99.372,26.393c0.063,0.824-0.603,1.197-1.072,1.667c-5.467,5.484-10.948,10.953-16.416,16.437
		c-0.469,0.47-1.136,0.843-1.057,1.672c-3.913,2.481-7.867,4.889-12.074,6.853c-0.027-0.811,0.626-1.185,1.096-1.656
		c5.453-5.469,10.92-10.925,16.374-16.394c0.471-0.472,1.117-0.849,1.122-1.648c1.031-0.671,2.062-1.343,3.092-2.014
		C93.417,29.671,96.395,28.032,99.372,26.393z"/>
	<path fill="#60AFE6" d="M73.104,89.835c-0.006,1.716-0.012,3.432-0.017,5.148c-0.439,0.035-0.71,0.339-0.993,0.622
		c-5.466,5.466-10.931,10.931-16.397,16.397c-0.364,0.364-0.771,0.706-0.701,1.304c-1.081,0.829-2.254,1.502-3.483,2.084
		c-0.051-1.175-0.103-2.35-0.155-3.525c0.05-0.458,0.101-0.917,0.152-1.375c0.589,0.019,0.925-0.393,1.289-0.757
		c3.69-3.689,7.379-7.378,11.068-11.068c0.364-0.364,0.774-0.703,0.739-1.295c0.848-1.009,2.76-0.905,2.844-2.715
		c0.888-0.13,1.255-0.937,1.859-1.436C70.617,92.14,71.496,90.579,73.104,89.835z"/>
	<path fill="#60AFE6" d="M54.995,113.307c-0.069-0.598,0.337-0.94,0.701-1.304c5.466-5.466,10.931-10.931,16.397-16.397
		c0.283-0.284,0.554-0.587,0.993-0.622c0.006,0.579,0.012,1.157,0.017,1.736c-0.439,0.02-0.715,0.31-0.999,0.594
		c-4.106,4.107-8.212,8.214-12.319,12.319c-0.367,0.367-0.74,0.725-0.649,1.315c-1.162,0.753-2.324,1.507-3.485,2.26
		C55.433,113.241,55.214,113.274,54.995,113.307z"/>
	<path fill="#60AFE6" d="M59.138,110.948c-0.092-0.59,0.281-0.948,0.649-1.315c4.108-4.105,8.214-8.212,12.319-12.319
		c0.283-0.284,0.56-0.574,0.999-0.594c-0.006,1.719-0.012,3.438-0.018,5.157c-0.957,0.411-1.707,1.012-1.922,2.102
		c-1.159,0.767-2.318,1.534-3.477,2.3C64.838,107.835,61.988,109.391,59.138,110.948z"/>
	<path fill="#60AFE6" d="M64.605,97.37c0.034,0.592-0.375,0.931-0.739,1.295c-3.689,3.69-7.378,7.379-11.068,11.068
		c-0.364,0.364-0.7,0.776-1.289,0.757c-0.048-0.229-0.096-0.459-0.144-0.688c0.044-0.226,0.088-0.451,0.133-0.677
		c3.057-2.641,5.753-5.649,8.625-8.478c0.215-0.211,0.246-0.608,0.363-0.918C61.773,98.793,63.146,98.006,64.605,97.37z"/>
	<path fill="#E9E9EA" d="M80.131,116.352c-0.013-1.489-0.026-2.978-0.039-4.467c2.172-1.184,4.124-2.783,6.561-3.464
		c-0.522,0.582-1.039,1.169-1.567,1.745c-0.773,0.844-0.282,1.01,0.534,1.009C83.896,113.014,82.385,115.078,80.131,116.352z"/>
	<path fill="#60AFE6" d="M87.346,33.324c-0.006,0.799-0.651,1.175-1.122,1.648c-5.454,5.469-10.921,10.925-16.374,16.394
		c-0.47,0.471-1.123,0.846-1.096,1.656c-1.3,1.227-2.884,1.985-4.48,2.725c-0.006-0.803,0.648-1.173,1.116-1.643
		c5.565-5.581,11.144-11.149,16.709-16.73c0.469-0.47,1.121-0.843,1.103-1.649c1.162-0.763,2.323-1.525,3.485-2.287
		C86.907,33.4,87.127,33.362,87.346,33.324z"/>
	<path fill="#60AFE6" d="M101.802,60.194c0.907-0.546,1.814-1.092,2.721-1.638c0.039,3.652,0.077,7.303,0.116,10.955
		c-0.006,0.573-0.012,1.146-0.017,1.719c0.006,1.723,0.011,3.446,0.017,5.169c-0.039,0.342-0.079,0.684-0.119,1.025
		c-0.653,0.016-0.988,0.523-1.384,0.919c-4.968,4.96-9.932,9.925-14.894,14.892c-0.398,0.399-0.883,0.747-0.927,1.386
		c-0.233,0.01-0.465,0.02-0.698,0.031c0.005-1.838,0.01-3.676,0.015-5.514c0.435,0.009,0.753-0.215,1.046-0.508
		c2.91-2.915,5.823-5.827,8.737-8.737c0.336-0.335,0.608-0.687,0.528-1.2c0.918-0.572,1.792-1.238,2.765-1.693
		c1.144-0.535,1.534-1.291,1.479-2.546c-0.101-2.284-0.029-4.575-0.029-6.864c0-1.384,0-2.769,0-4.333
		c-1.036,0.509-1.747,0.858-2.457,1.207c-0.038-0.87,0.708-1.231,1.151-1.794C100.503,61.844,101.634,61.396,101.802,60.194z"/>
	<path fill="#60AFE6" d="M88.007,101.466c-0.223,0.035-0.446,0.069-0.67,0.104c-0.001-0.797,0.64-1.175,1.11-1.647
		c3.621-3.638,7.258-7.259,10.878-10.898c0.468-0.47,1.12-0.843,1.094-1.65c1.249-1.002,2.681-1.694,4.095-2.417l0.049,0.048
		c-0.017,0.792-0.664,1.163-1.132,1.633c-3.615,3.634-7.247,7.25-10.862,10.883c-0.467,0.469-1.119,0.842-1.083,1.651
		C90.328,99.939,89.168,100.702,88.007,101.466z"/>
	<path fill="#60AFE6" d="M104.516,84.959c-1.414,0.722-2.846,1.415-4.095,2.417c-2.807,1.26-5.322,3.044-8.028,4.484
		c-0.297,0.158-0.616,0.275-0.924,0.411c0.13-0.307,0.181-0.693,0.4-0.911c4.21-4.193,8.439-8.367,12.664-12.544
		c0.036,1.49,0.072,2.98,0.108,4.47C104.598,83.844,104.557,84.402,104.516,84.959z"/>
	<path fill="#60AFE6" d="M60.486,99.728c-0.117,0.311-0.148,0.708-0.363,0.919c-2.872,2.829-5.568,5.837-8.625,8.478
		c-0.047-1.382-0.093-2.765-0.14-4.148c0.05-0.458,0.101-0.917,0.152-1.375c1.835-0.604,2.576-2.524,4.146-3.445
		c0.056,0.646,0.112,1.291,0.179,2.067C57.505,101.328,58.996,100.528,60.486,99.728z"/>
	<path fill="#60AFE6" d="M55.656,100.157c-1.571,0.921-2.312,2.841-4.146,3.445c-0.048-0.229-0.096-0.459-0.144-0.688
		c0.044-0.226,0.088-0.451,0.133-0.677c1.594-0.899,2.328-2.829,4.145-3.461C55.647,99.237,55.651,99.697,55.656,100.157z"/>
	<path fill="#60AFE6" d="M55.643,98.776c-1.817,0.632-2.551,2.562-4.145,3.461c-0.047-1.382-0.093-2.765-0.14-4.148
		c0.05-0.458,0.101-0.917,0.152-1.375c1.835-0.604,2.576-2.524,4.146-3.445C55.651,95.105,55.647,96.941,55.643,98.776z"/>
	<path fill="#60AFE6" d="M51.211,89.471c4.434-2.944,9.117-5.464,13.757-8.057c0.04,0.874-0.699,1.245-1.147,1.811
		c-0.655,0.828-1.791,1.279-1.959,2.489c-1.303,0.803-2.535,1.77-3.926,2.366c-1.779,0.763-2.547,1.925-2.293,3.809
		c-1.817,0.632-2.551,2.562-4.146,3.461c-0.046-1.382-0.093-2.765-0.139-4.147C51.448,90.613,51.664,90.014,51.211,89.471z"/>
	<path fill="#60AFE6" d="M51.497,95.349c1.595-0.898,2.329-2.828,4.146-3.461c0.004,0.46,0.008,0.921,0.013,1.381
		c-1.571,0.921-2.312,2.841-4.146,3.445c-0.048-0.229-0.096-0.459-0.144-0.688C51.409,95.8,51.453,95.575,51.497,95.349z"/>
	<path fill="#60AFE6" d="M85.628,69.528c3.923-2.488,7.959-4.779,12.049-6.978c-0.069,1.11-1.1,1.508-1.667,2.25
		c-0.498,0.652-1.416,1.007-1.419,2.008c-1.359,0.831-2.696,1.703-4.088,2.476c-0.739,0.41-1.051,0.9-1.041,1.759
		c0.042,3.426,0.037,6.853,0.009,10.279c-0.009,1.082,0.174,1.574,1.312,0.819c0.753-0.5,1.595-0.867,2.396-1.294
		c-0.17,1.268-1.271,1.84-2.067,2.574c-1.474,1.359-2.525,3.208-4.501,3.999c0-4.394,0-8.788,0-13.507
		c-3.393,1.915-6.506,3.672-9.619,5.428c-0.045-0.789,0.527-1.214,1.004-1.691c2.204-2.208,4.415-4.408,6.612-6.622
		C85.036,70.597,85.609,70.245,85.628,69.528z"/>
	<path fill="#60AFE6" d="M85.628,69.528c-0.02,0.718-0.592,1.069-1.021,1.501c-2.197,2.214-4.409,4.414-6.612,6.622
		c-0.476,0.477-1.048,0.902-1.004,1.691c-0.857,0.519-1.679,1.114-2.581,1.534c-0.931,0.433-1.358,1.071-1.306,2.069
		c-1.035,0.241-1.468,1.219-2.215,1.813c-1.193,0.95-1.93,2.421-3.44,3.01c-0.006-0.577-0.011-1.154-0.016-1.732
		c0.442-0.006,0.733-0.277,1.021-0.566c4.133-4.135,8.267-8.27,12.402-12.402c0.329-0.329,0.647-0.658,0.634-1.169
		C82.783,70.958,84.16,70.162,85.628,69.528z"/>
	<path fill="#60AFE6" d="M67.45,87.767c1.51-0.588,2.247-2.059,3.44-3.01c0.747-0.595,1.18-1.572,2.215-1.813
		c-0.006,1.717-0.012,3.435-0.017,5.152c-1.601,0.797-2.527,2.339-3.83,3.467c-0.543,0.47-0.956,1.142-1.824,1.016
		C67.438,90.975,67.444,89.371,67.45,87.767z"/>
	<path fill="#60AFE6" d="M86.611,87.421c1.976-0.791,3.027-2.64,4.501-3.999c0.796-0.734,1.898-1.306,2.067-2.574
		c0,0-0.004,0.012-0.004,0.012c0.312-0.001,0.591-0.059,0.698-0.409c0.937-0.738,1.969-1.309,3.072-1.759
		c0.08,0.513-0.192,0.865-0.528,1.2c-2.915,2.91-5.827,5.823-8.737,8.737c-0.293,0.293-0.61,0.517-1.046,0.508
		C86.626,88.565,86.618,87.993,86.611,87.421z"/>
	<path fill="#60AFE6" d="M67.433,92.579c0.868,0.126,1.281-0.546,1.824-1.016c1.302-1.128,2.229-2.67,3.83-3.467
		c0.006,0.58,0.012,1.16,0.017,1.739c-1.608,0.744-2.488,2.304-3.796,3.384c-0.604,0.498-0.971,1.305-1.859,1.436
		C67.444,93.963,67.438,93.271,67.433,92.579z"/>
	<path fill="#60AFE6" d="M81.491,71.899c0.013,0.511-0.305,0.84-0.634,1.169c-4.136,4.133-8.27,8.267-12.402,12.402
		c-0.288,0.288-0.579,0.56-1.021,0.566c-0.018-0.608-0.105-1.224-0.04-1.823c0.147-1.354-0.47-1.34-1.407-0.862
		c0.075-1.107,1.103-1.507,1.669-2.249c0.497-0.651,1.42-1.002,1.413-2.008C73.115,76.534,77.268,74.157,81.491,71.899z"/>
	<path fill="#60AFE6" d="M94.591,66.808c0.003-1.002,0.921-1.357,1.419-2.008c0.567-0.742,1.598-1.14,1.667-2.25
		c1.293-0.93,2.655-1.736,4.125-2.356c-0.168,1.202-1.299,1.65-1.948,2.475c-0.443,0.563-1.189,0.924-1.151,1.794
		C97.42,65.398,96.057,66.192,94.591,66.808z"/>
	<path fill="#60AFE6" d="M69.068,79.094c0.007,1.006-0.916,1.357-1.413,2.008c-0.566,0.742-1.594,1.142-1.669,2.248
		c-1.302,0.914-2.626,1.791-4.124,2.364c0.168-1.21,1.304-1.661,1.959-2.489c0.448-0.566,1.188-0.937,1.147-1.811
		C66.27,80.527,67.607,79.7,69.068,79.094z"/>
	<path fill="#60AFE6" d="M61.862,85.714c1.498-0.573,2.822-1.45,4.124-2.364c0.937-0.478,1.554-0.492,1.407,0.862
		c-0.065,0.599,0.022,1.215,0.04,1.823c0.006,0.577,0.011,1.154,0.016,1.732c-0.005,1.604-0.011,3.208-0.016,4.812
		c0.006,0.692,0.011,1.384,0.017,2.076c-0.084,1.81-1.996,1.706-2.844,2.715c-1.46,0.636-2.832,1.423-4.12,2.358
		c-1.49,0.799-2.98,1.599-4.651,2.496c-0.067-0.776-0.123-1.422-0.179-2.067c-0.004-0.46-0.008-0.921-0.013-1.381
		c0.004-1.836,0.008-3.671,0.013-5.507c-0.004-0.46-0.008-0.92-0.013-1.381c-0.254-1.884,0.514-3.046,2.293-3.809
		C59.327,87.484,60.559,86.516,61.862,85.714z"/>
	<path fill="#60AFE6" d="M94.591,66.808c1.465-0.616,2.829-1.411,4.112-2.346c0.71-0.348,1.421-0.697,2.457-1.206
		c0,1.564,0,2.949,0,4.333c0,2.288-0.072,4.58,0.029,6.864c0.056,1.255-0.335,2.011-1.479,2.546
		c-0.973,0.455-1.847,1.121-2.765,1.693c-1.103,0.449-2.135,1.02-3.072,1.758c-0.233,0.137-0.465,0.273-0.698,0.409
		c0,0,0.004-0.012,0.004-0.012c-0.802,0.426-1.644,0.793-2.396,1.294c-1.137,0.755-1.32,0.264-1.312-0.819
		c0.028-3.426,0.033-6.853-0.009-10.279c-0.01-0.859,0.302-1.349,1.041-1.759C91.895,68.512,93.232,67.639,94.591,66.808z"/>
	<path fill="#60AFE6" d="M93.175,80.859c0.232-0.136,0.465-0.272,0.698-0.409C93.766,80.801,93.487,80.859,93.175,80.859z"/>
</g>
<g>
	<polygon fill="#EAEAEA" points="68.064,86.388 68.05,86.393 68.05,86.403 	"/>
	<path fill="#60AFE6" d="M82.324,59.5c-0.492,0.275-1.017,0.491-1.527,0.734c-1.034,0.682-2.068,1.364-3.102,2.046
		c0.001,0.73-0.577,1.084-1.009,1.519c-2.941,2.956-5.902,5.892-8.831,8.859c-0.405,0.411-1.07,0.69-1.008,1.707
		c1.96-1.123,3.795-2.188,5.645-3.226c0.614-0.345,1.412-1.084,1.936-0.249c0.545,0.869-0.34,1.38-1.048,1.817
		c-0.859,0.531-1.969,0.664-2.574,1.602c0.015,0.801,7.359-5.1,7.359-5.1c2.615-2.614-1.922,1.922,0.457-0.469
		c0.469-0.472,1.122-0.841,1.135-1.638c-1.394-0.501-0.192-0.968,0.087-1.253c2.921-2.979,5.886-5.914,8.828-8.871
		c0.472-0.474,1.103-0.863,1.086-1.664C87.281,56.71,84.807,58.113,82.324,59.5z"/>
	<path fill="#60AFE6" d="M63.916,81.937c0.731,0.709,0.37,1.194-0.24,1.792c-3.134,3.077-6.23,6.194-9.326,9.31
		c-0.468,0.471-1.116,0.846-1.107,1.647c3.708-1.735,7.13-3.98,10.661-6.028c1.364-0.791,2.662-1.698,4.147-2.265
		c0.009-0.269,0.05-0.523,0.326-0.663c0.012-0.121,0.024-0.243,0.036-0.364c-0.236-0.346-0.473-0.693-0.709-1.039
		C64.686,82.687,64.381,81.36,63.916,81.937z"/>
</g>
<g>
	<path fill="#B5B8B9" d="M75.827,73.374c0.3,1.188-0.373,1.953-1.5,2.601c-9.287,5.339-18.554,10.714-27.828,16.077
		c-1.944,1.124-3.876,2.27-5.844,3.352c-0.752,0.414-1.508,1.57-2.46,0.378c-0.671-0.841-0.081-3.1,0.894-3.672
		c3.098-1.817,6.205-3.62,9.318-5.412c8.505-4.897,17.012-9.788,25.522-14.676C75.728,70.989,75.829,71.06,75.827,73.374z"/>
	<path fill="#B5B8B9" d="M75.66,57.314c0.507,1.908-0.284,2.622-1.382,3.248c-8.256,4.702-16.499,9.427-24.742,14.151
		c-3.23,1.851-6.466,3.693-9.67,5.589c-1.135,0.672-1.437,0.52-1.557-0.86c-0.158-1.82,0.603-2.777,2.098-3.627
		c11.326-6.438,22.621-12.931,33.915-19.425C76.553,55.107,75.54,57.13,75.66,57.314z"/>
	<path fill="#B5B8B9" d="M75.987,86.435c0.769,2.586-0.132,3.964-2.245,5.157c-11.107,6.271-22.129,12.694-33.2,19.03
		c-0.49,0.28-1.134,1.162-1.75,0.231c-0.557-0.842,0.083-3.306,0.903-3.787c3.095-1.815,6.193-3.627,9.307-5.408
		c8.29-4.74,16.588-9.467,24.889-14.189C74.548,87.096,75.248,86.798,75.987,86.435z"/>
	<path fill="#B5B8B9" d="M75.697,63.571c0.346,3.786,0.302,3.71-2.632,5.379C62.966,74.695,52.9,80.499,42.82,86.277
		c-0.724,0.415-1.438,0.859-2.198,1.198c-0.68,0.303-1.203,1.415-2.103,0.685c-0.581-0.472-0.007-3.415,0.698-3.833
		c2.926-1.735,5.866-3.446,8.819-5.135c8.357-4.779,16.721-9.544,25.088-14.306C73.896,64.447,74.706,64.075,75.697,63.571z"/>
	<path fill="#B5B8B9" d="M75.545,78.925c0.64,3.449,0.627,3.516-2.068,5.076c-11.201,6.486-22.413,12.951-33.604,19.453
		c-1.245,0.723-1.468,0.36-1.505-0.918c-0.042-1.447,0.182-2.517,1.609-3.324C51.795,92.522,63.574,85.764,75.545,78.925z"/>
	<path fill="#364855" d="M92.42,42.29c-0.14,0.087-0.279,0.176-0.424,0.255c-0.006,0.004-0.066-0.09-0.1-0.139
		c0.168-0.046,0.337-0.092,0.505-0.138L92.42,42.29z"/>
	<path fill="#A67E30" d="M118.297,57.679c-0.016,0.252-0.108,0.439-0.397,0.452C118.033,57.98,118.165,57.83,118.297,57.679z"/>
	<path fill="#A4A6A9" d="M109.396,66.985c0.314,0.009,0.59,0.089,0.743,0.399C109.828,67.369,109.551,67.291,109.396,66.985z"/>
</g>
<g>
	<path fill="#FAD7C7" d="M94.845,58.508c-1.205,0.415-2.108-0.379-3.079-0.813c-0.999-0.447-1.936-1.031-2.914-1.529
		c-0.701-0.357-1.279-0.817-1.581-1.567c0-0.237,0-0.473,0-0.71c1.207-1.931,2.492-3.811,3.784-5.685
		c0.731,0.147,1.335,0.561,1.946,0.949c1.033,0.656,1.026,0.667,0.248,1.557c-0.025,0.029-0.038,0.068-0.057,0.102
		c-0.894,0.99-1.776,1.991-2.689,2.963c-0.244,0.26-0.225,0.416,0.042,0.595c0.54,0.363,1.01,0.806,1.49,1.243
		c1.128,1.026,1.652,1.106,2.819,0.527c0.157,0,0.316-0.016,0.47,0.003c0.51,0.063,1.146,0.757,1.159,1.333
		c0.013,0.576-0.473,0.7-0.903,0.837C95.338,58.39,95.09,58.444,94.845,58.508z"/>
	<path fill="#E4E4E4" d="M94.845,58.508c0.245-0.064,0.493-0.118,0.734-0.195c0.43-0.138,0.916-0.261,0.903-0.837
		c-0.013-0.575-0.649-1.27-1.159-1.333c-0.154-0.019-0.313-0.003-0.47-0.003c-0.405-1.823-0.981-3.592-1.661-5.329
		c0.019-0.034,0.032-0.074,0.057-0.102c0.777-0.89,0.785-0.901-0.248-1.557c-0.611-0.388-1.215-0.802-1.946-0.949
		c0.185-0.995,0.644-1.782,1.606-2.228c0.817-0.379,1.614-0.798,2.42-1.2c0.537,0.985,2.546,2.131,3.671,1.873
		c0.642-0.147,1.306-0.336,1.555-1.009c0.214-0.578,0.438-1.146,0.703-1.701c1.344,0.02,2.32,0.76,3.213,1.651
		c0.154,0.154,0.228,0.367,0.216,0.597c-0.541,0.566-0.826,1.215-0.722,2.021c0.045,0.348,0.008,0.707,0.008,1.06
		c-0.153,0.642-0.366,1.277-0.442,1.927c-0.067,0.577-0.493,1.131-0.156,1.743c-0.464,0.945-0.182,1.891,0,2.837
		c0.013,1.217,0.505,2.331,0.752,3.497c0.036,0.171,0.056,0.346,0.084,0.519c-0.744,1.108-1.823,1.701-3.086,2.012
		c-0.215,0.022-0.432,0.034-0.645,0.069c-1.114,0.183-2.233,0.221-3.36,0.18c-1.047-0.038-1.856-0.564-2.62-1.202
		c-0.185-0.411-0.095-0.778,0.112-1.166C94.562,59.314,94.84,58.963,94.845,58.508z"/>
	<path fill="#07557A" d="M94.251,60.852c0.764,0.638,1.572,1.163,2.62,1.202c1.127,0.041,2.246,0.002,3.36-0.18
		c0.213-0.035,0.43-0.047,0.645-0.069c0.023,0.369,0.023,0.733,0.095,1.104c0.233,1.2,0.214,2.337-0.719,3.329
		c-0.336,0.357-0.666,0.83-0.679,1.398c-0.217,0.128-0.196,0.363-0.243,0.563c-0.309,1.322-0.676,2.619-1.27,3.855
		c-0.97,2.019-1.953,4.041-2.301,6.29c-0.098,0.629-0.671,1.041-0.784,1.627c-0.219,1.141-0.585,2.244-0.801,3.383
		c0.035,0.633-0.251,1.244-0.127,1.883c0.043,0.223-0.119,0.304-0.283,0.377c-0.236,0.003-0.471,0.007-0.707,0.01
		c-0.905-0.034-1.784-0.368-2.704-0.234c-0.078-0.009-0.156-0.017-0.234-0.026c-0.237-0.81-0.188-1.555,0.461-2.181
		c0.232-0.224,0.278-0.491,0.166-0.811c-0.245-0.7-0.216-1.372,0.182-2.039c0.274-0.46,0.356-1.008,0.348-1.54
		c-0.016-1.003,0.225-1.952,0.547-2.883c0.808-2.332,1.337-4.733,1.665-7.169c0.186-1.38,0.066-2.796,0.288-4.18
		c0.187-1.166,0.416-2.325,0.374-3.515C94.148,60.983,94.216,60.917,94.251,60.852z"/>
	<path fill="#074563" d="M99.573,67.636c0.013-0.568,0.343-1.042,0.679-1.398c0.933-0.992,0.953-2.129,0.719-3.329
		c-0.072-0.372-0.072-0.736-0.095-1.104c1.263-0.312,2.342-0.905,3.086-2.012c0.418,0.65,0.533,1.392,0.58,2.135
		c0.163,2.579,0.202,5.164-0.02,7.736c-0.12,1.384-0.488,2.747-0.725,4.122c-0.188,1.086-0.359,2.174-0.225,3.287
		c0.051,0.427,0.076,0.868-0.147,1.271c-0.108,0.196-0.082,0.378,0.069,0.542c0.268,0.293,0.336,0.659,0.375,1.035
		c-0.103,0.191,0.079,0.451-0.148,0.612c-0.33-0.056-0.657-0.039-0.981,0.044c-0.581,0.149-1.154,0.348-1.768,0.301
		c-0.348-0.037-0.696-0.075-1.044-0.112c-0.212-0.286-0.024-0.69-0.284-0.962c-0.085-1.218-0.179-2.436-0.252-3.654
		c-0.119-1.987-0.236-3.971,0.162-5.949C99.722,69.357,99.838,68.492,99.573,67.636z"/>
	<path fill="#2B383D" d="M99.643,79.802c0.26,0.272,0.072,0.676,0.284,0.962c0.047,0.106,0.065,0.248,0.145,0.313
		c0.682,0.55,1.147,1.298,1.76,1.906c0.746,0.741,1.674,1.016,2.718,0.793c0.874-0.187,0.982-0.34,0.95-1.243
		c-0.203-0.622-0.826-0.75-1.286-1.051c-0.376-0.247-0.582-0.5-0.494-0.95c0.227-0.161,0.045-0.421,0.148-0.612
		c1.167,0.332,2.074,1.034,2.727,2.034c0.431,0.66,0.194,1.363-0.524,1.891c-1.133,0.834-2.458,1.218-3.767,1.65
		c-1.659,0.547-3.452,0.691-4.995,1.565c-1.179,0.668-2.288,1.46-3.433,2.189c-1.802,1.148-3.821,1.257-5.521-0.182
		c-0.834-0.706-0.963-1.401-0.236-2.212c0.45-0.502,1.018-0.864,1.614-1.177c0.149-0.078,0.362-0.081,0.386-0.314
		c0.078,0.009,0.156,0.017,0.234,0.026c-0.085,0.729-0.339,1.379-0.9,1.878c-0.246,0.219-0.333,0.509-0.403,0.811
		c-0.29,0.481-0.046,0.782,0.371,0.969c1.159,0.519,2.762-0.053,3.27-1.208c0.333-0.756,0.659-1.51,1.072-2.226
		c0.164-0.073,0.326-0.154,0.283-0.377c-0.123-0.64,0.162-1.251,0.127-1.883c0.227,0.045,0.42-0.047,0.615-0.145
		c1.02-0.511,1.967-1.115,2.734-1.98C98.104,80.574,98.834,80.125,99.643,79.802z"/>
	<path fill="#FAD6C6" d="M101.01,43.939c-0.265,0.555-0.489,1.123-0.703,1.701c-0.249,0.673-0.913,0.861-1.555,1.009
		c-1.124,0.258-3.133-0.888-3.671-1.873c0.324-0.228,0.602-0.505,0.828-0.829c0.505-0.722,0.511-0.958-0.009-1.672
		c-0.322-0.441-0.592-0.883-0.42-1.459c0.503,0.109,0.971,0.262,1.283,0.728c0.192,0.286,0.326,0.092,0.393-0.116
		c0.041-0.127,0.025-0.273,0.043-0.408c0.15-1.099,0.539-1.951,1.989-1.686c0.528,0.096,0.967-0.046,1.293-0.487
		c0.564,0.571,0.638,1.344,0.726,2.059C101.333,41.913,101.244,42.938,101.01,43.939z"/>
	<path fill="#FAD7C7" d="M103.126,55.776c-0.181-0.946-0.464-1.891,0-2.837c0.25-0.514,0.565-0.987,0.912-1.439
		c0.913-1.192,0.905-1.259-0.314-2.232c0-0.354,0.037-0.712-0.008-1.06c-0.104-0.806,0.181-1.455,0.722-2.021
		c0.763,0.579,1.22,1.429,1.871,2.109c0.23,0.241,0.448,0.494,0.669,0.744c0.525,0.595,0.55,1.14,0.027,1.738
		c-1.009,1.151-2.032,2.291-3.064,3.422C103.524,54.657,103.155,55.124,103.126,55.776z"/>
	<path fill="#845215" d="M100.481,38.845c-0.326,0.441-0.765,0.583-1.293,0.487c-1.45-0.264-1.839,0.587-1.989,1.686
		c-0.019,0.136-0.002,0.281-0.043,0.408c-0.067,0.208-0.201,0.403-0.393,0.116c-0.312-0.466-0.78-0.619-1.283-0.728
		c-0.09-0.3-0.215-0.595-0.265-0.902c-0.226-1.414,0.508-2.488,1.921-2.761c1.233-0.238,2.291,0.133,3.137,1.068
		C100.429,38.391,100.606,38.573,100.481,38.845z"/>
	<path fill="#FAFAFA" d="M89.051,88.079c0.07-0.302,0.157-0.592,0.403-0.811c0.561-0.499,0.815-1.149,0.9-1.878
		c0.92-0.134,1.799,0.2,2.704,0.234c-0.19,0.469-0.373,0.942-0.572,1.407C91.929,88.331,90.263,88.837,89.051,88.079z"/>
	<path fill="#2E2E2E" d="M89.051,88.079c1.213,0.758,2.878,0.252,3.435-1.048c0.199-0.465,0.382-0.938,0.572-1.407
		c0.236-0.003,0.471-0.007,0.707-0.01c-0.413,0.715-0.74,1.47-1.072,2.226c-0.508,1.155-2.111,1.727-3.27,1.208
		C89.005,88.861,88.761,88.56,89.051,88.079z"/>
	<path fill="#F9F9F9" d="M103.72,80.532c-0.089,0.45,0.117,0.703,0.494,0.95c0.459,0.301,1.083,0.43,1.286,1.051
		c-1.084,0.697-2.18,0.635-3.178-0.204c-0.508-0.427-0.985-0.89-1.351-1.453c0.614,0.047,1.187-0.152,1.768-0.301
		C103.063,80.492,103.39,80.476,103.72,80.532z"/>
	<path fill="#2B2B2C" d="M100.971,80.876c0.366,0.563,0.843,1.026,1.351,1.453c0.998,0.839,2.094,0.901,3.178,0.204
		c0.032,0.903-0.076,1.057-0.95,1.243c-1.044,0.223-1.971-0.052-2.718-0.793c-0.612-0.608-1.078-1.356-1.76-1.906
		c-0.08-0.065-0.098-0.207-0.145-0.313C100.275,80.802,100.623,80.839,100.971,80.876z"/>
</g>
<path fill="#E9E9EA" d="M98.227,103.338c0,0,10.965-8.986,11.505-8.678c0.54,0.308,8.174-7.284,8.174-7.284l0.29-2.822l-0.791-0.187
	l-9.193,5.225l-3.914,2.346l-2.201,1.494l-3.209,2.932l-3.51,3.665l-3.323,3.74l0.461,0.99l3.436-0.581L98.227,103.338z"/>
</svg>
