<?xml version="1.0" encoding="utf-8"?>
<!-- Generator: Adobe Illustrator 16.0.0, SVG Export Plug-In . SVG Version: 6.00 Build 0)  -->
<!DOCTYPE svg PUBLIC "-//W3C//DTD SVG 1.1//EN" "http://www.w3.org/Graphics/SVG/1.1/DTD/svg11.dtd">
<svg version="1.1" id="Layer_1" xmlns="http://www.w3.org/2000/svg" xmlns:xlink="http://www.w3.org/1999/xlink" x="0px" y="0px"
	 width="500px" height="500px" viewBox="0 0 500 500" enable-background="new 0 0 500 500" xml:space="preserve">
<path stroke="#FFFFFF" stroke-miterlimit="10" d="M490.298,62.071c-0.008-23.778-12.031-41.682-32.571-48.711
	c-3.134-1.073-6.349-1.913-9.526-2.86c-132.085,0-264.17,0-396.257,0c-0.808,0.373-1.58,0.929-2.43,1.092
	c-22.873,4.402-39.088,22.86-39.186,46.1c-0.343,81.93-0.344,233.86-0.449,315.792c-0.02,15.56-0.57,55.152,0.281,70.669
	c1.251,22.847,16.926,39.871,39.338,44.26c0.854,0.167,1.633,0.716,2.445,1.087c132.087,0,264.172,0,396.257,0
	c2.45-0.749,4.89-1.53,7.35-2.239c19.22-5.543,32.842-22.14,34.436-42.023c0.194-2.429,0.312-4.868,0.312-7.304
	C490.312,343.979,490.329,156.025,490.298,62.071z M174.127,430.33c0,16.568-13.432,30-30,30H70.203c-16.569,0-30-13.432-30-30v-140
	c0-16.568,13.432-30,30-30h73.924c16.568,0,30,13.432,30,30V430.33z M340.127,430.33c0,16.568-13.432,30-30,30h-72.924
	c-16.569,0-30-13.432-30-30v-140c0-16.568,13.432-30,30-30h72.924c16.568,0,30,13.432,30,30V430.33z M340.127,209.222
	c0,16.568-13.432,30-30,30H70.203c-16.569,0-30-13.432-30-30v-140c0-16.568,13.432-30,30-30h239.924c16.568,0,30,13.432,30,30
	V209.222z M459.554,430.33c0,16.568-13.432,30-30,30h-29.847c-16.569,0-30.001-13.432-30.001-30V69.222
	c0-16.568,13.432-30,30.001-30h29.847c16.568,0,30,13.432,30,30V430.33z"/>
</svg>
