<svg xmlns="http://www.w3.org/2000/svg" width="111" height="31" viewBox="0 0 111 31">
    <g fill="none" fill-rule="evenodd">
        <path fill="#1A1919" d="M34.307 21.307a7.713 7.713 0 0 1-4.01 1.108h-6.365v1.67c0 3.819-3.306 6.915-7.384 6.915-4.077 0-7.383-3.096-7.383-6.915v-1.67H7.383C3.306 22.415 0 19.32 0 15.5c0-3.82 3.306-6.915 7.383-6.915h1.782v-1.67C9.165 3.095 12.471 0 16.548 0h18.33c2.901 0 5.399 1.57 6.603 3.82l2.563 4.801 2.55-4.78C47.799 1.588 50.285 0 53.21 0c2.9 0 5.398 1.57 6.602 3.82l2.563 4.801 2.551-4.78C66.13 1.588 68.614 0 71.54 0h22.913c4.077 0 7.383 3.096 7.383 6.915v1.67h1.782c4.078 0 7.383 3.095 7.383 6.915 0 3.819-3.305 6.915-7.383 6.915h-1.782v1.67c0 3.819-3.306 6.915-7.383 6.915h-18.33c-3.112 0-5.774-1.803-6.86-4.355l-.285.534C67.77 29.433 65.273 31 62.374 31c-2.902 0-5.398-1.571-6.602-3.82l-2.563-4.802-2.562 4.8C49.44 29.434 46.943 31 44.044 31c-2.902 0-5.398-1.571-6.602-3.82l-3.135-5.873"/>
        <path fill="#FFFFFE" d="M78.205 21.7h13.622v-4.133H78.205V21.7zm-4.541-6.2c0-1.142 1.016-2.067 2.27-2.067h15.893V9.3h-19.03l-8.455 15.39c-.372.678-1.142 1.143-2.03 1.143-.889 0-1.658-.465-2.031-1.142L53.23 11.855 46.179 24.69c-.373.677-1.142 1.142-2.03 1.142-.89 0-1.659-.465-2.032-1.142L33.663 9.3h-14.49v4.133h11.352c1.254 0 2.27.925 2.27 2.067 0 1.141-1.016 2.067-2.27 2.067H19.173v6.2c0 1.14-1.016 2.066-2.27 2.066-1.255 0-2.271-.925-2.271-2.066v-6.2H7.82c-1.253 0-2.27-.926-2.27-2.067 0-1.142 1.017-2.067 2.27-2.067h6.812v-6.2c0-1.141 1.016-2.066 2.27-2.066h18.164c.889 0 1.658.465 2.031 1.142l7.051 12.836L51.19 6.327c.382-.696 1.151-1.16 2.04-1.16.89 0 1.658.465 2.032 1.142l7.05 12.836 7.042-12.818c.382-.696 1.15-1.16 2.04-1.16h22.705c1.254 0 2.27.925 2.27 2.066v6.2h6.812c1.253 0 2.27.925 2.27 2.067 0 1.141-1.017 2.067-2.27 2.067h-6.812v6.2c0 1.14-1.016 2.066-2.27 2.066H75.934c-1.254 0-2.27-.925-2.27-2.066V15.5z"/>
    </g>
</svg>
