<svg xmlns="http://www.w3.org/2000/svg" width="63" height="38" viewBox="0 0 63 38">
    <path fill="#000" fill-rule="evenodd" d="M21.158 29.98c-.937.433-2.256.652-3.945.652H7.76v-9.886h9.587c1.667.015 2.967.226 3.892.628 1.656.723 2.478 2.046 2.478 3.978 0 2.279-.851 3.816-2.559 4.627zM7.76 6.434h8.476c1.863 0 3.397.194 4.604.579 1.393.558 2.09 1.696 2.09 3.427 0 1.552-.53 2.638-1.583 3.252-1.059.614-2.433.92-4.118.92h-9.47V6.436zm18.159 10.74c1.984.69 3.48 1.779 4.5 3.271 1.008 1.489 1.515 3.301 1.515 5.432 0 2.198-.577 4.17-1.738 5.91a10.4 10.4 0 0 1-2.755 2.917c-1.24.907-2.704 1.523-4.398 1.862-1.692.335-3.522.498-5.5.498H0V0h18.814c4.749.066 8.109 1.383 10.09 3.948 1.188 1.577 1.785 3.461 1.785 5.658 0 2.26-.597 4.083-1.8 5.46-.674.768-1.663 1.473-2.97 2.109zM40.256 6.34V1.728H56.94V6.34H40.256zm20.184 7.928c1.19 1.63 1.954 3.52 2.301 5.668.205 1.254.286 3.075.251 5.442H42.016c.126 2.747 1.118 4.675 3.017 5.78 1.147.688 2.53 1.033 4.151 1.033 1.708 0 3.105-.42 4.174-1.256.59-.455 1.108-1.083 1.553-1.886h7.686c-.203 1.622-1.137 3.276-2.79 4.954C57.23 36.666 53.617 38 48.977 38c-3.834 0-7.215-1.122-10.139-3.373-2.937-2.245-4.397-5.906-4.397-10.972 0-4.75 1.322-8.393 3.964-10.927 2.648-2.53 6.074-3.803 10.294-3.803 2.508 0 4.762.43 6.771 1.286 2.012.855 3.667 2.21 4.97 4.057zm-18.238 6.38h12.976c-.138-1.904-.812-3.343-2.006-4.334-1.207-.984-2.693-1.475-4.47-1.475-1.925 0-3.43.522-4.493 1.566-1.063 1.044-1.733 2.458-2.007 4.243z"/>
</svg>
