<?xml version="1.0" encoding="utf-8"?>
<!-- Generator: Adobe Illustrator 22.0.1, SVG Export Plug-In . SVG Version: 6.00 Build 0)  -->
<svg version="1.1" id="Layer_1" xmlns="http://www.w3.org/2000/svg" xmlns:xlink="http://www.w3.org/1999/xlink" x="0px" y="0px"
	 viewBox="0 0 100 100" style="enable-background:new 0 0 100 100;" xml:space="preserve">
<style type="text/css">
	.st0{fill:url(#SVGID_1_);}
	.st1{fill:url(#SVGID_2_);}
	.st2{fill:url(#SVGID_3_);}
	.st3{fill:url(#SVGID_4_);}
	.st4{fill:url(#SVGID_5_);}
</style>
<title>Header Icons</title>
<g>
	
		<linearGradient id="SVGID_1_" gradientUnits="userSpaceOnUse" x1="50.1426" y1="2.1788" x2="50.1426" y2="98.1559" gradientTransform="matrix(1 0 0 -1 0 100)">
		<stop  offset="0" style="stop-color:#8393A7"/>
		<stop  offset="1" style="stop-color:#5B6A72"/>
	</linearGradient>
	<path class="st0" d="M75.1,35.4v-0.2c0-6.7-2.6-12.9-7.4-17.6c-1.4-1.4-3-2.6-4.8-3.8l3.2-7.5c0.3-0.8,0.3-1.7,0-2.5
		s-0.9-1.5-1.8-1.8c-0.8-0.3-1.7-0.3-2.5,0C61,2.3,60.3,2.8,60,3.8l-3.1,7.4c-4.4-1.1-9-1.1-13.3,0l-3.2-7.5
		c-0.3-0.8-0.9-1.4-1.8-1.7c-0.8-0.3-1.7-0.3-2.5,0s-1.5,1-1.8,1.8c-0.3,0.8-0.3,1.7,0,2.5l3.2,7.5c-1.7,1-3.3,2.3-4.8,3.8
		c-4.7,4.7-7.4,10.9-7.4,17.6h0.9h-0.2L25.2,35v34.6c0,2.8,0.9,5.5,2.8,7.6c1.5,1.8,3.6,3.2,5.9,3.9v10.2c0,2.1,0.8,4,2.3,5.4
		c1.5,1.5,3.3,2.3,5.4,2.3s4-0.8,5.4-2.3c1.5-1.5,2.3-3.3,2.3-5.4v-9.5h2v9.5c0,2.1,0.8,4,2.3,5.4c1.5,1.5,3.3,2.3,5.4,2.3
		s4-0.8,5.4-2.3c1.4-1.5,2.3-3.3,2.3-5.4v-10c2.3-0.7,4.4-2.1,5.9-3.9c1.7-2.2,2.8-4.8,2.8-7.6V35.4h-0.8h0.2H75.1z M32.3,31.8
		C33,27.9,35,24.3,38,21.7c3.3-3,7.7-4.7,12.2-4.7s8.8,1.6,12.2,4.7c3,2.6,4.9,6.3,5.7,10.1H32.3z M56.9,76c-0.7-0.7-1.5-1-2.4-1
		h-8.6c-0.9,0-1.7,0.3-2.4,1c-0.6,0.7-1,1.5-1,2.4v12.9c0,0.2-0.1,0.5-0.2,0.7c-0.3,0.3-1,0.3-1.4,0c-0.2-0.2-0.2-0.5-0.2-0.7V78.4
		c0-0.9-0.3-1.7-1-2.4c-0.7-0.6-1.5-1-2.4-1c-1.4,0-2.8-0.6-3.7-1.5c-0.9-0.9-1.5-2.3-1.5-3.7V38.7h36.4v31.3c0,1.4-0.6,2.6-1.5,3.7
		c-1,1-2.3,1.5-3.7,1.5c-0.9,0-1.7,0.3-2.4,1c-0.7,0.6-1,1.5-1,2.4v12.8c0,0.2-0.1,0.5-0.2,0.7c-0.3,0.3-1,0.3-1.4,0
		c-0.2-0.2-0.2-0.5-0.2-0.7V78.4C57.9,77.5,57.6,76.7,56.9,76z"/>
	
		<linearGradient id="SVGID_2_" gradientUnits="userSpaceOnUse" x1="43.9455" y1="3.3504" x2="43.9455" y2="99.3275" gradientTransform="matrix(1 0 0 -1 0 100)">
		<stop  offset="0" style="stop-color:#8393A7"/>
		<stop  offset="1" style="stop-color:#5B6A72"/>
	</linearGradient>
	<path class="st1" d="M41.5,23c-0.7,0.7-1,1.5-1,2.4c0,0.9,0.3,1.7,1,2.4s1.5,1,2.4,1c0.9,0,1.7-0.3,2.4-1s1-1.5,1-2.4
		c0-0.9-0.3-1.7-1-2.4C45.1,21.8,42.8,21.8,41.5,23z"/>
	
		<linearGradient id="SVGID_3_" gradientUnits="userSpaceOnUse" x1="55.8417" y1="3.3504" x2="55.8417" y2="99.3275" gradientTransform="matrix(1 0 0 -1 0 100)">
		<stop  offset="0" style="stop-color:#8393A7"/>
		<stop  offset="1" style="stop-color:#5B6A72"/>
	</linearGradient>
	<path class="st2" d="M53.4,23c-0.7,0.7-1,1.5-1,2.4c0,0.9,0.3,1.7,1,2.4s1.5,1,2.4,1c0.9,0,1.7-0.3,2.4-1s1-1.5,1-2.4
		c0-0.9-0.3-1.7-1-2.4C57,21.8,54.7,21.8,53.4,23z"/>
	
		<linearGradient id="SVGID_4_" gradientUnits="userSpaceOnUse" x1="84.6674" y1="2.1788" x2="84.6674" y2="98.1559" gradientTransform="matrix(1 0 0 -1 0 100)">
		<stop  offset="0" style="stop-color:#8393A7"/>
		<stop  offset="1" style="stop-color:#5B6A72"/>
	</linearGradient>
	<path class="st3" d="M90.1,34.2c-1.5-1.5-3.3-2.3-5.4-2.3c-2.1,0-4,0.8-5.4,2.3c-1.5,1.5-2.3,3.3-2.3,5.4v21.5c0,2.1,0.8,4,2.3,5.4
		s3.3,2.3,5.4,2.3s4-0.8,5.4-2.3c1.5-1.5,2.3-3.3,2.3-5.4V39.6C92.4,37.7,91.6,35.7,90.1,34.2z M83.7,39.6c0-0.2,0.1-0.5,0.2-0.7
		s0.5-0.2,0.7-0.2c0.2,0,0.5,0.1,0.7,0.2c0.2,0.2,0.2,0.5,0.2,0.7v21.5c0,0.2-0.1,0.5-0.2,0.7c-0.3,0.3-1,0.3-1.4,0
		c-0.2-0.2-0.2-0.5-0.2-0.7V39.6z"/>
	
		<linearGradient id="SVGID_5_" gradientUnits="userSpaceOnUse" x1="15.7326" y1="2.1788" x2="15.7326" y2="98.1559" gradientTransform="matrix(1 0 0 -1 0 100)">
		<stop  offset="0" style="stop-color:#8393A7"/>
		<stop  offset="1" style="stop-color:#5B6A72"/>
	</linearGradient>
	<path class="st4" d="M15.7,32c-2.1,0-3.9,0.8-5.4,2.3C8.8,35.8,8,37.7,8,39.7v21.5c0,2.1,0.8,4,2.3,5.4c1.5,1.5,3.3,2.3,5.4,2.3
		s4-0.8,5.4-2.3c1.5-1.5,2.3-3.3,2.3-5.4V39.6c0-2.1-0.8-3.9-2.3-5.4C19.8,32.8,17.8,32,15.7,32z M16.7,39.6v21.5
		c0,0.2-0.1,0.5-0.2,0.7c-0.3,0.3-1,0.3-1.4,0c-0.2-0.2-0.2-0.5-0.2-0.7V39.6c0-0.2,0.1-0.5,0.2-0.7c0.2-0.2,0.5-0.2,0.7-0.2
		c0.2,0,0.5,0.1,0.7,0.2C16.7,39.1,16.7,39.4,16.7,39.6z"/>
</g>
</svg>
