<?xml version="1.0" encoding="UTF-8"?>
<svg width="11px" height="21px" viewBox="0 0 11 21" version="1.1" xmlns="http://www.w3.org/2000/svg" xmlns:xlink="http://www.w3.org/1999/xlink">
    <!-- Generator: Sketch 50.2 (55047) - http://www.bohemiancoding.com/sketch -->
    <title>Shape</title>
    <desc>Created with Sketch.</desc>
    <defs></defs>
    <g id="Final" stroke="none" stroke-width="1" fill="none" fill-rule="evenodd">
        <g id="Homepage" transform="translate(-427.000000, -6976.000000)" fill="#000000" fill-rule="nonzero">
            <path d="M440.658235,6979.23548 C438.746637,6977.30417 435.57378,6977.34359 433.603061,6979.31431 L428.518606,6984.39876 C428.518606,6984.39876 427.809147,6985.10822 426.390229,6986.52714 L425.838428,6987.07894 C425.838428,6987.07894 425.707047,6987.21032 425.444284,6987.47308 C424.734825,6988.18254 424.340682,6989.14819 424.340682,6990.15326 C424.340682,6991.15833 424.734825,6992.12398 425.444284,6992.83344 C426.153743,6993.5429 427.099688,6993.93704 428.124462,6993.93704 C429.070407,6993.93704 429.937523,6993.60202 430.646982,6992.9911 C430.686397,6992.97139 430.706104,6992.95168 430.725811,6992.91227 L432.341801,6991.29628 L433.878961,6989.75912 C433.878961,6989.75912 435.619763,6988.01831 439.101367,6984.53671 C439.594046,6984.04403 439.85024,6983.39369 439.830533,6982.68424 C439.810826,6981.99448 439.534925,6981.34415 439.042245,6980.83176 C438.549565,6980.33908 437.899228,6980.06318 437.189769,6980.04347 C436.48031,6980.02376 435.829973,6980.27996 435.337293,6980.77264 L430.351374,6985.79797 C430.114888,6986.03446 430.114888,6986.40889 430.351374,6986.62567 C430.587861,6986.86216 430.962297,6986.86216 431.179076,6986.62567 L436.184703,6981.62005 C436.440896,6981.36385 436.795625,6981.2259 437.170062,6981.2259 C437.564206,6981.2259 437.918935,6981.38356 438.194836,6981.67917 C438.766344,6982.25068 438.786052,6983.15721 438.253958,6983.6893 L432.026486,6989.95619 L429.976938,6992.00574 C429.484258,6992.49842 428.833921,6992.77432 428.124462,6992.77432 C427.415003,6992.77432 426.764666,6992.49842 426.271986,6992.00574 C425.779306,6991.51306 425.523113,6990.86272 425.523113,6990.15326 C425.523113,6989.46351 425.799014,6988.79346 426.291693,6988.30078 L428.91275,6985.67973 L434.45047,6980.14201 C435.948216,6978.64426 438.372201,6978.60485 439.830533,6980.06318 C440.539992,6980.77264 440.914428,6981.71858 440.894721,6982.72365 C440.875014,6983.74842 440.48087,6984.71408 439.751704,6985.44324 L431.612635,6993.60202 C431.376148,6993.8385 431.376148,6994.21294 431.612635,6994.42972 C431.730878,6994.54796 431.888535,6994.60709 432.026486,6994.60709 C432.164436,6994.60709 432.322093,6994.54796 432.440337,6994.42972 L440.579406,6986.29065 C441.525351,6985.34471 442.057445,6984.08345 442.077152,6982.76306 C442.09686,6981.42298 441.584473,6980.16172 440.658235,6979.23548 Z" id="Shape" transform="translate(433.209191, 6986.209191) rotate(135.000000) translate(-433.209191, -6986.209191) "></path>
        </g>
    </g>
</svg>