<?xml version="1.0" encoding="utf-8"?>
<!-- Generator: Adobe Illustrator 16.0.4, SVG Export Plug-In . SVG Version: 6.00 Build 0)  -->
<!DOCTYPE svg PUBLIC "-//W3C//DTD SVG 1.1//EN" "http://www.w3.org/Graphics/SVG/1.1/DTD/svg11.dtd">
<svg version="1.1" id="Layer_1" xmlns="http://www.w3.org/2000/svg" xmlns:xlink="http://www.w3.org/1999/xlink" x="0px" y="0px"
	 width="450px" height="343.174px" viewBox="0 0 450 343.174" enable-background="new 0 0 450 343.174" xml:space="preserve">
<g>
	<ellipse fill="#4C31FF" cx="334.29" cy="322.926" rx="75.736" ry="17.053"/>
	<ellipse fill="none" stroke="#3F3D56" stroke-miterlimit="10" cx="341.312" cy="317.91" rx="75.735" ry="17.053"/>
	<circle fill="#FF6584" cx="218.681" cy="152.647" r="15.047"/>
	<circle fill="#FF6584" cx="279.369" cy="152.647" r="15.047"/>
	<circle fill="#4C31FF" cx="340.059" cy="152.647" r="15.047"/>
	<circle fill="#F86B75" cx="6.018" cy="10.204" r="1.505"/>
	<circle fill="#FAD375" cx="10.533" cy="10.204" r="1.505"/>
	<circle fill="#8BCC55" cx="15.047" cy="10.204" r="1.505"/>
	<rect x="33.354" y="33.526" fill="#4C31FF" width="103.321" height="32.1"/>
	<rect y="5.188" fill="none" stroke="#3F3D56" stroke-miterlimit="10" width="182.568" height="108.337"/>
	<line fill="none" stroke="#3F3D56" stroke-miterlimit="10" x1="0" y1="13.393" x2="182.568" y2="13.393"/>
	<circle fill="none" stroke="#3F3D56" stroke-miterlimit="10" cx="6.52" cy="9.201" r="1.505"/>
	<circle fill="none" stroke="#3F3D56" stroke-miterlimit="10" cx="11.034" cy="9.201" r="1.505"/>
	<circle fill="none" stroke="#3F3D56" stroke-miterlimit="10" cx="15.548" cy="9.201" r="1.505"/>
	<rect x="39.623" y="27.257" fill="none" stroke="#3F3D56" stroke-miterlimit="10" width="103.321" height="32.1"/>
	<rect x="20.312" y="79.67" fill="#F2F2F2" width="138.432" height="4.151"/>
	<rect x="20.312" y="89.632" fill="#F2F2F2" width="138.432" height="4.15"/>
	<rect x="20.312" y="99.594" fill="#F2F2F2" width="138.432" height="4.151"/>
	<rect x="21.816" y="77.664" fill="none" stroke="#3F3D56" stroke-miterlimit="10" width="138.432" height="4.151"/>
	<rect x="21.816" y="87.626" fill="none" stroke="#3F3D56" stroke-miterlimit="10" width="138.432" height="4.151"/>
	<rect x="21.816" y="97.588" fill="none" stroke="#3F3D56" stroke-miterlimit="10" width="138.432" height="4.15"/>
	<circle fill="#F86B75" cx="48.15" cy="197.787" r="1.504"/>
	<circle fill="#FAD375" cx="52.664" cy="197.787" r="1.504"/>
	<circle fill="#8BCC55" cx="57.178" cy="197.787" r="1.504"/>
	<rect x="75.484" y="221.109" fill="#4C31FF" width="103.321" height="32.1"/>
	<polyline fill="none" stroke="#3F3D56" stroke-miterlimit="10" points="224.698,214.84 224.698,301.108 42.131,301.108 
		42.131,192.771 190.593,192.771 	"/>
	<line fill="none" stroke="#3F3D56" stroke-miterlimit="10" x1="42.131" y1="200.977" x2="190.844" y2="200.977"/>
	<circle fill="none" stroke="#3F3D56" stroke-miterlimit="10" cx="48.65" cy="196.784" r="1.504"/>
	<circle fill="none" stroke="#3F3D56" stroke-miterlimit="10" cx="53.165" cy="196.784" r="1.504"/>
	<circle fill="none" stroke="#3F3D56" stroke-miterlimit="10" cx="57.68" cy="196.784" r="1.504"/>
	<rect x="81.754" y="214.84" fill="none" stroke="#3F3D56" stroke-miterlimit="10" width="103.322" height="32.1"/>
	<circle fill="#F86B75" cx="196.611" cy="111.018" r="1.505"/>
	<circle fill="#FAD375" cx="201.126" cy="111.018" r="1.505"/>
	<circle fill="#8BCC55" cx="205.64" cy="111.018" r="1.505"/>
	<rect x="190.593" y="106.002" fill="none" stroke="#3F3D56" stroke-miterlimit="10" width="182.567" height="108.335"/>
	<line fill="none" stroke="#3F3D56" stroke-miterlimit="10" x1="190.593" y1="114.207" x2="373.16" y2="114.207"/>
	<circle fill="none" stroke="#3F3D56" stroke-miterlimit="10" cx="197.113" cy="110.015" r="1.505"/>
	<circle fill="none" stroke="#3F3D56" stroke-miterlimit="10" cx="201.627" cy="110.015" r="1.505"/>
	<circle fill="none" stroke="#3F3D56" stroke-miterlimit="10" cx="206.142" cy="110.015" r="1.505"/>
	<circle fill="none" stroke="#3F3D56" stroke-miterlimit="10" cx="221.188" cy="150.139" r="15.047"/>
	<circle fill="none" stroke="#3F3D56" stroke-miterlimit="10" cx="281.877" cy="150.139" r="15.047"/>
	<circle fill="none" stroke="#3F3D56" stroke-miterlimit="10" cx="342.565" cy="150.139" r="15.047"/>
	<rect x="198.366" y="177.975" fill="#F2F2F2" width="41.129" height="4.013"/>
	<rect x="259.558" y="177.975" fill="#F2F2F2" width="41.128" height="4.013"/>
	<rect x="320.748" y="177.975" fill="#F2F2F2" width="41.128" height="4.013"/>
	<rect x="200.373" y="176.47" fill="none" stroke="#3F3D56" stroke-miterlimit="10" width="41.128" height="4.014"/>
	<rect x="261.564" y="176.47" fill="none" stroke="#3F3D56" stroke-miterlimit="10" width="41.127" height="4.014"/>
	<rect x="322.754" y="176.47" fill="none" stroke="#3F3D56" stroke-miterlimit="10" width="41.128" height="4.014"/>
	<rect x="48.902" y="265.747" fill="#F2F2F2" width="31.599" height="27.085"/>
	<rect x="107.334" y="265.998" fill="#F2F2F2" width="31.599" height="27.085"/>
	<rect x="165.766" y="266.249" fill="#F2F2F2" width="31.599" height="27.085"/>
	<rect x="53.416" y="260.732" fill="none" stroke="#3F3D56" stroke-miterlimit="10" width="31.599" height="27.084"/>
	<rect x="111.848" y="260.982" fill="none" stroke="#3F3D56" stroke-miterlimit="10" width="31.599" height="27.085"/>
	<rect x="170.279" y="261.233" fill="none" stroke="#3F3D56" stroke-miterlimit="10" width="31.599" height="27.085"/>
	<polygon fill="#79758C" points="301.079,102.565 287.006,110.363 302.016,105.069 	"/>
	
		<ellipse transform="matrix(-0.3089 -0.9511 0.9511 -0.3089 301.5013 424.5058)" fill="#3F3D56" cx="304.979" cy="102.714" rx="7.911" ry="3.926"/>
	
		<ellipse transform="matrix(-0.3089 -0.9511 0.9511 -0.3089 323.264 428.2514)" fill="#3F3D56" cx="317.219" cy="96.682" rx="5.586" ry="2.963"/>
	<polygon fill="#3F3D56" points="305.884,98.146 315.219,94.775 317.203,100.271 308.168,106.375 	"/>
	<path fill="#A0616A" d="M304.991,118.353l2.508-5.518c0,0,6.019-16.05,0.501-13.041c-5.517,3.01-7.522,11.035-7.522,11.035
		l-1.505,5.016L304.991,118.353z"/>
	<path fill="#A0616A" d="M373.705,201.611c0,0-8.526,16.552-11.034,17.053c-2.508,0.502-2.508-15.047-2.508-15.047
		s5.016-4.515,7.021-4.013C369.191,200.106,373.705,201.611,373.705,201.611z"/>
	<path fill="#55536E" d="M361.166,305.936c0,0,4.514,2.508,2.508,8.025s-3.01,4.013-4.012,8.526
		c-1.004,4.514-10.031,4.012-10.533,2.007c-0.502-2.007-1.505-10.031,1.002-13.041C352.64,308.443,361.166,305.936,361.166,305.936z
		"/>
	<path fill="#55536E" d="M316.527,305.936c0,0-4.514,2.508-2.508,8.025s3.01,4.013,4.012,8.526
		c1.004,4.514,10.032,4.012,10.534,2.007c0.5-2.007,1.504-10.031-1.004-13.041S316.527,305.936,316.527,305.936z"/>
	<path fill="#3F3D56" d="M358.658,205.623c0,0,4.013,2.509,5.016,18.057c1.004,15.549-0.502,33.103-1.003,37.116
		c-0.502,4.012,0.501,10.03,1.505,13.04c1.003,3.01-2.508,26.081-2.508,26.081c1.498,3.176,1.498,6.854,0,10.03
		c-2.508,5.518-10.031,11.035-12.037,5.518c-0.105-1.925-0.618-3.806-1.505-5.518c-1.505-3.009,1.003-15.046,1.003-15.046
		s-2.007-19.06-1.505-24.075s-6.019-34.607-7.022-39.623c-1.003-5.016-0.501-9.028-1.003-7.523
		c-0.501,1.504-9.529,43.135-9.529,43.135s1.003,26.583,0.501,30.093c-0.501,3.511,2.007,10.533,0.502,13.04
		c-1.505,2.509-4.514,11.536-10.031,6.02c-5.517-5.518-4.514-7.523-5.016-10.031c-0.501-2.508,0-5.518,0-9.529
		c0-4.013-4.012-26.583-2.006-30.094c2.006-3.512,1.003-8.025,0.501-16.05c-0.501-8.025-1.003-46.646,4.013-53.667
		C323.549,189.573,358.658,205.623,358.658,205.623z"/>
	<circle fill="#A0616A" cx="346.37" cy="99.544" r="12.038"/>
	<path fill="#A0616A" d="M354.145,104.309c0,0-0.502,18.056,2.006,21.065s-21.567-2.508-21.567-2.508s5.518-11.536,2.007-19.06
		C333.079,96.284,354.145,104.309,354.145,104.309z"/>
	<path fill="#55536E" d="M358.658,123.368c0,0-1.003-4.013-7.021-5.015c-6.02-1.003-13.137-2.007-15.346,0
		c-2.21,2.006-3.212,4.514-4.717,4.514h-7.022l-11.034,19.561c0,0,5.518,6.52,4.014,18.558c-1.506,12.036-4.014,34.105-4.014,34.105
		c4.021,5.353,7.546,11.061,10.533,17.053c5.015,10.031,39.623,9.028,37.617-8.526c0,0-2.508-4.515-1.505-8.526
		c1.003-4.013,4.013-31.096,4.013-31.096l11.536-30.595C375.712,133.399,359.662,125.375,358.658,123.368z"/>
	<path fill="#55536E" d="M372.2,132.898h3.512c0,0,2.006,11.536,1.504,18.558c-0.502,7.022-0.502,23.573-0.502,23.573
		s2.007,4.013,1.505,7.522c-0.501,3.512-1.505,13.041-1.505,13.041s-0.501,13.542-10.031,6.521c0,0-3.009-1.506-1.504-8.026
		c1.504-6.521-1.003-13.541-1.003-13.541s1.504-4.515,1.003-7.524c-0.501-3.008-2.508-12.538-2.508-12.538L372.2,132.898z"/>
	<path fill="#55536E" d="M327.061,124.371l-2.509-1.504c0,0-3.511-1.504-8.526,0s-7.523,1.003-9.529,0.501
		c-2.006-0.501-0.501-5.517-0.501-5.517s-4.014-7.021-8.026-3.009c-4.012,4.012-4.012,12.037-4.012,12.037s-2.508,5.016,6.521,8.025
		c9.027,3.01,13.04,7.524,13.04,7.524h10.031L327.061,124.371z"/>
	<path fill="#3F3D56" d="M345.554,113.913c-0.031-0.914-0.596-1.725-1.441-2.072c-0.554-0.188-1.13-0.302-1.714-0.338
		c-1.709-0.22-3.465-0.847-4.459-2.151c-1.326-1.737-0.964-4.168-2.025-6.054c-0.493-0.743-1.034-1.453-1.619-2.126
		c-1.853-2.479-2.178-5.646-2.348-8.657c-0.082-0.61-0.013-1.232,0.204-1.809c0.318-0.519,0.703-0.993,1.145-1.412
		c0.749-0.87,1.152-1.983,1.135-3.13c-0.055-2.333,3.283-3.9,5.647-4.705c2.363-0.806,4.926-0.934,7.444-0.968
		c1.448-0.019,2.942-0.002,4.272,0.526c0.766,0.333,1.485,0.761,2.143,1.276c2.788,2.041,5.408,4.551,6.344,7.727
		c0.367,1.45,0.538,2.942,0.508,4.438c0.045,0.464-0.023,0.933-0.197,1.366c-0.336,0.673-1.125,1.037-1.635,1.608
		c-0.953,1.066-0.783,2.608-0.903,3.987c-0.313,2.884-1.979,5.448-4.485,6.908c-0.514,0.251-0.987,0.579-1.404,0.97
		c-0.313,0.416-0.572,0.869-0.773,1.35C350.388,112.57,347.859,113.845,345.554,113.913z"/>
	<polygon fill="#79758C" points="96.349,5.352 89.668,9.053 96.792,6.541 	"/>
	
		<ellipse transform="matrix(-0.3089 -0.9511 0.9511 -0.3089 123.3799 100.4932)" fill="#3F3D56" cx="98.199" cy="5.423" rx="3.755" ry="1.865"/>
	
		<ellipse transform="matrix(-0.3088 -0.9511 0.9511 -0.3088 133.6988 102.2753)" fill="#3F3D56" cx="104.01" cy="2.559" rx="2.651" ry="1.405"/>
	<polygon fill="#3F3D56" points="98.63,3.254 103.061,1.654 104.003,4.263 99.713,7.16 	"/>
	<polygon fill="#79758C" points="141.489,191.932 134.809,195.632 141.932,193.12 	"/>
	
		<ellipse transform="matrix(-0.3089 -0.9511 0.9511 -0.3089 5.0101 387.6453)" fill="#3F3D56" cx="143.34" cy="192.002" rx="3.755" ry="1.864"/>
	
		<ellipse transform="matrix(-0.3088 -0.9511 0.9511 -0.3088 15.3044 389.3997)" fill="#3F3D56" cx="149.15" cy="189.139" rx="2.652" ry="1.406"/>
	<polygon fill="#3F3D56" points="143.77,189.834 148.201,188.234 149.143,190.843 144.854,193.74 	"/>
</g>
</svg>
