<?xml version="1.0" encoding="utf-8"?>
<!-- Generator: Adobe Illustrator 16.0.4, SVG Export Plug-In . SVG Version: 6.00 Build 0)  -->
<!DOCTYPE svg PUBLIC "-//W3C//DTD SVG 1.1//EN" "http://www.w3.org/Graphics/SVG/1.1/DTD/svg11.dtd">
<svg version="1.1" id="Layer_1" xmlns="http://www.w3.org/2000/svg" xmlns:xlink="http://www.w3.org/1999/xlink" x="0px" y="0px"
	 width="450px" height="343.174px" viewBox="0 0 450 343.174" enable-background="new 0 0 450 343.174" xml:space="preserve">
<g>
	<path fill="#F2F2F2" d="M329.853,127.796C311.392,55.209,247.61,2.814,172.744,0.712C133.163-0.398,91.516,12.728,61.191,58.664
		c-54.207,82.115,3.332,138.858,43.445,165.821c19.381,13.055,36.842,28.748,51.881,46.631
		c27.095,32.152,79.221,72.106,141.299,9.505C342.812,235.245,342.147,176.144,329.853,127.796z"/>
	<ellipse fill="#3F3D56" cx="195.027" cy="312.25" rx="194.026" ry="9.808"/>
	<ellipse fill="#3F3D56" cx="313.226" cy="328.455" rx="75.924" ry="3.838"/>
	<ellipse fill="#3F3D56" cx="169.893" cy="338.688" rx="75.923" ry="3.837"/>
	<path fill="#FFB9B9" d="M291.562,149.968c0,0,12.897-0.188,10.149,3.69c-2.75,3.88-13.41,3.607-13.41,3.607L291.562,149.968z"/>
	<path fill="#4C31FF" d="M251.888,102.142l13.055,17.722l11.283,13.482c0,0,11.693,12.199,12.998,13.885
		c1.303,1.687,5.135,1.205,4.318,3.775c-0.813,2.57-2.031,6.852-3.304,7.297c-1.274,0.445-7.256-0.321-7.694-1.168
		c-0.439-0.846-28.392-16.644-38.366-28.013l-9.493-6.444l-0.142-10.9L251.888,102.142z"/>
	<path fill="#FF6584" d="M251.888,102.142l13.055,17.722l11.283,13.482c0,0,11.693,12.199,12.998,13.885
		c1.303,1.687,5.135,1.205,4.318,3.775c-0.813,2.57-2.031,6.852-3.304,7.297c-1.274,0.445-7.256-0.321-7.694-1.168
		c-0.439-0.846-28.392-16.644-38.366-28.013l-9.493-6.444l-0.142-10.9L251.888,102.142z"/>
	<path opacity="0.1" enable-background="new    " d="M251.888,102.142l13.055,17.722l11.283,13.482c0,0,11.693,12.199,12.998,13.885
		c1.303,1.687,5.135,1.205,4.318,3.775c-0.813,2.57-2.031,6.852-3.304,7.297c-1.274,0.445-7.256-0.321-7.694-1.168
		c-0.439-0.846-28.392-16.644-38.366-28.013l-9.493-6.444l-0.142-10.9L251.888,102.142z"/>
	<path fill="#2F2E41" d="M257.287,93.917l2.714,6.396h2.403l-3.412-16.203c0-10.4-5.021-19.19-15.422-19.19l0,0
		c-7.262,0-13.149,5.888-13.149,13.15v15.893c0,3.506,2.843,6.35,6.353,6.35h18.647L257.287,93.917z"/>
	<path fill="#2F2E41" d="M213.15,257.453c0,0-3.838,5.118-3.838,6.396s-2.132,1.707-3.41,2.985
		c-1.279,1.279-2.561,0.854-1.707,2.132c0.853,1.279-10.661,8.956-10.661,8.956l-11.087,14.499l2.985,2.558l8.527-8.954
		l-1.278,15.778l11.941,11.085c0,0,5.117,0.854,5.542,0c0.426-0.851-4.263-9.382-4.263-9.382s0.425-7.675,2.984-10.659
		c1.586-1.866,3.014-3.862,4.264-5.972c0,0-1.278-1.703,1.705-2.131c2.984-0.427,0.854-2.986,0.854-2.986s0.853-0.425,3.412-0.425
		c2.558,0,14.071-12.367,14.071-12.367L213.15,257.453z"/>
	<path fill="#2F2E41" d="M260.911,270.674c0,0-1.706,5.97,1.279,9.382c2.984,3.41,0,2.558,0,2.558s0.426,2.56-1.279,3.838
		c-1.706,1.279-1.706,3.839-1.706,3.839s-2.133,4.264-1.704,6.821c0.425,2.56,0.425,15.352,0.425,15.352h4.265v-11.088l8.527,11.088
		h21.323c0,0-0.428-2.132-2.56-2.558c-2.133-0.427-8.529,0-9.808-8.956c0,0-0.425-5.117-1.278-5.97
		c-0.854-0.854-1.707-3.839-0.854-5.971c0.854-2.133,0-2.983,1.279-3.836c1.278-0.854,1.705-3.414,0.853-4.692
		c-0.853-1.279-3.411-3.41-0.425-4.689c2.982-1.281,2.982-7.677,2.982-7.677L260.911,270.674z"/>
	<path fill="#2F2E41" d="M232.767,168.329c0,0-4.692,3.838,1.279,19.616c5.971,15.777,8.527,36.247,8.527,36.247
		s-5.97,5.117-5.97,7.675c0,2.56-26.438,18.763-24.731,26.012c1.704,7.249,32.834,20.897,35.819,20.044
		c2.985-0.853,17.483-41.789,17.483-41.789s-5.542-45.203-5.97-45.629c-0.427-0.427-13.219-21.322-13.219-21.322l-7.677-15.778
		L232.767,168.329z"/>
	<path opacity="0.1" enable-background="new    " d="M232.767,168.329c0,0-4.692,3.838,1.279,19.616
		c5.971,15.777,8.527,36.247,8.527,36.247s-5.97,5.117-5.97,7.675c0,2.56-26.438,18.763-24.731,26.012
		c1.704,7.249,32.834,20.897,35.819,20.044c2.985-0.853,17.483-41.789,17.483-41.789s-5.542-45.203-5.97-45.629
		c-0.427-0.427-13.219-21.322-13.219-21.322l-7.677-15.778L232.767,168.329z"/>
	<path fill="#2F2E41" d="M232.339,158.522c0,0-3.41,12.367,4.691,25.16c8.104,12.792,17.485,39.231,17.485,39.231
		s8.953,27.717,5.117,47.761c0,0-1.281,2.558,2.131,2.558c3.411,0,39.23-0.854,36.248-9.807
		c-2.986-8.956-16.206-50.746-16.206-50.746l-17.056-42.217l-0.853-12.792l-6.396-9.807H244.28L232.339,158.522z"/>
	<path fill="#FFB9B9" d="M172.687,171.314c0,0-12.9,0-10.096,3.839c2.804,3.838,13.46,3.411,13.46,3.411L172.687,171.314z"/>
	<path fill="#FFB9B9" d="M240.228,83.257c0,0,0.854,5.971-2.131,6.822c-2.986,0.853,11.94,7.25,11.94,7.25
		s2.985-10.233,4.264-11.514C255.58,84.536,240.228,83.257,240.228,83.257z"/>
	<path opacity="0.1" enable-background="new    " d="M240.228,83.257c0,0,0.854,5.971-2.131,6.822
		c-2.986,0.853,11.94,7.25,11.94,7.25s2.985-10.233,4.264-11.514C255.58,84.536,240.228,83.257,240.228,83.257z"/>
	<path fill="#FF6584" d="M252.17,93.064c0,0-13.221-3.836-13.646-5.117c-0.427-1.279-3.413,1.707-4.691,3.838
		c-1.278,2.132-3.837,4.692-5.117,4.692c-1.279,0-10.66,5.543-12.793,15.35c-0.975,4.491-2.397,7.103-3.654,8.618
		c-0.943,1.237-1.52,2.716-1.654,4.266c-0.014,0.144-0.104,0.273-0.234,0.336c-0.853,0.428,17.91,18.337,17.91,18.337
		s7.249-1.707,8.528,0c1.279,1.704-0.854,4.689-2.133,6.396c-1.278,1.707-4.264,10.235-2.558,11.514
		c1.705,1.278,10.661-11.514,15.778-8.956c5.117,2.56,10.234,0.428,10.234,0.428s2.132,6.822,5.543,6.822s4.264-5.543,2.985-7.25
		c-1.279-1.704-6.396-5.115-3.839-9.807c2.56-4.691,3.414-13.22,3.414-13.22s6.82-8.103-5.546-17.91c0,0-4.265-11.939-5.543-12.792
		c-1.281-0.854-3.41-1.281-3.41-2.132C251.744,95.624,252.17,93.064,252.17,93.064z"/>
	<path fill="#FF6584" d="M211.658,122.915l-12.792,17.909l-11.088,13.646c0,0-11.514,12.366-12.792,14.073
		c-1.281,1.706-5.117,1.278-4.265,3.838c0.851,2.557,2.132,6.821,3.411,7.249c1.278,0.425,7.249-0.428,7.674-1.28
		c0.429-0.852,28.146-17.057,37.954-28.57l9.396-6.582l-0.016-10.902L211.658,122.915z"/>
	<path fill="#2F2E41" d="M237.496,143.842l24.718,0.79c0.58,0.018,1.043,0.491,1.043,1.071v0.396c0,0.593-0.482,1.073-1.073,1.073
		c-0.018,0-0.033,0-0.048,0l-24.721-1.185c-0.572-0.024-1.023-0.498-1.023-1.071l0,0c0-0.594,0.48-1.074,1.073-1.074
		C237.476,143.842,237.487,143.842,237.496,143.842z"/>
	<ellipse fill="#2F2E41" cx="262.829" cy="146.156" rx="0.428" ry="2.346"/>
	<circle fill="#FFB9B9" cx="248.758" cy="78.14" r="11.939"/>
	<path fill="#2F2E41" d="M253.746,65.492c-2.312-0.587-7.796-0.572-8.6-0.572c-8.134,0-14.726,6.593-14.726,14.726l0,0
		l-5.543,20.668h10.791l2.002-7.675l2.844,7.675h5.432l0.466-4.611l1.841,4.611h6.048c-4.53-10.252-6.941-19.599-0.987-25.366
		c4.02,0.548,7.41-0.53,7.963-2.708C261.913,69.728,258.542,66.705,253.746,65.492z"/>
	<path fill="#2F2E41" d="M253.36,98.123"/>
	<path fill="#4C31FF" d="M15.03,138.522c-3.299,0.013-5.985-2.651-5.998-5.951c-0.003-1.054,0.271-2.091,0.796-3.003
		c7.592-12.794,30.66-42.687,81.065-42.687c21.833,0,40.98,5.8,56.885,17.229c13.094,9.381,20.426,19.998,23.923,25.116
		c1.854,2.699,1.167,6.387-1.53,8.24c-0.015,0.011-0.032,0.022-0.047,0.033c-2.749,1.844-6.469,1.141-8.358-1.578
		c-6.354-9.211-25.628-37.186-70.872-37.186c-44.18,0-64.136,25.757-70.661,36.801C19.175,137.407,17.18,138.553,15.03,138.522
		L15.03,138.522z"/>
	<path fill="#4C31FF" d="M116.267,255.536c-0.504,0.006-1.004-0.053-1.492-0.173c-36.547-9.168-50.191-46.095-50.746-47.632
		l-0.085-0.341c-0.3-1.066-7.634-26.396,3.624-41.235c5.159-6.78,13.006-10.234,23.367-10.234c9.637,0,16.59,3.027,21.364,9.296
		c3.924,5.118,5.502,11.428,7.038,17.525c3.197,12.666,5.502,19.317,18.804,20.001c5.843,0.299,9.681-3.156,11.856-6.098
		c5.883-8.017,6.907-21.108,2.473-32.622c-5.713-14.927-25.928-43.027-61.576-43.027c-15.226,0-29.211,4.947-40.426,14.244
		c-9.296,7.716-16.674,18.59-20.214,29.763c-6.567,20.81,2.047,53.517,2.132,53.816c0.838,3.158-1.043,6.396-4.2,7.234
		c-0.022,0.005-0.042,0.011-0.063,0.016c-3.2,0.844-6.483-1.035-7.376-4.223c-0.385-1.493-9.596-36.374-2.006-60.424
		c8.273-26.056,33.774-52.323,72.153-52.323c17.739,0,34.499,6.097,48.484,17.611c10.831,8.956,19.702,20.979,24.307,33.006
		c5.885,15.352,4.307,32.581-4.009,43.837c-5.543,7.507-13.432,11.428-22.174,11.003c-22.772-1.153-26.865-17.229-29.852-28.956
		c-3.068-12.024-5.031-17.825-16.757-17.825c-6.44,0-10.959,1.792-13.774,5.501c-3.838,5.074-4.136,13.007-3.709,18.763
		c0.004,0.062,0.009,0.12,0.013,0.182c0.562,7.323,2.783,14.425,6.485,20.768c5.921,10.207,17.928,25.86,37.851,30.861
		c3.178,0.771,5.133,3.975,4.363,7.153c-0.005,0.018-0.01,0.037-0.014,0.055C121.395,253.698,119.001,255.533,116.267,255.536
		L116.267,255.536z"/>
	<path fill="#4C31FF" d="M69.357,252.806c-1.659,0.002-3.246-0.677-4.392-1.875c-14.627-15.524-22.899-32.879-26.012-54.584v-0.128
		c-1.748-14.371,0.811-34.711,13.347-48.7c9.253-10.319,22.259-15.563,38.593-15.563c19.317,0,34.499,9.083,43.966,26.226
		c4.276,7.882,7.081,16.48,8.271,25.373c0.296,3.312-2.152,6.239-5.465,6.534c-3.249,0.289-6.137-2.059-6.516-5.299
		c-1.039-7.434-3.425-14.615-7.038-21.194c-7.334-13.091-18.507-19.743-33.262-19.743c-12.751,0-22.728,3.88-29.593,11.555
		c-9.895,11.046-11.812,28.06-10.449,39.317c2.73,19.19,10.021,34.457,22.9,48.104c2.24,2.365,2.135,6.099-0.23,8.338
		c-0.021,0.02-0.046,0.041-0.067,0.061C72.302,252.238,70.858,252.802,69.357,252.806z"/>
	<circle fill="#4C31FF" cx="90.979" cy="189.438" r="7.675"/>
</g>
</svg>
