<?xml version="1.0" encoding="utf-8"?>
<!-- Generator: Adobe Illustrator 16.0.4, SVG Export Plug-In . SVG Version: 6.00 Build 0)  -->
<!DOCTYPE svg PUBLIC "-//W3C//DTD SVG 1.1//EN" "http://www.w3.org/Graphics/SVG/1.1/DTD/svg11.dtd">
<svg version="1.1" id="Layer_1" xmlns="http://www.w3.org/2000/svg" xmlns:xlink="http://www.w3.org/1999/xlink" x="0px" y="0px"
	 width="450px" height="343.174px" viewBox="0 0 450 343.174" enable-background="new 0 0 450 343.174" xml:space="preserve">
<g>
	<g>
		<polygon fill="#F2F2F2" points="345.883,78.517 345.883,102.941 323.289,93.024 314.119,88.998 306.984,85.867 270.304,69.763 
			263.169,66.632 253.999,62.606 122.045,4.679 177.683,4.679 		"/>
		<circle fill="#FF6584" cx="297.125" cy="31.965" r="29.523"/>
		<circle fill="none" stroke="#3F3D56" stroke-width="2" stroke-miterlimit="10" cx="312.781" cy="164.371" r="4.921"/>
		
			<rect x="1.001" y="84.749" fill="none" stroke="#3F3D56" stroke-width="2" stroke-miterlimit="10" width="10.736" height="10.735"/>
		
			<rect x="174.113" y="4.679" fill="none" stroke="#3F3D56" stroke-width="2" stroke-miterlimit="10" width="10.736" height="10.735"/>
		<rect x="53.561" y="75.185" fill="#4C31FF" width="83.201" height="67.545"/>
		<rect x="53.561" y="163.306" fill="#F2F2F2" width="230.369" height="7.157"/>
		
			<rect x="47.746" y="71.159" fill="none" stroke="#3F3D56" stroke-width="2" stroke-miterlimit="10" width="83.201" height="67.545"/>
		<rect x="169.863" y="93.749" fill="#4C31FF" width="80.518" height="7.157"/>
		<rect x="169.863" y="112.983" opacity="0.3" fill="#4C31FF" enable-background="new    " width="114.066" height="7.157"/>
		
			<rect x="164.048" y="89.723" fill="none" stroke="#3F3D56" stroke-width="2" stroke-miterlimit="10" width="80.517" height="7.157"/>
		
			<rect x="164.048" y="108.957" fill="none" stroke="#3F3D56" stroke-width="2" stroke-miterlimit="10" width="114.066" height="7.157"/>
		
			<rect x="47.746" y="159.28" fill="none" stroke="#3F3D56" stroke-width="2" stroke-miterlimit="10" width="230.369" height="7.157"/>
		<rect x="53.561" y="185.672" fill="#F2F2F2" width="230.369" height="7.157"/>
		
			<rect x="47.746" y="181.646" fill="none" stroke="#3F3D56" stroke-width="2" stroke-miterlimit="10" width="230.369" height="7.157"/>
		<rect x="53.561" y="208.037" fill="#F2F2F2" width="230.369" height="7.157"/>
		
			<rect x="47.746" y="204.012" fill="none" stroke="#3F3D56" stroke-width="2" stroke-miterlimit="10" width="230.369" height="7.157"/>
		<rect x="53.561" y="230.403" fill="#F2F2F2" width="230.369" height="7.157"/>
		
			<rect x="47.746" y="226.378" fill="none" stroke="#3F3D56" stroke-width="2" stroke-miterlimit="10" width="230.369" height="7.156"/>
		<rect x="53.561" y="252.77" fill="#F2F2F2" width="230.369" height="7.157"/>
		
			<rect x="47.746" y="248.743" fill="none" stroke="#3F3D56" stroke-width="2" stroke-miterlimit="10" width="230.369" height="7.157"/>
		<rect x="53.561" y="275.135" fill="#F2F2F2" width="230.369" height="7.157"/>
		
			<rect x="47.746" y="271.109" fill="none" stroke="#3F3D56" stroke-width="2" stroke-miterlimit="10" width="230.369" height="7.157"/>
		
			<rect x="34.55" y="31.795" fill="none" stroke="#3F3D56" stroke-width="2" stroke-miterlimit="10" width="262.575" height="289.861"/>
		
			<linearGradient id="SVGID_1_" gradientUnits="userSpaceOnUse" x1="891.2949" y1="-215.9624" x2="891.2949" y2="-212.0483" gradientTransform="matrix(1 0 0 -1 -862.0449 111.3066)">
			<stop  offset="0" style="stop-color:#808080;stop-opacity:0.25"/>
			<stop  offset="0.5351" style="stop-color:#808080;stop-opacity:0.12"/>
			<stop  offset="1" style="stop-color:#808080;stop-opacity:0.1"/>
		</linearGradient>
		<path fill="url(#SVGID_1_)" d="M28.466,327.248c-0.016,0.005-0.031,0.013-0.045,0.021c0.533-1.149,1.029-2.312,1.481-3.493
			c0.054-0.139,0.103-0.282,0.156-0.421c-0.004,0.036-0.004,0.071-0.009,0.112c-0.013,0.224-0.031,0.447-0.049,0.675
			c-0.027,0.354-0.049,0.711-0.054,1.069c-0.004,0.112-0.004,0.22-0.004,0.331c0.001,0.437,0.046,0.87,0.134,1.298h-0.018
			c-0.112,0.009-0.214,0.013-0.322,0.031c-0.422,0.056-0.833,0.174-1.222,0.349C28.498,327.228,28.482,327.236,28.466,327.248z"/>
		<path fill="#A0616A" d="M36.936,151.551c0.048,1.868,0.681,3.678,0.78,5.542c-5.501,0.273-10.927-2.395-16.374-1.577
			c1.522-0.985,2.337-2.761,2.816-4.509c0.61-2.255,0.792-4.605,0.537-6.928c-0.015-0.129-0.038-0.257-0.068-0.383
			c-0.202-0.913-0.726-2.207-0.585-2.925c0.185-0.951,1.082-0.763,1.889-0.708c2.462,0.187,4.913,0.503,7.342,0.947
			c0.632,0.11,6.797,1.649,6.89,1.488c-1.081,1.733-1.975,3.576-2.668,5.498C37.109,149.142,36.92,150.343,36.936,151.551z"/>
		<path fill="#A0616A" d="M91.338,145.78c-0.473,0.645-1.039,1.215-1.68,1.693c-0.418,0.342-0.845,0.691-1.293,1.006
			c-0.798,0.616-1.749,1.003-2.75,1.119c-1.31,0.089-4.092-0.681-4.906-1.803c-0.343-0.564-0.506-1.219-0.468-1.878
			c0.014-0.895,0.166-1.781,0.452-2.628c0.51-1.378,1.225-2.672,2.121-3.838c0.947-1.317,2.001-2.613,3.411-3.411
			c0.47-0.251,0.954-0.475,1.451-0.667c0.855-0.349,1.708-0.701,2.562-1.05c0.146-0.071,0.304-0.113,0.465-0.123
			c0.688,0.006,0.814,1.057,0.424,1.625c-0.78,1.142-2.535,1.461-3.028,2.757c0.852,0.026,1.589,0.598,1.827,1.416
			c0.019,0.212,0.105,0.412,0.246,0.571c0.226,0.182,0.579,0.079,0.835,0.215c0.455,0.243,0.256,0.92,0.304,1.434
			c0.112,0.444,0.269,0.876,0.469,1.29C91.974,144.293,91.813,145.125,91.338,145.78z"/>
		<path fill="#65617D" d="M15.509,333.058c0.423-0.423,1.115-0.352,1.707-0.258c3.174,0.502,6.382,0.762,9.595,0.776
			c0.402-1.965-0.766-3.874-1.142-5.844c-0.054-0.509-0.182-1.006-0.38-1.478c-0.453-0.868-1.473-1.266-2.431-1.468
			c-1.729-0.364-4.433-1.008-5.398,0.74C16.3,327.625,15.93,330.723,15.509,333.058z"/>
		<path fill="#3F3D56" d="M50.665,325.637c-1.303,0.891-2.921,1.167-4.488,1.369c-1.571,0.198-3.182,0.352-4.602,1.05
			c-1.225,0.605-2.258,1.598-3.555,2.032c-1.206,0.33-2.476,0.351-3.691,0.058c-1.457-0.273-3.01-0.804-3.797-2.062
			c-0.702-1.118-0.626-2.538-0.531-3.855c0.113-1.488,0.224-2.979,0.332-4.472c-0.005-0.378,0.09-0.751,0.277-1.081
			c1.053-1.535,3.616,0.644,4.988,0.64c2.172-0.003,4.505-1.18,6.072-2.62c0.137-0.143,0.296-0.264,0.472-0.356
			c0.619-0.276,1.239,0.237,1.789,0.686c0.062,0.051,0.123,0.102,0.185,0.15c1.269,1.005,2.973,1.211,4.54,1.617
			c1.57,0.407,3.25,1.229,3.736,2.775c0.032,0.097,0.057,0.196,0.075,0.297C52.752,323.286,51.886,324.803,50.665,325.637z"/>
		<path fill="#2F2E41" d="M50.665,325.637c-1.303,0.891-2.921,1.167-4.488,1.369c-1.571,0.198-3.182,0.352-4.602,1.05
			c-1.225,0.605-2.258,1.598-3.555,2.032c-1.206,0.33-2.476,0.351-3.691,0.058c-1.457-0.273-3.01-0.804-3.797-2.062
			c-0.702-1.118-0.626-2.538-0.531-3.855c0.113-1.488,0.224-2.979,0.332-4.472c-0.005-0.378,0.09-0.751,0.277-1.081
			c1.053-1.535,3.616,0.644,4.988,0.64c2.172-0.003,4.505-1.18,6.072-2.62c0.137-0.143,0.296-0.264,0.472-0.356
			c0.619-0.276,1.239,0.237,1.789,0.686c0.062,0.051,0.123,0.102,0.185,0.15c1.269,1.005,2.973,1.211,4.54,1.617
			c1.57,0.407,3.25,1.229,3.736,2.775c0.032,0.097,0.057,0.196,0.075,0.297C52.752,323.286,51.886,324.803,50.665,325.637z"/>
		<path fill="#E8EAF2" d="M50.665,326.138c-1.303,0.89-2.921,1.167-4.488,1.368c-1.571,0.199-3.182,0.353-4.602,1.051
			c-1.225,0.605-2.258,1.598-3.555,2.032c-1.206,0.33-2.476,0.35-3.691,0.058c-1.551-0.328-2.913-1.248-3.797-2.563
			c-0.702-1.118-0.626-2.538-0.531-3.855c0.113-1.488,0.224-2.979,0.332-4.472c-0.005-0.378,0.09-0.751,0.277-1.081
			c1.053-1.535,3.616,0.644,4.988,0.64c2.172-0.003,4.505-1.18,6.072-2.62c0.137-0.143,0.296-0.264,0.472-0.356
			c0.619-0.276,1.239,0.237,1.789,0.686c-0.362,1.115-0.875,2.177-1.525,3.153c-1.063,1.668-2.822,2.769-4.787,2.993
			c-0.971,0.072-1.967-0.119-2.908,0.131c-0.938,0.25-1.813,1.211-1.481,2.124c0.325,0.89,1.474,1.085,2.422,1.136
			c1.327,0.072,2.689,0.137,3.948-0.276c0.77-0.257,1.475-0.682,2.224-0.992c3.185-1.321,7.208-0.582,9.839-2.812
			c0.249-0.229,0.518-0.435,0.804-0.616C53.156,323.306,51.886,325.303,50.665,326.138z"/>
		<path opacity="0.05" enable-background="new    " d="M50.665,326.138c-1.303,0.89-2.921,1.167-4.488,1.368
			c-1.571,0.199-3.182,0.353-4.602,1.051c-1.225,0.605-2.258,1.598-3.555,2.032c-1.206,0.33-2.476,0.35-3.691,0.058
			c-1.551-0.328-2.913-1.248-3.797-2.563c-0.702-1.118-0.626-2.538-0.531-3.855c0.113-1.488,0.224-2.979,0.332-4.472
			c-0.005-0.378,0.09-0.751,0.277-1.081c1.053-1.535,3.616,0.644,4.988,0.64c2.172-0.003,4.505-1.18,6.072-2.62
			c0.137-0.143,0.296-0.264,0.472-0.356c0.619-0.276,1.239,0.237,1.789,0.686c-0.362,1.115-0.875,2.177-1.525,3.153
			c-1.063,1.668-2.822,2.769-4.787,2.993c-0.971,0.072-1.967-0.119-2.908,0.131c-0.938,0.25-1.813,1.211-1.481,2.124
			c0.325,0.89,1.474,1.085,2.422,1.136c1.327,0.072,2.689,0.137,3.948-0.276c0.77-0.257,1.475-0.682,2.224-0.992
			c3.185-1.321,7.208-0.582,9.839-2.812c0.249-0.229,0.518-0.435,0.804-0.616C53.156,323.306,51.886,325.303,50.665,326.138z"/>
		<path fill="#2F2E41" d="M16.104,228.675c-1.016,4.982-0.053,10.165,2.684,14.45c0.746,1.156,1.621,2.242,2.182,3.498
			c0.368,0.896,0.653,1.824,0.852,2.773l2.418,10.008c0.652,2.701,1.31,5.456,1.114,8.228c-0.137,1.932-0.624,4.104,0.567,5.632
			c0.287,0.292,0.53,0.625,0.719,0.987c0.119,0.425,0.123,0.874,0.012,1.3c-1.223,7.267-2.13,14.863,0.079,21.893
			c2.003,6.371,2.117,13.43,3.82,19.888c0.211,0.8,0.452,1.643,1.058,2.206c0.455,0.383,1.001,0.643,1.586,0.754
			c2.509,0.597,5.159-0.104,7.5-1.188c1.645-0.762,3.415-2.099,3.275-3.906c-0.067-0.859-0.569-1.613-0.91-2.405
			c-0.668-1.554-0.722-3.289-0.902-4.971c-0.453-4.223-1.755-8.301-2.739-12.432c-0.984-4.132-1.652-8.448-0.82-12.613
			c1.702-8.615,4.426-16.995,8.114-24.964c0.161-0.424,0.415-0.806,0.744-1.118c0.37-0.21,0.722-0.45,1.052-0.718
			c0.256-0.396,0.42-0.842,0.481-1.309c0.366-1.318,1.453-2.291,2.182-3.448c1.84-2.924,1.257-6.671,1.188-10.124
			c-0.066-3.358,0.418-6.749-0.133-10.062c-0.551-3.313-2.449-6.701-5.644-7.74c-1.583-0.514-3.293-0.397-4.949-0.232
			C32.861,223.93,24.337,225.523,16.104,228.675z"/>
		<path opacity="0.1" enable-background="new    " d="M16.104,228.675c-1.016,4.982-0.053,10.165,2.684,14.45
			c0.746,1.156,1.621,2.242,2.182,3.498c0.368,0.896,0.653,1.824,0.852,2.773l2.418,10.008c0.652,2.701,1.31,5.456,1.114,8.228
			c-0.137,1.932-0.624,4.104,0.567,5.632c0.287,0.292,0.53,0.625,0.719,0.987c0.119,0.425,0.123,0.874,0.012,1.3
			c-1.223,7.267-2.13,14.863,0.079,21.893c2.003,6.371,2.117,13.43,3.82,19.888c0.211,0.8,0.452,1.643,1.058,2.206
			c0.455,0.383,1.001,0.643,1.586,0.754c2.509,0.597,5.159-0.104,7.5-1.188c1.645-0.762,3.415-2.099,3.275-3.906
			c-0.067-0.859-0.569-1.613-0.91-2.405c-0.668-1.554-0.722-3.289-0.902-4.971c-0.453-4.223-1.755-8.301-2.739-12.432
			c-0.984-4.132-1.652-8.448-0.82-12.613c1.702-8.615,4.426-16.995,8.114-24.964c0.161-0.424,0.415-0.806,0.744-1.118
			c0.37-0.21,0.722-0.45,1.052-0.718c0.256-0.396,0.42-0.842,0.481-1.309c0.366-1.318,1.453-2.291,2.182-3.448
			c1.84-2.924,1.257-6.671,1.188-10.124c-0.066-3.358,0.418-6.749-0.133-10.062c-0.551-3.313-2.449-6.701-5.644-7.74
			c-1.583-0.514-3.293-0.397-4.949-0.232C32.861,223.93,24.337,225.523,16.104,228.675z"/>
		<path fill="#2F2E41" d="M51.835,249.737c-0.026,1.306-0.173,2.605-0.442,3.883c-1.546,8.673-3.194,17.327-4.943,25.963
			c-0.154,0.749-0.305,1.498-0.506,2.234c-0.652,2.402-1.792,4.646-3.349,6.589c-7.291,9.086-7.92,22.281-11.875,33.238
			c-0.267,0.743-0.534,1.484-0.818,2.217c-0.714,1.856-1.529,3.674-2.439,5.443c-0.106,0.257-0.28,0.481-0.503,0.649
			c-0.246,0.123-0.52,0.177-0.794,0.154c-3.558,0.021-7.074-0.778-10.273-2.337c-0.457-0.168-0.842-0.488-1.091-0.906
			c-0.123-0.333-0.163-0.691-0.117-1.043c0.109-2.173,0.243-4.424,1.28-6.333c0.688-1.142,1.541-2.176,2.531-3.069
			c0.308-6.817,0.982-13.648,2.48-20.307c0.77-3.403,1.721-6.846,3.698-9.723c1.457-2.125,3.547-4.222,3.291-6.784
			c-0.113-1.125-0.585-2.527,0.332-3.188c0.4-0.291,0.992-0.329,1.262-0.743c0.109-0.194,0.17-0.413,0.178-0.636
			c0.188-1.759,0.079-3.537-0.325-5.259c-0.333-1.124-0.595-2.27-0.783-3.428c-0.116-1.169,0.082-2.436,0.862-3.312
			c0.048-2.34-0.017-4.769,0.031-7.105c0.092-1.332-0.019-2.67-0.328-3.969c-0.178-0.612-0.448-1.196-0.585-1.823
			c-0.489-2.248,0.732-4.939-0.722-6.722c-0.605-0.739-1.539-1.108-2.333-1.643c-1.584-1.057-2.624-2.788-3.202-4.605
			c-0.513-1.839-0.817-3.73-0.906-5.638c-0.047-0.404-0.052-0.812-0.014-1.218c0.025-0.209,0.081-0.414,0.164-0.608
			c0.452-1.017,1.666-1.409,2.747-1.67c6.871-1.647,13.913-2.471,20.978-2.452c2.613-1.779,4.084-1.143,5.193,0.742
			c0.612,1.15,1.107,2.359,1.478,3.609c0.506,1.529,0.537,10.088,1.03,11.624C53.662,243.562,51.811,247.641,51.835,249.737z"/>
		<path fill="#3F3D56" d="M4.579,171.848c-0.194,1.347,0.453,2.67,0.525,4.028c0.062,1.188-0.315,2.348-0.532,3.517
			c-0.844,4.562,0.777,9.184,2.427,13.521c0.314,0.704,0.509,1.455,0.577,2.224c0.044,1.415-0.771,2.712-0.995,4.11
			c-0.469,2.938,1.698,5.702,1.744,8.678c0.021,1.37-0.411,2.765-0.068,4.091c0.229,0.886,0.782,1.646,1.173,2.473
			c0.695,1.463,0.881,3.124,1.544,4.602c1.199,2.671,3.773,4.416,6.224,6.019c1.394-0.465,2.901-1.018,3.667-2.271
			c0.336-0.618,0.553-1.293,0.64-1.991c0.53-3.043,0.511-6.151,0.491-9.24c0.045-2.658-0.096-5.316-0.422-7.954
			c-0.495-3.356-1.584-6.593-2.365-9.894c-0.985-4.164-1.49-8.465-3.024-12.459c-1.349-3.511-3.449-6.66-5.66-9.677
			c-0.843-1.152-1.509-2.798-3.146-2.532C5.958,169.332,4.841,170.432,4.579,171.848z"/>
		<path opacity="0.05" enable-background="new    " d="M4.579,171.848c-0.194,1.347,0.453,2.67,0.525,4.028
			c0.062,1.188-0.315,2.348-0.532,3.517c-0.844,4.562,0.777,9.184,2.427,13.521c0.314,0.704,0.509,1.455,0.577,2.224
			c0.044,1.415-0.771,2.712-0.995,4.11c-0.469,2.938,1.698,5.702,1.744,8.678c0.021,1.37-0.411,2.765-0.068,4.091
			c0.229,0.886,0.782,1.646,1.173,2.473c0.695,1.463,0.881,3.124,1.544,4.602c1.199,2.671,3.773,4.416,6.224,6.019
			c1.394-0.465,2.901-1.018,3.667-2.271c0.336-0.618,0.553-1.293,0.64-1.991c0.53-3.043,0.511-6.151,0.491-9.24
			c0.045-2.658-0.096-5.316-0.422-7.954c-0.495-3.356-1.584-6.593-2.365-9.894c-0.985-4.164-1.49-8.465-3.024-12.459
			c-1.349-3.511-3.449-6.66-5.66-9.677c-0.843-1.152-1.509-2.798-3.146-2.532C5.958,169.332,4.841,170.432,4.579,171.848z"/>
		<circle fill="#A0616A" cx="34.464" cy="135.315" r="12.704"/>
		<path fill="#3F3D56" d="M41.857,156.111c-0.554,0.641-1.297,1.347-2.119,1.141c-0.296-0.102-0.575-0.251-0.824-0.441
			c-1.464-0.944-3.262-1.166-4.984-1.425c-3.473-0.523-6.903-1.295-10.266-2.308c-0.976-0.355-2-0.563-3.037-0.618
			c-2.153,0.012-4.062,1.442-5.411,3.121s-2.305,3.641-3.629,5.339c-0.943,1.21-2.067,2.276-2.948,3.532
			c-2.224,3.17-2.702,7.307-2.128,11.137s2.104,7.441,3.621,11.005c0.81,2.069,1.799,4.063,2.956,5.961
			c-0.511,2.91-0.241,6.238,1.143,8.849c0.451,0.851,1.003,1.68,1.152,2.631c0.068,0.643,0.042,1.293-0.08,1.929l-0.646,4.599
			c-0.197,1.401-0.394,2.802-0.648,4.192c-0.467,2.546-1.1,5.31,0.079,7.613c1.412,2.759-0.071,6.296,0.3,9.373
			c3.975-1.535,8.139-2.524,12.379-2.94c2.73-0.268,5.511-0.302,8.145-1.068c1.645-0.479,3.205-1.236,4.875-1.618
			c1.354-0.266,2.73-0.406,4.111-0.419c3.043-0.123,6.109-0.244,9.123,0.203c0.244,0.037,0.542,0.058,0.688-0.142
			c0.065-0.108,0.097-0.233,0.092-0.359c0.046-1.13-0.224-2.25-0.779-3.234c-0.384-0.678-0.917-1.341-0.903-2.12
			c0.028-0.363,0.117-0.72,0.264-1.053l1.335-3.561c1.127-3.006,0.591-6.498,1.177-9.654c0.457-2.468,0.75-4.962,0.877-7.468
			c0.108-2.143,0.041-4.462-1.251-6.174c-0.378-0.412-0.706-0.868-0.977-1.358c-0.185-0.52-0.265-1.072-0.232-1.624
			c-0.029-4.286,0.089-8.57,0.353-12.852c-1.127-2.024-2.302-4.094-3.429-6.119c-1.312-2.355-2.641-4.76-3.171-7.404
			c-0.351-1.75-0.338-3.552-0.589-5.319c-0.026-0.449-0.182-0.88-0.449-1.242c-0.431-0.488-1.159-0.558-1.809-0.537
			C43.411,155.703,42.616,155.849,41.857,156.111z"/>
		<path fill="#3F3D56" d="M46.1,175.952c0.773,0.965,1.58,1.956,2.676,2.524c1.262,0.655,2.749,0.671,4.17,0.641
			c5.854-0.125,11.685-0.766,17.426-1.914c0.654-0.113,1.296-0.285,1.919-0.515c0.69-0.329,1.341-0.734,1.939-1.21
			c1.89-1.358,3.807-2.742,5.244-4.574c1.71-2.211,2.785-4.847,3.108-7.624c1.367-1.259,2.093-3.049,2.777-4.777
			c0.338-0.733,0.552-1.518,0.633-2.321c0.037-0.821-0.508-1.683-0.357-2.492c0.264-1.394,0.971-2.666,2.016-3.626
			c0.221-0.158,0.389-0.38,0.479-0.637c0.028-0.214-0.011-0.431-0.114-0.621c-0.585-1.303-1.923-2.143-3.31-2.484
			c-1.404-0.271-2.843-0.328-4.264-0.169c-0.474,0.089-0.941,0.213-1.396,0.371l-0.994,2.616c-0.133,0.438-0.354,0.844-0.649,1.193
			c-0.221,0.201-0.457,0.386-0.705,0.552c-1.024,0.87-1.548,2.191-1.398,3.526c-1.864,0.724-2.845,2.771-2.24,4.677
			c-1.52,0.326-2.76,1.418-3.276,2.883c-0.071,0.329-0.217,0.636-0.428,0.898c-0.328,0.249-0.733,0.373-1.144,0.352
			c-1.123,0.069-2.104,0.954-3.122,0.474c-1.156-0.542-2.448-0.723-3.708-0.519c-0.259,0.061-0.525,0.084-0.791,0.07
			c-0.227-0.039-0.446-0.115-0.648-0.227c-0.458-0.267-0.955-0.462-1.472-0.579c-0.531-0.11-1.078,0.101-1.396,0.54
			c-0.356-0.391-0.568-0.891-0.893-1.308c-0.293-0.454-0.817-0.704-1.354-0.647c0.338-0.301-0.008-0.9-0.448-1.01
			c-0.451-0.037-0.904-0.021-1.352,0.049c-1.175-0.006-2.076-1.073-3.217-1.352c-1.049-0.257-2.447,0.05-2.985-0.887
			c-0.191-0.332-0.228-0.782-0.553-0.986c-0.219-0.108-0.47-0.137-0.708-0.082c-0.745,0.099-1.469,0.319-2.143,0.65
			c-1.1,4.303-0.523,8.771,0.315,13.133C44.045,172.518,44.858,174.383,46.1,175.952z"/>
		<path fill="#3F3D56" d="M39.712,152.923c-1.363-0.849-2.967-1.208-4.547-1.497c-0.948-0.216-1.923-0.286-2.893-0.208
			c-0.895,0.111-1.753,0.457-2.653,0.507c-1.263,0.07-2.474-0.442-3.694-0.776c-1.22-0.334-2.629-0.461-3.656,0.277
			c-0.219,0.215-0.496,0.362-0.796,0.422c-0.312-0.038-0.602-0.18-0.823-0.403c-1.78-1.274-4.205-1.146-5.841,0.308
			c-2.329,2.184-2.066,6.452-4.795,8.108c-0.752,0.457-1.714,0.698-2.153,1.461c-0.106,0.243-0.231,0.478-0.372,0.703
			c-0.183,0.201-0.407,0.36-0.656,0.467c-0.792,0.354-1.546,0.787-2.25,1.293c-0.709,0.517-1.178,1.301-1.295,2.17
			c-0.01,0.631,0.126,1.256,0.397,1.826c2.737,6.713,9.404,10.976,16.647,10.644c0.627,0.032,1.246-0.16,1.744-0.544
			c0.263-0.296,0.47-0.637,0.611-1.007c1.283-2.69,3.693-4.676,5.224-7.234c0.912-1.525,1.498-3.23,2.447-4.731
			c1.439-2.276,3.628-3.958,5.771-5.59c1.208-0.92,2.553-1.886,4.071-1.821c1.353,0.057,2.336,0.13,1.841-1.53
			C41.629,154.573,40.803,153.564,39.712,152.923z"/>
		<path opacity="0.05" enable-background="new    " d="M39.712,152.923c-1.363-0.849-2.967-1.208-4.547-1.497
			c-0.948-0.216-1.923-0.286-2.893-0.208c-0.895,0.111-1.753,0.457-2.653,0.507c-1.263,0.07-2.474-0.442-3.694-0.776
			c-1.22-0.334-2.629-0.461-3.656,0.277c-0.219,0.215-0.496,0.362-0.796,0.422c-0.312-0.038-0.602-0.18-0.823-0.403
			c-1.78-1.274-4.205-1.146-5.841,0.308c-2.329,2.184-2.066,6.452-4.795,8.108c-0.752,0.457-1.714,0.698-2.153,1.461
			c-0.106,0.243-0.231,0.478-0.372,0.703c-0.183,0.201-0.407,0.36-0.656,0.467c-0.792,0.354-1.546,0.787-2.25,1.293
			c-0.709,0.517-1.178,1.301-1.295,2.17c-0.01,0.631,0.126,1.256,0.397,1.826c2.737,6.713,9.404,10.976,16.647,10.644
			c0.627,0.032,1.246-0.16,1.744-0.544c0.263-0.296,0.47-0.637,0.611-1.007c1.283-2.69,3.693-4.676,5.224-7.234
			c0.912-1.525,1.498-3.23,2.447-4.731c1.439-2.276,3.628-3.958,5.771-5.59c1.208-0.92,2.553-1.886,4.071-1.821
			c1.353,0.057,2.336,0.13,1.841-1.53C41.629,154.573,40.803,153.564,39.712,152.923z"/>
		<path fill="#2F2E41" d="M46.323,337.043c-0.92,0.858-2.186,1.234-3.414,1.501c-2.805,0.548-5.644,0.898-8.498,1.051
			c-0.923,0.068-1.851,0.141-2.774,0.212c-2.709,0.205-5.423,0.414-8.143,0.425c-3.356,0.011-6.708-0.279-10.013-0.866
			c-0.467,0.045-0.882-0.297-0.927-0.765c-0.008-0.083-0.003-0.168,0.013-0.251c0.059-3.384,0.472-6.753,1.231-10.051
			c0.315-1.355,2.744,1.683,2.854,1.81c0.674,0.766,1.184,1.119,2.207,1.173c2.795,0.155,5.925-1.546,8.146-3.058
			c0.476-0.354,0.98-0.667,1.509-0.934c0.388-0.175,0.799-0.292,1.221-0.35c1.438-0.132,2.883,0.16,4.157,0.842
			c1.669,0.827,3.133,2.019,4.786,2.87c1.344,0.69,2.794,1.149,4.291,1.357c1.512,0.209,3.318,0.309,4.095,1.619
			c0.002,0.003,0.004,0.006,0.003,0.01C47.702,334.724,47.24,336.188,46.323,337.043z"/>
		<path fill="#E8EAF2" d="M46.323,337.544c-0.92,0.857-2.186,1.234-3.414,1.502c-2.805,0.547-5.644,0.897-8.498,1.05
			c-0.923,0.068-1.851,0.14-2.774,0.213c-2.709,0.204-5.423,0.413-8.143,0.423c-3.356,0.012-6.708-0.277-10.013-0.865
			c-0.306-0.012-0.594-0.15-0.793-0.383c-0.261-0.346-0.47-0.728-0.621-1.134c0.058-3.38,0.973-6.756,1.732-10.051
			c0.315-1.355,2.744,1.683,2.854,1.81c0.674,0.766,1.184,1.119,2.207,1.173c2.795,0.155,5.925-1.546,8.146-3.058
			c0.476-0.354,0.98-0.667,1.509-0.934c0.388-0.175,0.799-0.292,1.221-0.35c-0.359,2.012-3.243,4.44-4.731,5.18
			c-3.01,1.495-6.589,0.749-9.948,0.924c-0.246-0.007-0.489,0.052-0.705,0.171c-0.404,0.267-0.428,0.838-0.414,1.32
			c0.027,0.801,0.13,1.741,0.825,2.148c0.347,0.167,0.73,0.247,1.115,0.233c8.278,0.361,16.573,0.071,24.806-0.87
			c1.385-0.092,2.747-0.396,4.041-0.899c0.845-0.396,1.633-0.903,2.343-1.509C48.123,334.47,47.24,336.688,46.323,337.544z"/>
		<path fill="#2F2E41" d="M39.406,135.178c-0.048,1.314,0.848,3.862-1.608,3.151c-1.464-0.425-1.878-2.159-3.736-1.773
			c-1.875,0.394-2.285,2.676-2.915,4.174c-1.041,2.417-3.207,4.167-5.789,4.677c-0.524,0.122-1.07,0.121-1.594-0.004
			c-1.197-0.342-1.881-1.577-2.371-2.723c-0.424-0.969-0.775-1.969-1.05-2.99c-0.191-0.718-0.318-1.452-0.38-2.193v-0.003
			c-0.042-0.504-0.044-1.011-0.007-1.515c0.222-2.987,1.922-5.71,4.099-7.769c2.176-2.06,4.82-3.548,7.43-5.016
			c0.853-0.532,1.775-0.943,2.74-1.221c0.953-0.192,1.93-0.232,2.895-0.12c1.271,0.055,2.52,0.348,3.681,0.865
			c0.477,0.235,0.914,0.542,1.296,0.911c0.545,0.505,0.935,1.155,1.123,1.874c0.472,1.93-0.759,3.667-1.758,5.194
			C40.573,132.051,39.471,133.488,39.406,135.178z"/>
		<path fill="#3F3D56" d="M42.061,127.744c-0.229,0.373-0.48,0.731-0.752,1.074c-0.519,0.655-1.101,1.258-1.738,1.799
			c-0.375,0.327-0.767,0.634-1.173,0.92c-0.754,0.53-1.546,1.004-2.371,1.416c-2.402,1.211-5.002,1.971-7.588,2.72
			c-1.69,0.493-3.381,0.984-5.074,1.475c-1.769,1.337-7.694,5.726-8.689,5.179c-1.173-0.646,5.257-5.198,5.257-5.198l0.295,0.225
			c-0.94-0.592-1.433-1.964-1.646-3.151c-0.376-2.125-0.554-4.331-0.051-6.431c0.503-2.097,1.766-4.095,3.688-5.077
			c0.852-0.438,1.885-0.736,2.501-1.41c0.093-0.1,0.175-0.21,0.243-0.329c0.037-0.055,0.069-0.113,0.096-0.174
			c0.068-0.185,0.159-0.361,0.271-0.523c0.353-0.407,0.992-0.284,1.526-0.219c0.058,0.007,0.113,0.014,0.171,0.018
			c0.096,0.01,0.191,0.014,0.288,0.014c1.905,0.041,3.752-1.02,5.682-1.02c2.114-0.003,3.914,1.221,5.775,2.056
			c0.376,0.171,0.732,0.325,1.067,0.482c1.344,0.626,2.357,1.293,2.911,3.072C43.07,125.702,42.628,126.82,42.061,127.744z"/>
		<path opacity="0.1" enable-background="new    " d="M20.059,137.079c0.268,0.167,0.566,0.278,0.877,0.327
			c0.794,0.23,1.649,0.103,2.341-0.351L20.059,137.079z"/>
	</g>
	
		<polyline fill="none" stroke="#FFFFFF" stroke-width="3" stroke-linecap="round" stroke-linejoin="round" stroke-miterlimit="10" points="
		65.452,108.957 74.117,122.612 118.269,93.749 	"/>
</g>
</svg>
