<?xml version="1.0" encoding="utf-8"?>
<!-- Generator: Adobe Illustrator 22.0.1, SVG Export Plug-In . SVG Version: 6.00 Build 0)  -->
<svg version="1.1" id="Layer_1" xmlns="http://www.w3.org/2000/svg" xmlns:xlink="http://www.w3.org/1999/xlink" x="0px" y="0px"
	 viewBox="0 0 35 35" style="enable-background:new 0 0 35 35;" xml:space="preserve">
<style type="text/css">
	.st0{fill:url(#SVGID_1_);}
</style>
<title>Header Icons</title>
<linearGradient id="SVGID_1_" gradientUnits="userSpaceOnUse" x1="17.5663" y1="7.375" x2="17.5663" y2="27.8754">
	<stop  offset="0" style="stop-color:#C94C4C"/>
	<stop  offset="0.99" style="stop-color:#FF8080"/>
</linearGradient>
<path class="st0" d="M24.9,8.1c-2.7-0.8-3.6,0.7-7.4,0.7s-4.6-1.5-7.4-0.7s-4.1,3.6-5.3,9s-1,9.2,0.5,9.9s3.2-0.9,4.8-3
	c1.3-1.6,2-1.7,7.4-1.7s6,0,7.4,1.7c1.6,2,3.3,3.7,4.9,3s1.7-4.6,0.5-9.9S27.6,8.9,24.9,8.1z M9.8,18c-1.3,0-2.4-1-2.4-2.4
	s1-2.4,2.4-2.4s2.4,1,2.4,2.4l0,0C12.2,16.9,11.1,18,9.8,18z M20.8,16.8c-0.7,0-1.2-0.5-1.2-1.2s0.5-1.2,1.2-1.2s1.2,0.5,1.2,1.2
	l0,0C21.9,16.3,21.4,16.8,20.8,16.8L20.8,16.8z M23.3,19.4c-0.7,0-1.2-0.5-1.2-1.2s0.5-1.2,1.2-1.2s1.2,0.5,1.2,1.2l0,0
	C24.5,18.8,23.9,19.3,23.3,19.4L23.3,19.4z M23.3,14.2c-0.7,0-1.2-0.5-1.2-1.1c0-0.7,0.5-1.2,1.1-1.2c0.7,0,1.2,0.5,1.2,1.1
	C24.5,13.6,23.9,14.2,23.3,14.2L23.3,14.2z M25.9,16.8c-0.7,0-1.2-0.5-1.2-1.1c0-0.7,0.5-1.2,1.1-1.2c0.7,0,1.2,0.5,1.2,1.1l0,0
	C27,16.2,26.5,16.7,25.9,16.8L25.9,16.8z"/>
<g id="Xnpdg2.tif">
	
		<image style="overflow:visible;enable-background:new    ;" width="864" height="504" id="Layer_0_1_" xlink:href="7154B7397081811A.png"  transform="matrix(1 0 0 1 -664 202)">
	</image>
</g>
</svg>
