<?xml version="1.0" encoding="utf-8"?>
<!-- Generator: Adobe Illustrator 22.0.1, SVG Export Plug-In . SVG Version: 6.00 Build 0)  -->
<svg version="1.1" id="Layer_1" xmlns="http://www.w3.org/2000/svg" xmlns:xlink="http://www.w3.org/1999/xlink" x="0px" y="0px"
	 viewBox="0 0 100 100" style="enable-background:new 0 0 100 100;" xml:space="preserve">
<style type="text/css">
	.st0{fill:url(#SVGID_1_);}
	.st1{fill:url(#SVGID_2_);}
	.st2{fill:url(#SVGID_3_);}
</style>
<title>Header Icons</title>
<g>
	
		<linearGradient id="SVGID_1_" gradientUnits="userSpaceOnUse" x1="72.5" y1="20.8" x2="72.5" y2="20.8" gradientTransform="matrix(1 0 0 -1 0 100)">
		<stop  offset="0" style="stop-color:#8393A7"/>
		<stop  offset="1" style="stop-color:#5B6A72"/>
	</linearGradient>
	<path class="st0" d="M72.5,79.2"/>
</g>
<g>
	<g>
		<g>
			<linearGradient id="SVGID_2_" gradientUnits="userSpaceOnUse" x1="47.5616" y1="2.2245" x2="47.5616" y2="93.5125">
				<stop  offset="0" style="stop-color:#8393A7"/>
				<stop  offset="1" style="stop-color:#5B6A72"/>
			</linearGradient>
			<path class="st1" d="M36.8,93.8c-6.9,0-11.6-6.7-14.7-11.2c-7.8-11.2-12.1-29.9-5-42.3c4-6.9,11.1-11.2,18.8-11.4
				c3.5-0.1,6.7,1.2,9.3,2.2c1.2,0.5,2.8,1.1,3.4,1.1c0.5,0,2.1-0.6,3.3-1.1c3.1-1.2,7.1-2.9,11.6-2.4c2.3,0.1,8.2,0.8,13.1,5.1
				c1.5,1.3,2.4,3.3,2.4,5.3s-0.8,4.1-2.2,5.4c-1.9,1.8-4.4,5.1-4.3,9.8c0,5.9,3.3,9.3,6,11.1c3,1.9,4.1,5.7,2.8,8.9
				c-0.8,2-2.3,5.2-4.5,8.4l0,0c-3.3,4.8-7.3,10.8-14.6,10.9c-3.2,0.3-5.4-0.7-7.3-1.5c-1.7-0.7-3.1-1.3-5.3-1.3
				c-2.4,0-3.8,0.6-5.6,1.3c-1.8,0.8-3.9,1.6-6.7,1.7C37,93.8,36.9,93.8,36.8,93.8z M36.1,35.9H36C30.9,36,26,39,23.3,43.7
				c-6,10.5-0.9,26.6,4.7,34.8c2.2,3.3,5.6,8.2,8.9,8.2H37c1.5-0.1,2.7-0.5,4.2-1.2c2-0.9,4.6-1.9,8.5-1.9c3.7,0,6.1,1,8.1,1.9
				c1.5,0.7,2.7,1.1,4.4,1.1c3.3-0.1,5.7-3.3,8.8-7.9c1.8-2.7,3.1-5.3,3.8-7c0-0.1,0-0.2-0.1-0.2c-3.5-2.2-9.2-7.4-9.3-17
				c-0.1-7.2,3.5-12.1,6.5-15v-0.2l0,0c-3.4-2.9-7.2-3.4-8.8-3.4h-0.2c-2.9-0.3-5.8,0.8-8.4,1.8c-2.1,0.8-4,1.6-5.9,1.6
				s-4-0.8-6-1.6C40.3,36.8,38.2,35.9,36.1,35.9z"/>
		</g>
	</g>
	<g>
		<linearGradient id="SVGID_3_" gradientUnits="userSpaceOnUse" x1="56.0101" y1="2.2245" x2="56.0101" y2="93.5125">
			<stop  offset="0" style="stop-color:#8393A7"/>
			<stop  offset="1" style="stop-color:#5B6A72"/>
		</linearGradient>
		<path class="st2" d="M48.5,28.4c-1.5,0-2.8-0.6-3.8-1.7c-1-1.1-1.4-2.7-1.1-4.2l0,0C44.5,18,48,7.1,62.3,3.7
			c1.7-0.4,3.4,0,4.6,1.1c1.2,1.1,1.8,2.7,1.6,4.4c-1.5,11.4-8.9,18.6-19.6,19.2C48.7,28.4,48.6,28.4,48.5,28.4z M62.1,10.1
			c-8.1,2.5-11,8.1-12.1,12.1C54.9,21.5,60.3,18.7,62.1,10.1z"/>
	</g>
</g>
</svg>
