<?xml version="1.0" encoding="utf-8"?>
<!-- Generator: Adobe Illustrator 17.0.0, SVG Export Plug-In . SVG Version: 6.00 Build 0)  -->
<!DOCTYPE svg PUBLIC "-//W3C//DTD SVG 1.1//EN" "http://www.w3.org/Graphics/SVG/1.1/DTD/svg11.dtd">
<svg version="1.1" id="Layer_1" xmlns="http://www.w3.org/2000/svg" xmlns:xlink="http://www.w3.org/1999/xlink" x="0px" y="0px"
	 width="799.9px" height="479.94px" viewBox="0 0 799.9 479.94" enable-background="new 0 0 799.9 479.94" xml:space="preserve">
<g>
	<g>
		<path fill="none" stroke="#FE3401" stroke-width="13.2198" d="M499.208,166.245c0-77.139,62.527-139.669,139.669-139.679
			c77.128,0,139.659,62.539,139.659,139.679"/>
		<line fill="none" stroke="#FE3401" stroke-width="13.2198" x1="767.731" y1="27.54" x2="510.022" y2="27.54"/>
		<g>
			<rect x="766.626" y="152.731" fill="#FFFFFF" stroke="#596273" stroke-width="13.2198" width="27.039" height="27.032"/>
			<rect x="484.082" y="152.731" fill="#FFFFFF" stroke="#596273" stroke-width="13.2198" width="27.036" height="27.032"/>
		</g>
		<rect x="625.354" y="14.021" fill="#FFFFFF" stroke="#596273" stroke-width="13.2198" width="27.037" height="27.043"/>
		<g>
			<rect x="765.361" y="14.021" fill="#FFFFFF" stroke="#FE3401" stroke-width="13.2198" width="27.026" height="27.043"/>
			<rect x="485.354" y="14.021" fill="#FFFFFF" stroke="#FE3401" stroke-width="13.2198" width="27.026" height="27.043"/>
		</g>
	</g>
	<g>
		<g>
			<defs>
				<path id="SVGID_1_" d="M390.606,258.553c0,103.771-84.125,187.9-187.897,187.9c-103.773,0-187.897-84.129-187.897-187.9
					c0-103.768,84.124-187.897,187.897-187.897C306.481,70.656,390.606,154.785,390.606,258.553z"/>
			</defs>
			<clipPath id="SVGID_2_">
				<use xlink:href="#SVGID_1_"  overflow="visible"/>
			</clipPath>
			<g clip-path="url(#SVGID_2_)">
				<polyline fill="#4E99FF" points="150.983,31.932 57.776,76.814 202.709,258.553 				"/>
				<polyline fill="#4E99FF" points="347.641,440.292 254.434,485.179 202.709,258.553 				"/>
				<polyline fill="#C3D80E" points="150.983,31.932 57.776,76.814 202.709,258.553 				"/>
				<polyline fill="#474EC9" points="347.641,440.292 254.434,485.179 202.709,258.553 				"/>
				<polyline fill="#9FC400" points="60.053,75.026 -5.449,155.097 202.709,258.553 				"/>
				<polyline fill="#6E57DA" points="410.868,362.012 345.364,442.09 202.709,258.553 				"/>
				<polyline fill="#4DB544" points="-4.145,152.508 -29.671,252.762 202.709,258.553 				"/>
				<polyline fill="#CC5073" points="435.088,264.347 409.564,364.61 202.709,258.553 				"/>
				<polyline fill="#17D0B4" points="-29.582,249.864 -10.348,351.513 202.709,258.553 				"/>
				<linearGradient id="SVGID_3_" gradientUnits="userSpaceOnUse" x1="202.7085" y1="216.4226" x2="435.0036" y2="216.4226">
					<stop  offset="0" style="stop-color:#F95830"/>
					<stop  offset="1" style="stop-color:#E04037"/>
				</linearGradient>
				<polyline fill="url(#SVGID_3_)" points="415.763,165.593 435.004,267.252 202.709,258.553 				"/>
				<polyline fill="#FFCF33" points="268.939,36.105 150.872,32.143 202.709,258.553 				"/>
				<polyline fill="#4777E6" points="254.652,485.124 136.833,481.371 202.709,258.553 				"/>
				<polyline fill="#4EB3D7" points="-11.489,348.85 48.897,432.845 202.709,258.553 				"/>
				<polyline fill="#F58620" points="356.513,84.259 416.915,168.266 202.709,258.553 				"/>
				<polyline fill="#4E99FF" points="46.735,430.912 136.967,481.515 202.709,258.553 				"/>
				<polyline fill="#FFA813" points="268.443,35.589 358.686,86.196 202.709,258.553 				"/>
			</g>
		</g>
		<path fill="#FFFFFF" d="M302.778,258.553c0,55.264-44.803,100.072-100.069,100.072s-100.07-44.808-100.07-100.072
			c0-55.262,44.803-100.07,100.07-100.07S302.778,203.291,302.778,258.553z"/>
	</g>
	<g>
		<path fill="#EDEDED" d="M546.246,436.45c0,17.343-14.061,31.413-31.411,31.413H242.579c-17.35,0-31.416-14.071-31.416-31.413
			V38.533c0-17.345,14.066-31.411,31.416-31.411h188.487l115.18,115.183V436.45z"/>
		<polygon fill="#E2E2E2" points="441.536,111.835 546.246,215.178 546.246,122.305 535.78,111.835 		"/>
		<path fill="#FE3401" d="M431.066,7.122v83.77c0,17.34,14.063,31.413,31.411,31.413h83.77L431.066,7.122z"/>
		<path fill="#B3B3B3" d="M336.821,289.849c0,5.789-4.691,10.47-10.475,10.47c-5.777,0-10.468-4.681-10.468-10.47
			c0-5.78,4.691-10.473,10.468-10.473C332.13,279.376,336.821,284.069,336.821,289.849z"/>
	</g>
	<g>
		<path fill="#FE3401" d="M672.098,387.574c-0.022,62.201-74.889,62.194-74.889-0.033c-1.884-104.561-3.77-45.616-5.652-150.187
			c28.714,0,57.45,0,86.171-0.017C675.852,341.925,673.96,282.979,672.098,387.574z"/>
		<path fill="#FFFFFF" d="M621.453,315.231c-0.276,9.346-0.583,23.959-0.87,53.682c-0.012,13.363-2.155,23.426-5.408,30.243
			c-3.236-6.824-5.391-16.889-5.396-30.253c-0.894-91.603-1.791-39.98-2.69-131.559c4.147-0.007,8.318,0,12.503,0.009
			C620.204,298.922,620.828,292.637,621.453,315.231z"/>
		<path fill="#FE3401" d="M615.93,129.518c3.432-6.403,5.051-12.846,5.18-18.915h10.981l-0.01,0.381v63.548
			c-3.542,0.767-6.148,3.071-6.146,5.809c0,3.392,3.895,6.134,8.725,6.136c4.808,0.009,8.706-2.75,8.706-6.12
			c0-2.759-2.596-5.051-6.156-5.823l0.009-63.548v-0.383l10.967-0.012c0.13,6.079,1.716,12.515,5.189,18.932
			c7.728,14.385,22.259,24.879,37.488,28.575c-5.902,12.304-10.42,27.113-12.709,43.175c-1.647,11.614-1.908,22.717-1.081,32.84
			c-12.932-1.46-27.276-2.277-42.423-2.285c-15.152,0-29.501,0.825-42.435,2.285c0.839-10.132,0.564-21.226-1.086-32.842
			c-2.277-16.067-6.798-30.874-12.687-43.173C593.645,154.402,608.195,143.919,615.93,129.518z"/>
		<polygon fill="#BC290C" points="682.058,240.786 587.233,240.786 587.226,221.569 682.038,221.569 		"/>
	</g>
</g>
<g>
	<circle fill="#FFCF33" cx="325.486" cy="238.26" r="73.985"/>
	<path fill="#FF00FE" d="M505.908,238.26c0,40.86-33.125,73.985-73.985,73.985c-40.864,0-73.985-33.125-73.985-73.985
		s33.121-73.985,73.985-73.985C472.783,164.275,505.908,197.4,505.908,238.26z"/>
	<path fill="#009BFF" d="M452.689,323.927c0,40.864-33.125,73.985-73.987,73.985s-73.983-33.121-73.983-73.985
		c0-40.856,33.121-73.985,73.983-73.985S452.689,283.071,452.689,323.927z"/>
</g>
</svg>
