<?xml version="1.0" encoding="utf-8"?>
<!-- Generator: Adobe Illustrator 16.0.4, SVG Export Plug-In . SVG Version: 6.00 Build 0)  -->
<!DOCTYPE svg PUBLIC "-//W3C//DTD SVG 1.1//EN" "http://www.w3.org/Graphics/SVG/1.1/DTD/svg11.dtd">
<svg version="1.1" id="Layer_1" xmlns="http://www.w3.org/2000/svg" xmlns:xlink="http://www.w3.org/1999/xlink" x="0px" y="0px"
	 width="1024px" height="1024px" viewBox="0 0 1024 1024" enable-background="new 0 0 1024 1024" xml:space="preserve">
<g id="hdiUET.tif">
	<g>
		<path fill-rule="evenodd" clip-rule="evenodd" d="M1018,6c0,41.768,0,83.536,0,126.312c-15.674,0-30.648,0-45.226,0
			C938.781,319.042,833.355,444.717,654.648,512c4.4,0,6.783,0,9.167,0c74.107-0.012,148.217-0.121,222.322,0.136
			c6.556,0.023,9.562-1.942,12.496-7.824c13.093-26.238,42.743-39.721,70.51-32.833c28.662,7.11,48.517,31.777,48.839,60.685
			c0.328,29.334-19.815,55.46-48.068,62.349c-28.355,6.912-57.403-5.881-70.857-32.044c-3.325-6.47-6.831-8.665-14.145-8.644
			c-98.809,0.278-197.619,0.178-296.429,0.17c-3.906-0.002-7.813,0-12.992,0c0,14.237,0,27.834,0,42.249c-20.9,0-40.545,0-63.045,0
			c4.031,4.256,6.279,6.744,8.65,9.116c50.757,50.785,101.434,101.652,152.431,152.193c5.449,5.397,6.622,9.791,4.185,17.06
			c-20.904,62.337-41.407,124.812-62.009,187.253c-1.318,3.991-2.465,8.043-3.949,12.913c2.53,0.49,4.306,1.042,6.109,1.148
			c10.535,0.615,17.416,6.202,19.962,16.121c2.477,9.655-1.467,17.351-9.647,22.928c-1.27,0.864-2.347,2.009-3.513,3.024
			c-75.109,0-150.219,0-225.328,0c-1.174-1.012-2.285-2.107-3.534-3.015c-8.692-6.328-12.369-15.075-9.433-23.878
			c3.266-9.797,10.182-15.005,20.702-15.141c1.814-0.022,3.625-0.409,5.978-0.69c-0.911-3.261-1.494-5.777-2.309-8.217
			c-21.186-63.58-42.164-127.232-63.868-190.637c-3.065-8.956-1.363-13.977,5.019-20.296
			c50.528-50.026,100.691-100.421,150.952-150.711c2.382-2.384,4.654-4.878,8.979-9.424c-22.927,0-42.778,0-63.553,0
			c0-14.52,0-27.854,0-41.562c-3.525-0.174-6.109-0.409-8.692-0.411c-100.728-0.023-201.457,0.032-302.187-0.164
			c-6.185-0.014-9.026,2.096-11.805,7.561c-11.844,23.284-36.447,37.094-60.519,34.808c-28.114-2.665-49.188-20.086-57.046-47.109
			c-0.542-1.866-1.341-3.659-2.021-5.489c0-7.246,0-14.496,0-21.742c0.6-1.123,1.424-2.182,1.768-3.378
			c7.792-26.985,28.131-45.484,52.904-48.05c28.963-3,52.41,9.358,65.483,35.74c3.009,6.074,6.87,5.794,11.78,5.793
			c74.434-0.01,148.868,0.01,223.303,0.004c2.021,0,4.044-0.201,7.03-0.36C190.454,444.487,84.993,318.82,51.245,132.5
			c-14.998,0-30.121,0-45.245,0C6,90.333,6,48.167,6,6c42.168,0,84.332,0,126.5,0c0,41.759,0,83.517,0,126.307
			c-12.689,0-24.715,0-36.844,0c23.612,175.854,169.282,327.789,352.658,353.285c0.256-4.859,0.509-9.681,0.791-15.066
			c41.833,0,83.194,0,125.542,0c0.355,4.838,0.726,9.909,1.101,15.005c179.978-24.665,328.105-173.87,352.546-352.866
			c-11.855,0-23.63,0-36.794,0c0-42.675,0-84.67,0-126.665C933.668,6,975.832,6,1018,6z M511.965,655.605
			c-32.279,32.38-63.443,63.578-94.524,94.863c-8.559,8.613-21.587,16.373-23.956,26.533c-2.364,10.146,5.947,22.845,9.771,34.362
			c17.187,51.772,34.37,103.548,51.829,155.229c1.176,3.482,4.316,8.513,7.04,8.854c8.995,1.123,18.218,0.423,28.577,0.423
			c0-4.486,0-7.995,0-11.509c-0.006-44.105,0.056-88.214-0.065-132.319c-0.029-10.47,3.285-18.888,13.288-23.234
			c14.658-6.37,29.174,4.694,29.243,22.501c0.174,44.105,0.062,88.214,0.063,132.319c0.002,3.799,0,7.598,0,12.342
			c9.333,0,17.204-0.409,25.009,0.128c6.337,0.437,9.162-1.861,11.143-7.934c20.075-61.53,40.4-122.979,60.853-184.384
			c1.788-5.364,1.004-8.794-3.111-12.848c-26.498-26.101-52.711-52.491-78.981-78.819
			C536.325,680.271,524.585,668.35,511.965,655.605z M89.832,90.066c0-14.394,0-27.68,0-41.161c-14.228,0-27.765,0-41.025,0
			c0,14.223,0,27.52,0,41.161C62.712,90.066,75.771,90.066,89.832,90.066z M975.276,90.011c0-14.457,0-27.749,0-41.395
			c-14.037,0-27.336,0-40.917,0c0,14.16,0,27.682,0,41.395C948.33,90.011,961.39,90.011,975.276,90.011z M491.169,553.346
			c14.373,0,27.668,0,41.496,0c0-13.886,0-27.137,0-40.622c-14.134,0-27.664,0-41.496,0
			C491.169,526.446,491.169,539.442,491.169,553.346z M69.478,553.901c11.419-0.108,20.777-9.329,20.928-20.618
			c0.151-11.529-9.806-21.406-21.429-21.259c-11.315,0.142-20.766,9.511-20.939,20.761C47.857,544.339,57.68,554.014,69.478,553.901
			z M954.873,553.897c11.81-0.111,21.422-9.966,21.017-21.537c-0.394-11.246-9.986-20.382-21.341-20.329
			c-11.261,0.054-20.812,9.45-21.008,20.668C933.336,544.328,943.08,554.01,954.873,553.897z"/>
	</g>
</g>
</svg>
