<?xml version="1.0" encoding="utf-8"?>
<!-- Generator: Adobe Illustrator 16.0.4, SVG Export Plug-In . SVG Version: 6.00 Build 0)  -->
<!DOCTYPE svg PUBLIC "-//W3C//DTD SVG 1.1//EN" "http://www.w3.org/Graphics/SVG/1.1/DTD/svg11.dtd">
<svg version="1.1" id="Layer_1" xmlns="http://www.w3.org/2000/svg" xmlns:xlink="http://www.w3.org/1999/xlink" x="0px" y="0px"
	 width="450px" height="343.174px" viewBox="0 0 450 343.174" enable-background="new 0 0 450 343.174" xml:space="preserve">
<g>
	<path fill="#F2F2F2" d="M244.777,4.083c-21.396,5.564-40.271,20.425-59.03,39.92c13.066,11.924,14.004,32.197,2.096,45.279
		c-11.498,12.632-30.869,14.007-44.032,3.129c-22.036,26.359-46.096,54.225-75.462,77.256
		c-74.771,58.639,78.989,165.583,176.429,165.583s176.428-74.134,176.428-165.583C421.205,78.216,338.678-20.343,244.777,4.083z"/>
	<ellipse fill="#FF6584" cx="163.346" cy="66.429" rx="22.816" ry="22.846"/>
	<ellipse fill="#3F3D56" cx="381.578" cy="299.651" rx="60.668" ry="7.884"/>
	<ellipse fill="#3F3D56" cx="166.924" cy="334.984" rx="60.666" ry="7.884"/>
	<path fill="#2F2E41" d="M384.926,272.202c0,0,3.258,11.245,5.434,14.146c2.172,2.902,3.982,7.615,2.896,8.342
		c-1.088,0.726-3.262,9.431-0.363,9.792c2.898,0.362,9.418-9.429,9.779-12.694c0.365-3.264,1.812-14.869,1.812-14.869
		s2.535-10.156-1.447-10.882c-3.986-0.725-10.145-1.088-10.145-1.088L384.926,272.202z"/>
	<path fill="#2F2E41" d="M369.711,284.171c0,0-4.709,12.332-5.795,13.058c-1.086,0.725-5.07,7.253,2.9,7.253
		c7.967,0,12.312-2.176,12.312-2.176l2.537-2.901c0,0,0-7.617-0.725-8.705c-0.727-1.088,0-6.528,0-6.528H369.711z"/>
	<path fill="#2F2E41" d="M337.477,171.375c0,0-5.797,39.171-0.727,51.866c5.072,12.693,10.143,16.321,10.143,16.321l38.395,35.905
		c0,0,11.953-6.166,10.867-10.155c0,0-2.535-1.451-2.898-2.539s-5.072-1.45-5.072-1.45s-2.172-2.538-2.172-3.989
		c0-1.452-18.836-27.202-24.992-29.016c0,0-3.262-3.989-2.898-4.714c0.363-0.727-1.088-3.266-1.088-3.266l3.623-14.145l22.82-3.627
		c0,0,9.416-33.369,1.449-35.907C376.955,164.12,337.477,171.375,337.477,171.375z"/>
	<path fill="#2F2E41" d="M382.752,196.762l0.723,5.805c0,0,0,15.233-0.723,16.684c-0.725,1.45-1.086,3.627,0,5.078
		c1.086,1.45,2.896,5.077,2.174,6.528c-0.725,1.45,1.447,42.434-1.449,45.336c-2.896,2.901-1.811,6.528-1.449,6.892
		c0.363,0.363-0.361,1.812-0.361,1.812s-14.85,2.538-13.764,0s1.086-3.989,1.809-4.715c0.727-0.725,0-1.812,0-1.812
		s1.086-11.607,0-12.333c-1.086-0.725-4.346-35.542-4.346-35.905c0-0.362-1.086-1.088-1.086-2.539s0-6.166-1.811-6.892
		c-1.812-0.724-1.449-18.497-1.449-18.497L382.752,196.762z"/>
	<path fill="#FFB9B9" d="M357.033,67.282c0,0,1.451,10.881,5.797,13.057c4.346,2.176,7.244,3.265,7.244,3.265l-3.623,12.693
		l-1.449,10.881H348.34l-9.053-7.254l2.896-11.969l1.449-2.175c0,0,1.811-7.979,0.361-10.519
		C342.547,72.721,357.033,67.282,357.033,67.282z"/>
	<path fill="#575A89" d="M349.791,93.757l2.535,4.715c0,0,1.811-6.528,4.346-7.615c2.537-1.088,8.693-2.903,8.693-4.352
		c0-1.452-0.363-5.079,1.086-5.079s15.576,4.353,17.75,5.802c2.172,1.453,2.535,2.901,2.535,2.901l-3.984,41.71
		c0,0,5.795,19.585,3.984,27.203c-1.811,7.616-3.26,8.704-7.607,9.792c-4.346,1.088-1.811-2.54-14.488,1.088
		c-12.678,3.627-20.646,2.539-23.543,2.539c-2.898,0-4.709,1.452-5.434,1.815c-0.723,0.361-0.361-1.815,2.172-5.079
		c2.537-3.264,1.451-8.704,1.451-8.704s-2.898-9.431-1.088-13.057c1.811-3.626,4.348-8.341,2.174-9.793
		c-2.174-1.451-5.07-12.333-5.07-12.333l-7.969-28.289l16.299-11.243c0,0-0.725,5.078,1.811,6.165
		C347.98,93.032,349.791,93.757,349.791,93.757z"/>
	<path fill="#575A89" d="M329.506,96.659h-2.172c0,0-3.621,6.166-3.621,10.518c0,4.352,1.811,29.016,1.811,29.016l10.502,10.881
		l2.537-8.343l0.725-18.497L329.506,96.659z"/>
	<path fill="#575A89" d="M335.303,135.104c0,0-11.953-3.264-11.59,1.815c0.359,5.076,2.172,11.242,7.967,12.693
		c5.797,1.451,7.607-6.528,7.607-6.528S340.01,135.83,335.303,135.104z"/>
	<path fill="#FFB9B9" d="M380.215,151.788c0,0-0.725,16.685-5.07,18.499l10.504,2.538c0,0,5.07-17.409,4.346-18.135
		C389.271,153.965,380.215,151.788,380.215,151.788z"/>
	<path fill="#2F2E41" d="M318.09,117.827l6.221-2.721c0.482-0.211,1.047,0.01,1.26,0.495l6.912,15.852
		c0.26,0.592-0.008,1.282-0.602,1.539l0,0l-5.832,2.552c-0.59,0.258-1.279-0.012-1.537-0.604l0,0l-6.916-15.852
		C317.385,118.604,317.605,118.04,318.09,117.827z"/>
	<path opacity="0.1" enable-background="new    " d="M318.09,117.827l6.221-2.721c0.482-0.211,1.047,0.01,1.26,0.495l6.912,15.852
		c0.26,0.592-0.008,1.282-0.602,1.539l0,0l-5.832,2.552c-0.59,0.258-1.279-0.012-1.537-0.604l0,0l-6.916-15.852
		C317.385,118.604,317.605,118.04,318.09,117.827z"/>
	<path fill="#2F2E41" d="M318.441,118.637l5.424-2.372c0.484-0.211,1.049,0.01,1.26,0.494l6.562,15.043
		c0.256,0.592-0.012,1.28-0.602,1.539l0,0l-5.037,2.203c-0.59,0.258-1.279-0.012-1.537-0.604l0,0l-6.562-15.042
		C317.736,119.414,317.959,118.849,318.441,118.637L318.441,118.637z"/>
	
		<ellipse transform="matrix(-0.3999 -0.9166 0.9166 -0.3999 338.6521 468.5923)" fill="#F2F2F2" cx="322.724" cy="123.436" rx="1.765" ry="1.742"/>
	<path opacity="0.1" enable-background="new    " d="M382.932,95.027l2.355-3.446c0,0,8.691,13.419,7.969,22.487
		c-0.725,9.067-1.449,9.43-1.449,10.881c0,1.452-1.812,1.452,0,3.264c1.812,1.813,4.348,4.353,2.898,5.803
		c-1.449,1.452-2.537,1.452-2.174,3.265c0.23,1.317,0.354,2.652,0.361,3.989c0,0-3.076,5.985-4.166,5.985
		c-1.086,0-11.408,9.612-11.408,8.522c0-1.088,1.086-8.703,1.086-9.791c0-1.089,0.363-4.716,1.086-5.803
		c0.725-1.088,0.725-0.727,0-1.814c-0.723-1.088-0.723,0-0.723-1.088s0.361-2.539-0.725-2.902c-1.088-0.363-2.174,0-1.449-1.813
		c0.725-1.813,0-3.264-0.363-3.264c-0.361,0-2.172-0.364-1.086-1.452s-2.172-22.125-2.172-22.125S373.516,100.467,382.932,95.027z"
		/>
	<path fill="#575A89" d="M380.941,87.229l6.156,2.901c0,0,8.693,13.42,7.969,22.487c-0.725,9.068-1.447,9.43-1.447,10.881
		c0,1.451-1.812,1.451,0,3.265c1.811,1.814,4.346,4.352,2.896,5.803c-1.449,1.45-2.537,1.45-2.174,3.264
		c0.232,1.319,0.354,2.652,0.363,3.991c0,0-3.26,17.408-4.346,17.408s-11.23-1.813-11.23-2.901s1.086-8.705,1.086-9.793
		s0.365-4.714,1.086-5.803c0.727-1.088,0.727-0.725,0-1.812c-0.721-1.09-0.721,0-0.721-1.09c0-1.088,0.361-2.538-0.725-2.901
		c-1.088-0.362-2.176,0-1.451-1.814c0.725-1.812,0-3.264-0.361-3.264c-0.363,0-2.174-0.363-1.088-1.45
		c1.088-1.09-2.172-22.125-2.172-22.125S371.523,92.669,380.941,87.229z"/>
	<path fill="#FFB9B9" d="M325.979,137.695c-0.695,0.185-1.424-0.145-1.746-0.789c-1.666-3.333-6.174-13.107-1.971-13.409
		c3.879-0.277,7.334,7.295,8.744,10.873c0.35,0.887-0.084,1.891-0.971,2.242c-0.062,0.024-0.129,0.047-0.195,0.065L325.979,137.695z
		"/>
	<ellipse fill="#FFB9B9" cx="346.893" cy="64.017" rx="13.4" ry="13.42"/>
	<path fill="#2F2E41" d="M341.969,56.289c-1.674,0.578-3.398,0.986-5.15,1.218c-1.322,0.207-2.867,0.312-3.795-0.651
		c-0.91-0.943-0.762-2.519-0.141-3.676c0.619-1.156,1.613-2.063,2.359-3.142c1.174-1.697,1.867-3.948,3.744-4.803
		c0.777-0.298,1.605-0.454,2.436-0.456c4.869-0.311,9.939-0.591,14.449,1.274c1.693,0.647,3.195,1.718,4.361,3.107
		c0.764,1.025,1.354,2.168,1.742,3.385c2.451,7.28,0.949,15.312-3.967,21.21c-1.645-1.483-0.93-4.908-3.01-5.665
		c-0.682-0.248-1.453-0.075-2.152-0.271c-2.197-0.617-2.086-4.016-3.914-5.381c-0.398-0.215-0.754-0.507-1.041-0.858
		c-0.162-0.335-0.23-0.708-0.203-1.08c-0.014-1.273,0.584-4.508-0.629-5.38C345.824,54.233,343.154,55.859,341.969,56.289z"/>
	<polygon fill="#6C63FF" points="212.047,25.123 322.525,25.123 322.525,83.17 314.543,83.17 314.543,104.622 293.121,83.17 
		212.047,83.17 	"/>
	<path fill="#FFFFFF" d="M267.285,66.571l-1.949-1.762c-6.922-6.363-11.492-10.495-11.492-15.641
		c-0.07-4.041,3.145-7.375,7.182-7.446c0.07-0.002,0.141-0.002,0.211,0c2.336,0.012,4.549,1.052,6.049,2.843
		c1.502-1.792,3.715-2.832,6.051-2.843c4.037-0.047,7.348,3.192,7.395,7.235c0,0.07,0,0.143-0.002,0.211
		c0,5.146-4.57,9.278-11.492,15.641L267.285,66.571z"/>
	<polygon fill="#6C63FF" points="2.09,167.515 108.364,137.292 124.202,193.131 116.525,195.314 122.379,215.95 95.917,201.175 
		17.929,223.354 	"/>
	<path fill="#FFFFFF" d="M66.537,192.274l-2.356-1.16c-8.396-4.229-13.919-6.951-15.322-11.902
		c-1.172-3.868,1.011-7.956,4.875-9.127c0.068-0.02,0.137-0.041,0.204-0.059c2.25-0.627,4.661-0.232,6.595,1.081
		c0.955-2.135,2.8-3.74,5.043-4.39c3.872-1.149,7.939,1.062,9.088,4.937c0.02,0.069,0.039,0.136,0.057,0.205
		c1.403,4.95-1.865,10.174-6.788,18.19L66.537,192.274z"/>
	<path fill="#A0616A" d="M124.094,133.692c0,0-3.593,10.792-1.597,13.189c1.994,2.398-11.975-7.194-11.975-7.194l7.583-8.792
		L124.094,133.692z"/>
	<ellipse fill="#2F2E41" cx="115.901" cy="115.731" rx="17.921" ry="17.945"/>
	<polygon fill="#A0616A" points="185.56,255.192 176.38,262.387 171.191,253.993 180.372,247.599 	"/>
	<path fill="#2F2E41" d="M172.589,309.347l2.395,11.591l6.785,9.192c0,0,18.359,5.596,5.986,8.394
		c-12.372,2.798-15.166-1.999-15.166-1.999l-8.781-7.595v10.395h-5.588l-1.198-14.789c0,0-0.797-4.396,2.795-9.192l0.798-7.194
		L172.589,309.347z"/>
	<path fill="#A0616A" d="M126.289,165.866l3.192,18.386c0,0,33.927-3.598,36.321,3.197c2.396,6.794,3.193,8.792,3.193,8.792
		l-6.785,2.398l-3.193-5.995c-1.966-0.696-4.131-0.552-5.986,0.399c-3.194,1.6-31.133,5.596-33.129,0.399
		c-1.995-5.194-7.584-24.379-7.584-24.379l8.383-6.794L126.289,165.866z"/>
	<path opacity="0.1" enable-background="new    " d="M126.289,165.866l3.192,18.386c0,0,33.927-3.598,36.321,3.197
		c2.396,6.794,3.193,8.792,3.193,8.792l-6.785,2.398l-3.193-5.995c-1.966-0.696-4.131-0.552-5.986,0.399
		c-3.194,1.6-31.133,5.596-33.129,0.399c-1.995-5.194-7.584-24.379-7.584-24.379l8.383-6.794L126.289,165.866z"/>
	<path fill="#2F2E41" d="M145.049,219.021l2.794,9.594l7.184,36.769c0,0,0.799,27.178,1.995,30.374c1.198,3.197,1.198,3.598,0,4.797
		c-1.196,1.199-3.591,5.196,0,7.594c3.593,2.397,16.365,5.196,16.765,2.397c0.398-2.797,0.398-7.194,0-9.191
		c-0.399-1.999,1.197-33.174,1.197-33.174l-4.79-47.56l-16.364-7.594L145.049,219.021z"/>
	<path opacity="0.1" enable-background="new    " d="M145.049,219.021l2.794,9.594l7.184,36.769c0,0,0.799,27.178,1.995,30.374
		c1.198,3.197,1.198,3.598,0,4.797c-1.196,1.199-3.591,5.196,0,7.594c3.593,2.397,16.365,5.196,16.765,2.397
		c0.398-2.797,0.398-7.194,0-9.191c-0.399-1.999,1.197-33.174,1.197-33.174l-4.79-47.56l-16.364-7.594L145.049,219.021z"/>
	<path fill="#2F2E41" d="M162.211,181.453l8.78,16.786c0,0,50.292,22.382,45.901,31.575c-4.391,9.191-28.738,26.378-28.738,26.378
		s-1.197,6.793-4.789,4.795c-3.592-1.997-12.374-12.389-11.575-13.59c0.799-1.197,3.593-3.994,4.79-3.596
		c1.197,0.4,15.166-10.39,15.166-10.39l-23.948-5.997c0,0-28.736-0.8-30.333-14.388c-1.597-13.589,0-15.987,0-15.987l-1.996-4.396
		l16.364-9.992L162.211,181.453z"/>
	<path fill="#2F2E41" d="M174.583,247.8l-8.38,7.592c0,0-7.186-3.197-11.575-1.999c-4.392,1.199-11.975,1.999-11.975,1.999
		l1.197,6.794l10.184-1.881l-8.188,11.475c0,0,0,17.984,5.188,17.984c5.189,0,3.593-10.791,3.593-10.791l15.965-12.389
		c0,0,7.982-3.197,8.781-3.197C180.172,263.387,174.583,247.8,174.583,247.8z"/>
	<ellipse fill="#A0616A" cx="122.497" cy="123.302" rx="13.57" ry="13.589"/>
	<path fill="#575A89" d="M109.126,133.893c0,0,6.386-1.599,8.382,0c1.995,1.599,2.395,5.196,5.188,5.595
		c2.794,0.399,5.189,0.399,5.588,0.799c0.399,0.4,9.58,11.591,9.58,11.591s5.587,3.197,6.785,7.594
		c1.197,4.396,13.172,19.184,14.769,20.783c1.597,1.598-10.378,9.592-14.369,12.39c-3.992,2.798-15.567,3.996-19.159-2.398
		C122.297,183.853,102.739,142.286,109.126,133.893z"/>
	<path fill="#A0616A" d="M124.293,159.872l3.193,18.385c0,0,33.926-3.599,36.321,3.196c2.396,6.796,3.192,8.793,3.192,8.793
		l-6.785,2.398l-3.193-5.996c-1.965-0.696-4.13-0.552-5.986,0.4c-3.192,1.6-31.133,5.596-33.128,0.4
		c-1.996-5.195-7.584-24.381-7.584-24.381l8.382-6.793L124.293,159.872z"/>
	<path fill="#575A89" d="M116.666,135.574c0,0,9.623,20.3,8.824,25.896c-0.798,5.594-3.592,1.598-3.592,1.598
		s-3.593-5.593-5.189-2.396c-1.597,3.195-3.592,7.593-5.188,7.193c-1.597-0.4-10.378-29.976-5.588-32.774
		C110.723,132.294,116.666,135.574,116.666,135.574z"/>
	<ellipse fill="#2F2E41" cx="96.487" cy="92.104" rx="17.921" ry="17.944"/>
	<path fill="#2F2E41" d="M81.031,106.963c8.021,5.805,19.224,4,25.021-4.032c1.181-1.635,2.076-3.457,2.651-5.39
		c-1.235,9.834-10.196,16.802-20.017,15.566c-9.821-1.237-16.781-10.211-15.545-20.044c0.121-0.976,0.323-1.939,0.604-2.88
		C72.928,96.688,75.723,103.123,81.031,106.963z"/>
	<ellipse fill="#2F2E41" cx="111.122" cy="118.721" rx="13.142" ry="13.159"/>
	<ellipse fill="#2F2E41" cx="122.174" cy="113.787" rx="11.648" ry="9.121"/>
	<ellipse fill="#A0616A" cx="122.696" cy="124.701" rx="2.594" ry="4.596"/>
	<path fill="#2F2E41" d="M158.309,192.471c0,0,7.066-4.06,8.377-3.043c1.312,1.02,1.895,4.204,1.895,4.204l-8.166,3.209
		l-2.395-4.396L158.309,192.471z"/>
	
		<line fill="none" stroke="#3F3D56" stroke-width="2" stroke-miterlimit="10" x1="124.638" y1="330.989" x2="124.638" y2="282.155"/>
	<ellipse fill="#3F3D56" cx="124.638" cy="282.156" rx="6.896" ry="6.906"/>
	<path fill="#3F3D56" d="M124.638,312.253c0,0-0.985-21.218-21.182-18.752"/>
	
		<line fill="none" stroke="#3F3D56" stroke-width="2" stroke-miterlimit="10" x1="334.672" y1="294.814" x2="334.672" y2="245.982"/>
	<ellipse fill="#3F3D56" cx="334.672" cy="245.982" rx="6.896" ry="6.905"/>
	<path fill="#3F3D56" d="M334.672,276.078c0,0-0.984-21.217-21.182-18.751"/>
	
		<line fill="none" stroke="#3F3D56" stroke-width="2" stroke-miterlimit="10" x1="419.832" y1="295.932" x2="419.832" y2="198.266"/>
	<ellipse fill="#3F3D56" cx="419.832" cy="198.267" rx="6.898" ry="6.906"/>
	<path fill="#3F3D56" d="M419.832,226.391c0,0,0.984-21.218,21.182-18.752"/>
	<path fill="none" stroke="#3F3D56" stroke-width="2" stroke-miterlimit="10" d="M419.832,294.033c0,0-4.434-39.041,21.182-41.017"
		/>
	<ellipse fill="#3F3D56" cx="441.014" cy="253.019" rx="6.896" ry="6.906"/>
</g>
</svg>
