<?xml version="1.0" encoding="utf-8"?>
<!-- Generator: Adobe Illustrator 16.0.4, SVG Export Plug-In . SVG Version: 6.00 Build 0)  -->
<!DOCTYPE svg PUBLIC "-//W3C//DTD SVG 1.1//EN" "http://www.w3.org/Graphics/SVG/1.1/DTD/svg11.dtd">
<svg version="1.1" id="Layer_1" xmlns="http://www.w3.org/2000/svg" xmlns:xlink="http://www.w3.org/1999/xlink" x="0px" y="0px"
	 width="450px" height="343.174px" viewBox="0 0 450 343.174" enable-background="new 0 0 450 343.174" xml:space="preserve">
<g>
	
		<ellipse transform="matrix(-0.9341 -0.357 0.357 -0.9341 104.5845 357.1179)" fill="#2F2E41" cx="85.251" cy="168.907" rx="5.111" ry="16.281"/>
	<path fill="#F2F2F2" d="M430.058,209.927c6.457,48.057-2.336,96.166-47.06,114.899s-96.166-2.336-114.899-47.059
		c-18.733-44.725,25.468-71.484,47.06-114.9C359.005,74.703,410.005,60.688,430.058,209.927z"/>
	<ellipse fill="#3F3D56" cx="349.542" cy="327.458" rx="70.072" ry="9.533"/>
	
		<rect x="308.616" y="296.741" transform="matrix(0.2664 0.9639 -0.9639 0.2664 524.5762 -78.0469)" fill="#2F2E41" width="9.893" height="17.725"/>
	
		<ellipse transform="matrix(-0.2665 -0.9638 0.9638 -0.2665 87.9494 679.8777)" fill="#2F2E41" cx="302.683" cy="306.472" rx="8.244" ry="3.092"/>
	
		<ellipse transform="matrix(-0.9909 -0.1342 0.1342 -0.9909 665.7209 584.3192)" fill="#2F2E41" cx="352.559" cy="269.717" rx="5.111" ry="16.282"/>
	<circle fill="#2F2E41" cx="349.371" cy="300.198" r="32.563"/>
	
		<rect x="308.616" y="290.971" transform="matrix(0.2664 0.9639 -0.9639 0.2664 519.0142 -82.28)" fill="#2F2E41" width="9.893" height="17.725"/>
	
		<ellipse transform="matrix(-0.2665 -0.9638 0.9638 -0.2665 93.5112 672.5695)" fill="#2F2E41" cx="302.683" cy="300.702" rx="8.244" ry="3.092"/>
	<circle fill="#FFFFFF" cx="357.922" cy="281.544" r="11.129"/>
	<circle fill="#3F3D56" cx="361.48" cy="276.627" r="3.709"/>
	<path fill="#6C63FF" d="M386.975,322.575c12.051-0.604,21.279-11.875,20.614-25.175c-0.666-13.302-10.974-23.595-23.024-22.992
		c-12.051,0.604-13.941,10.063-13.275,23.364C371.955,311.072,374.925,323.178,386.975,322.575z"/>
	<path fill="#FFFFFF" d="M336.062,286.42c-4.084,0.331-7.663-2.712-7.993-6.796c-0.331-4.085,2.712-7.664,6.796-7.994
		c4.085-0.33,5.199,2.911,5.529,6.996C340.725,282.71,340.146,286.09,336.062,286.42z"/>
	<polyline fill="none" stroke="#3F3D56" stroke-width="2" stroke-miterlimit="10" points="20.389,148.811 174.756,148.811 
		203.033,162.587 248.089,184.537 277.547,129.381 360.908,129.381 	"/>
	<circle fill="#6C63FF" cx="91.841" cy="154.582" r="5.641"/>
	<circle fill="#6C63FF" cx="144.489" cy="148.811" r="5.641"/>
	<circle fill="#6C63FF" cx="202.961" cy="162.6" r="5.641"/>
	<circle fill="#6C63FF" cx="324.555" cy="129.381" r="5.641"/>
	<circle fill="#6C63FF" cx="265.639" cy="151.318" r="5.641"/>
	<circle fill="none" stroke="#3F3D56" stroke-width="2" stroke-miterlimit="10" cx="158.227" cy="239.664" r="6.082"/>
	<ellipse fill="#3F3D56" cx="70.072" cy="333.641" rx="70.072" ry="9.533"/>
	<circle fill="#2F2E41" cx="66.282" cy="287.064" r="32.563"/>
	<rect x="51.443" y="312.62" fill="#2F2E41" width="9.893" height="17.724"/>
	<rect x="71.229" y="312.62" fill="#2F2E41" width="9.893" height="17.724"/>
	<ellipse fill="#2F2E41" cx="59.688" cy="330.55" rx="8.243" ry="3.091"/>
	<ellipse fill="#2F2E41" cx="79.473" cy="330.138" rx="8.243" ry="3.091"/>
	<circle fill="#FFFFFF" cx="67.106" cy="278.82" r="11.129"/>
	<circle fill="#3F3D56" cx="67.106" cy="278.82" r="3.71"/>
	<path fill="#6C63FF" d="M34.695,256.782c-2.63-11.776,5.775-23.674,18.772-26.576s25.665,4.291,28.294,16.065
		c2.63,11.776-5.983,16.118-18.981,19.021C49.783,268.194,37.324,268.557,34.695,256.782z"/>
	<circle fill="#2F2E41" cx="55.153" cy="193.497" r="32.563"/>
	<rect x="40.314" y="219.053" fill="#2F2E41" width="9.893" height="17.725"/>
	<rect x="60.1" y="219.053" fill="#2F2E41" width="9.893" height="17.725"/>
	<ellipse fill="#2F2E41" cx="48.559" cy="236.983" rx="8.243" ry="3.091"/>
	<ellipse fill="#2F2E41" cx="68.344" cy="236.571" rx="8.243" ry="3.091"/>
	<circle fill="#FFFFFF" cx="55.978" cy="185.253" r="11.129"/>
	<circle fill="#3F3D56" cx="55.978" cy="185.253" r="3.709"/>
	<path fill="#6C63FF" d="M23.566,163.214c-2.63-11.774,5.775-23.673,18.772-26.575s25.665,4.291,28.294,16.066
		c2.629,11.774-5.984,16.117-18.981,19.02C38.654,174.628,26.195,174.989,23.566,163.214z"/>
	
		<ellipse transform="matrix(-0.9035 -0.4285 0.4285 -0.9035 -41.2772 347.4825)" fill="#2F2E41" cx="18.477" cy="178.388" rx="16.282" ry="5.11"/>
	<path fill="#FFFFFF" d="M39.158,205.244c0,3.188,8.206,9.48,17.312,9.48c9.105,0,17.644-8.972,17.644-12.159
		s-8.538,0.618-17.644,0.618C47.364,203.184,39.158,202.058,39.158,205.244z"/>
	<rect x="316.351" y="232.768" fill="#6C63FF" width="51.989" height="26.447"/>
	
		<rect x="312.282" y="237.062" fill="none" stroke="#3F3D56" stroke-width="2" stroke-miterlimit="10" width="51.988" height="26.446"/>
	<rect x="93.404" y="82.025" fill="#FF6584" width="14.838" height="14.839"/>
	
		<rect x="89.694" y="77.079" fill="none" stroke="#3F3D56" stroke-width="2" stroke-miterlimit="10" width="14.839" height="14.839"/>
	<rect x="204.888" y="272.508" fill="#FF6584" width="14.838" height="14.839"/>
	
		<rect x="201.178" y="267.562" fill="none" stroke="#3F3D56" stroke-width="2" stroke-miterlimit="10" width="14.839" height="14.839"/>
	<circle fill="#2F2E41" cx="345.441" cy="78.098" r="32.563"/>
	
		<rect x="356.36" y="101.338" transform="matrix(0.984 -0.1782 0.1782 0.984 -13.854 66.1416)" fill="#2F2E41" width="9.893" height="17.725"/>
	
		<rect x="336.892" y="104.865" transform="matrix(0.984 -0.1782 0.1782 0.984 -14.7939 62.7293)" fill="#2F2E41" width="9.893" height="17.725"/>
	
		<ellipse transform="matrix(-0.6462 -0.7632 0.7632 -0.6462 467.4001 465.9773)" fill="#2F2E41" cx="341.719" cy="124.64" rx="3.091" ry="8.243"/>
	
		<ellipse transform="matrix(-0.6463 -0.7631 0.7631 -0.6463 501.4948 474.8152)" fill="#2F2E41" cx="360.783" cy="121.189" rx="3.091" ry="8.244"/>
	<circle fill="#FFFFFF" cx="343.162" cy="70.133" r="11.129"/>
	<circle fill="#3F3D56" cx="338.588" cy="66.144" r="3.71"/>
	<path fill="#6C63FF" d="M371.13,42.673c0.489-12.056-9.9-22.267-23.207-22.807c-13.307-0.541-24.49,8.794-24.979,20.849
		c-0.49,12.056,8.76,14.795,22.066,15.335C358.316,56.591,370.64,54.728,371.13,42.673z"/>
	
		<ellipse transform="matrix(-0.9747 -0.2234 0.2234 -0.9747 606.6527 212.9696)" fill="#2F2E41" cx="315.375" cy="72.165" rx="16.281" ry="5.111"/>
	
		<ellipse transform="matrix(-0.9747 -0.2234 0.2234 -0.9747 730.5017 248.2397)" fill="#2F2E41" cx="379.294" cy="82.795" rx="16.282" ry="5.112"/>
	<path fill="#FFFFFF" d="M354.385,90.931c0.73,4.032-1.946,7.892-5.979,8.622c-4.032,0.729-7.893-1.947-8.622-5.979
		c-0.73-4.032,2.387-5.459,6.419-6.188S353.655,86.898,354.385,90.931z"/>
	<line fill="none" stroke="#3F3D56" stroke-width="2" stroke-miterlimit="10" x1="265.704" y1="40.807" x2="303.214" y2="69.66"/>
	<circle fill="#FF6584" cx="247.98" cy="28.029" r="28.029"/>
	
		<ellipse transform="matrix(-0.9909 -0.1343 0.1343 -0.9909 640.3224 598.1067)" fill="#2F2E41" cx="340.336" cy="277.454" rx="5.111" ry="16.281"/>
	<circle fill="#6C63FF" cx="28.363" cy="323.992" r="5.641"/>
	<rect x="105.77" y="317.387" fill="#FF6584" width="14.839" height="14.839"/>
	<circle fill="#6C63FF" cx="105.855" cy="327.29" r="5.641"/>
	<circle fill="#FF6584" cx="271.936" cy="279.981" r="2.694"/>
	
		<line fill="none" stroke="#3F3D56" stroke-width="2" stroke-miterlimit="10" x1="285.133" y1="324.692" x2="285.133" y2="294.021"/>
	<circle fill="#3F3D56" cx="285.133" cy="294.021" r="4.338"/>
	<path fill="#3F3D56" d="M285.133,312.924c0,0-0.619-13.326-13.321-11.777"/>
	
		<line fill="none" stroke="#3F3D56" stroke-width="2" stroke-miterlimit="10" x1="142.721" y1="105.225" x2="202.076" y2="105.225"/>
	<circle fill="#6C63FF" cx="172.398" cy="105.119" r="5.641"/>
</g>
</svg>
