<?xml version="1.0" encoding="utf-8"?>
<!-- Generator: Adobe Illustrator 16.0.4, SVG Export Plug-In . SVG Version: 6.00 Build 0)  -->
<!DOCTYPE svg PUBLIC "-//W3C//DTD SVG 1.1//EN" "http://www.w3.org/Graphics/SVG/1.1/DTD/svg11.dtd">
<svg version="1.1" id="Layer_1" xmlns="http://www.w3.org/2000/svg" xmlns:xlink="http://www.w3.org/1999/xlink" x="0px" y="0px"
	 width="450px" height="343.174px" viewBox="0 0 450 343.174" enable-background="new 0 0 450 343.174" xml:space="preserve">
<g>
	<g>
		<rect x="124.265" y="13.044" fill="#F2F2F2" width="112.028" height="122.871"/>
		
			<rect x="135.557" y="1.299" fill="none" stroke="#3F3D56" stroke-width="2" stroke-miterlimit="10" width="112.03" height="122.871"/>
		<rect x="141.43" y="110.309" fill="#6C63FF" width="6.04" height="6.04"/>
		<rect x="150.154" y="110.309" fill="#3F3D56" width="6.041" height="6.04"/>
		<rect x="158.88" y="110.309" fill="#575A89" width="6.04" height="6.04"/>
		<rect x="209.189" y="112.932" fill="#3F3D56" width="23.489" height="0.952"/>
		<rect x="209.189" y="115.789" fill="#3F3D56" width="23.489" height="0.952"/>
		<rect x="209.189" y="118.646" fill="#3F3D56" width="23.489" height="0.952"/>
		<path fill="#3F3D56" d="M191.571,22.982v9.938c16.467,0,29.814,13.348,29.814,29.814c0,7.907-3.141,15.491-8.732,21.082
			l7.027,7.027c15.524-15.524,15.524-40.694,0-56.219C212.226,27.17,202.115,22.982,191.571,22.982z"/>
		<path fill="#575A89" d="M219.681,90.844l-7.027-7.027c-10.541,10.543-27.252,11.677-39.12,2.652l-6.015,7.915
			C183.345,106.412,205.624,104.9,219.681,90.844z"/>
		<path fill="#FF6584" d="M161.758,62.734c0-16.466,13.348-29.814,29.813-29.814v-9.938c-21.954,0-39.752,17.797-39.752,39.751
			c0,12.424,5.809,24.133,15.699,31.65l6.015-7.915C166.109,80.837,161.75,72.053,161.758,62.734z"/>
	</g>
	<g>
		<path fill="#F2F2F2" d="M266.162,267.491c-12.505,0-22.642-10.137-22.642-22.642l0,0v-26.371
			c0-52.767,42.775-95.542,95.541-95.542l0,0c52.767,0,95.542,42.775,95.542,95.542v20.732c0,15.619-12.662,28.28-28.281,28.28l0,0"
			/>
		<path fill="#3F3D56" d="M415.809,295.951v-0.904c15.362-0.018,27.811-12.467,27.829-27.829v-54.16
			c0-52.433-42.657-95.09-95.09-95.09s-95.089,42.657-95.089,95.09v59.8c0.013,12.249,9.941,22.176,22.19,22.189v0.904
			c-12.748-0.015-23.079-10.346-23.094-23.094v-59.8c0-52.931,43.062-95.993,95.992-95.993s95.992,43.062,95.992,95.993v54.16
			C444.522,283.079,431.669,295.933,415.809,295.951z"/>
		<rect x="252.104" y="261.168" fill="#3F3D56" width="192.89" height="79.504"/>
		
			<rect x="364.069" y="183.901" transform="matrix(-0.815 0.5794 -0.5794 -0.815 794.3944 136.7944)" fill="#FF6584" width="22.588" height="22.586"/>
		
			<rect x="365.55" y="178.968" transform="matrix(-0.815 0.5794 -0.5794 -0.815 794.2253 126.9831)" fill="none" stroke="#3F3D56" stroke-width="2" stroke-miterlimit="10" width="22.588" height="22.588"/>
		<circle fill="#6C63FF" cx="343.806" cy="161.334" r="9.486"/>
		<circle fill="none" stroke="#3F3D56" stroke-width="2" stroke-miterlimit="10" cx="341.095" cy="159.979" r="9.487"/>
		<polygon fill="#6C63FF" points="315.768,199.244 327.122,205.779 338.476,212.313 327.139,218.88 315.803,225.444 
			315.784,212.344 		"/>
		<polygon fill="none" stroke="#3F3D56" stroke-width="2" stroke-miterlimit="10" points="313.943,204.205 325.297,210.74 
			336.651,217.276 325.314,223.841 313.978,230.405 313.96,217.306 		"/>
		<path fill="#FFFFFF" d="M269.466,177.97c3.493-12.483,12.863-22.472,25.098-26.755c1.64-0.564,0.936-3.183-0.722-2.614
			c-13.142,4.557-23.223,15.257-26.989,28.649C266.387,178.933,269.001,179.65,269.466,177.97L269.466,177.97z"/>
	</g>
	<path fill="#FFFFFF" d="M264.325,185.729c1.744,0,1.747-2.71,0-2.71C262.581,183.02,262.578,185.729,264.325,185.729z"/>
	
		<rect x="100.322" y="149.776" transform="matrix(-0.9532 -0.3024 0.3024 -0.9532 185.6824 382.5125)" fill="#F2F2F2" width="44.27" height="54.208"/>
	
		<rect x="115.191" y="158.822" transform="matrix(-0.9532 -0.3024 0.3024 -0.9532 193.7813 348.6142)" fill="#3F3D56" width="17.382" height="0.962"/>
	
		<rect x="114.469" y="161.712" transform="matrix(-0.9532 -0.3025 0.3025 -0.9532 199.2248 355.2365)" fill="#3F3D56" width="25.297" height="0.962"/>
	
		<rect x="113.357" y="164.604" transform="matrix(-0.9532 -0.3024 0.3024 -0.9532 188.4507 359.3513)" fill="#3F3D56" width="17.382" height="0.962"/>
	
		<rect x="111.209" y="171.373" transform="matrix(-0.9532 -0.3025 0.3025 -0.9532 182.2063 371.9228)" fill="#3F3D56" width="17.384" height="0.961"/>
	
		<rect x="112.634" y="167.493" transform="matrix(-0.9532 -0.3025 0.3025 -0.9532 193.8921 365.9737)" fill="#3F3D56" width="25.297" height="0.962"/>
	
		<rect x="112.098" y="169.185" transform="matrix(-0.9532 -0.3025 0.3025 -0.9532 192.3332 369.116)" fill="#3F3D56" width="25.297" height="0.962"/>
	
		<rect x="111.561" y="170.877" transform="matrix(-0.9532 -0.3025 0.3025 -0.9532 190.7663 372.2606)" fill="#3F3D56" width="25.296" height="0.962"/>
	
		<rect x="109.871" y="174.173" transform="matrix(-0.9531 -0.3026 0.3026 -0.9531 170.396 377.2568)" fill="#6C63FF" width="9.098" height="2.513"/>
	<ellipse fill="#3F3D56" cx="64.184" cy="334.195" rx="59.177" ry="7.68"/>
	<path fill="#6C63FF" d="M36.232,121.6l-1.966,4.668l2.212,30.223c0,0-1.229,1.72,0,2.948c1.229,1.229,0.982,1.721,0.982,1.721
		s-1.966,0-0.982,1.474c0.982,1.474,0.982,2.211,0.982,2.211l-0.492,1.474c0,0,0.982,1.229,0.982,2.212s6.389,31.206,6.389,31.206
		l6.145-12.041l-3.44-47.914L36.232,121.6z"/>
	<path fill="#FFB9B9" d="M99.31,198.456c0,0,13.416-0.542,17.693,4.19s-16.805,1.309-17.998-0.024
		C97.812,201.289,99.31,198.456,99.31,198.456z"/>
	<path fill="#2F2E41" d="M33.038,317.681l-2.703,8.846c0,0-3.932,8.6,1.474,9.828c5.406,1.229,10.566-3.44,10.566-3.44v-5.897
		l1.965-9.336H33.038z"/>
	<path fill="#2F2E41" d="M77.266,317.681c0,0-1.228,16.709,1.475,17.691c2.704,0.982,12.286,1.228,12.531,0
		c0.246-1.229,3.194-2.458,0.983-4.177c-2.212-1.721-3.686-11.795-3.686-11.795L77.266,317.681z"/>
	<path fill="#2F2E41" d="M52.449,159.439v7.372c0,0-8.109,16.955-11.058,43.738s-13.022,108.36-10.565,109.835
		c2.458,1.474,28.995,2.456,29.731,0.49c0.737-1.965,1.475-59.463,1.475-59.463l9.092-40.543c0,0,1.719,14.498,3.193,16.954
		c1.475,2.458-2.457,82.315,0,83.544c2.458,1.229,35.629,3.44,35.138-0.492c-0.491-3.931-11.549-110.571-11.549-110.571
		s-5.651-50.372-7.371-50.863s-17.446-0.982-19.902-0.491C68.176,159.439,52.449,159.439,52.449,159.439z"/>
	<circle fill="#FFB9B9" cx="71.124" cy="84.497" r="14.006"/>
	<path fill="#FFB9B9" d="M74.072,96.291c0,0-7.126,11.057-5.405,14.005c1.72,2.949-18.183-2.948-18.183-2.948
		s12.039-14.743,11.794-16.463C62.032,89.165,74.072,96.291,74.072,96.291z"/>
	<path fill="#FF6584" d="M88.815,112.754c0,0-13.023-4.177-14.743-5.897c-1.104-1.127-2.092-2.362-2.948-3.686
		c0,0-15.726-2.211-16.218-2.211c-0.491,0-4.178,4.423-5.16,5.406s-13.514,7.618-13.514,9.337c0,1.72-1.966,10.566-1.966,10.566
		s4.423,9.091,7.125,11.058c2.704,1.966,3.44,1.474,3.687,4.668c0.245,3.194,3.686,8.354,3.686,8.354s2.211,5.652,1.721,7.372
		c-0.492,1.72-2.704,3.194,2.456,2.703c5.159-0.492,30.714,0.982,30.714-1.72c0-2.702-4.914-28.502-4.914-28.502L88.815,112.754z"/>
	<path fill="#6C63FF" d="M84.146,113.246l4.669-0.492c0,0,1.72,0.983,1.966,10.566c0.245,9.583,0.245,32.68,1.966,34.646
		c1.719,1.965,8.846,32.435,8.846,32.435s1.965,0.49,1.965,2.211c0,1.72,2.211,3.194,1.229,5.16
		c-0.983,1.966,0.982,1.475-0.245,2.702c-1.229,1.229-7.126,3.687-7.371,2.212c-0.246-1.474,0.736-1.72-0.246-2.212
		c-0.982-0.49-0.982-0.736-1.229-2.456c-0.246-1.721-2.458-3.44-2.212-4.177c0.246-0.738-10.812-22.115-10.812-22.853
		c0-0.736-0.737-3.439-1.72-3.931s-2.458-0.982-1.721-2.212c0.738-1.229-1.966-38.085-1.966-38.085L84.146,113.246z"/>
	<path fill="#2F2E41" d="M82.968,75.615c-4.295-4.662-11.04-7.137-17.225-5.75c-6.186,1.387-11.394,6.878-11.877,13.198
		c-0.101,1.293-0.018,2.613-0.352,3.866c-0.563,2.107-2.238,3.777-2.828,5.877c-0.396,1.406-0.277,2.92-0.697,4.319
		c-0.774,2.586-3.171,4.271-4.997,6.259c-0.739,0.729-1.289,1.627-1.599,2.618c-0.162,0.878-0.201,1.774-0.121,2.664
		c0.076,4.793-1.706,9.431-4.973,12.938c1.921-1.427,3.996-2.634,6.188-3.597c-1.086,3.458-0.093,7.55,2.639,9.932
		c2.732,2.382,7.108,2.751,10.064,0.651c1.754-1.248,2.895-3.162,3.983-5.02l4.122-7.034c0.746-1.272,1.524-2.582,2.715-3.451
		c0.948-0.69,2.098-1.058,3.051-1.74c2.404-1.72,3.051-5.087,2.603-8.009c-0.448-2.922-1.763-5.635-2.516-8.494
		c-0.597-2.261-0.782-4.852,0.558-6.768c1.781-2.542,5.438-2.867,7.857-4.812c0.91-0.732,1.317-1.623,1.97-2.54
		c0.603-0.846,0.756-0.543,1.689-0.582C85.783,80.037,83.916,76.645,82.968,75.615z"/>
	<ellipse fill="#FFB9B9" cx="70.733" cy="89.357" rx="1.13" ry="2.71"/>
	<circle fill="#F2F2F2" cx="191.571" cy="213.801" r="14.455"/>
	<circle fill="#F2F2F2" cx="50.632" cy="21.936" r="14.455"/>
	<circle fill="#F2F2F2" cx="353.292" cy="55.816" r="14.456"/>
	<rect x="204.888" y="272.008" fill="#FF6584" width="14.838" height="14.839"/>
	
		<rect x="201.178" y="267.062" fill="none" stroke="#3F3D56" stroke-width="2" stroke-miterlimit="10" width="14.839" height="14.839"/>
</g>
</svg>
