<svg id="Layer_1" data-name="Layer 1" xmlns="http://www.w3.org/2000/svg" xmlns:xlink="http://www.w3.org/1999/xlink" viewBox="0 0 100 100"><defs><style>.cls-1{fill:url(#linear-gradient);}.cls-2{fill:url(#linear-gradient-3);}.cls-3{fill:url(#linear-gradient-5);}</style><linearGradient id="linear-gradient" x1="49.64" y1="92" x2="49.64" y2="8.34" gradientUnits="userSpaceOnUse"><stop offset="0" stop-color="#8393a7"/><stop offset="1" stop-color="#5b6a72"/></linearGradient><linearGradient id="linear-gradient-3" x1="49.64" y1="92" x2="49.64" y2="8.34" xlink:href="#linear-gradient"/><linearGradient id="linear-gradient-5" x1="49.64" y1="92" x2="49.64" y2="8.34" xlink:href="#linear-gradient"/></defs><title>Header Icons</title><path class="cls-1" d="M48,26.44a2.34,2.34,0,0,0,1.64.66h.09a2.47,2.47,0,0,0,2.36-2.54c0-.39,0-.79,0-1.18v-1c0-.39,0-.77,0-1.15a2.44,2.44,0,0,0-2.35-2.49,2.48,2.48,0,0,0-1.75.66,2.56,2.56,0,0,0-.77,1.84c0,1.09,0,2.19,0,3.28A2.63,2.63,0,0,0,48,26.44Z"/><path class="cls-1" d="M52.08,35.09a2.5,2.5,0,0,0-2.47-2.51,2.47,2.47,0,0,0-2.4,2.49c0,1.11,0,2.22,0,3.32a2.44,2.44,0,0,0,2.44,2.5h0a2.42,2.42,0,0,0,2.41-2.51c0-.38,0-.76,0-1.14v-1C52.09,35.87,52.09,35.48,52.08,35.09Z"/><path class="cls-2" d="M49.67,60.22a2.46,2.46,0,0,0-2.46,2.45c0,1.12,0,2.25,0,3.38a2.44,2.44,0,0,0,2.42,2.46h0A2.44,2.44,0,0,0,52.08,66c0-.4,0-.79,0-1.19v-1c0-.4,0-.8,0-1.19A2.41,2.41,0,0,0,49.67,60.22Z"/><path class="cls-2" d="M49.67,81.76a2.46,2.46,0,0,0-2.46,2.45c0,1.13,0,2.25,0,3.38a2.43,2.43,0,0,0,2.42,2.46h0a2.43,2.43,0,0,0,2.43-2.49c0-.39,0-.79,0-1.19v-1c0-.39,0-.79,0-1.19A2.41,2.41,0,0,0,49.67,81.76Z"/><path class="cls-3" d="M49.65,54.71h0a2.45,2.45,0,0,0,2.41-2.51c0-.38,0-.76,0-1.14v-1c0-.38,0-.75,0-1.13a2.43,2.43,0,0,0-2.42-2.55h0a2.43,2.43,0,0,0-2.41,2.52c0,1.09,0,2.19,0,3.27A2.47,2.47,0,0,0,49.65,54.71Z"/><path class="cls-2" d="M68.1,6.61H31.19A10.26,10.26,0,0,0,20.94,16.86V82.58A10.26,10.26,0,0,0,31.19,92.83H68.1A10.26,10.26,0,0,0,78.34,82.58V16.86A10.26,10.26,0,0,0,68.1,6.61ZM31.19,12.42H68.1a4.44,4.44,0,0,1,4.43,4.44V72.75H26.75V16.86A4.44,4.44,0,0,1,31.19,12.42ZM68.1,87H31.19a4.44,4.44,0,0,1-4.44-4.44v-5H72.53v5A4.44,4.44,0,0,1,68.1,87Z"/></svg>