<?xml version="1.0" encoding="utf-8"?>
<!-- Generator: Adobe Illustrator 16.0.4, SVG Export Plug-In . SVG Version: 6.00 Build 0)  -->
<!DOCTYPE svg PUBLIC "-//W3C//DTD SVG 1.1//EN" "http://www.w3.org/Graphics/SVG/1.1/DTD/svg11.dtd">
<svg version="1.1" id="Layer_1" xmlns="http://www.w3.org/2000/svg" xmlns:xlink="http://www.w3.org/1999/xlink" x="0px" y="0px"
	 width="450px" height="343.174px" viewBox="0 0 450 343.174" enable-background="new 0 0 450 343.174" xml:space="preserve">
<g>
	<rect x="1.791" y="12.495" fill="#F1F1F1" width="433.395" height="266.114"/>
	
		<rect x="14.814" y="0.605" fill="none" stroke="#3F3D56" stroke-width="2" stroke-miterlimit="10" width="433.395" height="266.114"/>
	<line fill="none" stroke="#3F3D56" stroke-width="2" stroke-miterlimit="10" x1="14.814" y1="14.81" x2="448.209" y2="14.81"/>
	<circle fill="#4C31FF" cx="25.57" cy="7.966" r="3.963"/>
	<circle fill="#4C31FF" cx="37.463" cy="7.966" r="3.963"/>
	<circle fill="#4C31FF" cx="49.352" cy="7.966" r="3.963"/>
	<path fill="#3F3D56" d="M267.627,184.803c28.883-28.883,28.883-75.711,0-104.594c-13.869-13.87-32.682-21.662-52.297-21.662v73.959
		L267.627,184.803z"/>
	<path fill="#FF6584" d="M215.33,58.547c-40.852,0.004-73.963,33.125-73.959,73.977c0.004,27.078,14.803,51.989,38.578,64.943
		l35.381-64.961V58.547z"/>
	<rect x="88.42" y="195.449" fill="#4C31FF" width="14.162" height="14.162"/>
	<rect x="108.877" y="195.449" fill="#3F3D56" width="14.162" height="14.162"/>
	<rect x="129.334" y="195.449" fill="#575A89" width="14.162" height="14.162"/>
	<rect x="301.092" y="198.597" fill="#3F3D56" width="58.225" height="2.36"/>
	<rect x="301.092" y="205.678" fill="#3F3D56" width="58.225" height="2.361"/>
	<rect x="301.092" y="212.759" fill="#3F3D56" width="58.225" height="2.361"/>
	<polygon fill="#FFB9B9" points="326.674,317.806 327.607,325.602 332.912,328.099 338.836,326.226 342.891,328.099 
		344.141,320.925 336.967,312.814 	"/>
	<path fill="#2F2E41" d="M330.416,323.731c0,0-4.836-5.64-4.914-2.821c-0.078,2.821-10.682,12.487-10.682,12.487
		s-16.531,4.991-3.742,8.11c12.787,3.121,40.859-5.923,41.795-7.797c0.936-1.873-7.799-16.22-8.732-14.971
		C343.203,319.985,338.525,324.353,330.416,323.731z"/>
	<path fill="#2F2E41" d="M318.564,231.096c0,0-1.873,14.658,0,16.842c1.871,2.185,0.934,6.551,0,7.174
		c-0.938,0.624,1.246,3.118,2.805,4.367c1.562,1.247,3.742,6.863,3.742,6.863s8.424,22.144,8.424,24.327
		c0,2.183,3.742,6.861,3.43,8.42c-0.312,1.561,2.184,6.55,1.871,7.485c-0.311,0.938,4.055,9.357,2.809,10.606
		c-1.246,1.246-18.402,5.613-17.467,2.805c0.934-2.805,1.559-6.236,0.934-6.236c-0.621,0-3.43-3.43-2.805-4.678
		c0.625-1.249-18.713-33.998-18.713-33.998L318.564,231.096z"/>
	<path opacity="0.1" enable-background="new    " d="M330.416,323.731c0,0-4.836-5.64-4.914-2.821
		c-0.078,2.821-10.682,12.487-10.682,12.487s-16.531,4.991-3.742,8.11c12.787,3.121,40.859-5.923,41.795-7.797
		c0.936-1.873-7.799-16.22-8.732-14.971C343.203,319.985,338.525,324.353,330.416,323.731z"/>
	<path opacity="0.1" enable-background="new    " d="M318.564,231.096c0,0-1.873,14.658,0,16.842c1.871,2.185,0.934,6.551,0,7.174
		c-0.938,0.624,1.246,3.118,2.805,4.367c1.562,1.247,3.742,6.863,3.742,6.863s8.424,22.144,8.424,24.327
		c0,2.183,3.742,6.861,3.43,8.42c-0.312,1.561,2.184,6.55,1.871,7.485c-0.311,0.938,4.055,9.357,2.809,10.606
		c-1.246,1.246-18.402,5.613-17.467,2.805c0.934-2.805,1.559-6.236,0.934-6.236c-0.621,0-3.43-3.43-2.805-4.678
		c0.625-1.249-18.713-33.998-18.713-33.998L318.564,231.096z"/>
	<polygon fill="#FFB9B9" points="286.75,313.933 283.318,322.664 284.879,334.831 294.859,334.206 300.473,329.215 300.473,318.611 
			"/>
	<path fill="#2F2E41" d="M288.621,324.536c0,0-3.43-11.227-5.303-8.109c-1.186,2.003-2.229,4.087-3.119,6.237
		c0,0-15.283,9.982-19.338,9.982s-7.797,4.988-2.496,6.861c5.303,1.874,45.85,4.367,46.475,0c0.623-4.366-0.625-18.403-2.496-16.844
		C300.473,324.223,290.803,327.655,288.621,324.536z"/>
	<path fill="#FFB9B9" d="M280.824,186.363c0,0-6.551,11.229-7.176,12.478c-0.623,1.246-4.055,9.356,2.496,12.475
		c6.551,3.119,12.164-22.769,12.164-22.769L280.824,186.363z"/>
	<path fill="#575A88" d="M287.686,168.273c0,0-9.982,19.339-8.109,19.962c1.873,0.624,9.357,4.366,9.357,4.366l3.432-19.649
		L287.686,168.273z"/>
	<path opacity="0.1" enable-background="new    " d="M287.686,168.273c0,0-9.982,19.339-8.109,19.962
		c1.873,0.624,9.357,4.366,9.357,4.366l3.432-19.649L287.686,168.273z"/>
	<path fill="#2F2E41" d="M288.309,184.492c0,0-2.182,16.218-1.248,19.65c0.936,3.431-0.623,54.896,0.625,57.702
		c1.248,2.808,2.184,20.896,2.184,23.081c0,2.183-2.496,19.959-3.119,21.521c-0.623,1.56-2.496,6.862-1.559,9.355
		c0.936,2.493,13.721,8.733,15.594,6.551c1.871-2.184,0.312-9.044,1.871-9.355c1.559-0.313,3.432-14.974,3.432-14.974l10.291-57.39
		c0,0,19.34-48.033,14.973-52.712C326.984,183.245,288.309,184.492,288.309,184.492z"/>
	<circle fill="#FFB9B9" cx="299.85" cy="58.484" r="15.284"/>
	<path fill="#FFB9B9" d="M294.236,70.959c0,0,4.988,13.101,4.365,15.907c-0.623,2.807,14.66-4.99,14.66-4.99s-0.936-15.284,0-19.338
		C314.195,58.484,294.236,70.959,294.236,70.959z"/>
	<path fill="#575A88" d="M336.143,156.3c-0.07,2.616-0.113,4.175-0.113,4.175s0.936,14.348-0.623,19.027
		c-1.559,4.678-1.559,8.11-2.496,11.229c-0.273,0.907-4.008,1.394-9.25,1.608c-4.811,0.197-10.889,0.169-16.725,0.034
		c-9.664-0.224-18.672-0.741-20.186-1.019c-3.432-0.624,0.623-5.926-0.623-8.733c-1.25-2.809,2.182-38.676,2.182-38.676
		s-0.312-20.274,1.248-28.071c1.559-7.798,7.486-20.273,8.732-21.833c1.248-1.56,0.312-2.496-2.494-4.367
		c-2.809-1.872,0-9.045,0-9.045c5.303-4.366,18.713-4.99,18.713-4.99s20.586,21.209,21.834,25.575
		c0.756,2.639,0.482,23.717,0.152,39.993C336.367,147.329,336.232,152.775,336.143,156.3z"/>
	<path fill="#FFB9B9" d="M309.83,195.098c0,0-11.852,24.328-2.494,25.888c9.355,1.56,14.033-22.145,14.033-22.145L309.83,195.098z"
		/>
	<path fill="#2F2E41" d="M285.561,50.738c-0.541-2.623,1.461-5.073,3.57-6.719c4.596-3.563,10.248-5.492,16.064-5.478
		c4.09,0.022,8.311,1.104,11.402,3.783c3.605,3.123,5.252,8.134,4.947,12.895c-0.301,4.761-2.371,9.276-5.166,13.145
		c-1.34,1.857-3.494,3.779-5.635,2.969c-0.84-0.392-1.559-1-2.086-1.76c-1.373-1.705-2.57-3.544-3.572-5.492
		c-0.766-1.49-1.432-3.06-2.518-4.335c-1.086-1.274-2.721-2.234-4.381-2.006c-1.369,0.189-2.715,1.155-4.021,0.702
		c-1.455-0.505-1.807-2.365-1.922-3.901c-0.127-1.683-0.039-3.632-0.506-5.224C291.229,49.589,285.811,51.993,285.561,50.738z"/>
	<path opacity="0.1" enable-background="new    " d="M336.143,156.3c-3.494,12.597-11.506,33.829-11.965,34.743
		c-0.117,0.233-0.297,0.691-0.518,1.296c-4.811,0.197-10.889,0.169-16.725,0.034c0.904-2.364,1.959-4.646,1.959-5.385
		c0-1.56,7.484-41.796,7.484-41.796s-5.926-17.779-11.227-32.75c-5.303-14.971,15.75-12.008,15.75-12.008
		c11.229-2.807,13.256,2.027,13.256,2.027s0.988,26.293,2.336,38.746c0.346,3.19,0.715,5.47,1.096,6.168
		C338.088,148.29,337.416,151.727,336.143,156.3z"/>
	<path fill="#575A88" d="M316.379,90.297c0,0-14.348,5.926-9.043,20.898c5.301,14.971,11.229,32.749,11.229,32.749
		s-7.486,40.235-7.486,41.794s-4.68,9.98-2.809,11.54c1.871,1.562,14.35,4.68,14.662,3.12c0.955-3.592,2.1-7.134,3.43-10.605
		c0.623-1.247,15.283-40.234,13.412-43.666c-1.871-3.431-3.432-44.914-3.432-44.914S327.607,87.49,316.379,90.297z"/>
	<path fill="#575A89" d="M284.615,208.016l-55.129-51.729l-32.551,67.227c10.852,5.922,23.02,9.016,35.381,8.996
		C252.74,232.509,271.23,221.4,284.615,208.016z"/>
	<path opacity="0.1" enable-background="new    " d="M284.615,208.016l-55.129-51.729l-32.551,67.227
		c10.852,5.922,23.02,9.016,35.381,8.996C252.74,232.509,271.23,221.4,284.615,208.016z"/>
	<path fill="#575A89" d="M280.084,211.981l-52.297-52.298l-35.383,64.962C221.209,240.316,256.893,235.162,280.084,211.981z"/>
	
		<line fill="none" stroke="#3F3D56" stroke-width="2" stroke-miterlimit="10" x1="194.551" y1="342.026" x2="418.766" y2="342.026"/>
	<line fill="none" stroke="#3F3D56" stroke-width="2" stroke-miterlimit="10" x1="387.67" y1="342.568" x2="387.67" y2="276.836"/>
	<circle fill="#3F3D56" cx="387.67" cy="276.835" r="9.295"/>
	<path fill="#3F3D56" d="M387.67,317.349c0,0-1.326-28.562-28.549-25.241"/>
</g>
</svg>
