<?xml version="1.0" encoding="utf-8"?>
<!-- Generator: Adobe Illustrator 16.0.4, SVG Export Plug-In . SVG Version: 6.00 Build 0)  -->
<!DOCTYPE svg PUBLIC "-//W3C//DTD SVG 1.1//EN" "http://www.w3.org/Graphics/SVG/1.1/DTD/svg11.dtd">
<svg version="1.1" id="Layer_1" xmlns="http://www.w3.org/2000/svg" xmlns:xlink="http://www.w3.org/1999/xlink" x="0px" y="0px"
	 width="450px" height="343.174px" viewBox="0 0 450 343.174" enable-background="new 0 0 450 343.174" xml:space="preserve">
<g>
	<g>
		<path fill="#2F2E41" d="M254.374,300.925l-2.832,15.729l-1.258,14.155c0,0-4.088,7.233,2.201,7.233c6.291,0,8.18-2.83,8.18-2.83
			v-10.065c0,0,0.629-5.033,0-6.605c-0.631-1.573,0.945-2.517,0.945-2.517s-1.26-5.349,0-6.606c1.258-1.258,3.457-6.92,3.457-6.92
			L254.374,300.925z"/>
		<path fill="#2F2E41" d="M295.267,300.925l-0.945,11.325c0,0-1.57,5.976-1.57,7.863s-0.945,13.212-0.945,13.212
			s-0.314,5.662,5.979,4.717c6.291-0.942,4.719-4.088,4.719-4.088v-6.29c0,0,0.314-6.607,0-7.236
			c-0.316-0.629,0.314-3.774,0.314-4.403s0.627-5.977,0.627-5.977l1.889-7.55L295.267,300.925z"/>
		
			<line fill="none" stroke="#3F3D56" stroke-width="2" stroke-miterlimit="10" x1="195.728" y1="338.062" x2="359.106" y2="338.062"/>
		<path fill="#3F3D56" d="M343.259,320.501c0,0-0.969-20.812-20.805-18.393"/>
		<g>
			<path fill="#9F616A" d="M298.048,195.72l8.662-2.889l3.303,5.363l-2.072,2.789c-3.014,1.235-6.453,0.804-9.068-1.139
				C294.333,196.545,298.048,195.72,298.048,195.72z"/>
			<path fill="#2F2E41" d="M281.958,124.349L281.958,124.349c-7.748,0-14.029,6.28-14.029,14.026v14.441h3.309l0.525-1.424
				l0.4,1.424h20.115l0.523-1.424l0.402,1.424h2.779v-14.441C295.983,130.629,289.702,124.349,281.958,124.349z"/>
			<path fill="#9F616A" d="M300.433,165.485l-2.021-0.452l-2.672,1.729l5.188,25.945l9.053,6.895
				C312.882,194.4,300.433,165.485,300.433,165.485z"/>
			<path fill="#9F616A" d="M276.708,145.214c0,0-2.203,11.954-4.09,12.269c-1.889,0.315,7.865,3.775,7.865,3.775l7.863-0.63
				l-0.943-2.516c0,0-2.518-6.292,0-12.268C289.919,139.867,276.708,145.214,276.708,145.214z"/>
			<path opacity="0.1" enable-background="new    " d="M276.708,145.214c0,0-2.203,11.954-4.09,12.269
				c-1.889,0.315,7.865,3.775,7.865,3.775l7.863-0.63l-0.943-2.516c0,0-2.518-6.292,0-12.268
				C289.919,139.867,276.708,145.214,276.708,145.214z"/>
			<path fill="#9F616A" d="M264.282,193.973l0.314-27.367l-6.525-5.348c0,0-4.17,35.23,0.549,38.691
				c0.463,0.337,0.949,0.636,1.459,0.895l4.377-6.813C264.347,193.993,264.282,193.973,264.282,193.973z"/>
			<path fill="#9F616A" d="M258.149,285.196l-3.775,19.188h9.123c0,0,5.346-13.841,5.033-16.671
				C268.214,284.883,258.149,285.196,258.149,285.196z"/>
			<path fill="#9F616A" d="M296.839,286.77v16.043l7.236,0.943c0,0,4.717-18.244,3.775-19.817
				C306.905,282.365,296.839,286.77,296.839,286.77z"/>
			<path fill="#2F2E41" d="M266.013,214.733c0,0-11.955,72.036-9.123,73.294c2.832,1.259,26.424,5.662,27.996,3.46
				c1.574-2.201,4.719-45.927,4.719-45.927s3.773,45.298,7.549,44.669c3.775-0.63,23.908,0.314,25.168-5.033
				c1.258-5.348-15.102-71.092-15.102-71.092l-4.09-2.83h-12.268L266.013,214.733z"/>
			<circle fill="#9F616A" cx="281.897" cy="140.024" r="9.437"/>
			<path fill="#D0CDE1" d="M271.36,156.54c0,0,11.639-2.203,16.986,0.943c5.348,3.145,5.975,5.976,7.865,5.976
				c1.885,0,4.088-1.257,5.348,2.518l-4.09,5.348l-1.574,11.954l5.664,26.108c0,0,5.031,2.203,3.145,2.83
				c-1.887,0.631-27.053,9.124-28.627,4.091c-1.572-5.032-7.547-27.052-7.234-27.997c0.314-0.942-3.459-18.559-3.459-18.559
				l-8.18-7.865c0,0,3.146-2.83,6.92-1.258C267.899,162.201,271.36,156.54,271.36,156.54z"/>
			<path fill="#3F3D56" d="M274.14,155.214c0,0-5.297,1.954-7.184,2.898c-1.889,0.943-8.021,1.415-8.021,2.359
				c0,0.943,5.387-0.815,5.289,8.164c-0.1,8.979-4.189,68.433-1.041,69.062c3.145,0.629,0.314-3.146,6.92,0s9.75,0.313,10.381-0.629
				c0.627-0.943,2.201-35.86,0-47.501C278.28,177.93,274.14,155.214,274.14,155.214z"/>
			<path fill="#3F3D56" d="M286.583,156.111c-0.023-0.218,0.135-0.415,0.352-0.439c0.092-0.01,0.182,0.011,0.258,0.06
				c1.879,1.184,6.936,4.387,7.443,4.897c0.428,0.427,2.875,1.286,4.41,1.796c0.783,0.258,1.326,0.971,1.371,1.794
				c0.064,0.798,0.025,1.6-0.117,2.388c-0.314,1.258-1.572,5.663-1.572,5.663s4.402,30.198,12.268,44.353s7.234,19.817,4.717,20.132
				c-2.514,0.315-7.547-17.616-14.152-21.076c-6.607-3.461-12.898-25.479-12.584-30.197
				C289.257,181.267,287.058,160.509,286.583,156.111z"/>
			<path fill="#9F616A" d="M276.237,197.748c-2.318-0.58-11.93-2.562-13.215-2.989l-2.943,6.085
				c4.666,2.389,10.811,1.622,10.811,1.622s9.119,8.337,10.693,4.247C283.157,202.622,278.753,198.376,276.237,197.748z"/>
			<path fill="#2F2E41" d="M268.649,202.703l3.273-6.502c0.26-0.514,0.859-0.756,1.404-0.564l0.623,0.222
				c0.596,0.21,0.908,0.864,0.699,1.46c-0.027,0.078-0.064,0.151-0.109,0.223l-3.896,6.281c-0.332,0.536-1.041,0.7-1.576,0.368
				c-0.162-0.101-0.297-0.239-0.391-0.403l0,0C268.485,203.452,268.476,203.045,268.649,202.703z"/>
			<circle fill="#2F2E41" cx="271.517" cy="199.792" r="2.518"/>
			<circle fill="#D0CDE1" cx="271.517" cy="199.792" r="1.572"/>
			<path fill="#9F616A" d="M303.288,194.444l0.314,0.314l-18.402-2.359c0,0-9.279-2.988-11.795,2.989
				c-2.516,5.976,13.055,3.303,13.055,3.303s19.502,5.348,23.277,1.258c0.094-0.106,0.174-0.222,0.242-0.348L303.288,194.444z"/>
			<rect x="272.88" y="128.886" fill="#2F2E41" width="18.154" height="11.141"/>
			<circle fill="none" stroke="#3F3D56" stroke-width="2" stroke-miterlimit="10" cx="126.313" cy="114.865" r="110.57"/>
			<path fill="#F2F2F2" d="M214.556,185.561c9.551-11.016,16.76-23.862,21.184-37.756c18.115-56.645-13.123-117.249-69.768-135.362
				C109.327-5.672,48.722,25.564,30.608,82.21c-18.115,56.646,13.123,117.249,69.768,135.363
				c29.361,9.423,61.357,5.771,87.842-10.023l35.426,16.825l5.148-10.906L214.556,185.561z"/>
			<polygon opacity="0.6" fill="#F2F2F2" enable-background="new    " points="228.792,213.469 223.644,224.375 241.397,233.646 			
				"/>
			<polygon opacity="0.2" fill="#4C31FF" enable-background="new    " points="195.909,125.736 145.845,74.564 139.114,89.041 
				108.718,57.971 69.001,143.401 129.729,171.634 129.985,171.086 166.856,188.228 			"/>
			<path fill="#3F3D56" d="M205.788,129.403c0-0.05,0-0.101,0-0.151c0-0.029,0-0.058,0-0.087h-0.021
				c-0.932-5.923-33.516-10.682-71.709-10.682c-38.195,0-70.781,4.759-71.711,10.682h-0.021c0,0.029,0,0.058,0,0.087
				c0,0.05,0,0.101,0,0.151c0,0.007,0,0.014,0,0.022c0,0.01,0,0.021,0,0.03c0.115,39.616,32.32,71.638,71.938,71.525
				c39.453-0.113,71.412-32.069,71.525-71.525c0-0.01,0-0.02,0-0.03C205.788,129.417,205.788,129.41,205.788,129.403z"/>
			<ellipse opacity="0.1" fill="#FFFFFF" enable-background="new    " cx="134.058" cy="129.426" rx="71.73" ry="10.942"/>
			<circle fill="#4C31FF" cx="156.157" cy="114.935" r="12.69"/>
			
				<line fill="none" stroke="#3F3D56" stroke-width="2" stroke-miterlimit="10" x1="156.042" y1="137.886" x2="156.146" y2="114.865"/>
			<circle fill="#3F3D56" cx="156.146" cy="114.865" r="3.256"/>
			<path fill="#3F3D56" d="M156.081,129.053c0,0-0.42-10.005-9.957-8.885"/>
			<circle fill="#4C31FF" cx="192.181" cy="80.123" r="12.69"/>
			
				<line fill="none" stroke="#3F3D56" stroke-width="2" stroke-miterlimit="10" x1="191.462" y1="126.973" x2="192.192" y2="80.108"/>
			<circle fill="#3F3D56" cx="192.192" cy="80.109" r="3.256"/>
			<path fill="#3F3D56" d="M191.985,93.364c0,0-0.309-10.008-9.859-8.994"/>
			<path fill="none" stroke="#3F3D56" stroke-width="2" stroke-miterlimit="10" d="M191.476,126.079c0,0,2.393-19.2-9.682-20.318"/>
			<circle fill="#3F3D56" cx="181.794" cy="105.76" r="3.256"/>
			<circle fill="#4C31FF" cx="79.47" cy="51.327" r="12.69"/>
			<line fill="none" stroke="#3F3D56" stroke-width="2" stroke-miterlimit="10" x1="79.478" y1="128.157" x2="79.478" y2="51.374"/>
			<circle fill="#3F3D56" cx="79.478" cy="51.337" r="3.256"/>
			<circle fill="#3F3D56" cx="69.479" cy="106.891" r="3.256"/>
			<path fill="#3F3D56" d="M79.478,67.966c0,0-0.465-10.003-9.998-8.841"/>
			<path fill="#3F3D56" d="M79.478,96.321c0,0-0.465-10.002-9.998-8.839"/>
			<path fill="none" stroke="#3F3D56" stroke-width="2" stroke-miterlimit="10" d="M79.478,127.263c0,0,2.094-19.442-9.998-20.373"
				/>
			<circle fill="#3F3D56" cx="89.677" cy="76.354" r="3.256"/>
			<path fill="none" stroke="#3F3D56" stroke-width="2" stroke-miterlimit="10" d="M79.679,95.689c0,0-2.094-18.405,9.998-19.335"/>
			<path fill="#3F3D56" d="M161.376,93.475c-2.521,0-4.562-2.042-4.562-4.562c0-2.521,2.041-4.563,4.562-4.563
				c2.52,0,4.562,2.042,4.562,4.563C165.935,91.431,163.894,93.473,161.376,93.475z M161.376,84.764
				c-2.291,0-4.148,1.857-4.148,4.148c0,2.292,1.857,4.149,4.148,4.149s4.148-1.857,4.148-4.148l0,0
				C165.521,86.623,163.665,84.768,161.376,84.764L161.376,84.764z"/>
			<circle fill="#3F3D56" cx="135.269" cy="59.046" r="2.696"/>
			<polygon fill="#4C31FF" points="132.493,105.197 132.493,128.037 120.161,134.984 95.151,133.073 95.151,109.452 
				107.569,105.197 			"/>
			<polygon opacity="0.1" enable-background="new    " points="132.493,105.327 132.493,128.037 120.161,134.984 119.901,134.984 
				119.901,109.539 			"/>
			<polygon opacity="0.1" fill="#FFFFFF" enable-background="new    " points="132.493,105.197 132.493,105.4 119.901,109.539 
				95.151,109.539 95.151,109.452 107.569,105.197 			"/>
			<ellipse opacity="0.1" enable-background="new    " cx="113.905" cy="106.957" rx="6.016" ry="1.244"/>
			<path fill="#FF6584" d="M113.905,106.989l-2.676-2.415c-9.508-8.728-15.783-14.393-15.783-21.45
				c-0.098-5.543,4.318-10.116,9.859-10.213c0.1-0.002,0.197-0.002,0.293-0.001c3.207,0.017,6.246,1.444,8.307,3.9
				c2.062-2.456,5.1-3.883,8.307-3.9c5.545-0.064,10.09,4.379,10.154,9.923c0,0.098,0,0.194,0,0.292
				c0,7.057-6.277,12.722-15.785,21.45L113.905,106.989z"/>
			
				<line fill="none" stroke="#3F3D56" stroke-width="2" stroke-miterlimit="10" x1="343.259" y1="338.879" x2="343.259" y2="290.981"/>
			<circle fill="#3F3D56" cx="343.259" cy="290.981" r="6.773"/>
			<path fill="#3F3D56" d="M126.313,248.157c4.621,0,8.369,3.748,8.369,8.371c0,4.622-3.748,8.37-8.369,8.37
				c-4.625,0-8.373-3.748-8.373-8.37C117.94,251.905,121.688,248.157,126.313,248.157z"/>
			<circle fill="none" stroke="#3F3D56" stroke-width="2" stroke-miterlimit="10" cx="100.06" cy="256.528" r="6.088"/>
			<circle fill="none" stroke="#3F3D56" stroke-width="2" stroke-miterlimit="10" cx="152.565" cy="256.528" r="6.088"/>
		</g>
	</g>
	<circle fill="none" stroke="#3F3D56" stroke-width="2" stroke-miterlimit="10" cx="337.865" cy="144.233" r="6.082"/>
	<rect x="384.526" y="177.077" fill="#FF6584" width="14.838" height="14.838"/>
	
		<rect x="380.816" y="172.13" fill="none" stroke="#3F3D56" stroke-width="2" stroke-miterlimit="10" width="14.839" height="14.839"/>
	<ellipse fill="#FF6584" cx="406.854" cy="259.604" rx="22.816" ry="22.847"/>
	<polygon fill="#6C63FF" points="323.778,27.683 434.257,27.683 434.257,85.73 426.274,85.73 426.274,107.182 404.853,85.73 
		323.778,85.73 	"/>
	<path fill="#FFFFFF" d="M379.017,68.775l-1.949-1.762c-6.922-6.363-11.492-10.495-11.492-15.641
		c-0.07-4.041,3.145-7.375,7.182-7.446c0.07-0.002,0.141-0.002,0.211,0c2.336,0.012,4.549,1.052,6.049,2.843
		c1.502-1.792,3.715-2.832,6.051-2.843c4.037-0.047,7.348,3.192,7.395,7.235c0,0.07,0,0.143-0.002,0.211
		c0,5.146-4.57,9.278-11.492,15.641L379.017,68.775z"/>
</g>
</svg>
