<?xml version="1.0" encoding="utf-8"?>
<!-- Generator: Adobe Illustrator 16.0.4, SVG Export Plug-In . SVG Version: 6.00 Build 0)  -->
<!DOCTYPE svg PUBLIC "-//W3C//DTD SVG 1.1//EN" "http://www.w3.org/Graphics/SVG/1.1/DTD/svg11.dtd">
<svg version="1.1" id="Layer_1" xmlns="http://www.w3.org/2000/svg" xmlns:xlink="http://www.w3.org/1999/xlink" x="0px" y="0px"
	 width="450px" height="343.174px" viewBox="0 0 450 343.174" enable-background="new 0 0 450 343.174" xml:space="preserve">
<g>
	<g>
		<path fill="#FBBEBE" d="M50.972,198.498c0,0,11.706,0.78,13.787-0.78c2.083-1.562,10.926,2.081,11.706,4.162
			c0.781,2.082-12.486,2.342-14.567,2.342s-11.967,3.12-11.967,3.12L50.972,198.498z"/>
		<path fill="#4C31FF" d="M80.656,172.372c-15.325,3.97-24.531,19.61-20.561,34.936c0.419,1.617,0.978,3.195,1.672,4.716
			l26.081-11.899L80.656,172.372z"/>
		<path fill="#4C31FF" d="M94.002,204.564l-26.081,11.898c6.572,14.405,23.578,20.756,37.981,14.183
			c14.406-6.571,20.755-23.576,14.184-37.981c-5.776-12.658-19.808-19.344-33.277-15.852L94.002,204.564z"/>
		<path fill="#3C354C" d="M49.658,227.648l-4.148,39.358c0,0-1.301,15.607-5.203,18.989c0,0,0,4.943-1.3,6.504l-1.822,20.551
			c0,0,2.602,7.544,2.342,8.846c-0.261,1.3,1.04,5.463,0.78,5.983c-0.26,0.521-12.487,0-12.487,0l2.601-41.884l8.065-58.271
			L49.658,227.648z"/>
		<path opacity="0.1" enable-background="new    " d="M49.658,227.648l-4.148,39.358c0,0-1.301,15.607-5.203,18.989
			c0,0,0,4.943-1.3,6.504l-1.822,20.551c0,0,2.602,7.544,2.342,8.846c-0.261,1.3,1.04,5.463,0.78,5.983
			c-0.26,0.521-12.487,0-12.487,0l2.601-41.884l8.065-58.271L49.658,227.648z"/>
		<line fill="none" stroke="#3F3D56" stroke-miterlimit="10" x1="0" y1="341.814" x2="140.532" y2="341.814"/>
		<path fill="none" stroke="#3F3D56" stroke-miterlimit="10" d="M136.989,311.175c0,0,106.804-62.261,244.486,0"/>
		<path fill="none" stroke="#3F3D56" stroke-miterlimit="10" d="M158.478,301.4c-8.975-1.849-15.415-9.75-15.415-18.913V20.427
			c0-10.663,8.643-19.307,19.307-19.307h193.725c10.664,0,19.309,8.644,19.309,19.307l0,0v262.061
			c-0.002,9.857-7.428,18.132-17.229,19.196"/>
		<rect x="154.959" y="32.235" fill="none" stroke="#3F3D56" stroke-miterlimit="10" width="206.522" height="238.442"/>
		<circle fill="none" stroke="#3F3D56" stroke-miterlimit="10" cx="259.231" cy="16.558" r="5.062"/>
		<path fill="none" stroke="#3F3D56" stroke-miterlimit="10" d="M248.371,283.631c1.367-5.999,7.336-9.754,13.336-8.386
			c4.238,0.966,7.529,4.31,8.424,8.566"/>
		<path fill="none" stroke="#3F3D56" stroke-miterlimit="10" d="M131.866,49.439c-4.401,0.248-8.284,2.962-10.028,7.011
			c-2.506,6.061,0.721,13.181,5.568,17.6c4.847,4.42,11.072,6.946,16.728,10.266c7.599,4.461,14.425,10.652,18.227,18.6
			c3.802,7.948,4.207,17.792-0.263,25.385c-4.146,7.047-11.688,11.265-18.881,15.155"/>
		<ellipse fill="#57B894" cx="138.253" cy="49.966" rx="8.859" ry="4.302"/>
		<ellipse fill="#57B894" cx="145.341" cy="78.313" rx="8.857" ry="4.303"/>
		<ellipse fill="#57B894" cx="129.143" cy="82.868" rx="8.859" ry="4.302"/>
		<ellipse fill="#57B894" cx="154.452" cy="106.659" rx="8.857" ry="4.303"/>
		<ellipse fill="#57B894" cx="172.168" cy="106.659" rx="8.857" ry="4.303"/>
		<path fill="none" stroke="#3F3D56" stroke-miterlimit="10" d="M370.006,223.245c-4.099,0.232-7.712,2.759-9.337,6.528
			c-2.335,5.646,0.671,12.274,5.185,16.39s10.311,6.469,15.578,9.561c7.074,4.153,13.431,9.919,16.971,17.318
			c3.54,7.401,3.918,16.569-0.244,23.639c-3.861,6.562-10.884,10.491-17.582,14.112"/>
		<ellipse fill="#57B894" cx="375.955" cy="223.736" rx="8.248" ry="4.007"/>
		<path fill="#57B894" d="M382.555,246.126c4.555,0,8.247,1.795,8.247,4.007s-3.692,4.006-8.247,4.006
			c-4.558,0-8.25-1.794-8.25-4.006S377.997,246.126,382.555,246.126z"/>
		<path fill="#57B894" d="M367.472,250.367c4.555,0,8.247,1.794,8.247,4.008c0,2.213-3.692,4.007-8.247,4.007
			c-4.558,0-8.25-1.794-8.25-4.007C359.222,252.161,362.914,250.367,367.472,250.367z"/>
		<ellipse fill="#57B894" cx="391.037" cy="276.528" rx="8.25" ry="4.006"/>
		<ellipse fill="#57B894" cx="407.536" cy="276.528" rx="8.248" ry="4.006"/>
		<path fill="none" stroke="#3F3D56" stroke-miterlimit="10" d="M390.009,239.433c3.347,0.188,6.298,2.253,7.624,5.332
			c1.908,4.609-0.547,10.023-4.233,13.384c-3.686,3.362-8.42,5.283-12.722,7.808c-5.777,3.393-10.969,8.102-13.86,14.145
			c-2.891,6.044-3.199,13.531,0.199,19.306c3.155,5.358,8.889,8.566,14.359,11.523"/>
		<ellipse fill="#57B894" cx="385.15" cy="239.834" rx="6.735" ry="3.271"/>
		<ellipse fill="#57B894" cx="379.761" cy="261.391" rx="6.736" ry="3.271"/>
		<ellipse fill="#57B894" cx="392.079" cy="264.855" rx="6.735" ry="3.272"/>
		<ellipse fill="#57B894" cx="372.833" cy="282.947" rx="6.735" ry="3.271"/>
		<ellipse fill="#57B894" cx="359.358" cy="282.947" rx="6.736" ry="3.271"/>
		<polyline fill="none" stroke="#3F3D56" stroke-miterlimit="10" points="189.631,82.379 189.631,196.776 323.769,196.776 		"/>
		<rect x="206.842" y="158.812" fill="#4C31FF" width="11.136" height="29.359"/>
		<rect x="229.619" y="148.689" fill="#4C31FF" width="11.136" height="39.483"/>
		<rect x="252.398" y="136.54" fill="#4C31FF" width="11.136" height="51.632"/>
		<rect x="275.176" y="114.774" fill="#4C31FF" width="11.138" height="73.398"/>
		<rect x="297.955" y="97.563" fill="#4C31FF" width="11.136" height="90.608"/>
		<rect x="203.298" y="155.27" fill="none" stroke="#3F3D56" stroke-miterlimit="10" width="11.137" height="29.358"/>
		<rect x="226.076" y="145.145" fill="none" stroke="#3F3D56" stroke-miterlimit="10" width="11.137" height="39.483"/>
		<rect x="248.855" y="132.997" fill="none" stroke="#3F3D56" stroke-miterlimit="10" width="11.136" height="51.631"/>
		<rect x="271.633" y="111.231" fill="none" stroke="#3F3D56" stroke-miterlimit="10" width="11.136" height="73.397"/>
		<rect x="294.411" y="94.021" fill="none" stroke="#3F3D56" stroke-miterlimit="10" width="11.136" height="90.607"/>
		<ellipse fill="#3F3D56" cx="48.762" cy="128.65" rx="13.007" ry="10.146"/>
		<path fill="#3F3D56" d="M26.867,325.752c0,0-5.456,13.758-2.608,15.418c2.845,1.66,32.733,0.474,32.733,0.474
			s4.981-3.082-0.712-5.219c0,0-4.742-0.237-7.826-2.134c-3.085-1.896-6.643-5.455-6.643-5.455s-0.237-5.22-2.134-4.033
			c-1.148,0.757-1.924,1.963-2.135,3.321L26.867,325.752z"/>
		<path opacity="0.1" enable-background="new    " d="M26.867,325.752c0,0-5.456,13.758-2.608,15.418
			c2.845,1.66,32.733,0.474,32.733,0.474s4.981-3.082-0.712-5.219c0,0-4.742-0.237-7.826-2.134
			c-3.085-1.896-6.643-5.455-6.643-5.455s-0.237-5.22-2.134-4.033c-1.148,0.757-1.924,1.963-2.135,3.321L26.867,325.752z"/>
		<path fill="#3F3D56" d="M18.455,323.888c0,0-5.983,15.085-2.861,16.907c3.121,1.82,35.899,0.521,35.899,0.521
			s5.462-3.382-0.78-5.722c0,0-5.203-0.261-8.585-2.343c-3.382-2.082-7.284-5.984-7.284-5.984s-0.26-5.724-2.342-4.421
			c-1.259,0.829-2.108,2.152-2.341,3.642L18.455,323.888z"/>
		<path fill="#3C354C" d="M42.647,227.113c0,0-2.861,26.796-4.162,32.519c-0.818,3.769-1.34,7.597-1.562,11.445
			c0,0-0.26,8.324-2.602,10.667c-1.384,1.37-2.138,3.255-2.081,5.201c0,0-2.34,26.275-1.04,29.397c1.3,3.12,3.067,7.178,1.766,9.259
			s-16.073,0.626-16.073-0.935c0-1.562,0-2.862-0.782-3.642c-0.78-0.78,0-5.725,0-5.725s-3.12-23.151-0.259-29.916
			c2.861-6.763,4.162-25.233,4.162-25.233s-2.081-21.071-4.683-24.452c-2.601-3.383,0.521-15.35,0.521-15.35L42.647,227.113z"/>
		<path fill="#FBBEBE" d="M35.323,143.905c0.303,0.688,1.025,1.073,1.685,1.436c3.819,2.104,7.017,5.155,10.167,8.17
			c-0.786-2.663-0.619-5.518,0.474-8.071c0.375-0.872,0.869-1.808,0.599-2.717c-0.264-0.65-0.726-1.202-1.319-1.578
			c-1.286-0.995-2.628-1.911-4.022-2.745c-0.975-0.583-2.976-2.135-4.094-1.965c-0.059,1.51-0.089,2.86-0.751,4.271
			C37.905,141.042,35.439,144.168,35.323,143.905z"/>
		<circle fill="#FBBEBE" cx="48.63" cy="136.584" r="10.666"/>
		<path fill="#3F3D56" d="M49.151,161.818c0,0,1.821-9.104-3.381-12.227c-5.203-3.122-11.186-6.764-11.186-6.764
			s-1.821-0.26-2.601,3.642c0,0-14.829,2.862-16.389,16.91c-1.562,14.048,1.04,34.6,1.04,34.6s-2.34,17.95-5.203,27.575
			c0,0-2.341,2.081,8.065-1.041c10.406-3.123,28.616,8.844,28.616,8.844s1.82-1.82,1.82-3.121s2.083-8.846,2.083-8.846
			s1.819-31.995,2.6-35.639C55.395,182.109,51.493,162.338,49.151,161.818z"/>
		<path fill="#3F3D56" d="M46.118,137.683c0.64-0.354,1.359-0.546,2.091-0.557c0.733-0.012,1.45-0.225,2.069-0.617
			c1.008-0.774,1.082-2.269,1.818-3.303c1.067-1.498,3.196-1.678,5.034-1.604c1.124,0.046,2.334,0.113,3.28-0.494
			c0.972-0.625,1.411-1.8,1.74-2.907c0.387-1.31,0.639-2.911-0.322-3.882c-0.666-0.674-1.719-0.808-2.458-1.4
			c-0.769-0.614-1.085-1.613-1.501-2.503c-0.476-1.085-1.227-2.026-2.179-2.729c-1.397-0.971-3.181-1.188-4.883-1.17
			c-1.701,0.018-3.409,0.242-5.097,0.033c-1.382-0.171-2.762-0.631-4.14-0.427c-1.757,0.26-3.21,1.585-4.076,3.136
			c-0.865,1.55-1.237,3.321-1.596,5.06l-0.981,4.73c-0.303,1.466-0.608,2.972-0.375,4.452c0.486,3.068,3.199,5.505,3.386,8.605
			c0.362-1.739,1.574-3.179,3.225-3.834c0.203-0.1,0.435-0.127,0.656-0.08c0.27,0.086,0.427,0.356,0.598,0.582
			c0.445,0.593,1.845,1.491,2.639,1.071C45.754,139.468,45.225,138.289,46.118,137.683z"/>
		<path fill="#FBBEBE" d="M19.234,186.272c0,0-1.821,11.445,5.724,10.404c0,0,3.902-0.521,4.422,0s19.77-2.861,22.372-5.723
			c0,0,3.122-1.041,4.682,0.521c1.562,1.561,17.17,3.122,12.488-1.562c-4.684-4.682-11.967-5.724-11.967-5.724l-9.885,0.521
			c0,0-5.203,1.562-8.325,0c-3.122-1.561-11.966-1.041-11.966-1.041L19.234,186.272z"/>
		<path fill="#3F3D56" d="M29.901,150.111c0,0-11.707,1.301-11.707,18.21v21.592c0,0,6.504-2.861,7.805-2.602
			c1.3,0.261,6.502-3.382,6.502-3.382s5.984-14.048,5.464-17.95C37.444,162.078,37.706,150.632,29.901,150.111z"/>
		<ellipse fill="#3F3D56" cx="48.63" cy="129.951" rx="10.016" ry="5.203"/>
		<ellipse fill="#3F3D56" cx="39.266" cy="130.861" rx="3.513" ry="8.715"/>
	</g>
	<path fill="#FF6584" d="M136.989,322.653h243.523C380.513,322.653,264.806,253.937,136.989,322.653z"/>
</g>
</svg>
