<svg id="Layer_1" data-name="Layer 1" xmlns="http://www.w3.org/2000/svg" xmlns:xlink="http://www.w3.org/1999/xlink" viewBox="0 0 100 100"><defs><style>.cls-1{fill:url(#linear-gradient);}.cls-2{fill:url(#linear-gradient-2);}.cls-3{fill:url(#linear-gradient-3);}.cls-4{fill:url(#linear-gradient-4);}</style><linearGradient id="linear-gradient" x1="45.43" y1="96.5" x2="45.43" y2="5.6" gradientUnits="userSpaceOnUse"><stop offset="0" stop-color="#8393a7"/><stop offset="1" stop-color="#5b6a72"/></linearGradient><linearGradient id="linear-gradient-2" x1="45.14" x2="45.14" y2="5.6" xlink:href="#linear-gradient"/><linearGradient id="linear-gradient-3" x1="75.55" x2="75.55" y2="5.6" xlink:href="#linear-gradient"/><linearGradient id="linear-gradient-4" x1="45.47" x2="45.47" y2="5.6" xlink:href="#linear-gradient"/></defs><title>game-development-icon</title><path class="cls-1" d="M63.2,25.55H27.65a3,3,0,0,1-3-3.45l1.56-10.38a2.33,2.33,0,0,1,.08-.36c1.6-5.73,5.14-9,9.71-9H54.81c4.51,0,8,3.28,9.71,9a2.74,2.74,0,0,1,.09.39L66.17,22.1a3,3,0,0,1-3,3.45Zm-32.06-6H59.72l-1-6.73c-.45-1.48-1.65-4.48-3.89-4.48H36c-2.22,0-3.38,2.72-3.89,4.46Z"/><path class="cls-2" d="M54.39,97.22H35.9c-4.5,0-8-3.27-9.71-9,0-.13-.06-.26-.08-.4L24.54,77.46a3,3,0,0,1,3-3.45H62.78a3,3,0,0,1,3,3.45L64.18,87.84a2.09,2.09,0,0,1-.08.36C62.5,93.93,59,97.22,54.39,97.22ZM32,86.74c.45,1.48,1.65,4.48,3.89,4.48H54.39c2.22,0,3.37-2.72,3.89-4.46l1-6.75H31Z"/><path class="cls-3" d="M74.86,64.58H71a3,3,0,0,1-3-3V39.26a3,3,0,0,1,3-3h4.15a8.06,8.06,0,0,1,6.27,2.68,7.58,7.58,0,0,1,1.67,6V56.39A8.4,8.4,0,0,1,74.86,64.58Zm-.89-6h.89a2.41,2.41,0,0,0,2.2-2.19V44.71a3.55,3.55,0,0,1,0-.46,1.7,1.7,0,0,0-.25-1.4,2.3,2.3,0,0,0-1.72-.59H74Z"/><path class="cls-4" d="M63.43,80H27.51A10.59,10.59,0,0,1,16.93,69.37V30.22A10.59,10.59,0,0,1,27.51,19.64H63.43A10.59,10.59,0,0,1,74,30.22V69.37A10.59,10.59,0,0,1,63.43,80ZM27.51,25.64a4.58,4.58,0,0,0-4.58,4.58V69.37A4.58,4.58,0,0,0,27.51,74H63.43A4.59,4.59,0,0,0,68,69.37V30.22a4.59,4.59,0,0,0-4.59-4.58Z"/></svg>