<?xml version="1.0" encoding="utf-8"?>
<!-- Generator: Adobe Illustrator 17.0.0, SVG Export Plug-In . SVG Version: 6.00 Build 0)  -->
<!DOCTYPE svg PUBLIC "-//W3C//DTD SVG 1.1//EN" "http://www.w3.org/Graphics/SVG/1.1/DTD/svg11.dtd">
<svg version="1.1" id="Layer_1" xmlns="http://www.w3.org/2000/svg" xmlns:xlink="http://www.w3.org/1999/xlink" x="0px" y="0px"
	 width="700px" height="792px" viewBox="0 0 700 792" enable-background="new 0 0 700 792" xml:space="preserve">
<g>
	<linearGradient id="SVGID_1_" gradientUnits="userSpaceOnUse" x1="44.2609" y1="396" x2="655.7391" y2="396">
		<stop  offset="0" style="stop-color:#57E3FE"/>
		<stop  offset="1" style="stop-color:#1CB4FE"/>
	</linearGradient>
	<path fill="url(#SVGID_1_)" d="M654.723,435.619c-2.937-30.98-10.471-60.962-19.898-90.505
		c-3.251-10.188-6.281-20.497-11.314-30.03c0,0,0,0,0,0c-5.099-15.309-11.903-29.836-20.043-43.752
		c-4.708-11.14-11.166-21.285-17.81-31.324l0,0v0c-8.222-13.685-17.523-26.584-28.052-38.591h0l0,0
		c-6.006-7.844-12.46-15.284-19.789-21.935c-6.041-6.964-12.839-13.114-20.162-18.695c-5.633-5.655-11.896-10.504-18.721-14.634l0,0
		v0c-8.48-7.218-17.95-12.897-27.849-17.909c-6.583-4.188-13.506-7.691-20.841-10.369c-5.923-3.171-12.093-5.718-18.622-7.352
		c-9.463-4.003-19.292-6.715-29.425-8.355c-5.677-1.895-11.526-2.838-17.487-3.171c0,0,0,0,0-0.001
		c-5.113-2.04-10.89-0.55-15.926-2.998c-2.087,0-4.174,0-6.261,0c-0.348,0-0.696,0-1.043,0c-1.739,0-3.478,0-5.217,0
		c-4.522,0-9.043,0-13.565,0c-5.913,0-11.826,0-17.739,0c-0.348,0-0.696,0-1.043,0c-1.05,1.647-2.767,0.863-4.188,1.132
		c-4.146,0.785-8.481,0.33-12.509,1.901c0,0,0,0,0,0c-6.763,0.104-13.361,1.235-19.825,3.194l0,0
		c-6.797,0.555-13.359,2.194-19.822,4.294v0c-7.515,1.344-14.727,3.731-21.872,6.353c0,0,0,0,0,0l0,0
		c-5.769,1.523-11.368,3.511-16.738,6.123v0l0,0c-4.378,1.238-8.585,2.89-12.517,5.201c-6.183,2.213-12.128,4.932-17.735,8.367v0
		c-9.148,4.122-17.791,9.136-26.095,14.751c0,0,0,0,0,0c0,0,0,0,0-0.001c-4.064,2.295-8.145,4.566-11.6,7.774
		c0,0-0.001-0.001-0.001-0.001c-7.064,4.326-13.676,9.251-19.767,14.87c0,0,0,0,0,0c-9.92,7.396-18.887,15.824-27.12,25.047
		c-7.444,6.963-13.92,14.756-19.777,23.079c-8.18,9.949-15.265,20.611-20.969,32.174c0,0,0,0,0,0
		c-12.357,20.919-20.006,43.565-24.971,67.248c-1.649,7.867-1.39,16.051-4.146,23.709c0,3.13,0,6.261,0,9.391
		c0,5.217,0,10.435,0,15.652c0,3.478,0,6.957,0,10.435c0.337,0.556,0.919,1.088,0.977,1.672c1.653,16.6,4.649,32.975,8.493,49.186
		c5.085,21.443,10.995,42.645,19.703,62.962c0,0,0,0,0,0c5.607,15.622,12.256,30.765,20.765,45.049c0,0.001,0,0.001,0,0.002
		c5.601,11.668,12.324,22.659,19.994,33.076c0,0,0,0,0,0v0c7.907,12.397,16.903,23.941,27.076,34.562
		c6.078,7.183,12.325,14.199,19.77,20.034c3.398,3.908,7.328,7.212,11.562,10.169c8.028,7.236,16.661,13.649,25.978,19.136
		c5.537,4.288,11.671,7.59,17.861,10.799c0,0,0,0,0,0c3.641,2.207,7.32,4.338,11.392,5.679c0,0,0,0,0,0
		c5.96,3.486,12.252,6.206,18.855,8.216c7.691,3.601,15.731,6.176,23.973,8.157c0,0,0,0,0,0c5.44,1.945,11.033,3.272,16.733,4.174
		c0,0,0,0,0,0l0,0c6.786,1.911,13.744,2.866,20.721,3.717c0,0,0,0.001,0.001,0.001c4.8,1.545,10.155,0.067,14.753,2.712
		c1.391,0,2.783,0,4.174,0c0.696,0,1.391,0,2.087,0c2.087,0,4.174,0,6.261,0c5.565,0,11.13,0,16.696,0c1.391,0,2.783,0,4.174,0
		c2.087,0,4.174,0,6.261,0c3.13,0,6.261,0,9.391,0c0.348,0,0.696,0,1.043,0c3.925-2.149,8.458-0.863,12.523-2.216v0
		c6.469-0.459,12.928-0.989,19.247-2.513c0.513-0.008,1.096-0.145,1.761-0.439c5.318-0.206,10.484-1.228,15.555-2.758
		c0.36-0.067,0.749-0.18,1.179-0.358c6.059-0.702,11.981-1.994,17.701-4.145c0,0,0,0,0.001,0c7.248-1.253,14.231-3.411,21.047-6.143
		c4.286-0.951,8.46-2.228,12.358-4.296c0,0,0,0,0.001,0c8.754-2.607,17.172-6.039,25.247-10.31c0,0,0,0,0-0.001
		c6.121-2.172,11.902-5.042,17.395-8.499c6.988-3.259,13.801-6.824,20.035-11.408c7.208-3.966,14.147-8.329,20.317-13.821l0,0
		c10.487-6.814,19.956-14.854,28.649-23.825c6.368-5.785,12.752-11.555,17.479-18.861c7.97-8.06,14.721-17.017,19.936-27.103
		c0.961-1.206,2.075-2.32,2.859-3.631c13.208-22.079,22.148-45.726,26.505-71.136c0.974-5.684,0.391-11.66,2.988-17.057
		c0-2.783,0-5.565,0-8.348c0-5.565,0-11.13,0-16.696c0-1.739,0-3.478,0-5.217C654.981,436.951,654.792,436.346,654.723,435.619z
		 M306.343,187.321c0.146,0.055,0.294,0.119,0.439,0.169c-0.203,0.038-0.407,0.075-0.61,0.113
		C306.239,187.51,306.283,187.414,306.343,187.321z M322.923,184.5c0.002,0.007,0.003,0.014,0.005,0.022
		c-0.02,0.001-0.04,0.001-0.06,0.002C322.887,184.516,322.905,184.508,322.923,184.5z M246.848,491.037
		c0.032,0.017,0.064,0.034,0.096,0.051c-0.034,0.018-0.063,0.046-0.096,0.066C246.848,491.115,246.848,491.076,246.848,491.037z
		 M469.822,365.157c0.225-0.305,0.441-0.612,0.652-0.919c-0.07,0.334-0.139,0.667-0.22,1.002
		C470.115,365.207,469.973,365.178,469.822,365.157L469.822,365.157z"/>
	<g>
		<path fill="#273B3E" d="M465.568,362.607c3.654,6.096,4.42,11.494,0.719,17.533c-1.716,2.801,0.079,8.062-1.885,10.344
			c-5.688,6.612-5.481,12.571-3.031,20.723c3.505,11.665-6.158,24.376-18.367,24.601c-12.611,0.232-25.26-1.635-37.892-2.596
			c-2.252-0.171-4.494-0.496-6.748-0.597c-11.082-0.498-11.515-0.505-13.56,10.686c-1.901,10.402-2.989,20.961-4.119,31.485
			c-0.132,1.224,1.46,3.299,2.749,3.884c3.617,1.64,7.531,2.609,11.261,4.021c5.803,2.197,8.316,6.823,4.861,11.885
			c-6.408,9.39-4.057,17.727-0.134,27.137c7.146,17.142,13.254,34.717,19.767,52.122c0.546,1.459,0.987,2.976,1.302,4.502
			c1.097,5.329-0.69,8.552-5.261,9.66c-4.309,1.044-8.107-1.328-9.72-5.773c-6.338-17.462-12.748-34.897-19.152-52.335
			c-0.338-0.921-0.866-1.772-1.787-3.625c-2.271,4.61-4.103,8.44-6.032,12.219c-3.076,6.027-6.779,7.311-12.733,4.133
			c-38.778-20.694-77.524-41.446-116.146-62.107c-6.082,5.81-12.138,11.761-18.394,17.495c-2.87,2.631-6.75,3.257-9.425,0.433
			c-1.83-1.932-2.532-5.378-2.734-8.218c-0.1-1.415,1.833-3.251,3.228-4.453c13.213-11.373,23.41-25.146,32.189-40.065
			c4.072-6.92,5.179-7.492,13.427-6.287c5.131-12.025,10.527-24.167,10.077-37.678c-0.13-3.897-2.359-8.26-4.855-11.448
			c-10.472-13.376-18.789-27.968-25.648-43.418c-9.196-20.717-14.628-42.253-14.257-65.139
			c0.933-57.551,54.136-107.953,111.59-105.22c9.683,0.461,19.455,1.479,28.923,3.484c15.633,3.311,31.154,1.407,46.753,0.716
			c4.834-0.214,9.756-0.163,14.535,0.503c6.743,0.941,10.305,5.046,11.258,11.83c1.184,8.427-0.9,16.406-4.578,23.729
			c-4.315,8.589-4.255,16.471-0.655,25.401c5.122,12.704,9.008,25.912,13.276,38.953c2.259,6.903,2.782,13.782,0.29,20.955
			c-0.778,2.24,0.319,5.83,1.756,8.013c4.964,7.539,10.483,14.712,15.737,22.063c2.122,2.969,4.143,6.012,6.146,9.063
			c5.048,7.691,2.575,15.452-6.039,18.953C470.347,360.95,468.375,361.591,465.568,362.607z M424.186,240.049
			c-12.259,4.458-23.42,9.668-35.156,12.484c-13.564,3.254-19.054,11.876-20.933,24.371c-0.052,0.344-0.123,0.685-0.165,1.03
			c-2.009,16.194-4.114,32.378-5.949,48.591c-0.421,3.72-1.059,7.285-4.894,8.385c-8.159,2.338-16.394,4.587-24.744,6.024
			c-5.822,1.002-8.221-1.976-9.713-7.645c-1.663-6.318-3.8-12.603-6.567-18.512c-2.764-5.904-7.17-7.849-12.233-6.279
			c-5.772,1.789-5.173,6.894-4.974,11.301c0.646,14.296,6.715,26.051,17.39,35.493c5.779,5.112,5.934,8.861,0.496,14.372
			c-7.085,7.18-14.314,14.222-21.248,21.545c-1.337,1.412-2.081,3.796-2.271,5.809c-0.567,6.02,0.113,12.271-1.224,18.079
			c-2.319,10.07-5.788,19.876-8.937,30.334c27.019,9.083,54.379,18.281,82.115,27.606c0.399-2.113,0.678-3.274,0.832-4.452
			c1.263-9.635,1.808-19.426,3.894-28.878c4.383-19.858,11.285-24.383,31.297-22.285c12.272,1.287,24.548,2.614,36.854,3.471
			c7.401,0.515,9.402-2.997,7.143-10.161c-2.681-8.501-4.079-17.033,3.019-24.446c0.511-0.533,0.671-1.499,0.792-2.294
			c0.666-4.376,1.269-8.762,2.102-14.613c-5.84-9.837-4.324-13.34,11.925-23.075c-2.02-2.995-3.996-6.003-6.05-8.957
			c-5.155-7.413-11.025-14.438-15.256-22.343c-2.354-4.397-3.791-10.775-2.443-15.31c1.969-6.623,1.079-12.147-1.004-18.144
			c-2.793-8.041-5.269-16.191-7.984-24.26C428.431,251.735,426.387,246.235,424.186,240.049z M432.504,195.803
			c-4.497,0-7.099-0.244-9.642,0.038c-21.584,2.396-42.842,1.019-64.279-2.861c-27.966-5.063-53.471,1.625-75.328,20.498
			c-25.063,21.641-37.867,48.415-34.461,81.975c3.109,30.642,16.148,57.237,33.711,81.947c0.574,0.808,1.445,1.405,1.599,1.551
			c5.845-5.472,11.488-10.755,17.316-16.211c-1.331-1.677-2.632-3.276-3.891-4.909c-9.576-12.415-14.64-26.41-14.028-42.141
			c0.64-16.451,13.333-25.752,29.383-22.086c7.145,1.632,12.206,5.919,15.602,12.045c3.342,6.028,6.049,12.409,9.062,18.692
			c9.017-1.269,8.958-1.274,9.71-10.034c0.55-6.405,0.728-12.911,2.046-19.167c2.64-12.533,5.462-25.072,9.146-37.326
			c2.517-8.372,8.656-13.767,17.365-16.58c12.058-3.895,23.68-9.186,35.815-12.775c7.978-2.359,12.815-6.431,14.858-14.47
			C427.953,208.212,430.208,202.636,432.504,195.803z M258.623,468.001c36.373,19.426,72.404,38.67,108.919,58.171
			c5.012-10.675,9.684-20.625,14.521-30.928c-2.316-0.89-3.881-1.553-5.485-2.099c-12.975-4.415-25.947-8.841-38.94-13.202
			c-22.536-7.563-45.109-15.019-67.607-22.693c-2.88-0.982-4.453-0.609-5.892,2.034
			C262.586,462.137,260.675,464.794,258.623,468.001z"/>
		<path fill="#273B3E" d="M376.956,549.606c7.06-0.638,10.078,1.592,11.304,6.34c3.686,14.278,7.469,28.532,11.017,42.845
			c1.584,6.39-0.975,10.046-7.575,10.952c-14.614,2.007-29.248,3.877-43.889,5.68c-6.219,0.766-8.708-0.903-10.284-6.839
			c-3.741-14.085-7.417-28.188-10.981-42.318c-1.457-5.777,0.732-9.769,6.112-10.567
			C348.108,553.408,363.602,551.423,376.956,549.606z M343.284,569.608c2.504,9.804,4.761,18.859,7.211,27.861
			c0.222,0.816,1.759,1.93,2.555,1.834c9.752-1.184,19.48-2.568,29.58-3.951c-2.724-10.412-5.249-20.065-7.829-29.929
			C364.21,566.829,354.268,568.149,343.284,569.608z"/>
	</g>
</g>
</svg>
