<?xml version="1.0" encoding="utf-8"?>
<!-- Generator: Adobe Illustrator 16.0.4, SVG Export Plug-In . SVG Version: 6.00 Build 0)  -->
<!DOCTYPE svg PUBLIC "-//W3C//DTD SVG 1.1//EN" "http://www.w3.org/Graphics/SVG/1.1/DTD/svg11.dtd">
<svg version="1.1" id="Layer_1" xmlns="http://www.w3.org/2000/svg" xmlns:xlink="http://www.w3.org/1999/xlink" x="0px" y="0px"
	 width="124.881px" height="40.082px" viewBox="0 0 124.881 40.082" enable-background="new 0 0 124.881 40.082"
	 xml:space="preserve">
<g>
	<g>
		<path fill="#2B2A2A" d="M0.877,39.915V26.297h6.809c4.539,0,6.809,2.27,6.809,6.809s-2.27,6.809-6.809,6.809H0.877z M5.741,30.188
			v5.836h1.945c1.297,0,1.945-0.973,1.945-2.918s-0.648-2.918-1.945-2.918H5.741z"/>
		<path fill="#2B2A2A" d="M27.139,26.297v3.891h-6.809v0.973h6.809v3.891h-6.809v0.973h6.809v3.891H15.467V26.297H27.139z"/>
		<path fill="#2B2A2A" d="M40.756,26.297v3.891h-6.809c-0.648,0-0.973,0.191-0.973,0.574c0,0.266,0.324,0.398,0.973,0.398h0.973
			c3.891,0,5.836,1.43,5.836,4.289c0,2.977-1.945,4.465-5.836,4.465h-6.809v-3.891h6.809c0.648,0,0.973-0.191,0.973-0.574
			c0-0.266-0.324-0.398-0.973-0.398h-0.973c-3.891,0-5.836-1.43-5.836-4.289c0-2.977,1.945-4.465,5.836-4.465H40.756z"/>
		<path fill="#2B2A2A" d="M46.592,26.297v13.617h-4.863V26.297H46.592z"/>
		<path fill="#2B2A2A" d="M54.373,30.188c-1.297,0-1.945,0.973-1.945,2.918s0.648,2.918,1.945,2.918
			c0.746,0,1.277-0.324,1.596-0.973h-1.596v-3.891h6.809v8.754h-4.863v-0.973c0,0.648-0.648,0.973-1.945,0.973
			c-4.539,0-6.809-2.27-6.809-6.809s2.27-6.809,6.809-6.809h5.836v3.891H54.373z"/>
		<path fill="#2B2A2A" d="M67.017,33.865v6.05h-4.863V26.297h4.863l3.891,6.05v-6.05h4.863v13.617h-4.863L67.017,33.865z"/>
		<path fill="#2B2A2A" d="M81.685,39.915V26.297h6.809c4.538,0,6.809,2.27,6.809,6.809s-2.271,6.809-6.809,6.809H81.685z
			 M86.548,30.188v5.836h1.945c1.297,0,1.945-0.973,1.945-2.918s-0.648-2.918-1.945-2.918H86.548z"/>
		<path fill="#2B2A2A" d="M103.083,26.297c4.539,0,6.809,2.27,6.809,6.809s-2.27,6.809-6.809,6.809s-6.809-2.27-6.809-6.809
			S98.543,26.297,103.083,26.297z M103.083,36.024c1.297,0,1.945-0.973,1.945-2.918s-0.648-2.918-1.945-2.918
			s-1.945,0.973-1.945,2.918S101.786,36.024,103.083,36.024z"/>
		<path fill="#2B2A2A" d="M115.727,32.114l3.414-5.816h5.34l-4.144,6.789l4.144,6.828h-5.34l-3.414-5.836v5.836h-4.863V26.297h4.863
			V32.114z"/>
	</g>
	<g>
		<g>
			<path fill-rule="evenodd" clip-rule="evenodd" fill="#2B2A2A" d="M3.211,21.688c0.952,0,1.906,0.003,2.859,0
				c0.156,0,0.31-0.025,0.17-0.243c-0.077-0.077-0.173-0.096-0.276-0.096c-0.887,0-1.773-0.001-2.66,0
				c-0.142,0-0.288-0.008-0.363,0.15C2.976,21.642,3.075,21.688,3.211,21.688z M15.271,21.843c0.099-0.023,0.036-0.121,0.034-0.189
				c0.024-0.294-0.061-0.442-0.406-0.436c-1.082,0.021-2.166,0.008-3.248,0.008c-0.061,0-0.123,0.007-0.184,0.01
				c-0.121,0.008-0.185,0.076-0.19,0.193c-0.006,0.139,0.05,0.239,0.201,0.248c0.144,0.011,0.285,0.011,0.429,0.013
				c1.104,0.002,2.207,0.005,3.31,0.008C15.221,21.755,15.218,21.856,15.271,21.843z M20.412,21.222
				c-0.311-0.008-0.432,0.095-0.426,0.415c0.021,1.119-0.096,0.914,0.882,0.933c0.487,0.008,0.977-0.008,1.465,0.004
				c0.265,0.007,0.363-0.104,0.355-0.362c-0.009-0.284,0.008-0.569,0.013-0.854c-0.03-0.044-0.061-0.089-0.092-0.132
				C21.875,21.226,21.144,21.238,20.412,21.222z M19.189,22.572c0.226,0.003,0.316-0.082,0.339-0.317
				c0.093-1.002,0.076-1.028-0.908-1.028c-0.835,0-1.671,0.008-2.506-0.003c-0.279-0.004-0.405,0.077-0.4,0.38
				c0.019,1.183-0.103,0.943,0.91,0.967c0.346,0.008,0.692,0.001,1.038,0.001c0,0,0,0,0-0.001
				C18.17,22.57,18.68,22.564,19.189,22.572z M10.466,22.57c0.176,0,0.334-0.021,0.318-0.259c-0.015-0.199-0.159-0.209-0.307-0.209
				c-1.143,0-2.283,0-3.425,0c-0.155,0-0.285,0.03-0.289,0.228c-0.003,0.196,0.117,0.238,0.276,0.238c0.57,0.002,1.143,0,1.713,0
				c0,0.002,0,0.002,0,0.002C9.324,22.57,9.896,22.57,10.466,22.57z M14.964,22.57c0.142,0,0.307,0.013,0.319-0.192
				c0.015-0.218-0.126-0.276-0.315-0.276c-1.125,0.001-2.251,0.001-3.376,0c-0.183,0-0.333,0.029-0.316,0.263
				c0.015,0.202,0.164,0.204,0.312,0.206c0.573,0.001,1.147,0,1.72,0v0.001C13.86,22.571,14.412,22.572,14.964,22.57z M5.996,22.571
				c0.171,0,0.341-0.011,0.331-0.247c-0.009-0.24-0.192-0.222-0.354-0.222c-0.896-0.002-1.789-0.001-2.685,0
				c-0.168,0-0.341,0.003-0.33,0.245c0.01,0.245,0.192,0.221,0.353,0.223c0.448,0.004,0.896,0.001,1.342,0.001
				C5.101,22.571,5.548,22.571,5.996,22.571z"/>
			<path fill-rule="evenodd" clip-rule="evenodd" fill="#2B2A2A" d="M79.277,3.831c0.492-0.08,0.985-0.16,1.479-0.24
				c-0.424-0.256-0.964-0.081-1.418-0.359c0.424-0.264,0.898-0.149,1.366-0.318c-0.287-0.214-0.642-0.037-0.88-0.283
				c0.293-0.236,0.68-0.183,1.016-0.417c-0.389-0.073-0.717-0.134-1.047-0.195c-0.011-0.026-0.023-0.051-0.034-0.078
				c0.298-0.102,0.595-0.204,0.97-0.332c-0.496-0.146-0.956,0.065-1.482-0.237c0.6-0.094,1.064-0.167,1.578-0.247
				c-0.233-0.261-0.622-0.14-0.848-0.448c0.938,0,1.83,0,2.723-0.001c0.194-0.001,0.309,0.067,0.309,0.281
				c-0.002,0.921-0.002,1.841,0.002,2.763c0.002,0.205-0.086,0.311-0.29,0.288c-0.362-0.04-0.4,0.187-0.395,0.458
				c0.003,0.103-0.001,0.205-0.001,0.308c0,4.439,0,8.879,0.001,13.319c0,0.756,0.088,0.824,0.86,0.735
				c0.201-0.024,0.301-0.099,0.294-0.303c-0.003-0.123,0.001-0.246,0.001-0.369c0-5.749,0-11.498,0-17.248
				c0-0.102-0.008-0.205,0-0.307c0.025-0.278-0.074-0.408-0.377-0.406c-1.248,0.011-2.496,0.011-3.744,0
				c-0.289-0.001-0.419,0.098-0.393,0.393c0.012,0.122,0.002,0.245,0.002,0.368c0,5.709-0.002,11.417,0,17.126
				c0,0.767-0.097,0.746,0.713,0.743c0.449-0.001,0.899-0.01,1.35,0.004c0.305,0.01,0.471-0.092,0.446-0.419
				c-0.01-0.122-0.001-0.245-0.001-0.368c0-4.419,0-8.839,0-13.258c0-0.123-0.01-0.247,0.001-0.369
				c0.032-0.332-0.126-0.42-0.437-0.409c-0.586,0.02-1.174,0.005-1.76,0.005C79.28,3.95,79.278,3.891,79.277,3.831z"/>
			<g>
				<path fill-rule="evenodd" clip-rule="evenodd" fill="#2B2A2A" d="M30.716,17.827c-0.011-0.552-0.004-1.104-0.008-1.657
					c-0.001-0.13-0.038-0.249-0.198-0.252c-0.165-0.004-0.198,0.113-0.202,0.245c-0.004,0.245-0.016,0.491-0.001,0.736
					c0.019,0.33-0.181,0.362-0.432,0.352c-0.237-0.011-0.522,0.062-0.509-0.335c0.007-0.204,0.007-0.408-0.003-0.612
					c-0.007-0.153,0.048-0.363-0.192-0.379c-0.257-0.019-0.202,0.198-0.214,0.351c-0.009,0.1-0.003,0.203-0.003,0.306
					c0,0.553,0.002,1.104,0,1.656c-0.004,0.579-0.006,0.59-0.562,0.586c-1.214-0.01-0.999,0.144-1.021-0.986
					c-0.006-0.348,0-0.695-0.01-1.042c-0.004-0.135-0.071-0.233-0.229-0.224c-0.132,0.009-0.164,0.106-0.174,0.211
					c-0.012,0.121-0.011,0.244-0.011,0.367c-0.001,0.231-0.12,0.323-0.347,0.325c-0.22,0.001-0.355-0.062-0.344-0.311
					c0.006-0.123-0.001-0.245-0.01-0.368c-0.008-0.139-0.079-0.218-0.225-0.242c-0.278-0.049-0.405,0.042-0.413,0.359
					c-0.013,0.51-0.003,1.021-0.006,1.533c-0.001,0.166-0.006,0.348-0.234,0.356c-0.251,0.012-0.225-0.185-0.226-0.345
					c-0.003-0.594-0.001-1.186-0.001-1.779c-0.001-0.738-0.001-0.737-0.731-0.799c-0.027-0.003-0.051-0.052-0.117-0.125
					c0.175-0.354,0.396-0.721,0.542-1.118c0.169-0.461,0.451-0.584,0.931-0.57c1.308,0.036,2.617,0.015,3.926,0.011
					c0.56-0.002,0.561-0.008,0.566-0.586c0.002-0.144,0-0.286,0-0.43c0.001-1.452-0.003-7.205,0.003-8.657
					c0.001-0.413,0.149-0.535,0.504-0.451c0.335,0.081,0.217,0.358,0.217,0.556c0.007,3.149,0.005,10.6,0,13.749
					c0,0.174,0.059,0.37-0.194,0.591C30.666,18.464,30.722,18.14,30.716,17.827z M25.336,15.427
					c1.638,0.002,3.273,0.005,4.911,0.001c0.453-0.001,0.468-0.046,0.47-0.493c0.002-0.3-0.128-0.383-0.405-0.38
					c-1.515,0.007-3.028-0.001-4.543,0.005c-0.476,0.002-0.521,0.068-0.708,0.793C25.132,15.45,25.241,15.427,25.336,15.427z"/>
				<path fill-rule="evenodd" clip-rule="evenodd" fill="#2B2A2A" d="M43.411,7.45c-0.356-0.166-0.715-0.149-1.063-0.098
					c-0.247,0.037-0.474,0.02-0.718-0.01c-0.292-0.034-0.403-0.131-0.373-0.415c0.035-0.321-0.163-0.414-0.436-0.467
					c-0.811-0.163-1.628-0.178-2.439-0.078c-0.635,0.078-1.265,0.029-1.896,0.057c-0.299,0.012-0.39-0.136-0.384-0.413
					c0.01-0.49,0.007-0.981,0-1.471c-0.006-0.483-0.011-0.483-0.498-0.592c-0.06-0.014-0.118-0.037-0.18-0.041
					c-1.223-0.076-2.448-0.14-3.664,0.07c-0.578,0.1-0.577,0.113-0.58,0.718c-0.002,0.49-0.008,0.98,0.002,1.471
					c0.008,0.399,0.027,0.425,0.428,0.362c0.894-0.14,1.793-0.086,2.69-0.104c0.231-0.004,0.423-0.01,0.473,0.317
					c0.048,0.304,0.38,0.348,0.621,0.423c0.852,0.266,1.729,0.303,2.607,0.203c0.506-0.057,1.01-0.147,1.514-0.21
					c0.504-0.062,1.004-0.046,1.45,0.375c0.332,0.313,0.834,0.418,1.323,0.312C42.674,7.775,43.003,7.529,43.411,7.45z"/>
			</g>
			<path fill-rule="evenodd" clip-rule="evenodd" fill="#2B2A2A" d="M74.776,15.96c0.023,0.127,0.073,0.347,0.104,0.567
				c0.034,0.249,0.012,0.468,0.416,0.406c0.332-0.051,0.545,0.224,0.564,0.581c0.016,0.306-0.005,0.613,0.006,0.92
				c0.013,0.357,0.058,0.382,0.454,0.388c0.255,0.005,0.437-0.03,0.427-0.358c-0.018-0.634,0.018-1.27-0.018-1.901
				c-0.035-0.67-0.5-1.208-1.083-1.333C75.137,15.121,74.756,15.399,74.776,15.96z"/>
			<path fill-rule="evenodd" clip-rule="evenodd" fill="#2B2A2A" d="M86.628,17.437c-0.011-0.339,0.031-0.767-0.056-1.19
				c-0.121-0.586-0.549-0.981-1.125-1.035c-0.394-0.038-0.622,0.165-0.605,0.564c0.01,0.221,0.083,0.439,0.103,0.66
				c0.024,0.286,0.058,0.521,0.447,0.486c0.22-0.018,0.315,0.143,0.313,0.361c-0.004,0.387-0.01,0.772,0.003,1.159
				c0.011,0.357,0.051,0.374,0.452,0.384c0.28,0.006,0.484-0.039,0.47-0.388C86.618,18.133,86.628,17.829,86.628,17.437z"/>
			<path fill-rule="evenodd" clip-rule="evenodd" fill="#2B2A2A" d="M31.616,22.63c1.044-0.013,0.886,0.128,0.918-0.912
				c0.012-0.373-0.09-0.632-0.451-0.769c-0.402-0.153-0.793-0.202-1.157,0.092c-0.114,0.094-0.198,0.207-0.205,0.362
				c-0.005,0.102-0.008,0.204-0.007,0.307C30.726,22.771,30.588,22.616,31.616,22.63z"/>
			<path fill-rule="evenodd" clip-rule="evenodd" fill="#2B2A2A" d="M66.594,22.63c1.025-0.015,0.872,0.139,0.91-0.907
				c0.016-0.411-0.139-0.645-0.51-0.783c-0.406-0.153-0.791-0.17-1.147,0.115c-0.117,0.093-0.166,0.223-0.165,0.375
				c0.002,0.263,0.016,0.528-0.005,0.789c-0.025,0.33,0.128,0.436,0.431,0.413C66.27,22.622,66.433,22.63,66.594,22.63z"/>
			<path fill-rule="evenodd" clip-rule="evenodd" fill="#2B2A2A" d="M38.413,22.627c0.966-0.006,0.842,0.108,0.853-0.831
				c0.003-0.28,0.046-0.572-0.266-0.751c-0.351-0.199-0.716-0.292-1.104-0.147c-0.213,0.077-0.416,0.214-0.435,0.465
				c-0.024,0.342-0.011,0.688-0.007,1.032c0.002,0.185,0.131,0.232,0.288,0.232C37.966,22.628,38.19,22.627,38.413,22.627z"/>
			<path fill-rule="evenodd" clip-rule="evenodd" fill="#2B2A2A" d="M33.903,22.627c0.969-0.008,0.84,0.091,0.85-0.842
				c0.003-0.28,0.054-0.573-0.269-0.747c-0.337-0.183-0.679-0.277-1.051-0.145c-0.27,0.095-0.459,0.261-0.438,0.582
				c0.006,0.079-0.001,0.16,0,0.243C33.009,22.74,32.858,22.618,33.903,22.627z"/>
			<path fill-rule="evenodd" clip-rule="evenodd" fill="#2B2A2A" d="M29.433,22.63c1.004-0.012,0.861,0.113,0.869-0.883
				c0.005-0.624-0.521-1.036-1.129-0.901c-0.215,0.048-0.369,0.172-0.437,0.382c-0.048,0.155-0.083,0.315-0.11,0.477
				C28.47,22.63,28.471,22.63,29.433,22.63z"/>
			<path fill-rule="evenodd" clip-rule="evenodd" fill="#2B2A2A" d="M55.694,22.63c0.901-0.013,0.833,0.141,0.828-0.94
				c-0.002-0.597-0.292-0.873-0.855-0.855c-0.481,0.016-0.739,0.272-0.76,0.763c-0.002,0.082-0.001,0.164,0,0.245
				C54.914,22.713,54.817,22.625,55.694,22.63z"/>
			<path fill-rule="evenodd" clip-rule="evenodd" fill="#2B2A2A" d="M51.48,22.63c0.062,0,0.122,0,0.183,0
				c0.598-0.004,0.598-0.004,0.603-0.604c0-0.122,0.002-0.245-0.001-0.366c-0.014-0.572-0.603-0.981-1.146-0.789
				c-0.267,0.097-0.448,0.283-0.462,0.584c-0.012,0.265,0.001,0.529-0.011,0.794c-0.015,0.296,0.128,0.401,0.407,0.383
				C51.195,22.623,51.338,22.629,51.48,22.63z"/>
			<path fill-rule="evenodd" clip-rule="evenodd" fill="#2B2A2A" d="M42.964,22.63c0.86-0.012,0.795,0.137,0.786-0.979
				c-0.005-0.609-0.487-0.951-1.074-0.791c-0.324,0.09-0.511,0.314-0.536,0.656c-0.008,0.101-0.003,0.203-0.002,0.306
				C42.145,22.73,42.043,22.623,42.964,22.63z"/>
			<path fill-rule="evenodd" clip-rule="evenodd" fill="#2B2A2A" d="M64.238,22.63c0.913-0.012,0.732,0.118,0.814-0.962
				c0.048-0.646-0.628-1.001-1.189-0.766c-0.267,0.111-0.439,0.29-0.443,0.597c-0.001,0.103-0.003,0.205-0.003,0.308
				C63.417,22.742,63.369,22.623,64.238,22.63z"/>
			<path fill-rule="evenodd" clip-rule="evenodd" fill="#2B2A2A" d="M81.872,22.628c0.968-0.009,0.85,0.112,0.854-0.839
				c0.001-0.256,0.074-0.545-0.238-0.701c-0.341-0.169-0.685-0.268-1.054-0.086c-0.152,0.075-0.282,0.172-0.314,0.35
				c-0.062,0.341-0.125,0.683-0.181,1.024c-0.028,0.193,0.095,0.25,0.259,0.251C81.422,22.629,81.647,22.628,81.872,22.628z"/>
			<path fill-rule="evenodd" clip-rule="evenodd" fill="#2B2A2A" d="M45.106,22.58c0.946-0.019,0.889,0.197,0.88-0.94
				c-0.003-0.418-0.196-0.621-0.656-0.755c-0.418-0.123-0.872-0.009-1.063,0.267c-0.089,0.127-0.124,1.199-0.042,1.322
				c0.064,0.097,0.168,0.104,0.27,0.105C44.698,22.581,44.901,22.58,45.106,22.58z"/>
			<path fill-rule="evenodd" clip-rule="evenodd" fill="#2B2A2A" d="M36.123,22.583c0.965-0.024,0.918,0.224,0.9-0.982
				c-0.007-0.469-0.477-0.791-1.054-0.766c-0.482,0.021-0.73,0.276-0.747,0.768c-0.001,0.02-0.001,0.04,0,0.062
				C35.237,22.725,35.099,22.566,36.123,22.583z"/>
			<path fill-rule="evenodd" clip-rule="evenodd" fill="#2B2A2A" d="M79.563,22.627c0.998-0.017,0.93,0.17,0.922-0.97
				c-0.004-0.476-0.215-0.669-0.721-0.718c-0.541-0.051-0.822,0.122-0.917,0.571c-0.017,0.078-0.017,0.16-0.028,0.242
				C78.692,22.627,78.692,22.627,79.563,22.627z"/>
			<path fill-rule="evenodd" clip-rule="evenodd" fill="#2B2A2A" d="M40.683,22.63c0.942-0.009,0.797,0.1,0.805-0.945
				c0.005-0.64-0.411-0.974-1.01-0.834c-0.349,0.082-0.549,0.32-0.57,0.684c-0.006,0.102-0.003,0.204-0.002,0.306
				C39.915,22.69,39.797,22.628,40.683,22.63z"/>
			<path fill-rule="evenodd" clip-rule="evenodd" fill="#2B2A2A" d="M59.178,21.886c0.011,0.711-0.126,0.755,0.639,0.743
				c1.096-0.016,0.934,0.156,0.941-0.983c0.004-0.557-0.334-0.855-0.878-0.812c-0.438,0.035-0.683,0.296-0.701,0.749
				C59.176,21.683,59.179,21.785,59.178,21.886z"/>
			<path fill-rule="evenodd" clip-rule="evenodd" fill="#2B2A2A" d="M49.278,22.627c0.081,0,0.163,0.002,0.243,0
				c0.445-0.017,0.447-0.017,0.461-0.439c0.006-0.225,0.009-0.448-0.001-0.67c-0.018-0.447-0.272-0.674-0.751-0.683
				c-0.448-0.007-0.774,0.247-0.814,0.645c-0.012,0.1-0.004,0.203-0.004,0.303C48.415,22.713,48.344,22.624,49.278,22.627z"/>
			<path fill-rule="evenodd" clip-rule="evenodd" fill="#2B2A2A" d="M62.753,21.838c-0.002-0.769-0.301-1.094-0.92-0.994
				c-0.416,0.066-0.646,0.311-0.647,0.741c-0.003,1.215-0.11,1.025,0.968,1.042C62.902,22.638,62.739,22.557,62.753,21.838z"/>
			<path fill-rule="evenodd" clip-rule="evenodd" fill="#2B2A2A" d="M47.189,22.63c0.92-0.005,0.796,0.076,0.802-0.822
				c0.005-0.699-0.213-0.964-0.778-0.974c-0.506-0.01-0.785,0.257-0.802,0.768c-0.003,0.081-0.001,0.163-0.001,0.243
				C46.417,22.694,46.308,22.627,47.189,22.63z"/>
			<path fill-rule="evenodd" clip-rule="evenodd" fill="#2B2A2A" d="M25.232,22.63c0.911-0.005,0.756,0.074,0.804-0.84
				c0.034-0.652-0.208-0.812-0.723-0.939c-0.463-0.112-0.839,0.208-0.869,0.688c-0.006,0.101-0.001,0.203-0.001,0.306
				C24.451,22.703,24.345,22.626,25.232,22.63z"/>
			<path fill-rule="evenodd" clip-rule="evenodd" fill="#2B2A2A" d="M53.499,22.63c0.88-0.002,0.754,0.05,0.76-0.814
				c0.005-0.607-0.144-0.826-0.625-0.952c-0.517-0.136-0.932,0.172-0.956,0.709c-0.003,0.081-0.001,0.163,0,0.245
				C52.688,22.707,52.555,22.625,53.499,22.63z"/>
			<path fill-rule="evenodd" clip-rule="evenodd" fill="#2B2A2A" d="M57.983,22.627c0.102,0,0.203,0.003,0.304,0
				c0.434-0.017,0.451-0.033,0.471-0.442c0.007-0.142,0.003-0.284,0-0.427c-0.008-0.524-0.161-0.729-0.653-0.875
				c-0.568-0.17-0.899,0.069-0.914,0.665c-0.006,0.203-0.006,0.406,0,0.609c0.011,0.456,0.014,0.456,0.489,0.47
				C57.78,22.629,57.881,22.627,57.983,22.627z"/>
			<path fill-rule="evenodd" clip-rule="evenodd" fill="#2B2A2A" d="M77.425,22.63c0.911-0.004,0.787,0.068,0.794-0.839
				c0.003-0.667-0.342-0.967-0.98-0.872c-0.438,0.065-0.583,0.229-0.6,0.685c-0.004,0.082-0.002,0.164-0.002,0.245
				C76.645,22.71,76.547,22.626,77.425,22.63z"/>
			<path fill-rule="evenodd" clip-rule="evenodd" fill="#2B2A2A" d="M75.219,22.63c0.887-0.001,0.766,0.05,0.771-0.802
				c0.005-0.84-0.497-1.146-1.255-0.787c-0.233,0.111-0.351,0.264-0.327,0.521c0.007,0.081,0,0.162,0.001,0.245
				C74.42,22.708,74.285,22.625,75.219,22.63z"/>
			<path fill-rule="evenodd" clip-rule="evenodd" fill="#2B2A2A" d="M72.976,22.63c0.905-0.005,0.745,0.077,0.803-0.842
				c0.042-0.658-0.255-0.817-0.893-0.878c-0.46-0.043-0.692,0.218-0.703,0.694c-0.001,0.082-0.001,0.164,0,0.245
				C72.19,22.697,72.083,22.626,72.976,22.63z"/>
			<path fill-rule="evenodd" clip-rule="evenodd" fill="#2B2A2A" d="M68.711,22.63c0.082,0,0.163,0.002,0.244,0
				c0.525-0.009,0.525-0.011,0.533-0.549c0.002-0.123-0.004-0.245,0.002-0.366c0.017-0.3-0.003-0.562-0.352-0.688
				c-0.363-0.133-0.709-0.177-1.047,0.051c-0.127,0.085-0.186,0.21-0.186,0.363c0,0.122-0.004,0.245-0.003,0.367
				C67.917,22.707,67.782,22.625,68.711,22.63z"/>
			<path fill-rule="evenodd" clip-rule="evenodd" fill="#2B2A2A" d="M27.324,22.583c0.78-0.004,0.746,0.085,0.743-0.782
				c-0.004-0.76-0.446-1.062-1.159-0.8c-0.275,0.101-0.462,0.26-0.416,0.587c0.01,0.062,0.001,0.123,0.001,0.185
				C26.502,22.69,26.406,22.573,27.324,22.583z"/>
			<path fill-rule="evenodd" clip-rule="evenodd" fill="#2B2A2A" d="M70.698,22.583c0.082-0.001,0.164,0.001,0.246-0.001
				c0.529-0.01,0.529-0.01,0.539-0.553c0.001-0.083,0.001-0.164,0-0.245c-0.004-0.686-0.535-1.044-1.188-0.802
				c-0.211,0.077-0.347,0.209-0.338,0.452c0.006,0.145,0,0.287,0,0.431C69.959,22.645,69.904,22.579,70.698,22.583z"/>
			<path fill-rule="evenodd" clip-rule="evenodd" fill="#2B2A2A" d="M2.483,21.714c0.162-0.333,0.062-0.68,0.062-1.021
				c-0.684,0.125-1.372,0.053-2.06,0.04c-0.196,0.329-0.196,0.659,0,0.989C1.153,21.72,1.818,21.717,2.483,21.714z"/>
			<path fill-rule="evenodd" clip-rule="evenodd" fill="#2B2A2A" d="M6.748,20.711c0.134,0.23,0.361,0.146,0.552,0.147
				c0.919,0.009,1.838,0.003,2.758,0.006c0.143,0,0.286,0.002,0.427,0.02c0.118,0.014,0.166,0.105,0.168,0.217
				c0.003,0.113-0.044,0.207-0.16,0.225c-0.141,0.021-0.284,0.021-0.427,0.022c-0.919,0.001-1.838-0.005-2.758,0.004
				c-0.189,0.002-0.417-0.085-0.554,0.146c1.346-0.073,2.691-0.032,4.036-0.023c0.188-0.245,0.186-0.49,0.004-0.737
				C9.445,20.75,8.095,20.799,6.748,20.711z"/>
			<path fill-rule="evenodd" clip-rule="evenodd" fill="#2B2A2A" d="M11.283,20.761c0.112,0.116,0.259,0.102,0.401,0.102
				c1.058,0,2.114,0,3.173,0c0.122,0,0.246,0.006,0.344-0.087C13.895,20.77,12.588,20.765,11.283,20.761z"/>
			<path fill-rule="evenodd" clip-rule="evenodd" fill="#2B2A2A" d="M15.71,20.712c0.062,0.13,0.18,0.149,0.306,0.149
				c1.075,0,2.15,0,3.226,0c0.105,0,0.199-0.028,0.27-0.114C18.245,20.738,16.976,20.805,15.71,20.712z"/>
			<path fill-rule="evenodd" clip-rule="evenodd" fill="#2B2A2A" d="M2.94,20.713c0.062,0.129,0.18,0.148,0.305,0.148
				c0.927,0,1.854,0.001,2.781-0.007c0.075,0,0.147-0.052,0.222-0.081c-0.88-0.006-1.758-0.009-2.637-0.021
				C3.387,20.751,3.163,20.728,2.94,20.713z"/>
			<path fill-rule="evenodd" clip-rule="evenodd" fill="#2B2A2A" d="M55.623,23.617c0.202,0.009,0.405,0.028,0.608,0.027
				c5.962-0.011,11.924-0.023,17.885-0.038c0.222,0,0.451,0.049,0.66-0.07c-1.307-0.003-2.613-0.011-3.92-0.011
				c-4.841,0-9.681,0.001-14.521,0.008C56.097,23.533,55.843,23.457,55.623,23.617z"/>
			<path fill-rule="evenodd" clip-rule="evenodd" fill="#2B2A2A" d="M88.545,23.849c0.381,0.006,0.761,0.022,1.141,0.018
				c11.128-0.11,22.26-0.221,33.389-0.334c0.414-0.004,0.844,0.041,1.233-0.082c-2.44,0.018-4.881,0.032-7.319,0.054
				c-9.039,0.081-18.074,0.162-27.109,0.25C89.434,23.756,88.958,23.686,88.545,23.849z"/>
			<path fill-rule="evenodd" clip-rule="evenodd" fill="#2B2A2A" d="M2.715,23.617c0.203,0.009,0.406,0.028,0.609,0.027
				c5.961-0.011,44.43-0.023,50.393-0.038c0.222,0,0.451,0.049,0.66-0.07c-1.308-0.003-35.121-0.011-36.429-0.011
				c-4.84,0-9.68,0.001-14.52,0.008C3.191,23.533,2.937,23.457,2.715,23.617z"/>
			<path fill-rule="evenodd" clip-rule="evenodd" fill="#2B2A2A" d="M0.494,22.083c-0.168,0.417-0.146,0.48,0.224,0.492
				c0.507,0.015,1.015,0.015,1.521-0.001c0.319-0.011,0.327-0.046,0.233-0.48C1.812,22.089,1.153,22.086,0.494,22.083z"/>
			<path fill-rule="evenodd" clip-rule="evenodd" fill="#2B2A2A" d="M15.305,21.654c-0.033,0.007-0.062,0.021-0.089,0.044
				c0.005,0.058,0.002,0.158,0.055,0.146C15.37,21.82,15.307,21.722,15.305,21.654z"/>
			<path fill-rule="evenodd" clip-rule="evenodd" fill="#2B2A2A" d="M22.609,21.226c0.031,0.043,0.062,0.088,0.092,0.132
				C22.67,21.314,22.64,21.269,22.609,21.226z"/>
			<g>
				<path fill-rule="evenodd" clip-rule="evenodd" fill="#2B2A2A" d="M47.581,16.521c-0.084-0.33,0.083-0.69-0.122-1.004
					c-0.034-0.057-0.072-0.065-0.116-0.012c-0.168,0-0.335-0.001-0.502-0.001c-0.038-0.064-0.1-0.086-0.169-0.095
					c-0.035-0.113-0.071-0.227-0.106-0.338c-0.102-0.038-0.204-0.039-0.305,0.006c-0.09,0.402-0.037,0.811-0.041,1.216
					c-0.003,0.268-0.112,0.353-0.368,0.354c-0.273,0.002-0.354-0.121-0.346-0.371c0.008-0.244-0.008-0.488-0.012-0.732
					c-0.022-0.063-0.055-0.094-0.116-0.038c-0.126,0-0.252,0-0.379,0c-0.035-0.03-0.071-0.06-0.107-0.088
					c-0.004-0.082-0.008-0.165-0.012-0.246c0.318,0,0.637,0,0.956,0c0-0.041,0-0.082-0.001-0.122
					c-1.124,0.005-2.246-0.037-3.37,0.028c-0.116,0.44-0.025,0.892-0.063,1.337c-0.012,0.144-0.084,0.22-0.232,0.218
					c-0.149-0.002-0.224-0.081-0.228-0.225c-0.006-0.284-0.008-0.57-0.012-0.854c-0.018-0.067-0.047-0.103-0.112-0.045
					c-0.126-0.001-0.253-0.002-0.379-0.002c-0.039-0.03-0.079-0.06-0.119-0.09c-0.005-0.081-0.011-0.159-0.016-0.24
					c0.239,0,0.479,0,0.718,0c0-0.042,0-0.086,0-0.129c-1.568,0.01-3.137-0.029-4.705,0.022c-0.12,0.4-0.05,0.812-0.058,1.218
					c-0.004,0.261-0.104,0.371-0.363,0.357c-0.285-0.015-0.571-0.015-0.857-0.021c-0.038-0.034-0.076-0.068-0.114-0.102
					c-0.031-0.451-0.045-0.901,0.01-1.35c0.315,0,0.632,0,0.947,0c-0.309-0.171-0.632-0.103-0.947-0.127
					c-0.037-0.615-0.037-0.615,0.545-0.621c0.041,0,0.082,0,0.123,0c6.483,0,12.968,0,19.45,0c0.144,0,0.287,0.004,0.43,0.004
					c0.18-0.001,0.263,0.095,0.263,0.265c0.001,0.571,0.001,1.144-0.004,1.717c-0.001,0.141-0.079,0.224-0.231,0.222
					c-0.156-0.001-0.215-0.092-0.218-0.232c-0.005-0.224-0.012-0.45-0.003-0.674c0.009-0.262-0.05-0.449-0.366-0.425
					c-0.18,0.015-0.32-0.044-0.393-0.221c-0.638-0.042-1.273-0.079-1.909,0.022c-0.008,0.423-0.018,0.849-0.027,1.273
					c-0.004,0.168-0.069,0.269-0.255,0.257c-0.152-0.009-0.206-0.104-0.21-0.242c-0.009-0.281-0.014-0.565-0.021-0.848
					c-0.022-0.063-0.057-0.092-0.116-0.037c-0.168,0-0.335,0-0.503,0c-0.05-0.077-0.128-0.09-0.211-0.092
					c-0.011-0.095-0.021-0.19-0.034-0.286c-0.219-0.153-0.467-0.082-0.699-0.075c-0.576,0.017-1.156-0.071-1.729,0.048
					c-0.009,0.4-0.019,0.802-0.028,1.205c-0.003,0.167-0.006,0.335-0.243,0.326c-0.239-0.008-0.223-0.185-0.226-0.345
					c-0.004-0.142,0-0.282-0.002-0.422c-0.002-0.201,0.025-0.408-0.14-0.567c0.053-0.099,0.159-0.118,0.328-0.213
					c-0.893,0-1.701,0-2.639,0c0.44,0.138,0.771,0.057,1.092,0.087c-0.002,0.45-0.003,0.898-0.006,1.35
					C47.828,16.521,47.704,16.521,47.581,16.521z M53.221,15.146c-0.192-0.128-0.392-0.101-0.575,0
					C52.837,15.146,53.029,15.146,53.221,15.146z"/>
				<path fill-rule="evenodd" clip-rule="evenodd" fill="#2B2A2A" d="M61.089,17.275c0.176-0.271,0.105-0.557,0.116-0.834
					c0.009-0.241,0.003-0.45,0.345-0.438c0.304,0.011,0.307,0.2,0.307,0.415c-0.002,0.49,0,0.981,0,1.472
					c0,0.144-0.002,0.286,0.001,0.429c0.003,0.163-0.019,0.349,0.224,0.356c0.238,0.007,0.24-0.168,0.241-0.339
					c0-0.512-0.015-1.022,0.006-1.533c0.014-0.327-0.158-0.705,0.372-0.892c0.207-0.072,0.177-0.557,0.013-0.777
					c-0.172-0.231-0.15-0.451-0.153-0.687c-0.009-0.532-0.003-1.063-0.003-1.594c0-0.102,0.002-0.204-0.001-0.306
					c-0.004-0.181,0.03-0.398-0.254-0.386c-0.242,0.01-0.216,0.201-0.217,0.361c-0.002,0.451-0.001,0.9-0.001,1.35
					c0,0.246,0.006,0.49-0.001,0.736c-0.012,0.436-0.016,0.447-0.445,0.449c-0.96,0.007-1.921-0.005-2.882,0.007
					c-0.425,0.004-0.966-0.182-1.243,0.089c-0.304,0.296-0.093,0.851-0.106,1.293c-0.021,0.611-0.002,1.227-0.008,1.84
					c-0.001,0.224,0.016,0.401,0.313,0.406c0.306,0.004,0.395-0.149,0.382-0.419c-0.006-0.142,0.002-0.286,0.008-0.429
					c0.008-0.21,0.143-0.27,0.328-0.271c0.196-0.003,0.312,0.075,0.312,0.283c0.001,0.144,0.001,0.286,0.005,0.43
					c0.008,0.178-0.036,0.401,0.252,0.388c0.241-0.011,0.212-0.206,0.212-0.365c0.004-0.511,0.001-1.022,0.002-1.533
					c0-0.143,0.005-0.286,0-0.429c-0.006-0.221,0.077-0.341,0.317-0.343c0.235-0.002,0.338,0.092,0.33,0.324
					c-0.006,0.246,0.001,0.491,0.002,0.736c0.002,0.172,0.075,0.272,0.258,0.262c0.153-0.012,0.206-0.112,0.207-0.25
					c0.004-0.264,0.008-0.531,0.008-0.796c-0.002-0.216,0.124-0.275,0.314-0.275c0.188,0,0.31,0.048,0.323,0.268
					C60.992,16.607,60.917,16.952,61.089,17.275z"/>
				<path fill-rule="evenodd" clip-rule="evenodd" fill="#2B2A2A" d="M66.846,14.084c0.247-0.369,0.213-0.794,0.205-1.216
					c-0.004-0.306-0.117-0.491-0.453-0.54c-1.1-0.158-2.197-0.149-3.296-0.002c-0.219,0.029-0.332,0.119-0.326,0.352
					c0.007,0.306,0.008,0.613-0.002,0.919c-0.008,0.263,0.106,0.36,0.366,0.356c0.654-0.011,1.309-0.005,1.964-0.003
					c0.501,0.001,0.511,0.001,0.591,0.487c0.043,0.258,0.181,0.375,0.423,0.455c1.085,0.359,2.18,0.239,3.276,0.092
					c0.141-0.019,0.28-0.051,0.422-0.073c0.181-0.027,0.297,0.03,0.381,0.217c0.25,0.556,0.561,0.671,1.164,0.438
					c0.301-0.115,0.59-0.263,0.883-0.396c-0.038-0.188-0.188-0.128-0.293-0.129c-0.307-0.004-0.615-0.007-0.92,0.018
					c-0.306,0.024-0.529-0.044-0.732-0.308c-0.334-0.437-0.851-0.539-1.365-0.561c-0.572-0.024-1.145,0-1.718-0.009
					C67.24,14.18,67.05,14.236,66.846,14.084z"/>
				<path fill-rule="evenodd" clip-rule="evenodd" fill="#2B2A2A" d="M46.555,13.479c-3.456,0-6.911,0-10.367,0
					c-0.184,0-0.368,0.001-0.552,0.014c-0.152,0.01-0.2,0.118-0.194,0.255c0.004,0.122,0.072,0.188,0.189,0.193
					c0.144,0.008,0.286,0.011,0.429,0.011c6.993,0.001,13.987,0.001,20.98,0c0.142,0,0.285-0.001,0.428-0.016
					c0.123-0.011,0.163-0.1,0.164-0.214c0.003-0.116-0.044-0.209-0.16-0.223c-0.182-0.02-0.366-0.021-0.55-0.021
					C53.466,13.479,50.011,13.479,46.555,13.479z"/>
				<path fill-rule="evenodd" clip-rule="evenodd" fill="#2B2A2A" d="M41.303,15.175c0.239,0,0.479,0,0.718,0
					c0-0.042,0-0.086,0-0.129c-1.568,0.01-3.137-0.029-4.705,0.022c0.226,0.045,0.358,0.153,0.343,0.412
					c-0.016,0.285,0.001,0.57-0.001,0.856c-0.001,0.194,0.075,0.312,0.285,0.309c0.021-0.002,0.04,0.001,0.061,0.001
					c0.987,0.011,0.819,0.022,0.832-0.744c0.001-0.102-0.003-0.203,0-0.305c0.018-0.517,0.036-0.529,0.479-0.282
					c0.131,0.073,0.267,0.095,0.411,0.084c0.075-0.341,0.342-0.231,0.542-0.207c0.219,0.027,0.188,0.231,0.191,0.39
					c0.004,0.224-0.001,0.448-0.002,0.673c-0.001,0.175-0.104,0.252-0.265,0.271c0.223,0.173,0.404,0.191,0.438-0.15
					c0.021-0.219,0.004-0.441,0.008-0.663C40.647,15.096,40.674,15.075,41.303,15.175z"/>
				<path fill-rule="evenodd" clip-rule="evenodd" fill="#2B2A2A" d="M35.901,17.911c0.009,0.829-0.113,0.779,0.793,0.778
					c0.555,0,0.555-0.007,0.561-0.583c0-0.021,0.001-0.04,0-0.061c-0.024-1.041,0.19-0.912-0.946-0.936
					c-0.33-0.007-0.436,0.132-0.409,0.433C35.911,17.665,35.901,17.789,35.901,17.911z"/>
				<path fill-rule="evenodd" clip-rule="evenodd" fill="#2B2A2A" d="M37.657,17.875c0,0.06-0.001,0.121,0,0.182
					c0.002,0.647,0.002,0.647,0.624,0.643c0.545-0.005,0.545-0.005,0.554-0.529c0.002-0.122,0.001-0.242,0.001-0.364
					c-0.002-0.715-0.266-0.91-0.971-0.733c-0.182,0.044-0.209,0.162-0.208,0.314C37.659,17.549,37.658,17.71,37.657,17.875
					C37.657,17.875,37.657,17.875,37.657,17.875z"/>
				<path fill-rule="evenodd" clip-rule="evenodd" fill="#2B2A2A" d="M43.075,17.214c0.144,0.223,0.37,0.114,0.559,0.132
					c0.203,0.021,0.292,0.11,0.291,0.31c-0.003,0.246,0.002,0.491,0.004,0.736c0.001,0.155,0.033,0.287,0.227,0.296
					c0.175,0.009,0.276-0.079,0.28-0.248c0.009-0.367,0.006-0.736,0.003-1.104c-0.001-0.104-0.038-0.195-0.148-0.243
					C44.105,17.012,43.324,17.084,43.075,17.214z"/>
				<path fill-rule="evenodd" clip-rule="evenodd" fill="#2B2A2A" d="M39.269,17.195c0.079,0.217,0.267,0.137,0.415,0.151
					c0.418,0.043,0.42,0.04,0.433,0.476c0.007,0.205,0.002,0.408,0.005,0.613c0.002,0.139,0.057,0.236,0.206,0.25
					c0.168,0.018,0.292-0.051,0.297-0.228c0.011-0.387,0.007-0.775,0.001-1.163c-0.002-0.11-0.073-0.181-0.183-0.215
					C40.251,17.02,39.523,17.088,39.269,17.195z"/>
				<path fill-rule="evenodd" clip-rule="evenodd" fill="#2B2A2A" d="M53.598,17.723c-0.011-0.709,0.127-0.659-0.801-0.654
					c-0.171,0.001-0.479-0.078-0.483,0.106c-0.01,0.301,0.305,0.15,0.478,0.168c0.227,0.02,0.336,0.098,0.327,0.334
					c-0.01,0.246,0,0.491,0.001,0.735c0.002,0.166,0.062,0.279,0.25,0.271c0.19-0.006,0.229-0.134,0.229-0.292
					C53.598,18.208,53.598,18.024,53.598,17.723z"/>
				<path fill-rule="evenodd" clip-rule="evenodd" fill="#2B2A2A" d="M49.791,17.732c-0.011-0.718,0.128-0.668-0.801-0.663
					c-0.172,0.001-0.479-0.079-0.484,0.106c-0.009,0.303,0.308,0.15,0.479,0.168c0.228,0.02,0.335,0.1,0.325,0.335
					c-0.01,0.246,0.002,0.491,0.002,0.736c0.001,0.166,0.062,0.277,0.25,0.271c0.191-0.007,0.229-0.136,0.229-0.295
					C49.79,18.208,49.791,18.024,49.791,17.732z"/>
				<path fill-rule="evenodd" clip-rule="evenodd" fill="#2B2A2A" d="M44.87,17.171c0.159,0.265,0.386,0.158,0.573,0.175
					c0.198,0.017,0.297,0.097,0.295,0.299c-0.003,0.266,0.001,0.531,0.006,0.795c0.002,0.138,0.058,0.235,0.211,0.245
					c0.181,0.012,0.261-0.081,0.264-0.254c0.001-0.162,0.019-0.329-0.002-0.489c-0.033-0.271,0.155-0.66-0.12-0.793
					C45.729,16.97,45.289,17.001,44.87,17.171z"/>
				<path fill-rule="evenodd" clip-rule="evenodd" fill="#2B2A2A" d="M54.046,17.19c0.021,0.055,0.024,0.088,0.036,0.092
					c0.608,0.174,0.601,0.174,0.625,0.869c0.006,0.195-0.13,0.513,0.225,0.524c0.361,0.011,0.226-0.307,0.248-0.503
					c0.016-0.141,0.016-0.284,0-0.425c-0.024-0.212,0.117-0.518-0.122-0.61C54.739,17.012,54.372,16.971,54.046,17.19z"/>
				<path fill-rule="evenodd" clip-rule="evenodd" fill="#2B2A2A" d="M41.259,17.244c0.664,0.188,0.653,0.189,0.68,0.879
					c0.008,0.205-0.149,0.565,0.255,0.551c0.344-0.013,0.188-0.338,0.216-0.533c0.02-0.14,0.004-0.284,0.003-0.426
					c-0.003-0.649-0.022-0.669-0.69-0.648C41.569,17.072,41.391,17.02,41.259,17.244z"/>
				<path fill-rule="evenodd" clip-rule="evenodd" fill="#2B2A2A" d="M46.704,17.16c0.027,0.131,0.082,0.153,0.142,0.162
					c0.663,0.096,0.655,0.096,0.68,0.798c0.007,0.197-0.118,0.522,0.216,0.537c0.364,0.015,0.226-0.323,0.224-0.509
					c-0.018-1.207,0.224-1.011-1.073-1.028C46.834,17.12,46.776,17.144,46.704,17.16z"/>
				<path fill-rule="evenodd" clip-rule="evenodd" fill="#2B2A2A" d="M55.621,17.19c0.073,0.16,0.183,0.142,0.28,0.149
					c0.571,0.044,0.565,0.044,0.581,0.638c0.005,0.213-0.072,0.445,0.086,0.644c0.188,0.003,0.171-0.138,0.178-0.249
					c0.009-0.14,0.004-0.282,0.004-0.425C56.75,16.99,56.61,16.891,55.621,17.19z"/>
				<path fill-rule="evenodd" clip-rule="evenodd" fill="#2B2A2A" d="M50.279,17.23c0.258,0.165,0.502,0.102,0.727,0.104
					c0.258,0.003,0.371,0.105,0.363,0.362c-0.008,0.245,0,0.489,0.004,0.732c0.002,0.136,0.054,0.245,0.21,0.238
					c0.155-0.006,0.189-0.124,0.193-0.256c0.001-0.061,0.009-0.122,0.001-0.183c-0.041-0.354,0.114-0.735-0.103-1.063
					C51.599,17.055,50.708,17.111,50.279,17.23z"/>
				<path fill-rule="evenodd" clip-rule="evenodd" fill="#2B2A2A" d="M43.9,15.525c0.097,0.329-0.049,0.681,0.102,1.004
					c0.276,0.027,0.229-0.274,0.379-0.374c0-0.207,0-0.414-0.001-0.622c-0.128-0.277-0.32-0.419-0.65-0.371
					c-0.214,0.032-0.438,0.004-0.657,0.001c0.004,0.083,0.009,0.165,0.013,0.247c0.077,0.004,0.149,0.021,0.193,0.094
					c0.168,0,0.336,0,0.503,0C43.833,15.449,43.87,15.468,43.9,15.525z"/>
				<path fill-rule="evenodd" clip-rule="evenodd" fill="#2B2A2A" d="M54.723,15.384c-0.005,0.286-0.016,0.571-0.014,0.858
					c0.001,0.176-0.041,0.399,0.251,0.386c0.243-0.012,0.217-0.204,0.215-0.362c-0.004-0.367-0.017-0.735-0.025-1.103
					C54.97,15.165,54.804,15.192,54.723,15.384z"/>
				<path fill-rule="evenodd" clip-rule="evenodd" fill="#2B2A2A" d="M51.758,16.521c0.002-0.451,0.004-0.899,0.007-1.35
					c-0.5,0.001-1,0.002-1.501,0.003c0.006,0.081,0.012,0.161,0.018,0.24c0.041,0.03,0.081,0.06,0.121,0.09
					c0.331,0.038,0.66,0.038,0.991,0c0.051-0.055,0.089-0.038,0.12,0.02c0.153,0.32,0.033,0.67,0.107,0.999
					C51.667,16.521,51.711,16.521,51.758,16.521z"/>
				<path fill-rule="evenodd" clip-rule="evenodd" fill="#2B2A2A" d="M40.193,16.527c0.16-0.02,0.264-0.097,0.265-0.271
					c0.001-0.226,0.006-0.449,0.002-0.673c-0.003-0.159,0.027-0.363-0.191-0.39c-0.2-0.024-0.467-0.134-0.542,0.207l0.023,0.006
					c0.121,0.008,0.249-0.008,0.342,0.098C40.189,15.837,40.042,16.198,40.193,16.527z"/>
				<path fill-rule="evenodd" clip-rule="evenodd" fill="#2B2A2A" d="M43.072,15.164c0.22,0.003,0.443,0.031,0.657-0.001
					c0.33-0.048,0.522,0.094,0.65,0.371c0.091-0.224,0.117-0.538,0.5-0.363c0.318,0,0.637,0,0.956,0c0-0.041,0-0.082-0.001-0.122
					c-1.124,0.005-2.246-0.037-3.37,0.028C42.663,15.142,42.879,15.063,43.072,15.164z"/>
				<path fill-rule="evenodd" clip-rule="evenodd" fill="#2B2A2A" d="M49.175,15.297c0.053-0.099,0.159-0.118,0.328-0.213
					c-0.893,0-1.701,0-2.639,0c0.44,0.138,0.771,0.057,1.092,0.087c0.236-0.143,0.418,0.012,0.612,0.108
					c0.041-0.066,0.08-0.061,0.116,0.003C48.848,15.288,49.012,15.292,49.175,15.297z"/>
				<path fill-rule="evenodd" clip-rule="evenodd" fill="#2B2A2A" d="M54.723,15.384c0.081-0.192,0.247-0.219,0.427-0.221
					c0.127-0.027,0.253-0.056,0.379-0.085c-0.638-0.042-1.273-0.079-1.909,0.022c0.151,0.023,0.303,0.048,0.454,0.073
					c0.045,0.037,0.091,0.073,0.138,0.109C54.38,15.325,54.566,15.278,54.723,15.384z"/>
				<path fill-rule="evenodd" clip-rule="evenodd" fill="#2B2A2A" d="M50.264,15.175c0.501-0.001,1.001-0.002,1.501-0.003
					c0.154-0.069,0.314-0.067,0.478-0.043c-0.219-0.155-0.467-0.083-0.699-0.076c-0.576,0.017-1.156-0.071-1.729,0.048
					C49.964,15.124,50.115,15.149,50.264,15.175z"/>
				<path fill-rule="evenodd" clip-rule="evenodd" fill="#2B2A2A" d="M44.38,16.156c-0.15,0.1-0.103,0.401-0.379,0.374
					c0.097,0.153,0.257,0.157,0.362,0.066C44.499,16.481,44.462,16.306,44.38,16.156z"/>
				<path fill-rule="evenodd" clip-rule="evenodd" fill="#2B2A2A" d="M35.933,15.171c0.315,0,0.632,0,0.947,0
					c-0.309-0.171-0.632-0.103-0.947-0.127C35.933,15.087,35.933,15.128,35.933,15.171z"/>
				<path fill-rule="evenodd" clip-rule="evenodd" fill="#2B2A2A" d="M46.565,15.07c-0.102-0.038-0.204-0.039-0.305,0.006
					C46.364,15.109,46.465,15.111,46.565,15.07z"/>
				<path fill-rule="evenodd" clip-rule="evenodd" fill="#2B2A2A" d="M47.951,16.521c-0.123,0-0.247,0-0.37,0
					C47.704,16.71,47.828,16.713,47.951,16.521z"/>
				<path fill-rule="evenodd" clip-rule="evenodd" fill="#2B2A2A" d="M40.091,15.502c-0.093-0.106-0.221-0.089-0.342-0.098
					C39.849,15.489,39.964,15.517,40.091,15.502z"/>
				<path fill-rule="evenodd" clip-rule="evenodd" fill="#2B2A2A" d="M52.488,15.504c-0.05-0.077-0.128-0.09-0.211-0.092
					C52.304,15.541,52.395,15.525,52.488,15.504z"/>
				<path fill-rule="evenodd" clip-rule="evenodd" fill="#2B2A2A" d="M43.278,15.504c-0.044-0.073-0.116-0.09-0.193-0.094
					C43.102,15.539,43.189,15.522,43.278,15.504z"/>
				<path fill-rule="evenodd" clip-rule="evenodd" fill="#2B2A2A" d="M46.84,15.503c-0.038-0.064-0.1-0.086-0.169-0.095
					C46.673,15.536,46.756,15.521,46.84,15.503z"/>
				<path fill-rule="evenodd" clip-rule="evenodd" fill="#2B2A2A" d="M36.038,16.623c-0.038-0.034-0.076-0.068-0.114-0.102
					C35.924,16.596,35.963,16.629,36.038,16.623z"/>
				<path fill-rule="evenodd" clip-rule="evenodd" fill="#2B2A2A" d="M53.107,15.541c-0.022-0.063-0.057-0.092-0.116-0.037
					C53.028,15.522,53.065,15.536,53.107,15.541z"/>
				<path fill-rule="evenodd" clip-rule="evenodd" fill="#2B2A2A" d="M51.514,15.524c-0.031-0.057-0.069-0.074-0.12-0.02
					C51.432,15.524,51.472,15.53,51.514,15.524z"/>
				<path fill-rule="evenodd" clip-rule="evenodd" fill="#2B2A2A" d="M50.403,15.504c-0.04-0.03-0.08-0.06-0.121-0.09
					C50.289,15.491,50.329,15.521,50.403,15.504z"/>
				<path fill-rule="evenodd" clip-rule="evenodd" fill="#2B2A2A" d="M47.458,15.517c-0.034-0.057-0.072-0.065-0.116-0.012
					l0.057,0.017L47.458,15.517z"/>
				<path fill-rule="evenodd" clip-rule="evenodd" fill="#2B2A2A" d="M45.494,15.542c-0.022-0.063-0.055-0.094-0.116-0.038
					C45.414,15.522,45.452,15.536,45.494,15.542z"/>
				<path fill-rule="evenodd" clip-rule="evenodd" fill="#2B2A2A" d="M48.685,15.283c-0.036-0.064-0.075-0.069-0.116-0.003
					l0.058,0.012L48.685,15.283z"/>
				<path fill-rule="evenodd" clip-rule="evenodd" fill="#2B2A2A" d="M44.999,15.504c-0.035-0.03-0.071-0.06-0.107-0.088
					C44.892,15.489,44.926,15.521,44.999,15.504z"/>
				<path fill-rule="evenodd" clip-rule="evenodd" fill="#2B2A2A" d="M54.211,15.283c-0.047-0.036-0.093-0.073-0.138-0.109
					C54.084,15.254,54.134,15.286,54.211,15.283z"/>
				<path fill-rule="evenodd" clip-rule="evenodd" fill="#2B2A2A" d="M43.9,15.525c-0.03-0.057-0.067-0.077-0.119-0.021
					C43.819,15.524,43.858,15.531,43.9,15.525z"/>
				<path fill-rule="evenodd" clip-rule="evenodd" fill="#2B2A2A" d="M41.929,15.552c-0.018-0.067-0.047-0.103-0.112-0.045
					C41.851,15.528,41.889,15.543,41.929,15.552z"/>
				<path fill-rule="evenodd" clip-rule="evenodd" fill="#2B2A2A" d="M41.438,15.504c-0.039-0.03-0.079-0.06-0.119-0.09
					C41.325,15.491,41.365,15.521,41.438,15.504z"/>
				<path fill-rule="evenodd" clip-rule="evenodd" fill="#2B2A2A" d="M51.758,16.521c-0.047,0-0.092,0-0.137,0.002
					c0.007,0.054,0.031,0.096,0.091,0.076C51.734,16.592,51.743,16.546,51.758,16.521z"/>
				<path fill-rule="evenodd" clip-rule="evenodd" fill="#2B2A2A" d="M52.646,15.146c0.191,0,0.383,0,0.575,0
					C53.029,15.018,52.83,15.044,52.646,15.146z"/>
			</g>
			<g>
				<path fill-rule="evenodd" clip-rule="evenodd" fill="#2B2A2A" d="M124.53,19.568c0.004-0.08,0.007-0.161,0.011-0.24
					c-0.03-0.032-0.061-0.062-0.091-0.092c-0.246-0.009-0.49-0.025-0.735-0.025c-35.052-0.001-0.183-0.001-35.235-0.001
					c-0.102,0-0.205,0-0.308,0c-0.534,0.009-0.534,0.009-0.489,0.606c0.279,0.047,0.589-0.114,0.838,0.128
					c0.008,0.121,0.016,0.241,0.025,0.363c0.266-0.001,0.531-0.004,0.797-0.004c34.438,0-1.047,0,33.39,0
					c0.144,0,0.287,0.009,0.431-0.002c0.321-0.024,0.437,0.123,0.427,0.437c-0.013,0.47-0.001,0.939-0.003,1.411
					c0,0.172,0.006,0.336,0.227,0.367c0.107-0.315,0.047-0.643,0.055-0.966c0.016-0.628-0.033-1.259,0.088-1.881
					C124.125,19.506,124.338,19.594,124.53,19.568z"/>
				<path fill-rule="evenodd" clip-rule="evenodd" fill="#2B2A2A" d="M88.762,20.87c0.016-0.48,0.016-0.481,0.475-0.498
					c0.164-0.006,0.327-0.001,0.492-0.001c34.195,0-1.528-0.001,32.668,0c1.119,0,1.002-0.108,1.009,1.031
					c0.001,0.307-0.015,0.613,0.009,0.919c0.02,0.255,0.139,0.393,0.398,0.195c-0.221-0.031-0.227-0.195-0.227-0.367
					c0.002-0.472-0.01-0.941,0.003-1.411c0.01-0.313-0.105-0.461-0.427-0.437c-0.144,0.011-0.287,0.002-0.431,0.002
					c-34.437,0,1.048,0-33.39,0c-0.266,0-0.531,0.003-0.797,0.004"/>
				<path fill-rule="evenodd" clip-rule="evenodd" fill="#2B2A2A" d="M97.161,3.804c0.494-0.08,0.987-0.161,1.48-0.241
					c-0.424-0.256-0.963-0.081-1.418-0.359c0.424-0.264,0.898-0.15,1.367-0.32c-0.287-0.213-0.641-0.037-0.881-0.282
					c0.293-0.236,0.68-0.183,1.016-0.418c-0.387-0.072-0.717-0.132-1.045-0.193c-0.013-0.027-0.023-0.052-0.035-0.078
					c0.297-0.102,0.594-0.205,0.969-0.332c-0.495-0.145-0.955,0.064-1.481-0.238c0.599-0.092,1.063-0.165,1.577-0.246
					c-0.233-0.262-0.621-0.14-0.848-0.45c0.938,0,1.83,0.001,2.724-0.001c0.193,0,0.31,0.068,0.308,0.282
					c-0.001,0.921-0.002,1.841,0.002,2.761c0.002,0.207-0.085,0.311-0.291,0.29c-0.36-0.039-0.399,0.186-0.394,0.458
					c0.003,0.102,0,0.204,0,0.306c0,4.441,0,8.88,0,13.32c0,0.755,0.089,0.823,0.861,0.735c0.2-0.023,0.301-0.099,0.293-0.304
					c-0.003-0.122,0.001-0.245,0.001-0.367c0-5.75,0-11.5,0-17.25c0-0.102-0.007-0.206,0.002-0.306
					c0.023-0.279-0.076-0.408-0.377-0.405c-1.248,0.011-2.498,0.01-3.746,0c-0.289-0.002-0.419,0.098-0.393,0.392
					c0.012,0.122,0.002,0.246,0.002,0.369c0,5.708-0.002,11.416,0.001,17.125c0,0.766-0.097,0.746,0.712,0.744
					c0.451-0.002,0.9-0.011,1.352,0.003c0.302,0.01,0.469-0.092,0.444-0.419c-0.009-0.122,0-0.246,0-0.368c0-4.419,0-8.839,0-13.259
					c0-0.123-0.011-0.246,0.001-0.367c0.032-0.332-0.127-0.42-0.438-0.41c-0.586,0.02-1.172,0.007-1.76,0.007
					C97.165,3.923,97.163,3.864,97.161,3.804z"/>
				<path fill-rule="evenodd" clip-rule="evenodd" fill="#2B2A2A" d="M104.514,17.41c-0.012-0.339,0.031-0.767-0.057-1.19
					c-0.119-0.586-0.548-0.981-1.125-1.035c-0.395-0.038-0.623,0.164-0.605,0.564c0.01,0.222,0.082,0.438,0.102,0.66
					c0.026,0.286,0.061,0.521,0.449,0.487c0.219-0.019,0.314,0.143,0.312,0.36c-0.003,0.386-0.009,0.772,0.004,1.16
					c0.011,0.356,0.052,0.374,0.454,0.383c0.277,0.005,0.483-0.039,0.469-0.389C104.502,18.107,104.514,17.801,104.514,17.41z"/>
				<path fill-rule="evenodd" clip-rule="evenodd" fill="#2B2A2A" d="M109.271,15.933c0.023,0.127,0.073,0.348,0.103,0.568
					c0.035,0.248,0.014,0.467,0.418,0.405c0.331-0.052,0.545,0.225,0.563,0.581c0.016,0.305-0.004,0.612,0.007,0.919
					c0.012,0.358,0.057,0.384,0.454,0.389c0.254,0.005,0.436-0.03,0.427-0.357c-0.018-0.634,0.018-1.271-0.018-1.902
					c-0.036-0.67-0.501-1.208-1.084-1.333C109.633,15.094,109.251,15.372,109.271,15.933z"/>
				<path fill-rule="evenodd" clip-rule="evenodd" fill="#2B2A2A" d="M116.518,17.41c-0.012-0.339,0.031-0.767-0.057-1.19
					c-0.12-0.586-0.547-0.981-1.125-1.035c-0.393-0.038-0.622,0.164-0.604,0.564c0.009,0.222,0.083,0.438,0.102,0.66
					c0.025,0.286,0.06,0.521,0.447,0.487c0.22-0.019,0.315,0.143,0.313,0.36c-0.004,0.386-0.008,0.772,0.003,1.16
					c0.011,0.356,0.051,0.374,0.454,0.383c0.278,0.005,0.484-0.039,0.469-0.389C116.506,18.107,116.518,17.801,116.518,17.41z"/>
				<path fill-rule="evenodd" clip-rule="evenodd" fill="#2B2A2A" d="M98.628,22.603c0.981-0.009,0.862,0.104,0.867-0.823
					c0.003-0.664-0.354-0.965-1.04-0.889c-0.605,0.067-0.778,0.247-0.773,0.847c0.008,0.972-0.131,0.856,0.885,0.865
					C98.588,22.603,98.609,22.603,98.628,22.603z"/>
				<path fill-rule="evenodd" clip-rule="evenodd" fill="#2B2A2A" d="M100.81,22.603c1.042-0.014,0.904,0.136,0.911-0.901
					c0.005-0.548-0.104-0.665-0.629-0.786c-0.291-0.065-0.562-0.02-0.833,0.092c-0.229,0.096-0.377,0.236-0.354,0.503
					c0.006,0.061-0.001,0.123,0,0.184C99.92,22.736,99.775,22.59,100.81,22.603z"/>
				<path fill-rule="evenodd" clip-rule="evenodd" fill="#2B2A2A" d="M107.347,22.603c1.013-0.01,0.869,0.109,0.878-0.872
					c0.004-0.541-0.068-0.645-0.486-0.777c-0.439-0.138-1.068-0.016-1.258,0.241c-0.066,0.089-0.07,0.187-0.07,0.288
					c-0.003,0.244,0.011,0.49-0.006,0.732c-0.02,0.293,0.106,0.409,0.393,0.39C106.979,22.593,107.163,22.603,107.347,22.603z"/>
				<path fill-rule="evenodd" clip-rule="evenodd" fill="#2B2A2A" d="M105.182,22.603c0.912-0.007,0.809,0.091,0.812-0.812
					c0.002-0.826-0.603-1.163-1.332-0.757c-0.179,0.1-0.275,0.23-0.28,0.432c-0.002,0.102-0.005,0.203-0.005,0.305
					C104.377,22.709,104.333,22.596,105.182,22.603z"/>
				<path fill-rule="evenodd" clip-rule="evenodd" fill="#2B2A2A" d="M108.638,21.847c0.003,0.802-0.069,0.763,0.716,0.754
					c0.979-0.009,0.888,0.155,0.906-0.913c0.006-0.342-0.084-0.591-0.424-0.717c-0.365-0.134-0.724-0.149-1.037,0.102
					C108.539,21.284,108.668,21.603,108.638,21.847z"/>
				<path fill-rule="evenodd" clip-rule="evenodd" fill="#2B2A2A" d="M116.1,22.603c0.97-0.008,0.846,0.1,0.851-0.848
					c0.001-0.254,0.08-0.541-0.237-0.699c-0.324-0.162-0.655-0.234-1.004-0.099c-0.177,0.071-0.312,0.192-0.348,0.396
					c-0.014,0.08-0.036,0.161-0.049,0.241C115.116,22.802,115.062,22.579,116.1,22.603z"/>
				<path fill-rule="evenodd" clip-rule="evenodd" fill="#2B2A2A" d="M103.106,22.555c0.951-0.013,0.835,0.111,0.841-0.856
					c0.003-0.575-0.169-0.758-0.76-0.78c-0.665-0.027-1.147,0.123-1.045,0.955c0.013,0.1,0.009,0.203,0.001,0.305
					c-0.02,0.3,0.136,0.396,0.411,0.379C102.737,22.546,102.922,22.555,103.106,22.555z"/>
				<path fill-rule="evenodd" clip-rule="evenodd" fill="#2B2A2A" d="M119.982,22.603c0.081,0,0.163,0.002,0.245,0
					c0.525-0.009,0.527-0.009,0.533-0.551c0.002-0.162,0.004-0.325,0-0.488c-0.012-0.467-0.256-0.697-0.721-0.688
					c-0.612,0.014-0.865,0.271-0.86,0.896C119.185,22.682,119.06,22.597,119.982,22.603z"/>
				<path fill-rule="evenodd" clip-rule="evenodd" fill="#2B2A2A" d="M113.975,22.603c0.874-0.004,0.746,0.053,0.752-0.819
					c0.005-0.637-0.297-0.931-0.914-0.908c-0.439,0.016-0.654,0.232-0.668,0.678c-0.003,0.082-0.002,0.164,0,0.245
					C113.156,22.675,113.027,22.597,113.975,22.603z"/>
				<path fill-rule="evenodd" clip-rule="evenodd" fill="#2B2A2A" d="M118.051,22.557c0.999-0.019,0.887,0.151,0.891-0.934
					c0.002-0.46-0.135-0.619-0.588-0.69c-0.18-0.029-0.371-0.03-0.549-0.004c-0.477,0.068-0.619,0.235-0.617,0.73
					C117.193,22.689,117.081,22.541,118.051,22.557z"/>
				<path fill-rule="evenodd" clip-rule="evenodd" fill="#2B2A2A" d="M122.008,22.557c0.812-0.006,0.74,0.057,0.746-0.766
					c0-0.019,0-0.039,0-0.061c-0.004-0.751-0.518-1.064-1.205-0.733c-0.195,0.096-0.332,0.229-0.32,0.467
					c0.004,0.101-0.002,0.202,0,0.304C121.235,22.639,121.152,22.549,122.008,22.557z"/>
				<path fill-rule="evenodd" clip-rule="evenodd" fill="#2B2A2A" d="M111.676,22.557c0.826-0.006,0.766,0.066,0.77-0.756
					c0-0.021,0.001-0.041,0-0.062c-0.021-0.272,0.092-0.599-0.262-0.748c-0.363-0.154-0.719-0.107-1.059,0.083
					c-0.137,0.075-0.205,0.193-0.204,0.351c0.001,0.123-0.002,0.246-0.001,0.368C110.925,22.625,110.851,22.549,111.676,22.557z"/>
				<path fill-rule="evenodd" clip-rule="evenodd" fill="#2B2A2A" d="M96.474,22.549c0.815,0.002,0.737,0.066,0.738-0.776
					c0.003-0.693-0.51-1.054-1.169-0.821c-0.156,0.053-0.326,0.131-0.333,0.319c-0.017,0.365-0.009,0.734,0,1.101
					c0.003,0.122,0.103,0.171,0.212,0.175C96.107,22.553,96.291,22.549,96.474,22.549z"/>
				<path fill-rule="evenodd" clip-rule="evenodd" fill="#2B2A2A" d="M124.53,19.568c-0.191,0.026-0.405-0.062-0.574,0.102
					C124.15,19.648,124.371,19.784,124.53,19.568z"/>
				<path fill-rule="evenodd" clip-rule="evenodd" fill="#2B2A2A" d="M124.45,19.236c0.03,0.03,0.061,0.06,0.091,0.092
					C124.553,19.252,124.518,19.226,124.45,19.236z"/>
			</g>
		</g>
	</g>
</g>
</svg>
